<svg xmlns="http://www.w3.org/2000/svg" xmlns:xlink="http://www.w3.org/1999/xlink" width="100" zoomAndPan="magnify" viewBox="0 0 75 74.999997" height="100" preserveAspectRatio="xMidYMid meet" version="1.0"><defs><g/><clipPath id="ab26a01578"><path d="M 4.1875 5.789062 L 71.570312 5.789062 L 71.570312 66.207031 L 4.1875 66.207031 Z M 4.1875 5.789062 " clip-rule="nonzero"/></clipPath><clipPath id="35d3c71a95"><path d="M 10.9375 5.789062 L 64.75 5.789062 C 66.539062 5.789062 68.257812 6.5 69.523438 7.765625 C 70.789062 9.03125 71.5 10.746094 71.5 12.539062 L 71.5 59.457031 C 71.5 61.246094 70.789062 62.960938 69.523438 64.226562 C 68.257812 65.492188 66.539062 66.207031 64.75 66.207031 L 10.9375 66.207031 C 9.144531 66.207031 7.429688 65.492188 6.164062 64.226562 C 4.898438 62.960938 4.1875 61.246094 4.1875 59.457031 L 4.1875 12.539062 C 4.1875 10.746094 4.898438 9.03125 6.164062 7.765625 C 7.429688 6.5 9.144531 5.789062 10.9375 5.789062 Z M 10.9375 5.789062 " clip-rule="nonzero"/></clipPath></defs><g clip-path="url(#ab26a01578)"><g clip-path="url(#35d3c71a95)"><path fill="#000000" d="M 4.1875 5.789062 L 71.441406 5.789062 L 71.441406 66.207031 L 4.1875 66.207031 Z M 4.1875 5.789062 " fill-opacity="1" fill-rule="nonzero"/></g></g><g fill="#f6f966" fill-opacity="1"><g transform="translate(13.524384, 29.147338)"><g><path d="M 8.765625 0.03125 C 7.785156 0.03125 7.253906 -0.125 7.171875 -0.4375 L 6.625 -2.609375 L 3.9375 -2.609375 L 3.453125 -0.515625 C 3.390625 -0.171875 2.851562 0 1.84375 0 C 1.300781 0 0.898438 -0.03125 0.640625 -0.09375 C 0.378906 -0.15625 0.25 -0.203125 0.25 -0.234375 L 3.234375 -11.640625 C 3.234375 -11.734375 4 -11.78125 5.53125 -11.78125 C 7.070312 -11.78125 7.84375 -11.734375 7.84375 -11.640625 L 10.765625 -0.21875 C 10.765625 -0.132812 10.503906 -0.0703125 9.984375 -0.03125 C 9.472656 0.0078125 9.066406 0.03125 8.765625 0.03125 Z M 4.359375 -4.75 L 6.125 -4.75 L 5.375 -8.234375 L 5.265625 -8.234375 Z M 4.359375 -4.75 "/></g></g></g><g fill="#f6f966" fill-opacity="1"><g transform="translate(24.560065, 29.147338)"><g><path d="M 2.3125 0.03125 C 1.289062 0.03125 0.78125 -0.078125 0.78125 -0.296875 L 0.78125 -11.21875 C 0.78125 -11.601562 0.953125 -11.796875 1.296875 -11.796875 L 4.265625 -11.796875 C 5.921875 -11.796875 7.113281 -11.453125 7.84375 -10.765625 C 8.582031 -10.078125 8.953125 -9.082031 8.953125 -7.78125 C 8.953125 -6.707031 8.609375 -5.71875 7.921875 -4.8125 C 7.566406 -4.363281 7.050781 -4.003906 6.375 -3.734375 C 5.707031 -3.460938 4.925781 -3.328125 4.03125 -3.328125 L 4.03125 -0.3125 C 4.03125 -0.1875 3.816406 -0.0976562 3.390625 -0.046875 C 2.972656 0.00390625 2.613281 0.03125 2.3125 0.03125 Z M 4.03125 -8.859375 L 4.03125 -6.203125 L 4.25 -6.203125 C 4.632812 -6.203125 4.960938 -6.320312 5.234375 -6.5625 C 5.503906 -6.8125 5.640625 -7.160156 5.640625 -7.609375 C 5.640625 -8.054688 5.546875 -8.375 5.359375 -8.5625 C 5.179688 -8.757812 4.851562 -8.859375 4.375 -8.859375 Z M 4.03125 -8.859375 "/></g></g></g><g fill="#f6f966" fill-opacity="1"><g transform="translate(34.163633, 29.147338)"><g><path d="M 2.3125 0.03125 C 1.289062 0.03125 0.78125 -0.078125 0.78125 -0.296875 L 0.78125 -11.21875 C 0.78125 -11.601562 0.953125 -11.796875 1.296875 -11.796875 L 4.265625 -11.796875 C 5.921875 -11.796875 7.113281 -11.453125 7.84375 -10.765625 C 8.582031 -10.078125 8.953125 -9.082031 8.953125 -7.78125 C 8.953125 -6.707031 8.609375 -5.71875 7.921875 -4.8125 C 7.566406 -4.363281 7.050781 -4.003906 6.375 -3.734375 C 5.707031 -3.460938 4.925781 -3.328125 4.03125 -3.328125 L 4.03125 -0.3125 C 4.03125 -0.1875 3.816406 -0.0976562 3.390625 -0.046875 C 2.972656 0.00390625 2.613281 0.03125 2.3125 0.03125 Z M 4.03125 -8.859375 L 4.03125 -6.203125 L 4.25 -6.203125 C 4.632812 -6.203125 4.960938 -6.320312 5.234375 -6.5625 C 5.503906 -6.8125 5.640625 -7.160156 5.640625 -7.609375 C 5.640625 -8.054688 5.546875 -8.375 5.359375 -8.5625 C 5.179688 -8.757812 4.851562 -8.859375 4.375 -8.859375 Z M 4.03125 -8.859375 "/></g></g></g><g fill="#f6f966" fill-opacity="1"><g transform="translate(43.767201, 29.147338)"><g><path d="M 0.671875 -1 L 0.671875 -11.46875 C 0.671875 -11.707031 1.238281 -11.828125 2.375 -11.828125 C 3.519531 -11.828125 4.09375 -11.707031 4.09375 -11.46875 L 4.09375 -3.21875 L 6.6875 -3.21875 C 6.882812 -3.21875 7.023438 -2.953125 7.109375 -2.421875 C 7.140625 -2.160156 7.15625 -1.894531 7.15625 -1.625 C 7.15625 -1.363281 7.140625 -1.09375 7.109375 -0.8125 C 7.015625 -0.269531 6.867188 0 6.671875 0 L 1.484375 0 C 1.234375 0 1.035156 -0.0976562 0.890625 -0.296875 C 0.742188 -0.503906 0.671875 -0.738281 0.671875 -1 Z M 0.671875 -1 "/></g></g></g><g fill="#f6f966" fill-opacity="1"><g transform="translate(51.096242, 29.147338)"><g><path d="M 6.703125 -11.234375 C 6.847656 -11.628906 7.566406 -11.828125 8.859375 -11.828125 C 9.179688 -11.828125 9.5625 -11.800781 10 -11.75 C 10.445312 -11.707031 10.65625 -11.65625 10.625 -11.59375 L 7.125 -4.546875 L 7.125 -0.4375 C 7.125 -0.25 6.816406 -0.113281 6.203125 -0.03125 C 5.890625 0.0078125 5.578125 0.03125 5.265625 0.03125 C 4.960938 0.03125 4.660156 0.015625 4.359375 -0.015625 C 3.742188 -0.0976562 3.4375 -0.238281 3.4375 -0.4375 L 3.4375 -4.453125 L -0.1875 -11.5625 C -0.226562 -11.625 0 -11.6875 0.5 -11.75 C 1.007812 -11.8125 1.4375 -11.84375 1.78125 -11.84375 C 3.164062 -11.84375 3.925781 -11.640625 4.0625 -11.234375 L 5.28125 -7.796875 Z M 6.703125 -11.234375 "/></g></g></g><g fill="#2ac106" fill-opacity="1"><g transform="translate(18.325558, 56.947512)"><g><path d="M 2.296875 0.09375 C 1.941406 0.09375 1.628906 0.0625 1.359375 0 C 1.097656 -0.0507812 0.851562 -0.128906 0.625 -0.234375 C 0.582031 -0.265625 0.539062 -0.300781 0.5 -0.34375 C 0.46875 -0.382812 0.453125 -0.429688 0.453125 -0.484375 C 0.453125 -0.535156 0.46875 -0.601562 0.5 -0.6875 C 0.539062 -0.78125 0.585938 -0.847656 0.640625 -0.890625 C 0.691406 -0.929688 0.75 -0.953125 0.8125 -0.953125 C 0.851562 -0.953125 0.898438 -0.941406 0.953125 -0.921875 C 1.191406 -0.828125 1.425781 -0.75 1.65625 -0.6875 C 1.882812 -0.632812 2.132812 -0.609375 2.40625 -0.609375 C 2.84375 -0.609375 3.148438 -0.660156 3.328125 -0.765625 C 3.503906 -0.867188 3.59375 -1.035156 3.59375 -1.265625 C 3.59375 -1.378906 3.5625 -1.484375 3.5 -1.578125 C 3.445312 -1.671875 3.34375 -1.753906 3.1875 -1.828125 C 3.03125 -1.898438 2.796875 -1.953125 2.484375 -1.984375 C 1.898438 -2.054688 1.457031 -2.195312 1.15625 -2.40625 C 0.863281 -2.625 0.71875 -2.957031 0.71875 -3.40625 C 0.71875 -3.851562 0.863281 -4.1875 1.15625 -4.40625 C 1.457031 -4.625 1.878906 -4.734375 2.421875 -4.734375 C 2.835938 -4.734375 3.1875 -4.6875 3.46875 -4.59375 C 3.75 -4.507812 3.984375 -4.398438 4.171875 -4.265625 C 4.265625 -4.203125 4.3125 -4.128906 4.3125 -4.046875 C 4.3125 -3.972656 4.285156 -3.894531 4.234375 -3.8125 C 4.148438 -3.664062 4.050781 -3.59375 3.9375 -3.59375 C 3.882812 -3.59375 3.828125 -3.609375 3.765625 -3.640625 C 3.421875 -3.890625 2.976562 -4.015625 2.4375 -4.015625 C 1.832031 -4.015625 1.53125 -3.8125 1.53125 -3.40625 C 1.53125 -3.175781 1.628906 -3.007812 1.828125 -2.90625 C 2.035156 -2.800781 2.351562 -2.722656 2.78125 -2.671875 C 3.21875 -2.617188 3.550781 -2.523438 3.78125 -2.390625 C 4.019531 -2.265625 4.179688 -2.109375 4.265625 -1.921875 C 4.359375 -1.734375 4.40625 -1.515625 4.40625 -1.265625 C 4.40625 -0.847656 4.25 -0.515625 3.9375 -0.265625 C 3.625 -0.0234375 3.078125 0.09375 2.296875 0.09375 Z M 2.296875 0.09375 "/></g></g></g><g fill="#2ac106" fill-opacity="1"><g transform="translate(22.267409, 56.947512)"><g><path d="M 1.171875 0.09375 C 1.003906 0.09375 0.890625 0.0703125 0.828125 0.03125 C 0.773438 -0.0078125 0.75 -0.0859375 0.75 -0.203125 C 0.75 -0.367188 0.75 -0.585938 0.75 -0.859375 C 0.757812 -1.128906 0.769531 -1.425781 0.78125 -1.75 C 0.800781 -2.070312 0.8125 -2.390625 0.8125 -2.703125 C 0.820312 -3.015625 0.828125 -3.296875 0.828125 -3.546875 C 0.828125 -3.785156 0.828125 -4.050781 0.828125 -4.34375 C 0.828125 -4.644531 0.820312 -4.945312 0.8125 -5.25 C 0.8125 -5.550781 0.8125 -5.828125 0.8125 -6.078125 C 0.8125 -6.328125 0.800781 -6.53125 0.78125 -6.6875 C 0.78125 -6.832031 0.816406 -6.925781 0.890625 -6.96875 C 0.960938 -7.019531 1.070312 -7.046875 1.21875 -7.046875 C 1.363281 -7.046875 1.460938 -7.019531 1.515625 -6.96875 C 1.566406 -6.925781 1.59375 -6.851562 1.59375 -6.75 C 1.601562 -6.53125 1.613281 -6.25 1.625 -5.90625 C 1.632812 -5.5625 1.640625 -5.195312 1.640625 -4.8125 C 1.648438 -4.425781 1.65625 -4.0625 1.65625 -3.71875 C 2.019531 -4.394531 2.597656 -4.734375 3.390625 -4.734375 C 3.859375 -4.734375 4.234375 -4.644531 4.515625 -4.46875 C 4.796875 -4.300781 5.003906 -4.0625 5.140625 -3.75 C 5.273438 -3.4375 5.347656 -3.070312 5.359375 -2.65625 C 5.359375 -2.601562 5.359375 -2.546875 5.359375 -2.484375 C 5.359375 -2.421875 5.359375 -2.359375 5.359375 -2.296875 C 5.359375 -1.941406 5.335938 -1.578125 5.296875 -1.203125 C 5.253906 -0.828125 5.195312 -0.46875 5.125 -0.125 C 5.113281 -0.0507812 5.078125 0 5.015625 0.03125 C 4.960938 0.0703125 4.898438 0.09375 4.828125 0.09375 C 4.804688 0.09375 4.78125 0.09375 4.75 0.09375 C 4.726562 0.09375 4.703125 0.0859375 4.671875 0.078125 C 4.535156 0.0546875 4.441406 0.0195312 4.390625 -0.03125 C 4.347656 -0.09375 4.332031 -0.171875 4.34375 -0.265625 C 4.414062 -0.628906 4.46875 -1.015625 4.5 -1.421875 C 4.539062 -1.828125 4.5625 -2.191406 4.5625 -2.515625 C 4.5625 -2.984375 4.453125 -3.347656 4.234375 -3.609375 C 4.023438 -3.878906 3.703125 -4.015625 3.265625 -4.015625 C 2.984375 -4.015625 2.71875 -3.941406 2.46875 -3.796875 C 2.226562 -3.648438 2.03125 -3.40625 1.875 -3.0625 C 1.726562 -2.71875 1.640625 -2.242188 1.609375 -1.640625 C 1.609375 -1.492188 1.601562 -1.3125 1.59375 -1.09375 C 1.59375 -0.882812 1.585938 -0.6875 1.578125 -0.5 C 1.566406 -0.320312 1.554688 -0.191406 1.546875 -0.109375 C 1.523438 -0.046875 1.488281 0 1.4375 0.03125 C 1.382812 0.0703125 1.296875 0.09375 1.171875 0.09375 Z M 1.65625 -3.578125 Z M 1.65625 -3.578125 "/></g></g></g><g fill="#2ac106" fill-opacity="1"><g transform="translate(27.387378, 56.947512)"><g><path d="M 2.84375 0.09375 C 2.019531 0.09375 1.421875 -0.125 1.046875 -0.5625 C 0.679688 -1 0.5 -1.609375 0.5 -2.390625 C 0.5 -2.828125 0.59375 -3.222656 0.78125 -3.578125 C 0.96875 -3.929688 1.234375 -4.210938 1.578125 -4.421875 C 1.929688 -4.628906 2.351562 -4.734375 2.84375 -4.734375 C 3.289062 -4.734375 3.675781 -4.671875 4 -4.546875 C 4.332031 -4.421875 4.601562 -4.238281 4.8125 -4 C 4.875 -3.945312 4.90625 -3.878906 4.90625 -3.796875 C 4.90625 -3.691406 4.863281 -3.601562 4.78125 -3.53125 L 4.765625 -3.53125 C 4.910156 -3.34375 5.023438 -3.125 5.109375 -2.875 C 5.203125 -2.632812 5.25 -2.375 5.25 -2.09375 C 5.25 -1.4375 5.046875 -0.90625 4.640625 -0.5 C 4.234375 -0.101562 3.632812 0.09375 2.84375 0.09375 Z M 1.296875 -2.359375 C 1.296875 -1.804688 1.425781 -1.378906 1.6875 -1.078125 C 1.945312 -0.773438 2.351562 -0.625 2.90625 -0.625 C 3.4375 -0.625 3.820312 -0.753906 4.0625 -1.015625 C 4.3125 -1.285156 4.4375 -1.632812 4.4375 -2.0625 C 4.4375 -2.28125 4.398438 -2.492188 4.328125 -2.703125 C 4.253906 -2.910156 4.148438 -3.082031 4.015625 -3.21875 C 3.929688 -3.28125 3.890625 -3.347656 3.890625 -3.421875 C 3.890625 -3.492188 3.929688 -3.582031 4.015625 -3.6875 C 3.867188 -3.78125 3.695312 -3.859375 3.5 -3.921875 C 3.3125 -3.984375 3.09375 -4.015625 2.84375 -4.015625 C 2.539062 -4.015625 2.269531 -3.941406 2.03125 -3.796875 C 1.800781 -3.648438 1.617188 -3.453125 1.484375 -3.203125 C 1.359375 -2.960938 1.296875 -2.679688 1.296875 -2.359375 Z M 1.296875 -2.359375 "/></g></g></g><g fill="#2ac106" fill-opacity="1"><g transform="translate(32.127002, 56.947512)"><g><path d="M 1.1875 0.09375 C 1.007812 0.09375 0.898438 0.0625 0.859375 0 C 0.816406 -0.0703125 0.789062 -0.148438 0.78125 -0.234375 C 0.78125 -0.566406 0.773438 -0.925781 0.765625 -1.3125 C 0.753906 -1.707031 0.75 -2.144531 0.75 -2.625 C 0.75 -2.894531 0.75 -3.117188 0.75 -3.296875 C 0.75 -3.484375 0.753906 -3.65625 0.765625 -3.8125 C 0.773438 -3.976562 0.785156 -4.164062 0.796875 -4.375 C 0.804688 -4.601562 0.921875 -4.71875 1.140625 -4.71875 C 1.328125 -4.71875 1.453125 -4.6875 1.515625 -4.625 C 1.578125 -4.5625 1.609375 -4.476562 1.609375 -4.375 L 1.5625 -3.9375 C 1.738281 -4.21875 1.953125 -4.414062 2.203125 -4.53125 C 2.453125 -4.65625 2.695312 -4.71875 2.9375 -4.71875 C 3.164062 -4.71875 3.363281 -4.691406 3.53125 -4.640625 C 3.695312 -4.585938 3.84375 -4.515625 3.96875 -4.421875 C 4.039062 -4.359375 4.078125 -4.289062 4.078125 -4.21875 C 4.078125 -4.132812 4.046875 -4.039062 3.984375 -3.9375 C 3.953125 -3.882812 3.910156 -3.835938 3.859375 -3.796875 C 3.804688 -3.765625 3.753906 -3.75 3.703125 -3.75 C 3.648438 -3.75 3.609375 -3.757812 3.578125 -3.78125 C 3.359375 -3.914062 3.09375 -3.984375 2.78125 -3.984375 C 2.65625 -3.984375 2.523438 -3.960938 2.390625 -3.921875 C 2.253906 -3.878906 2.117188 -3.800781 1.984375 -3.6875 C 1.859375 -3.570312 1.753906 -3.40625 1.671875 -3.1875 C 1.585938 -2.976562 1.546875 -2.703125 1.546875 -2.359375 C 1.546875 -2.285156 1.546875 -2.160156 1.546875 -1.984375 C 1.554688 -1.816406 1.5625 -1.625 1.5625 -1.40625 C 1.570312 -1.1875 1.582031 -0.972656 1.59375 -0.765625 C 1.601562 -0.554688 1.609375 -0.378906 1.609375 -0.234375 C 1.609375 -0.015625 1.46875 0.09375 1.1875 0.09375 Z M 1.1875 0.09375 "/></g></g></g><g fill="#2ac106" fill-opacity="1"><g transform="translate(35.475156, 56.947512)"><g><path d="M 2.515625 0.09375 C 2.046875 0.09375 1.664062 -0.0351562 1.375 -0.296875 C 1.09375 -0.566406 0.953125 -0.976562 0.953125 -1.53125 C 0.953125 -1.875 0.953125 -2.25 0.953125 -2.65625 C 0.960938 -3.070312 0.976562 -3.492188 1 -3.921875 L 0.453125 -3.921875 C 0.210938 -3.921875 0.09375 -4.039062 0.09375 -4.28125 C 0.09375 -4.414062 0.117188 -4.507812 0.171875 -4.5625 C 0.234375 -4.613281 0.332031 -4.640625 0.46875 -4.640625 L 1.015625 -4.640625 C 1.023438 -4.859375 1.035156 -5.066406 1.046875 -5.265625 C 1.054688 -5.460938 1.0625 -5.65625 1.0625 -5.84375 C 1.070312 -5.945312 1.101562 -6.015625 1.15625 -6.046875 C 1.21875 -6.085938 1.296875 -6.109375 1.390625 -6.109375 C 1.566406 -6.109375 1.691406 -6.085938 1.765625 -6.046875 C 1.847656 -6.003906 1.882812 -5.910156 1.875 -5.765625 C 1.863281 -5.585938 1.851562 -5.40625 1.84375 -5.21875 C 1.84375 -5.03125 1.835938 -4.832031 1.828125 -4.625 L 3.296875 -4.625 C 3.515625 -4.625 3.625 -4.503906 3.625 -4.265625 C 3.625 -4.148438 3.597656 -4.0625 3.546875 -4 C 3.503906 -3.9375 3.421875 -3.90625 3.296875 -3.90625 L 1.796875 -3.921875 C 1.796875 -3.503906 1.789062 -3.097656 1.78125 -2.703125 C 1.769531 -2.304688 1.765625 -1.9375 1.765625 -1.59375 C 1.765625 -1.269531 1.847656 -1.03125 2.015625 -0.875 C 2.191406 -0.71875 2.398438 -0.640625 2.640625 -0.640625 C 2.773438 -0.640625 2.90625 -0.65625 3.03125 -0.6875 C 3.15625 -0.726562 3.289062 -0.816406 3.4375 -0.953125 C 3.476562 -0.960938 3.515625 -0.96875 3.546875 -0.96875 C 3.648438 -0.96875 3.742188 -0.894531 3.828125 -0.75 C 3.867188 -0.6875 3.890625 -0.625 3.890625 -0.5625 C 3.890625 -0.457031 3.820312 -0.375 3.6875 -0.3125 C 3.507812 -0.144531 3.332031 -0.0351562 3.15625 0.015625 C 2.976562 0.0664062 2.765625 0.09375 2.515625 0.09375 Z M 2.515625 0.09375 "/></g></g></g><g fill="#2ac106" fill-opacity="1"><g transform="translate(38.452248, 56.947512)"><g/></g></g><g fill="#2ac106" fill-opacity="1"><g transform="translate(40.195563, 56.947512)"><g><path d="M 4.984375 2.40625 C 4.796875 2.40625 4.691406 2.332031 4.671875 2.1875 C 4.660156 2.0625 4.640625 1.847656 4.609375 1.546875 C 4.585938 1.253906 4.566406 0.921875 4.546875 0.546875 C 4.535156 0.171875 4.53125 -0.195312 4.53125 -0.5625 C 4.53125 -0.601562 4.53125 -0.644531 4.53125 -0.6875 C 4.53125 -0.738281 4.53125 -0.785156 4.53125 -0.828125 C 4.332031 -0.535156 4.082031 -0.304688 3.78125 -0.140625 C 3.488281 0.015625 3.132812 0.09375 2.71875 0.09375 C 2.28125 0.09375 1.894531 -0.0078125 1.5625 -0.21875 C 1.226562 -0.425781 0.960938 -0.707031 0.765625 -1.0625 C 0.578125 -1.414062 0.484375 -1.8125 0.484375 -2.25 C 0.484375 -3.019531 0.6875 -3.625 1.09375 -4.0625 C 1.507812 -4.5 2.085938 -4.71875 2.828125 -4.71875 C 3.234375 -4.71875 3.585938 -4.632812 3.890625 -4.46875 C 4.203125 -4.300781 4.457031 -4.050781 4.65625 -3.71875 C 4.65625 -3.914062 4.660156 -4.132812 4.671875 -4.375 C 4.679688 -4.476562 4.710938 -4.5625 4.765625 -4.625 C 4.816406 -4.6875 4.90625 -4.71875 5.03125 -4.71875 C 5.363281 -4.71875 5.519531 -4.597656 5.5 -4.359375 C 5.476562 -3.921875 5.453125 -3.4375 5.421875 -2.90625 C 5.390625 -2.382812 5.367188 -1.851562 5.359375 -1.3125 C 5.359375 -1.238281 5.351562 -1.164062 5.34375 -1.09375 C 5.34375 -1.019531 5.34375 -0.945312 5.34375 -0.875 C 5.34375 -0.53125 5.347656 -0.171875 5.359375 0.203125 C 5.378906 0.578125 5.398438 0.925781 5.421875 1.25 C 5.441406 1.570312 5.460938 1.84375 5.484375 2.0625 C 5.492188 2.1875 5.453125 2.273438 5.359375 2.328125 C 5.265625 2.378906 5.140625 2.40625 4.984375 2.40625 Z M 1.296875 -2.28125 C 1.296875 -1.957031 1.359375 -1.671875 1.484375 -1.421875 C 1.617188 -1.171875 1.796875 -0.972656 2.015625 -0.828125 C 2.242188 -0.691406 2.5 -0.625 2.78125 -0.625 C 3.226562 -0.625 3.609375 -0.769531 3.921875 -1.0625 C 4.242188 -1.363281 4.457031 -1.832031 4.5625 -2.46875 C 4.4375 -2.976562 4.234375 -3.359375 3.953125 -3.609375 C 3.671875 -3.867188 3.300781 -4 2.84375 -4 C 2.40625 -4 2.035156 -3.847656 1.734375 -3.546875 C 1.441406 -3.242188 1.296875 -2.820312 1.296875 -2.28125 Z M 1.296875 -2.28125 "/></g></g></g><g fill="#2ac106" fill-opacity="1"><g transform="translate(45.436122, 56.947512)"><g><path d="M 2.625 0.09375 C 1.96875 0.09375 1.488281 -0.09375 1.1875 -0.46875 C 0.894531 -0.84375 0.75 -1.382812 0.75 -2.09375 C 0.75 -2.5 0.765625 -2.90625 0.796875 -3.3125 C 0.828125 -3.71875 0.878906 -4.113281 0.953125 -4.5 C 0.960938 -4.582031 1 -4.640625 1.0625 -4.671875 C 1.125 -4.710938 1.191406 -4.734375 1.265625 -4.734375 C 1.296875 -4.734375 1.320312 -4.734375 1.34375 -4.734375 C 1.363281 -4.734375 1.382812 -4.726562 1.40625 -4.71875 C 1.550781 -4.6875 1.644531 -4.640625 1.6875 -4.578125 C 1.738281 -4.515625 1.753906 -4.441406 1.734375 -4.359375 C 1.679688 -4.035156 1.632812 -3.671875 1.59375 -3.265625 C 1.5625 -2.867188 1.546875 -2.507812 1.546875 -2.1875 C 1.546875 -1.675781 1.644531 -1.285156 1.84375 -1.015625 C 2.039062 -0.753906 2.351562 -0.625 2.78125 -0.625 C 3.070312 -0.625 3.335938 -0.695312 3.578125 -0.84375 C 3.816406 -0.988281 4.015625 -1.234375 4.171875 -1.578125 C 4.328125 -1.921875 4.410156 -2.390625 4.421875 -2.984375 C 4.429688 -3.117188 4.4375 -3.285156 4.4375 -3.484375 C 4.445312 -3.679688 4.453125 -3.867188 4.453125 -4.046875 C 4.453125 -4.234375 4.453125 -4.367188 4.453125 -4.453125 C 4.460938 -4.554688 4.492188 -4.628906 4.546875 -4.671875 C 4.609375 -4.710938 4.734375 -4.734375 4.921875 -4.734375 C 5.140625 -4.734375 5.25 -4.632812 5.25 -4.4375 C 5.257812 -4.21875 5.257812 -4.007812 5.25 -3.8125 C 5.25 -3.613281 5.242188 -3.394531 5.234375 -3.15625 C 5.222656 -2.914062 5.21875 -2.628906 5.21875 -2.296875 C 5.21875 -1.992188 5.222656 -1.734375 5.234375 -1.515625 C 5.253906 -1.304688 5.285156 -1.113281 5.328125 -0.9375 C 5.367188 -0.769531 5.414062 -0.597656 5.46875 -0.421875 C 5.488281 -0.359375 5.5 -0.304688 5.5 -0.265625 C 5.5 -0.140625 5.421875 -0.0390625 5.265625 0.03125 C 5.160156 0.0625 5.070312 0.078125 5 0.078125 C 4.882812 0.078125 4.789062 0.0078125 4.71875 -0.125 C 4.59375 -0.46875 4.515625 -0.804688 4.484375 -1.140625 C 4.304688 -0.734375 4.054688 -0.425781 3.734375 -0.21875 C 3.410156 -0.0078125 3.039062 0.09375 2.625 0.09375 Z M 2.625 0.09375 "/></g></g></g><g fill="#2ac106" fill-opacity="1"><g transform="translate(50.648852, 56.947512)"><g><path d="M 1.140625 0.09375 C 0.960938 0.09375 0.84375 0.0625 0.78125 0 C 0.726562 -0.0625 0.707031 -0.148438 0.71875 -0.265625 C 0.726562 -0.535156 0.738281 -0.84375 0.75 -1.1875 C 0.769531 -1.539062 0.785156 -1.890625 0.796875 -2.234375 C 0.804688 -2.429688 0.8125 -2.628906 0.8125 -2.828125 C 0.820312 -3.035156 0.828125 -3.242188 0.828125 -3.453125 C 0.828125 -3.734375 0.816406 -4.023438 0.796875 -4.328125 C 0.785156 -4.453125 0.8125 -4.550781 0.875 -4.625 C 0.9375 -4.695312 1.0625 -4.734375 1.25 -4.734375 C 1.457031 -4.734375 1.570312 -4.640625 1.59375 -4.453125 C 1.601562 -4.296875 1.613281 -4.128906 1.625 -3.953125 C 1.632812 -3.773438 1.640625 -3.597656 1.640625 -3.421875 C 1.640625 -3.265625 1.632812 -3.113281 1.625 -2.96875 C 1.625 -2.820312 1.617188 -2.675781 1.609375 -2.53125 C 1.609375 -2.40625 1.601562 -2.242188 1.59375 -2.046875 C 1.59375 -1.847656 1.585938 -1.632812 1.578125 -1.40625 C 1.566406 -1.1875 1.554688 -0.972656 1.546875 -0.765625 C 1.535156 -0.566406 1.523438 -0.398438 1.515625 -0.265625 C 1.515625 -0.128906 1.484375 -0.0351562 1.421875 0.015625 C 1.359375 0.0664062 1.265625 0.09375 1.140625 0.09375 Z M 0.75 -6.359375 C 0.75 -6.429688 0.75 -6.488281 0.75 -6.53125 C 0.75 -6.570312 0.75 -6.617188 0.75 -6.671875 C 0.75 -6.804688 0.78125 -6.898438 0.84375 -6.953125 C 0.914062 -7.015625 1.035156 -7.046875 1.203125 -7.046875 C 1.398438 -7.046875 1.535156 -7.015625 1.609375 -6.953125 C 1.679688 -6.898438 1.71875 -6.820312 1.71875 -6.71875 C 1.71875 -6.632812 1.71875 -6.5625 1.71875 -6.5 C 1.71875 -6.4375 1.710938 -6.378906 1.703125 -6.328125 C 1.691406 -6.203125 1.648438 -6.113281 1.578125 -6.0625 C 1.503906 -6.019531 1.382812 -6 1.21875 -6 C 1.03125 -6 0.90625 -6.03125 0.84375 -6.09375 C 0.78125 -6.15625 0.75 -6.242188 0.75 -6.359375 Z M 0.75 -6.359375 "/></g></g></g><g fill="#2ac106" fill-opacity="1"><g transform="translate(52.086045, 56.947512)"><g><path d="M 2.640625 0.0625 C 2.179688 0.0625 1.800781 0.0507812 1.5 0.03125 C 1.195312 0.0195312 0.957031 0 0.78125 -0.03125 C 0.707031 -0.0390625 0.640625 -0.0625 0.578125 -0.09375 C 0.523438 -0.125 0.484375 -0.179688 0.453125 -0.265625 C 0.429688 -0.328125 0.421875 -0.390625 0.421875 -0.453125 C 0.421875 -0.554688 0.457031 -0.640625 0.53125 -0.703125 C 0.925781 -1.242188 1.398438 -1.78125 1.953125 -2.3125 C 2.503906 -2.84375 3.078125 -3.351562 3.671875 -3.84375 C 3.410156 -3.863281 3.070312 -3.875 2.65625 -3.875 C 2.59375 -3.875 2.523438 -3.875 2.453125 -3.875 C 2.378906 -3.875 2.304688 -3.875 2.234375 -3.875 C 1.890625 -3.875 1.59375 -3.863281 1.34375 -3.84375 C 1.101562 -3.832031 0.925781 -3.820312 0.8125 -3.8125 C 0.789062 -3.800781 0.769531 -3.796875 0.75 -3.796875 C 0.738281 -3.796875 0.726562 -3.796875 0.71875 -3.796875 C 0.539062 -3.796875 0.4375 -3.90625 0.40625 -4.125 C 0.394531 -4.15625 0.382812 -4.1875 0.375 -4.21875 C 0.375 -4.25 0.375 -4.273438 0.375 -4.296875 C 0.375 -4.453125 0.460938 -4.550781 0.640625 -4.59375 C 0.816406 -4.625 1.082031 -4.648438 1.4375 -4.671875 C 1.800781 -4.691406 2.179688 -4.703125 2.578125 -4.703125 C 3.085938 -4.703125 3.503906 -4.695312 3.828125 -4.6875 C 4.148438 -4.675781 4.382812 -4.664062 4.53125 -4.65625 C 4.726562 -4.632812 4.84375 -4.523438 4.875 -4.328125 C 4.882812 -4.316406 4.890625 -4.300781 4.890625 -4.28125 C 4.898438 -4.257812 4.90625 -4.238281 4.90625 -4.21875 C 4.90625 -4.113281 4.851562 -4.019531 4.75 -3.9375 C 4.195312 -3.457031 3.648438 -2.945312 3.109375 -2.40625 C 2.566406 -1.875 2.0625 -1.34375 1.59375 -0.8125 C 1.769531 -0.8125 1.972656 -0.800781 2.203125 -0.78125 C 2.441406 -0.769531 2.691406 -0.765625 2.953125 -0.765625 C 3.203125 -0.765625 3.441406 -0.769531 3.671875 -0.78125 C 3.910156 -0.789062 4.113281 -0.800781 4.28125 -0.8125 C 4.457031 -0.820312 4.570312 -0.828125 4.625 -0.828125 C 4.71875 -0.828125 4.785156 -0.800781 4.828125 -0.75 C 4.867188 -0.707031 4.898438 -0.617188 4.921875 -0.484375 C 4.929688 -0.316406 4.910156 -0.203125 4.859375 -0.140625 C 4.816406 -0.078125 4.738281 -0.0390625 4.625 -0.03125 C 4.425781 -0.0195312 4.144531 -0.00390625 3.78125 0.015625 C 3.414062 0.046875 3.035156 0.0625 2.640625 0.0625 Z M 2.640625 0.0625 "/></g></g></g><g fill="#f6f966" fill-opacity="1"><g transform="translate(18.137926, 44.897932)"><g><path d="M 10.078125 -0.375 C 10.078125 -0.132812 9.546875 -0.015625 8.484375 -0.015625 C 7.429688 -0.015625 6.859375 -0.0976562 6.765625 -0.265625 L 3.953125 -5.53125 L 3.953125 -0.28125 C 3.953125 -0.0820312 3.429688 0.015625 2.390625 0.015625 C 1.359375 0.015625 0.84375 -0.0820312 0.84375 -0.28125 L 0.84375 -11.5625 C 0.84375 -11.726562 1.285156 -11.8125 2.171875 -11.8125 C 2.515625 -11.8125 2.921875 -11.78125 3.390625 -11.71875 C 3.859375 -11.65625 4.144531 -11.539062 4.25 -11.375 L 6.9375 -6.1875 L 6.9375 -11.46875 C 6.9375 -11.6875 7.457031 -11.796875 8.5 -11.796875 C 9.550781 -11.796875 10.078125 -11.6875 10.078125 -11.46875 Z M 10.078125 -0.375 "/></g></g></g><g fill="#f6f966" fill-opacity="1"><g transform="translate(29.055671, 44.897932)"><g><path d="M 5.84375 0.171875 C 4.269531 0.171875 2.984375 -0.34375 1.984375 -1.375 C 0.992188 -2.414062 0.5 -3.925781 0.5 -5.90625 C 0.5 -7.882812 1 -9.382812 2 -10.40625 C 3.007812 -11.425781 4.304688 -11.9375 5.890625 -11.9375 C 7.484375 -11.9375 8.769531 -11.429688 9.75 -10.421875 C 10.726562 -9.421875 11.21875 -7.898438 11.21875 -5.859375 C 11.21875 -3.828125 10.71875 -2.3125 9.71875 -1.3125 C 8.71875 -0.320312 7.425781 0.171875 5.84375 0.171875 Z M 5.859375 -8.703125 C 5.316406 -8.703125 4.863281 -8.453125 4.5 -7.953125 C 4.132812 -7.460938 3.953125 -6.769531 3.953125 -5.875 C 3.953125 -4.988281 4.125 -4.304688 4.46875 -3.828125 C 4.820312 -3.347656 5.28125 -3.109375 5.84375 -3.109375 C 6.414062 -3.109375 6.878906 -3.347656 7.234375 -3.828125 C 7.585938 -4.316406 7.765625 -5.007812 7.765625 -5.90625 C 7.765625 -6.8125 7.582031 -7.503906 7.21875 -7.984375 C 6.851562 -8.460938 6.398438 -8.703125 5.859375 -8.703125 Z M 5.859375 -8.703125 "/></g></g></g><g fill="#f6f966" fill-opacity="1"><g transform="translate(40.782137, 44.897932)"><g><path d="M 0.359375 -11.625 C 0.316406 -11.75 0.882812 -11.8125 2.0625 -11.8125 C 3.34375 -11.8125 4.003906 -11.703125 4.046875 -11.484375 L 4.875 -4.390625 L 6.65625 -11.578125 C 6.707031 -11.742188 7.144531 -11.828125 7.96875 -11.828125 C 8.789062 -11.828125 9.226562 -11.75 9.28125 -11.59375 L 11.03125 -4.359375 L 12.015625 -11.515625 C 12.035156 -11.640625 12.289062 -11.722656 12.78125 -11.765625 C 13.28125 -11.816406 13.679688 -11.84375 13.984375 -11.84375 C 15.160156 -11.84375 15.734375 -11.765625 15.703125 -11.609375 L 13.65625 -0.4375 C 13.613281 -0.269531 13.296875 -0.144531 12.703125 -0.0625 C 12.109375 0.0078125 11.625 0.046875 11.25 0.046875 C 9.851562 0.046875 9.125 -0.109375 9.0625 -0.421875 L 7.921875 -5.046875 L 6.671875 -0.4375 C 6.628906 -0.238281 6.234375 -0.09375 5.484375 0 C 5.109375 0.03125 4.726562 0.046875 4.34375 0.046875 L 3.265625 0 C 2.523438 -0.0820312 2.132812 -0.222656 2.09375 -0.421875 Z M 0.359375 -11.625 "/></g></g></g></svg>