<svg xmlns="http://www.w3.org/2000/svg" xmlns:xlink="http://www.w3.org/1999/xlink" width="42" zoomAndPan="magnify" viewBox="0 0 31.5 30.75" height="41" preserveAspectRatio="xMidYMid meet" version="1.0"><defs><g/><clipPath id="8274daa79c"><path d="M 5 9 L 8 9 L 8 11 L 5 11 Z M 5 9 " clip-rule="nonzero"/></clipPath><clipPath id="24fa3d9f57"><path d="M 0 14.105469 L 9.597656 7.214844 L 16.488281 16.808594 L 6.890625 23.699219 Z M 0 14.105469 " clip-rule="nonzero"/></clipPath><clipPath id="1b503523e2"><path d="M 0 14.105469 L 9.597656 7.214844 L 16.488281 16.808594 L 6.890625 23.699219 Z M 0 14.105469 " clip-rule="nonzero"/></clipPath><clipPath id="c9ca3854c8"><path d="M 6 9 L 8 9 L 8 11 L 6 11 Z M 6 9 " clip-rule="nonzero"/></clipPath><clipPath id="e1fae397e4"><path d="M 0 14.105469 L 9.597656 7.214844 L 16.488281 16.808594 L 6.890625 23.699219 Z M 0 14.105469 " clip-rule="nonzero"/></clipPath><clipPath id="b3d9f6c7fb"><path d="M 0 14.105469 L 9.597656 7.214844 L 16.488281 16.808594 L 6.890625 23.699219 Z M 0 14.105469 " clip-rule="nonzero"/></clipPath><clipPath id="58fcc682a4"><path d="M 7 9 L 9 9 L 9 11 L 7 11 Z M 7 9 " clip-rule="nonzero"/></clipPath><clipPath id="a2d424a0e1"><path d="M 0 14.105469 L 9.597656 7.214844 L 16.488281 16.808594 L 6.890625 23.699219 Z M 0 14.105469 " clip-rule="nonzero"/></clipPath><clipPath id="17679cfd92"><path d="M 0 14.105469 L 9.597656 7.214844 L 16.488281 16.808594 L 6.890625 23.699219 Z M 0 14.105469 " clip-rule="nonzero"/></clipPath><clipPath id="baf3f2c2b8"><path d="M 8 9 L 9 9 L 9 11 L 8 11 Z M 8 9 " clip-rule="nonzero"/></clipPath><clipPath id="f98502cd50"><path d="M 0 14.105469 L 9.597656 7.214844 L 16.488281 16.808594 L 6.890625 23.699219 Z M 0 14.105469 " clip-rule="nonzero"/></clipPath><clipPath id="adb833902d"><path d="M 0 14.105469 L 9.597656 7.214844 L 16.488281 16.808594 L 6.890625 23.699219 Z M 0 14.105469 " clip-rule="nonzero"/></clipPath><clipPath id="a193b57bc6"><path d="M 9 9 L 10 9 L 10 11 L 9 11 Z M 9 9 " clip-rule="nonzero"/></clipPath><clipPath id="7ebce23495"><path d="M 0 14.105469 L 9.597656 7.214844 L 16.488281 16.808594 L 6.890625 23.699219 Z M 0 14.105469 " clip-rule="nonzero"/></clipPath><clipPath id="f31ceb234a"><path d="M 0 14.105469 L 9.597656 7.214844 L 16.488281 16.808594 L 6.890625 23.699219 Z M 0 14.105469 " clip-rule="nonzero"/></clipPath><clipPath id="5becab2022"><path d="M 9 9 L 11 9 L 11 11 L 9 11 Z M 9 9 " clip-rule="nonzero"/></clipPath><clipPath id="991d9dd52c"><path d="M 0 14.105469 L 9.597656 7.214844 L 16.488281 16.808594 L 6.890625 23.699219 Z M 0 14.105469 " clip-rule="nonzero"/></clipPath><clipPath id="0bed43ae68"><path d="M 0 14.105469 L 9.597656 7.214844 L 16.488281 16.808594 L 6.890625 23.699219 Z M 0 14.105469 " clip-rule="nonzero"/></clipPath><clipPath id="b42119a6bf"><path d="M 10 9 L 12 9 L 12 11 L 10 11 Z M 10 9 " clip-rule="nonzero"/></clipPath><clipPath id="549dcc4454"><path d="M 0 14.105469 L 9.597656 7.214844 L 16.488281 16.808594 L 6.890625 23.699219 Z M 0 14.105469 " clip-rule="nonzero"/></clipPath><clipPath id="3d38ae0338"><path d="M 0 14.105469 L 9.597656 7.214844 L 16.488281 16.808594 L 6.890625 23.699219 Z M 0 14.105469 " clip-rule="nonzero"/></clipPath><clipPath id="d4228c1444"><path d="M 4 10 L 6 10 L 6 12 L 4 12 Z M 4 10 " clip-rule="nonzero"/></clipPath><clipPath id="f38bceff8a"><path d="M 0 14.105469 L 9.597656 7.214844 L 16.488281 16.808594 L 6.890625 23.699219 Z M 0 14.105469 " clip-rule="nonzero"/></clipPath><clipPath id="06e2195a1d"><path d="M 0 14.105469 L 9.597656 7.214844 L 16.488281 16.808594 L 6.890625 23.699219 Z M 0 14.105469 " clip-rule="nonzero"/></clipPath><clipPath id="374f533c26"><path d="M 5 10 L 8 10 L 8 12 L 5 12 Z M 5 10 " clip-rule="nonzero"/></clipPath><clipPath id="3f648ead5f"><path d="M 0 14.105469 L 9.597656 7.214844 L 16.488281 16.808594 L 6.890625 23.699219 Z M 0 14.105469 " clip-rule="nonzero"/></clipPath><clipPath id="ed681b5d05"><path d="M 0 14.105469 L 9.597656 7.214844 L 16.488281 16.808594 L 6.890625 23.699219 Z M 0 14.105469 " clip-rule="nonzero"/></clipPath><clipPath id="b798389747"><path d="M 7 10 L 9 10 L 9 12 L 7 12 Z M 7 10 " clip-rule="nonzero"/></clipPath><clipPath id="5f867f665b"><path d="M 0 14.105469 L 9.597656 7.214844 L 16.488281 16.808594 L 6.890625 23.699219 Z M 0 14.105469 " clip-rule="nonzero"/></clipPath><clipPath id="83ed9cb9ac"><path d="M 0 14.105469 L 9.597656 7.214844 L 16.488281 16.808594 L 6.890625 23.699219 Z M 0 14.105469 " clip-rule="nonzero"/></clipPath><clipPath id="4936635558"><path d="M 8 10 L 10 10 L 10 12 L 8 12 Z M 8 10 " clip-rule="nonzero"/></clipPath><clipPath id="06c7e0bd2e"><path d="M 0 14.105469 L 9.597656 7.214844 L 16.488281 16.808594 L 6.890625 23.699219 Z M 0 14.105469 " clip-rule="nonzero"/></clipPath><clipPath id="2a2f1892f1"><path d="M 0 14.105469 L 9.597656 7.214844 L 16.488281 16.808594 L 6.890625 23.699219 Z M 0 14.105469 " clip-rule="nonzero"/></clipPath><clipPath id="ec85c6d1a1"><path d="M 10 10 L 12 10 L 12 12 L 10 12 Z M 10 10 " clip-rule="nonzero"/></clipPath><clipPath id="eb36951093"><path d="M 0 14.105469 L 9.597656 7.214844 L 16.488281 16.808594 L 6.890625 23.699219 Z M 0 14.105469 " clip-rule="nonzero"/></clipPath><clipPath id="86fc3788c8"><path d="M 0 14.105469 L 9.597656 7.214844 L 16.488281 16.808594 L 6.890625 23.699219 Z M 0 14.105469 " clip-rule="nonzero"/></clipPath><clipPath id="a6ee089a6e"><path d="M 11 10 L 13 10 L 13 12 L 11 12 Z M 11 10 " clip-rule="nonzero"/></clipPath><clipPath id="f4c60b1c20"><path d="M 0 14.105469 L 9.597656 7.214844 L 16.488281 16.808594 L 6.890625 23.699219 Z M 0 14.105469 " clip-rule="nonzero"/></clipPath><clipPath id="ff0ce2af4e"><path d="M 0 14.105469 L 9.597656 7.214844 L 16.488281 16.808594 L 6.890625 23.699219 Z M 0 14.105469 " clip-rule="nonzero"/></clipPath><clipPath id="393c48ed22"><path d="M 3 11 L 4 11 L 4 13 L 3 13 Z M 3 11 " clip-rule="nonzero"/></clipPath><clipPath id="16592dad00"><path d="M 0 14.105469 L 9.597656 7.214844 L 16.488281 16.808594 L 6.890625 23.699219 Z M 0 14.105469 " clip-rule="nonzero"/></clipPath><clipPath id="3f5caf1bfd"><path d="M 0 14.105469 L 9.597656 7.214844 L 16.488281 16.808594 L 6.890625 23.699219 Z M 0 14.105469 " clip-rule="nonzero"/></clipPath><clipPath id="5be8474512"><path d="M 3 11 L 5 11 L 5 13 L 3 13 Z M 3 11 " clip-rule="nonzero"/></clipPath><clipPath id="98b622ca20"><path d="M 0 14.105469 L 9.597656 7.214844 L 16.488281 16.808594 L 6.890625 23.699219 Z M 0 14.105469 " clip-rule="nonzero"/></clipPath><clipPath id="2ec997d92f"><path d="M 0 14.105469 L 9.597656 7.214844 L 16.488281 16.808594 L 6.890625 23.699219 Z M 0 14.105469 " clip-rule="nonzero"/></clipPath><clipPath id="756f056988"><path d="M 4 11 L 6 11 L 6 13 L 4 13 Z M 4 11 " clip-rule="nonzero"/></clipPath><clipPath id="47db8d2215"><path d="M 0 14.105469 L 9.597656 7.214844 L 16.488281 16.808594 L 6.890625 23.699219 Z M 0 14.105469 " clip-rule="nonzero"/></clipPath><clipPath id="9868c13f74"><path d="M 0 14.105469 L 9.597656 7.214844 L 16.488281 16.808594 L 6.890625 23.699219 Z M 0 14.105469 " clip-rule="nonzero"/></clipPath><clipPath id="608bcf4df9"><path d="M 6 11 L 8 11 L 8 13 L 6 13 Z M 6 11 " clip-rule="nonzero"/></clipPath><clipPath id="0881b657d5"><path d="M 0 14.105469 L 9.597656 7.214844 L 16.488281 16.808594 L 6.890625 23.699219 Z M 0 14.105469 " clip-rule="nonzero"/></clipPath><clipPath id="c891d18efe"><path d="M 0 14.105469 L 9.597656 7.214844 L 16.488281 16.808594 L 6.890625 23.699219 Z M 0 14.105469 " clip-rule="nonzero"/></clipPath><clipPath id="6536bf5982"><path d="M 7 11 L 10 11 L 10 13 L 7 13 Z M 7 11 " clip-rule="nonzero"/></clipPath><clipPath id="3aca0ab024"><path d="M 0 14.105469 L 9.597656 7.214844 L 16.488281 16.808594 L 6.890625 23.699219 Z M 0 14.105469 " clip-rule="nonzero"/></clipPath><clipPath id="786bd1217e"><path d="M 0 14.105469 L 9.597656 7.214844 L 16.488281 16.808594 L 6.890625 23.699219 Z M 0 14.105469 " clip-rule="nonzero"/></clipPath><clipPath id="231a197ad5"><path d="M 9 11 L 11 11 L 11 13 L 9 13 Z M 9 11 " clip-rule="nonzero"/></clipPath><clipPath id="fdb70b4a41"><path d="M 0 14.105469 L 9.597656 7.214844 L 16.488281 16.808594 L 6.890625 23.699219 Z M 0 14.105469 " clip-rule="nonzero"/></clipPath><clipPath id="e09eeceead"><path d="M 0 14.105469 L 9.597656 7.214844 L 16.488281 16.808594 L 6.890625 23.699219 Z M 0 14.105469 " clip-rule="nonzero"/></clipPath><clipPath id="de5a329ee9"><path d="M 11 11 L 13 11 L 13 13 L 11 13 Z M 11 11 " clip-rule="nonzero"/></clipPath><clipPath id="06ca2d3157"><path d="M 0 14.105469 L 9.597656 7.214844 L 16.488281 16.808594 L 6.890625 23.699219 Z M 0 14.105469 " clip-rule="nonzero"/></clipPath><clipPath id="6ce77353e0"><path d="M 0 14.105469 L 9.597656 7.214844 L 16.488281 16.808594 L 6.890625 23.699219 Z M 0 14.105469 " clip-rule="nonzero"/></clipPath><clipPath id="eed4c565d0"><path d="M 12 11 L 14 11 L 14 13 L 12 13 Z M 12 11 " clip-rule="nonzero"/></clipPath><clipPath id="eb0b6093b3"><path d="M 0 14.105469 L 9.597656 7.214844 L 16.488281 16.808594 L 6.890625 23.699219 Z M 0 14.105469 " clip-rule="nonzero"/></clipPath><clipPath id="ee1696192f"><path d="M 0 14.105469 L 9.597656 7.214844 L 16.488281 16.808594 L 6.890625 23.699219 Z M 0 14.105469 " clip-rule="nonzero"/></clipPath><clipPath id="184b8140f0"><path d="M 13 11 L 14 11 L 14 13 L 13 13 Z M 13 11 " clip-rule="nonzero"/></clipPath><clipPath id="6e401af832"><path d="M 0 14.105469 L 9.597656 7.214844 L 16.488281 16.808594 L 6.890625 23.699219 Z M 0 14.105469 " clip-rule="nonzero"/></clipPath><clipPath id="4c09847fd7"><path d="M 0 14.105469 L 9.597656 7.214844 L 16.488281 16.808594 L 6.890625 23.699219 Z M 0 14.105469 " clip-rule="nonzero"/></clipPath><clipPath id="4dbc748ccc"><path d="M 2 12 L 4 12 L 4 15 L 2 15 Z M 2 12 " clip-rule="nonzero"/></clipPath><clipPath id="383b3373d7"><path d="M 0 14.105469 L 9.597656 7.214844 L 16.488281 16.808594 L 6.890625 23.699219 Z M 0 14.105469 " clip-rule="nonzero"/></clipPath><clipPath id="6cce81c835"><path d="M 0 14.105469 L 9.597656 7.214844 L 16.488281 16.808594 L 6.890625 23.699219 Z M 0 14.105469 " clip-rule="nonzero"/></clipPath><clipPath id="207b1c08f7"><path d="M 3 12 L 5 12 L 5 15 L 3 15 Z M 3 12 " clip-rule="nonzero"/></clipPath><clipPath id="0c6835397e"><path d="M 0 14.105469 L 9.597656 7.214844 L 16.488281 16.808594 L 6.890625 23.699219 Z M 0 14.105469 " clip-rule="nonzero"/></clipPath><clipPath id="659adafcb3"><path d="M 0 14.105469 L 9.597656 7.214844 L 16.488281 16.808594 L 6.890625 23.699219 Z M 0 14.105469 " clip-rule="nonzero"/></clipPath><clipPath id="4a58d6a8ce"><path d="M 4 12 L 7 12 L 7 15 L 4 15 Z M 4 12 " clip-rule="nonzero"/></clipPath><clipPath id="0f705edb87"><path d="M 0 14.105469 L 9.597656 7.214844 L 16.488281 16.808594 L 6.890625 23.699219 Z M 0 14.105469 " clip-rule="nonzero"/></clipPath><clipPath id="0c4b76c228"><path d="M 0 14.105469 L 9.597656 7.214844 L 16.488281 16.808594 L 6.890625 23.699219 Z M 0 14.105469 " clip-rule="nonzero"/></clipPath><clipPath id="0494472c06"><path d="M 6 12 L 9 12 L 9 15 L 6 15 Z M 6 12 " clip-rule="nonzero"/></clipPath><clipPath id="f71976df59"><path d="M 0 14.105469 L 9.597656 7.214844 L 16.488281 16.808594 L 6.890625 23.699219 Z M 0 14.105469 " clip-rule="nonzero"/></clipPath><clipPath id="ceccb53965"><path d="M 0 14.105469 L 9.597656 7.214844 L 16.488281 16.808594 L 6.890625 23.699219 Z M 0 14.105469 " clip-rule="nonzero"/></clipPath><clipPath id="588bcd2d74"><path d="M 10 12 L 13 12 L 13 15 L 10 15 Z M 10 12 " clip-rule="nonzero"/></clipPath><clipPath id="591574690e"><path d="M 0 14.105469 L 9.597656 7.214844 L 16.488281 16.808594 L 6.890625 23.699219 Z M 0 14.105469 " clip-rule="nonzero"/></clipPath><clipPath id="acf2e65f24"><path d="M 0 14.105469 L 9.597656 7.214844 L 16.488281 16.808594 L 6.890625 23.699219 Z M 0 14.105469 " clip-rule="nonzero"/></clipPath><clipPath id="b0bfae2270"><path d="M 2 14 L 3 14 L 3 17 L 2 17 Z M 2 14 " clip-rule="nonzero"/></clipPath><clipPath id="3ef19646dd"><path d="M 0 14.105469 L 9.597656 7.214844 L 16.488281 16.808594 L 6.890625 23.699219 Z M 0 14.105469 " clip-rule="nonzero"/></clipPath><clipPath id="db81f77c49"><path d="M 0 14.105469 L 9.597656 7.214844 L 16.488281 16.808594 L 6.890625 23.699219 Z M 0 14.105469 " clip-rule="nonzero"/></clipPath><clipPath id="3453990788"><path d="M 2 14 L 4 14 L 4 17 L 2 17 Z M 2 14 " clip-rule="nonzero"/></clipPath><clipPath id="7e9778502f"><path d="M 0 14.105469 L 9.597656 7.214844 L 16.488281 16.808594 L 6.890625 23.699219 Z M 0 14.105469 " clip-rule="nonzero"/></clipPath><clipPath id="af1e792681"><path d="M 0 14.105469 L 9.597656 7.214844 L 16.488281 16.808594 L 6.890625 23.699219 Z M 0 14.105469 " clip-rule="nonzero"/></clipPath><clipPath id="05b5e94bd5"><path d="M 3 14 L 6 14 L 6 16 L 3 16 Z M 3 14 " clip-rule="nonzero"/></clipPath><clipPath id="70f211e2f4"><path d="M 0 14.105469 L 9.597656 7.214844 L 16.488281 16.808594 L 6.890625 23.699219 Z M 0 14.105469 " clip-rule="nonzero"/></clipPath><clipPath id="f8a12c351c"><path d="M 0 14.105469 L 9.597656 7.214844 L 16.488281 16.808594 L 6.890625 23.699219 Z M 0 14.105469 " clip-rule="nonzero"/></clipPath><clipPath id="9dda092233"><path d="M 5 14 L 8 14 L 8 16 L 5 16 Z M 5 14 " clip-rule="nonzero"/></clipPath><clipPath id="e76a5aa20e"><path d="M 0 14.105469 L 9.597656 7.214844 L 16.488281 16.808594 L 6.890625 23.699219 Z M 0 14.105469 " clip-rule="nonzero"/></clipPath><clipPath id="f861dec9a7"><path d="M 0 14.105469 L 9.597656 7.214844 L 16.488281 16.808594 L 6.890625 23.699219 Z M 0 14.105469 " clip-rule="nonzero"/></clipPath><clipPath id="a858cc4ade"><path d="M 7 14 L 10 14 L 10 16 L 7 16 Z M 7 14 " clip-rule="nonzero"/></clipPath><clipPath id="bd57b6d3a8"><path d="M 0 14.105469 L 9.597656 7.214844 L 16.488281 16.808594 L 6.890625 23.699219 Z M 0 14.105469 " clip-rule="nonzero"/></clipPath><clipPath id="d925074945"><path d="M 0 14.105469 L 9.597656 7.214844 L 16.488281 16.808594 L 6.890625 23.699219 Z M 0 14.105469 " clip-rule="nonzero"/></clipPath><clipPath id="8cdc5792ab"><path d="M 2 16 L 4 16 L 4 18 L 2 18 Z M 2 16 " clip-rule="nonzero"/></clipPath><clipPath id="3e36109057"><path d="M 0 14.105469 L 9.597656 7.214844 L 16.488281 16.808594 L 6.890625 23.699219 Z M 0 14.105469 " clip-rule="nonzero"/></clipPath><clipPath id="4fed4967df"><path d="M 0 14.105469 L 9.597656 7.214844 L 16.488281 16.808594 L 6.890625 23.699219 Z M 0 14.105469 " clip-rule="nonzero"/></clipPath><clipPath id="31df52d04a"><path d="M 3 16 L 5 16 L 5 18 L 3 18 Z M 3 16 " clip-rule="nonzero"/></clipPath><clipPath id="55ab1ccd89"><path d="M 0 14.105469 L 9.597656 7.214844 L 16.488281 16.808594 L 6.890625 23.699219 Z M 0 14.105469 " clip-rule="nonzero"/></clipPath><clipPath id="2be6d14a9b"><path d="M 0 14.105469 L 9.597656 7.214844 L 16.488281 16.808594 L 6.890625 23.699219 Z M 0 14.105469 " clip-rule="nonzero"/></clipPath><clipPath id="65c7b7b7ee"><path d="M 4 16 L 7 16 L 7 18 L 4 18 Z M 4 16 " clip-rule="nonzero"/></clipPath><clipPath id="9f835bd521"><path d="M 0 14.105469 L 9.597656 7.214844 L 16.488281 16.808594 L 6.890625 23.699219 Z M 0 14.105469 " clip-rule="nonzero"/></clipPath><clipPath id="e71e247e6b"><path d="M 0 14.105469 L 9.597656 7.214844 L 16.488281 16.808594 L 6.890625 23.699219 Z M 0 14.105469 " clip-rule="nonzero"/></clipPath><clipPath id="57750e4f65"><path d="M 6 16 L 9 16 L 9 18 L 6 18 Z M 6 16 " clip-rule="nonzero"/></clipPath><clipPath id="d69327e292"><path d="M 0 14.105469 L 9.597656 7.214844 L 16.488281 16.808594 L 6.890625 23.699219 Z M 0 14.105469 " clip-rule="nonzero"/></clipPath><clipPath id="4fb86939db"><path d="M 0 14.105469 L 9.597656 7.214844 L 16.488281 16.808594 L 6.890625 23.699219 Z M 0 14.105469 " clip-rule="nonzero"/></clipPath><clipPath id="928f23082f"><path d="M 3 18 L 4 18 L 4 20 L 3 20 Z M 3 18 " clip-rule="nonzero"/></clipPath><clipPath id="0d27041c78"><path d="M 0 14.105469 L 9.597656 7.214844 L 16.488281 16.808594 L 6.890625 23.699219 Z M 0 14.105469 " clip-rule="nonzero"/></clipPath><clipPath id="5daad07209"><path d="M 0 14.105469 L 9.597656 7.214844 L 16.488281 16.808594 L 6.890625 23.699219 Z M 0 14.105469 " clip-rule="nonzero"/></clipPath><clipPath id="fa26900c05"><path d="M 3 18 L 5 18 L 5 20 L 3 20 Z M 3 18 " clip-rule="nonzero"/></clipPath><clipPath id="33e8518bc7"><path d="M 0 14.105469 L 9.597656 7.214844 L 16.488281 16.808594 L 6.890625 23.699219 Z M 0 14.105469 " clip-rule="nonzero"/></clipPath><clipPath id="af22b57711"><path d="M 0 14.105469 L 9.597656 7.214844 L 16.488281 16.808594 L 6.890625 23.699219 Z M 0 14.105469 " clip-rule="nonzero"/></clipPath><clipPath id="606d7827f5"><path d="M 4 18 L 6 18 L 6 20 L 4 20 Z M 4 18 " clip-rule="nonzero"/></clipPath><clipPath id="48abe0768f"><path d="M 0 14.105469 L 9.597656 7.214844 L 16.488281 16.808594 L 6.890625 23.699219 Z M 0 14.105469 " clip-rule="nonzero"/></clipPath><clipPath id="551c7a0ea6"><path d="M 0 14.105469 L 9.597656 7.214844 L 16.488281 16.808594 L 6.890625 23.699219 Z M 0 14.105469 " clip-rule="nonzero"/></clipPath><clipPath id="68416e03b1"><path d="M 4 19 L 6 19 L 6 21 L 4 21 Z M 4 19 " clip-rule="nonzero"/></clipPath><clipPath id="b9de619d1c"><path d="M 0 14.105469 L 9.597656 7.214844 L 16.488281 16.808594 L 6.890625 23.699219 Z M 0 14.105469 " clip-rule="nonzero"/></clipPath><clipPath id="391a322f9b"><path d="M 0 14.105469 L 9.597656 7.214844 L 16.488281 16.808594 L 6.890625 23.699219 Z M 0 14.105469 " clip-rule="nonzero"/></clipPath><clipPath id="7655ed4ef5"><path d="M 5 19 L 7 19 L 7 21 L 5 21 Z M 5 19 " clip-rule="nonzero"/></clipPath><clipPath id="082f7bb5ab"><path d="M 0 14.105469 L 9.597656 7.214844 L 16.488281 16.808594 L 6.890625 23.699219 Z M 0 14.105469 " clip-rule="nonzero"/></clipPath><clipPath id="6e18c23a74"><path d="M 0 14.105469 L 9.597656 7.214844 L 16.488281 16.808594 L 6.890625 23.699219 Z M 0 14.105469 " clip-rule="nonzero"/></clipPath><clipPath id="38b475ddb0"><path d="M 7 19 L 9 19 L 9 21 L 7 21 Z M 7 19 " clip-rule="nonzero"/></clipPath><clipPath id="87ca1c84a6"><path d="M 0 14.105469 L 9.597656 7.214844 L 16.488281 16.808594 L 6.890625 23.699219 Z M 0 14.105469 " clip-rule="nonzero"/></clipPath><clipPath id="a75fcd9b03"><path d="M 0 14.105469 L 9.597656 7.214844 L 16.488281 16.808594 L 6.890625 23.699219 Z M 0 14.105469 " clip-rule="nonzero"/></clipPath><clipPath id="1f0bb1c5f8"><path d="M 5 20 L 7 20 L 7 22 L 5 22 Z M 5 20 " clip-rule="nonzero"/></clipPath><clipPath id="d9c666b235"><path d="M 0 14.105469 L 9.597656 7.214844 L 16.488281 16.808594 L 6.890625 23.699219 Z M 0 14.105469 " clip-rule="nonzero"/></clipPath><clipPath id="28ec8642b9"><path d="M 0 14.105469 L 9.597656 7.214844 L 16.488281 16.808594 L 6.890625 23.699219 Z M 0 14.105469 " clip-rule="nonzero"/></clipPath><clipPath id="a5506d0b61"><path d="M 6 20 L 8 20 L 8 22 L 6 22 Z M 6 20 " clip-rule="nonzero"/></clipPath><clipPath id="44a022b20c"><path d="M 0 14.105469 L 9.597656 7.214844 L 16.488281 16.808594 L 6.890625 23.699219 Z M 0 14.105469 " clip-rule="nonzero"/></clipPath><clipPath id="3c21ceef98"><path d="M 0 14.105469 L 9.597656 7.214844 L 16.488281 16.808594 L 6.890625 23.699219 Z M 0 14.105469 " clip-rule="nonzero"/></clipPath><clipPath id="bf2a3176a6"><path d="M 7 20 L 8 20 L 8 22 L 7 22 Z M 7 20 " clip-rule="nonzero"/></clipPath><clipPath id="c95b70efff"><path d="M 0 14.105469 L 9.597656 7.214844 L 16.488281 16.808594 L 6.890625 23.699219 Z M 0 14.105469 " clip-rule="nonzero"/></clipPath><clipPath id="200f53590e"><path d="M 0 14.105469 L 9.597656 7.214844 L 16.488281 16.808594 L 6.890625 23.699219 Z M 0 14.105469 " clip-rule="nonzero"/></clipPath><clipPath id="48b873acfc"><path d="M 8 20 L 9 20 L 9 22 L 8 22 Z M 8 20 " clip-rule="nonzero"/></clipPath><clipPath id="c027981bf0"><path d="M 0 14.105469 L 9.597656 7.214844 L 16.488281 16.808594 L 6.890625 23.699219 Z M 0 14.105469 " clip-rule="nonzero"/></clipPath><clipPath id="2f32ab7d71"><path d="M 0 14.105469 L 9.597656 7.214844 L 16.488281 16.808594 L 6.890625 23.699219 Z M 0 14.105469 " clip-rule="nonzero"/></clipPath><clipPath id="66d0c0e297"><path d="M 8 20 L 10 20 L 10 22 L 8 22 Z M 8 20 " clip-rule="nonzero"/></clipPath><clipPath id="8d20d033c2"><path d="M 0 14.105469 L 9.597656 7.214844 L 16.488281 16.808594 L 6.890625 23.699219 Z M 0 14.105469 " clip-rule="nonzero"/></clipPath><clipPath id="190f3f35df"><path d="M 0 14.105469 L 9.597656 7.214844 L 16.488281 16.808594 L 6.890625 23.699219 Z M 0 14.105469 " clip-rule="nonzero"/></clipPath><clipPath id="867bc7aba9"><path d="M 9 20 L 11 20 L 11 22 L 9 22 Z M 9 20 " clip-rule="nonzero"/></clipPath><clipPath id="d8e485b333"><path d="M 0 14.105469 L 9.597656 7.214844 L 16.488281 16.808594 L 6.890625 23.699219 Z M 0 14.105469 " clip-rule="nonzero"/></clipPath><clipPath id="eb14c26a40"><path d="M 0 14.105469 L 9.597656 7.214844 L 16.488281 16.808594 L 6.890625 23.699219 Z M 0 14.105469 " clip-rule="nonzero"/></clipPath></defs><g clip-path="url(#8274daa79c)"><g clip-path="url(#24fa3d9f57)"><g clip-path="url(#1b503523e2)"><path fill="#a6a6a6" d="M 6.585938 9.835938 C 5.957031 10.117188 5.921875 10.136719 5.882812 10.117188 C 5.925781 9.988281 6.808594 9.65625 7.125 9.609375 C 7.113281 9.617188 7.113281 9.617188 7.050781 9.644531 C 6.921875 9.691406 6.792969 9.742188 6.585938 9.835938 " fill-opacity="1" fill-rule="nonzero"/></g></g></g><g clip-path="url(#c9ca3854c8)"><g clip-path="url(#e1fae397e4)"><g clip-path="url(#b3d9f6c7fb)"><path fill="#a6a6a6" d="M 7.210938 9.804688 C 6.722656 10.101562 6.464844 10.117188 6.492188 10.027344 C 6.539062 9.867188 7.210938 9.605469 7.492188 9.582031 C 7.496094 9.582031 7.507812 9.585938 7.511719 9.585938 C 7.515625 9.589844 7.515625 9.589844 7.519531 9.59375 C 7.492188 9.636719 7.222656 9.800781 7.210938 9.804688 " fill-opacity="1" fill-rule="nonzero"/></g></g></g><g clip-path="url(#58fcc682a4)"><g clip-path="url(#a2d424a0e1)"><g clip-path="url(#17679cfd92)"><path fill="#a6a6a6" d="M 8.039062 9.796875 C 7.828125 10.070312 7.386719 10.121094 7.363281 9.96875 C 7.34375 9.800781 7.785156 9.582031 8.023438 9.570312 C 8.207031 9.578125 8.046875 9.789062 8.039062 9.796875 " fill-opacity="1" fill-rule="nonzero"/></g></g></g><g clip-path="url(#baf3f2c2b8)"><g clip-path="url(#f98502cd50)"><g clip-path="url(#adb833902d)"><path fill="#a6a6a6" d="M 8.910156 9.808594 C 8.953125 10.03125 8.605469 10.132812 8.410156 10.003906 C 8.203125 9.871094 8.351562 9.625 8.554688 9.582031 C 8.578125 9.578125 8.597656 9.578125 8.617188 9.574219 C 8.773438 9.585938 8.890625 9.703125 8.910156 9.808594 " fill-opacity="1" fill-rule="nonzero"/></g></g></g><g clip-path="url(#a193b57bc6)"><g clip-path="url(#7ebce23495)"><g clip-path="url(#f31ceb234a)"><path fill="#a6a6a6" d="M 9.738281 9.839844 C 9.890625 9.980469 9.84375 10.085938 9.703125 10.09375 C 9.367188 10.113281 9.019531 9.714844 9.132812 9.609375 C 9.148438 9.59375 9.175781 9.59375 9.199219 9.59375 C 9.339844 9.605469 9.597656 9.707031 9.738281 9.839844 " fill-opacity="1" fill-rule="nonzero"/></g></g></g><g clip-path="url(#5becab2022)"><g clip-path="url(#991d9dd52c)"><g clip-path="url(#0bed43ae68)"><path fill="#a6a6a6" d="M 10.433594 9.886719 C 10.664062 10.019531 10.726562 10.121094 10.648438 10.140625 C 10.597656 10.15625 10.457031 10.128906 10.238281 10.011719 C 10.050781 9.910156 9.683594 9.660156 9.683594 9.625 C 9.691406 9.621094 9.695312 9.621094 9.710938 9.621094 C 9.84375 9.636719 10.183594 9.746094 10.433594 9.886719 " fill-opacity="1" fill-rule="nonzero"/></g></g></g><g clip-path="url(#b42119a6bf)"><g clip-path="url(#549dcc4454)"><g clip-path="url(#3d38ae0338)"><path fill="#a6a6a6" d="M 10.898438 9.945312 C 11.105469 10.042969 11.328125 10.171875 11.316406 10.210938 C 11.304688 10.214844 11.28125 10.222656 11.09375 10.140625 C 11.085938 10.136719 10.097656 9.667969 10.085938 9.660156 L 10.09375 9.660156 C 10.164062 9.671875 10.527344 9.773438 10.898438 9.945312 " fill-opacity="1" fill-rule="nonzero"/></g></g></g><g clip-path="url(#d4228c1444)"><g clip-path="url(#f38bceff8a)"><g clip-path="url(#06e2195a1d)"><path fill="#a6a6a6" d="M 4.917969 10.789062 C 4.53125 11.125 4.316406 11.277344 4.277344 11.25 C 4.261719 11.109375 5.128906 10.421875 5.371094 10.351562 L 5.378906 10.347656 C 5.382812 10.367188 5.386719 10.382812 4.917969 10.789062 " fill-opacity="1" fill-rule="nonzero"/><path fill="#a6a6a6" d="M 5.722656 10.726562 C 5.34375 11.117188 4.914062 11.285156 4.90625 11.105469 C 4.902344 10.859375 5.59375 10.332031 5.910156 10.292969 C 6.140625 10.292969 5.726562 10.722656 5.722656 10.726562 " fill-opacity="1" fill-rule="nonzero"/></g></g></g><g clip-path="url(#374f533c26)"><g clip-path="url(#3f648ead5f)"><g clip-path="url(#ed681b5d05)"><path fill="#a6a6a6" d="M 6.957031 10.695312 C 6.6875 11.121094 6.070312 11.261719 5.992188 10.992188 C 5.914062 10.730469 6.429688 10.28125 6.839844 10.253906 C 7.15625 10.261719 7.03125 10.574219 6.957031 10.695312 " fill-opacity="1" fill-rule="nonzero"/></g></g></g><g clip-path="url(#b798389747)"><g clip-path="url(#5f867f665b)"><g clip-path="url(#83ed9cb9ac)"><path fill="#a6a6a6" d="M 8.371094 10.699219 C 8.28125 11.148438 7.605469 11.25 7.421875 10.9375 C 7.261719 10.667969 7.605469 10.261719 8 10.246094 C 8.316406 10.261719 8.40625 10.519531 8.371094 10.699219 " fill-opacity="1" fill-rule="nonzero"/></g></g></g><g clip-path="url(#4936635558)"><g clip-path="url(#06c7e0bd2e)"><g clip-path="url(#2a2f1892f1)"><path fill="#a6a6a6" d="M 9.789062 10.734375 C 9.878906 11.105469 9.410156 11.257812 9.078125 11.050781 C 8.707031 10.828125 8.769531 10.367188 9.089844 10.28125 C 9.132812 10.269531 9.171875 10.269531 9.207031 10.269531 C 9.53125 10.292969 9.746094 10.558594 9.789062 10.734375 " fill-opacity="1" fill-rule="nonzero"/></g></g></g><g clip-path="url(#ec85c6d1a1)"><g clip-path="url(#eb36951093)"><g clip-path="url(#86fc3788c8)"><path fill="#a6a6a6" d="M 11.058594 10.796875 C 11.234375 11.074219 11.097656 11.269531 10.78125 11.191406 C 10.304688 11.074219 9.96875 10.472656 10.210938 10.335938 C 10.25 10.3125 10.289062 10.3125 10.332031 10.3125 C 10.609375 10.34375 10.925781 10.589844 11.058594 10.796875 " fill-opacity="1" fill-rule="nonzero"/></g></g></g><g clip-path="url(#a6ee089a6e)"><g clip-path="url(#f4c60b1c20)"><g clip-path="url(#ff0ce2af4e)"><path fill="#a6a6a6" d="M 12.042969 10.886719 C 12.265625 11.128906 12.296875 11.316406 12.109375 11.296875 C 11.726562 11.261719 11.046875 10.492188 11.191406 10.390625 C 11.207031 10.382812 11.234375 10.382812 11.253906 10.382812 C 11.476562 10.417969 11.839844 10.671875 12.042969 10.886719 " fill-opacity="1" fill-rule="nonzero"/><path fill="#a6a6a6" d="M 12.539062 10.984375 C 12.714844 11.144531 12.898438 11.347656 12.890625 11.402344 C 12.777344 11.46875 11.816406 10.480469 11.8125 10.464844 C 11.816406 10.464844 11.824219 10.464844 11.828125 10.464844 C 11.921875 10.496094 12.238281 10.707031 12.539062 10.984375 " fill-opacity="1" fill-rule="nonzero"/></g></g></g><g clip-path="url(#393c48ed22)"><g clip-path="url(#16592dad00)"><g clip-path="url(#3f5caf1bfd)"><path fill="#a6a6a6" d="M 3.574219 12.109375 C 3.210938 12.65625 3.160156 12.695312 3.144531 12.710938 L 3.136719 12.703125 C 3.140625 12.6875 3.148438 12.671875 3.179688 12.613281 C 3.5 12.074219 3.5 12.074219 3.6875 11.824219 L 3.890625 11.574219 C 3.929688 11.527344 3.941406 11.519531 3.953125 11.507812 L 3.957031 11.511719 C 3.949219 11.535156 3.933594 11.570312 3.574219 12.109375 " fill-opacity="1" fill-rule="nonzero"/></g></g></g><g clip-path="url(#5be8474512)"><g clip-path="url(#98b622ca20)"><g clip-path="url(#2ec997d92f)"><path fill="#a6a6a6" d="M 4.300781 12.015625 C 4.027344 12.457031 3.648438 12.734375 3.589844 12.539062 C 3.511719 12.277344 4.101562 11.480469 4.417969 11.417969 C 4.601562 11.417969 4.445312 11.78125 4.300781 12.015625 " fill-opacity="1" fill-rule="nonzero"/></g></g></g><g clip-path="url(#756f056988)"><g clip-path="url(#47db8d2215)"><g clip-path="url(#9868c13f74)"><path fill="#a6a6a6" d="M 5.625 11.953125 C 5.378906 12.453125 4.722656 12.710938 4.609375 12.351562 C 4.503906 12.027344 4.96875 11.394531 5.4375 11.347656 C 5.765625 11.355469 5.746094 11.707031 5.625 11.953125 " fill-opacity="1" fill-rule="nonzero"/></g></g></g><g clip-path="url(#608bcf4df9)"><g clip-path="url(#0881b657d5)"><g clip-path="url(#c891d18efe)"><path fill="#a6a6a6" d="M 7.367188 11.933594 C 7.21875 12.460938 6.429688 12.683594 6.191406 12.261719 C 6 11.921875 6.371094 11.347656 6.929688 11.316406 C 7.371094 11.335938 7.433594 11.703125 7.367188 11.933594 " fill-opacity="1" fill-rule="nonzero"/></g></g></g><g clip-path="url(#6536bf5982)"><g clip-path="url(#3aca0ab024)"><g clip-path="url(#786bd1217e)"><path fill="#a6a6a6" d="M 9.207031 11.957031 C 9.183594 12.46875 8.484375 12.691406 8.105469 12.304688 C 7.769531 11.964844 7.996094 11.34375 8.589844 11.328125 C 9.03125 11.355469 9.21875 11.714844 9.207031 11.957031 " fill-opacity="1" fill-rule="nonzero"/></g></g></g><g clip-path="url(#231a197ad5)"><g clip-path="url(#fdb70b4a41)"><g clip-path="url(#e09eeceead)"><path fill="#a6a6a6" d="M 10.953125 12.023438 C 11.039062 12.480469 10.550781 12.714844 10.109375 12.429688 C 9.609375 12.105469 9.683594 11.453125 10.117188 11.382812 C 10.148438 11.375 10.191406 11.375 10.222656 11.375 C 10.648438 11.414062 10.90625 11.777344 10.953125 12.023438 " fill-opacity="1" fill-rule="nonzero"/></g></g></g><g clip-path="url(#de5a329ee9)"><g clip-path="url(#06ca2d3157)"><g clip-path="url(#6ce77353e0)"><path fill="#a6a6a6" d="M 12.421875 12.121094 C 12.574219 12.507812 12.359375 12.75 12 12.605469 C 11.449219 12.386719 11.203125 11.59375 11.539062 11.46875 C 11.582031 11.453125 11.625 11.453125 11.660156 11.453125 C 12.015625 11.5 12.324219 11.882812 12.421875 12.121094 " fill-opacity="1" fill-rule="nonzero"/></g></g></g><g clip-path="url(#eed4c565d0)"><g clip-path="url(#eb0b6093b3)"><g clip-path="url(#ee1696192f)"><path fill="#a6a6a6" d="M 13.394531 12.246094 C 13.582031 12.585938 13.574219 12.824219 13.378906 12.761719 C 13.011719 12.648438 12.429688 11.652344 12.679688 11.5625 C 12.691406 11.558594 12.710938 11.558594 12.726562 11.5625 C 12.957031 11.613281 13.257812 11.992188 13.394531 12.246094 " fill-opacity="1" fill-rule="nonzero"/></g></g></g><g clip-path="url(#184b8140f0)"><g clip-path="url(#6e401af832)"><g clip-path="url(#4c09847fd7)"><path fill="#a6a6a6" d="M 13.957031 12.84375 C 13.972656 12.875 13.976562 12.886719 13.976562 12.894531 L 13.972656 12.902344 C 13.886719 12.824219 13.234375 11.769531 13.199219 11.675781 L 13.203125 11.671875 C 13.21875 11.683594 13.222656 11.691406 13.253906 11.730469 L 13.457031 11.996094 C 13.796875 12.519531 13.796875 12.519531 13.9375 12.800781 L 13.945312 12.820312 C 13.949219 12.824219 13.953125 12.835938 13.957031 12.84375 " fill-opacity="1" fill-rule="nonzero"/></g></g></g><g clip-path="url(#4dbc748ccc)"><g clip-path="url(#383b3373d7)"><g clip-path="url(#6cce81c835)"><path fill="#a6a6a6" d="M 3.203125 13.539062 C 3.042969 14.023438 2.808594 14.351562 2.742188 14.1875 C 2.644531 13.953125 2.988281 12.917969 3.25 12.824219 C 3.390625 12.820312 3.296875 13.261719 3.203125 13.539062 " fill-opacity="1" fill-rule="nonzero"/></g></g></g><g clip-path="url(#207b1c08f7)"><g clip-path="url(#0c6835397e)"><g clip-path="url(#659adafcb3)"><path fill="#a6a6a6" d="M 4.371094 13.449219 C 4.195312 14.019531 3.695312 14.332031 3.519531 13.976562 C 3.34375 13.613281 3.683594 12.792969 4.136719 12.726562 C 4.449219 12.730469 4.460938 13.152344 4.371094 13.449219 " fill-opacity="1" fill-rule="nonzero"/></g></g></g><g clip-path="url(#4a58d6a8ce)"><g clip-path="url(#0f705edb87)"><g clip-path="url(#0c4b76c228)"><path fill="#a6a6a6" d="M 6.164062 13.402344 C 6.015625 14.03125 5.214844 14.292969 4.945312 13.804688 C 4.714844 13.394531 5.058594 12.710938 5.660156 12.667969 C 6.152344 12.683594 6.230469 13.125 6.164062 13.402344 " fill-opacity="1" fill-rule="nonzero"/></g></g></g><g clip-path="url(#0494472c06)"><g clip-path="url(#f71976df59)"><g clip-path="url(#ceccb53965)"><path fill="#a6a6a6" d="M 8.222656 13.40625 C 8.136719 14.042969 7.300781 14.28125 6.925781 13.777344 C 6.621094 13.367188 6.921875 12.683594 7.574219 12.652344 C 8.089844 12.683594 8.265625 13.109375 8.222656 13.40625 " fill-opacity="1" fill-rule="nonzero"/></g></g></g><g clip-path="url(#588bcd2d74)"><g clip-path="url(#591574690e)"><g clip-path="url(#acf2e65f24)"><path fill="#a6a6a6" d="M 12.132812 13.554688 C 12.179688 14.125 11.617188 14.371094 11.179688 13.976562 C 10.710938 13.554688 10.8125 12.796875 11.34375 12.765625 C 11.359375 12.765625 11.382812 12.765625 11.402344 12.765625 C 11.863281 12.816406 12.105469 13.257812 12.132812 13.554688 " fill-opacity="1" fill-rule="nonzero"/></g></g></g><g clip-path="url(#b0bfae2270)"><g clip-path="url(#3ef19646dd)"><g clip-path="url(#db81f77c49)"><path fill="#a6a6a6" d="M 2.609375 15.386719 C 2.601562 15.65625 2.574219 16.117188 2.511719 16.121094 C 2.492188 16.105469 2.472656 16.046875 2.457031 15.769531 L 2.453125 15.390625 L 2.476562 14.925781 C 2.507812 14.625 2.535156 14.59375 2.546875 14.582031 L 2.554688 14.582031 C 2.613281 14.632812 2.613281 15.113281 2.609375 15.386719 " fill-opacity="1" fill-rule="nonzero"/></g></g></g><g clip-path="url(#3453990788)"><g clip-path="url(#7e9778502f)"><g clip-path="url(#af1e792681)"><path fill="#a6a6a6" d="M 3.464844 15.277344 C 3.433594 15.820312 3.167969 16.164062 2.964844 15.929688 C 2.6875 15.613281 2.761719 14.546875 3.148438 14.460938 C 3.402344 14.464844 3.484375 14.9375 3.464844 15.277344 " fill-opacity="1" fill-rule="nonzero"/></g></g></g><g clip-path="url(#05b5e94bd5)"><g clip-path="url(#70f211e2f4)"><g clip-path="url(#f8a12c351c)"><path fill="#a6a6a6" d="M 5.03125 15.203125 C 4.96875 15.839844 4.367188 16.148438 4.039062 15.707031 C 3.71875 15.277344 3.910156 14.433594 4.464844 14.375 C 4.910156 14.386719 5.0625 14.867188 5.03125 15.203125 " fill-opacity="1" fill-rule="nonzero"/></g></g></g><g clip-path="url(#9dda092233)"><g clip-path="url(#e76a5aa20e)"><g clip-path="url(#f861dec9a7)"><path fill="#a6a6a6" d="M 7.09375 15.179688 C 7.015625 15.855469 6.214844 16.117188 5.8125 15.601562 C 5.460938 15.144531 5.714844 14.375 6.394531 14.332031 C 6.96875 14.359375 7.125 14.867188 7.09375 15.179688 " fill-opacity="1" fill-rule="nonzero"/></g></g></g><g clip-path="url(#a858cc4ade)"><g clip-path="url(#bd57b6d3a8)"><g clip-path="url(#d925074945)"><path fill="#a6a6a6" d="M 9.265625 15.210938 C 9.1875 15.886719 8.355469 16.132812 7.9375 15.597656 C 7.574219 15.136719 7.839844 14.371094 8.539062 14.347656 C 9.136719 14.386719 9.300781 14.898438 9.265625 15.210938 " fill-opacity="1" fill-rule="nonzero"/></g></g></g><g clip-path="url(#8cdc5792ab)"><g clip-path="url(#3e36109057)"><g clip-path="url(#4fed4967df)"><path fill="#a6a6a6" d="M 3.214844 17.238281 C 3.316406 17.632812 3.3125 17.988281 3.144531 17.878906 C 2.886719 17.710938 2.53125 16.578125 2.785156 16.476562 C 2.949219 16.472656 3.136719 16.921875 3.214844 17.238281 " fill-opacity="1" fill-rule="nonzero"/></g></g></g><g clip-path="url(#31df52d04a)"><g clip-path="url(#55ab1ccd89)"><g clip-path="url(#2be6d14a9b)"><path fill="#a6a6a6" d="M 4.367188 17.152344 C 4.441406 17.644531 4.1875 17.945312 3.871094 17.734375 C 3.410156 17.429688 3.289062 16.480469 3.695312 16.378906 C 3.707031 16.375 3.726562 16.375 3.738281 16.371094 C 4.089844 16.378906 4.316406 16.832031 4.367188 17.152344 " fill-opacity="1" fill-rule="nonzero"/></g></g></g><g clip-path="url(#65c7b7b7ee)"><g clip-path="url(#9f835bd521)"><g clip-path="url(#e71e247e6b)"><path fill="#a6a6a6" d="M 6.136719 17.105469 C 6.152344 17.691406 5.566406 17.949219 5.125 17.550781 C 4.714844 17.179688 4.707031 16.359375 5.378906 16.304688 C 5.886719 16.324219 6.128906 16.785156 6.136719 17.105469 " fill-opacity="1" fill-rule="nonzero"/></g></g></g><g clip-path="url(#57750e4f65)"><g clip-path="url(#d69327e292)"><g clip-path="url(#4fb86939db)"><path fill="#a6a6a6" d="M 8.164062 17.109375 C 8.097656 17.765625 7.3125 17.960938 6.90625 17.421875 C 6.574219 16.980469 6.792969 16.324219 7.433594 16.292969 C 7.988281 16.324219 8.195312 16.789062 8.164062 17.109375 " fill-opacity="1" fill-rule="nonzero"/></g></g></g><g clip-path="url(#928f23082f)"><g clip-path="url(#0d27041c78)"><g clip-path="url(#5daad07209)"><path fill="#a6a6a6" d="M 3.65625 18.867188 C 3.871094 19.207031 3.972656 19.390625 3.953125 19.421875 C 3.828125 19.433594 3.078125 18.3125 3.144531 18.214844 C 3.222656 18.207031 3.582031 18.757812 3.65625 18.867188 " fill-opacity="1" fill-rule="nonzero"/></g></g></g><g clip-path="url(#fa26900c05)"><g clip-path="url(#33e8518bc7)"><g clip-path="url(#af22b57711)"><path fill="#a6a6a6" d="M 4.351562 18.777344 C 4.507812 19.089844 4.550781 19.378906 4.347656 19.328125 C 3.964844 19.226562 3.40625 18.296875 3.625 18.125 C 3.640625 18.117188 3.660156 18.109375 3.675781 18.105469 C 3.894531 18.105469 4.1875 18.453125 4.351562 18.777344 " fill-opacity="1" fill-rule="nonzero"/></g></g></g><g clip-path="url(#606d7827f5)"><g clip-path="url(#48abe0768f)"><g clip-path="url(#551c7a0ea6)"><path fill="#a6a6a6" d="M 5.621094 18.71875 C 5.742188 19.125 5.519531 19.425781 5.105469 19.179688 C 4.566406 18.863281 4.367188 18.113281 4.800781 18.035156 C 4.816406 18.03125 4.835938 18.03125 4.851562 18.027344 C 5.246094 18.039062 5.542969 18.4375 5.621094 18.71875 " fill-opacity="1" fill-rule="nonzero"/></g></g></g><g clip-path="url(#68416e03b1)"><g clip-path="url(#b9de619d1c)"><g clip-path="url(#391a322f9b)"><path fill="#a6a6a6" d="M 4.972656 20.078125 C 5.25 20.347656 5.367188 20.488281 5.320312 20.5 C 5.128906 20.546875 4.121094 19.660156 4.242188 19.550781 C 4.246094 19.550781 4.25 19.546875 4.253906 19.546875 C 4.398438 19.542969 4.804688 19.917969 4.972656 20.078125 " fill-opacity="1" fill-rule="nonzero"/><path fill="#a6a6a6" d="M 5.726562 20.019531 C 5.851562 20.183594 6.011719 20.460938 5.8125 20.441406 C 5.457031 20.414062 4.683594 19.707031 4.878906 19.5 C 4.898438 19.480469 4.929688 19.472656 4.953125 19.46875 C 5.203125 19.472656 5.527344 19.757812 5.726562 20.019531 " fill-opacity="1" fill-rule="nonzero"/></g></g></g><g clip-path="url(#7655ed4ef5)"><g clip-path="url(#082f7bb5ab)"><g clip-path="url(#6e18c23a74)"><path fill="#a6a6a6" d="M 6.890625 19.988281 C 7.003906 20.304688 6.863281 20.527344 6.472656 20.339844 C 5.964844 20.09375 5.714844 19.539062 6.0625 19.433594 C 6.089844 19.425781 6.128906 19.425781 6.15625 19.421875 C 6.546875 19.4375 6.808594 19.769531 6.890625 19.988281 " fill-opacity="1" fill-rule="nonzero"/></g></g></g><g clip-path="url(#38b475ddb0)"><g clip-path="url(#87ca1c84a6)"><g clip-path="url(#a75fcd9b03)"><path fill="#a6a6a6" d="M 8.222656 19.992188 C 8.203125 20.402344 7.757812 20.570312 7.414062 20.164062 C 7.148438 19.855469 7.222656 19.433594 7.664062 19.410156 C 8.03125 19.433594 8.234375 19.722656 8.222656 19.992188 " fill-opacity="1" fill-rule="nonzero"/></g></g></g><g clip-path="url(#1f0bb1c5f8)"><g clip-path="url(#d9c666b235)"><g clip-path="url(#28ec8642b9)"><path fill="#a6a6a6" d="M 6.535156 20.996094 C 6.949219 21.230469 6.949219 21.230469 6.960938 21.242188 C 6.960938 21.246094 6.957031 21.246094 6.957031 21.25 C 6.648438 21.246094 5.597656 20.710938 5.734375 20.628906 C 5.738281 20.628906 5.742188 20.625 5.746094 20.625 C 5.878906 20.625 6.183594 20.796875 6.535156 20.996094 " fill-opacity="1" fill-rule="nonzero"/></g></g></g><g clip-path="url(#a5506d0b61)"><g clip-path="url(#44a022b20c)"><g clip-path="url(#3c21ceef98)"><path fill="#a6a6a6" d="M 7.117188 20.96875 C 7.40625 21.21875 7.335938 21.222656 7.3125 21.226562 C 7.070312 21.238281 6.199219 20.75 6.339844 20.601562 C 6.355469 20.585938 6.382812 20.585938 6.402344 20.582031 C 6.664062 20.589844 7.015625 20.878906 7.117188 20.96875 " fill-opacity="1" fill-rule="nonzero"/></g></g></g><g clip-path="url(#bf2a3176a6)"><g clip-path="url(#c95b70efff)"><g clip-path="url(#200f53590e)"><path fill="#a6a6a6" d="M 7.882812 20.960938 C 7.917969 21.046875 8.003906 21.3125 7.675781 21.171875 C 7.289062 21.007812 7.0625 20.675781 7.265625 20.582031 C 7.296875 20.566406 7.332031 20.5625 7.359375 20.5625 C 7.617188 20.574219 7.8125 20.777344 7.882812 20.960938 " fill-opacity="1" fill-rule="nonzero"/></g></g></g><g clip-path="url(#48b873acfc)"><g clip-path="url(#c027981bf0)"><g clip-path="url(#2f32ab7d71)"><path fill="#a6a6a6" d="M 8.691406 20.972656 C 8.585938 21.257812 8.292969 21.324219 8.152344 20.992188 C 8.066406 20.796875 8.15625 20.578125 8.425781 20.566406 C 8.679688 20.585938 8.761719 20.789062 8.691406 20.972656 " fill-opacity="1" fill-rule="nonzero"/></g></g></g><g clip-path="url(#66d0c0e297)"><g clip-path="url(#8d20d033c2)"><g clip-path="url(#190f3f35df)"><path fill="#a6a6a6" d="M 9.460938 21 C 9.371094 21.078125 8.875 21.410156 8.90625 21.113281 C 8.925781 20.90625 9.15625 20.601562 9.472656 20.597656 C 9.707031 20.621094 9.65625 20.828125 9.460938 21 " fill-opacity="1" fill-rule="nonzero"/></g></g></g><g clip-path="url(#867bc7aba9)"><g clip-path="url(#d8e485b333)"><g clip-path="url(#eb14c26a40)"><path fill="#a6a6a6" d="M 10.105469 21.042969 C 9.851562 21.179688 9.441406 21.316406 9.457031 21.238281 C 9.472656 21.171875 10.050781 20.648438 10.394531 20.648438 C 10.554688 20.675781 10.429688 20.824219 10.304688 20.917969 C 10.25 20.960938 10.183594 21 10.105469 21.042969 " fill-opacity="1" fill-rule="nonzero"/></g></g></g><g fill="#a6a6a6" fill-opacity="1"><g transform="translate(9.432131, 17.742713)"><g><path d="M 0.03125 -2.484375 L 2 -2.484375 L 2 -2.03125 L 1.28125 -2.03125 L 1.28125 0 L 0.75 0 L 0.75 -2.03125 L 0.03125 -2.03125 Z M 0.03125 -2.484375 "/></g></g></g><g fill="#a6a6a6" fill-opacity="1"><g transform="translate(12.133675, 17.742713)"><g><path d="M 0.78125 -2.484375 L 1.640625 -2.484375 L 2.390625 0 L 1.84375 0 L 1.6875 -0.53125 L 0.734375 -0.53125 L 0.5625 0 L 0.03125 0 Z M 0.875 -0.984375 L 1.546875 -0.984375 L 1.203125 -2.078125 Z M 0.875 -0.984375 "/></g></g></g><g fill="#a6a6a6" fill-opacity="1"><g transform="translate(15.226172, 17.742713)"><g><path d="M 0.203125 -2.484375 L 0.71875 -2.484375 L 0.71875 -1.484375 L 1.265625 -1.484375 L 1.78125 -2.484375 L 2.34375 -2.484375 L 1.734375 -1.25 L 2.34375 0 L 1.78125 0 L 1.265625 -1.015625 L 0.71875 -1.015625 L 0.71875 0 L 0.203125 0 Z M 0.203125 -2.484375 "/></g></g></g><g fill="#a6a6a6" fill-opacity="1"><g transform="translate(18.260986, 17.742713)"><g><path d="M 0.78125 -2.484375 L 1.640625 -2.484375 L 2.390625 0 L 1.84375 0 L 1.6875 -0.53125 L 0.734375 -0.53125 L 0.5625 0 L 0.03125 0 Z M 0.875 -0.984375 L 1.546875 -0.984375 L 1.203125 -2.078125 Z M 0.875 -0.984375 "/></g></g></g><g fill="#a6a6a6" fill-opacity="1"><g transform="translate(21.353483, 17.742713)"><g><path d="M 0.203125 -2.484375 L 1.984375 -2.484375 L 1.984375 -2.03125 L 0.71875 -2.03125 L 0.71875 -1.484375 L 1.640625 -1.484375 L 1.640625 -1.015625 L 0.71875 -1.015625 L 0.71875 0 L 0.203125 0 Z M 0.203125 -2.484375 "/></g></g></g><g fill="#a6a6a6" fill-opacity="1"><g transform="translate(24.032596, 17.742713)"><g><path d="M 0.203125 -2.484375 L 0.71875 -2.484375 L 0.71875 -0.546875 C 0.71875 -0.523438 0.722656 -0.503906 0.734375 -0.484375 C 0.753906 -0.472656 0.78125 -0.46875 0.8125 -0.46875 L 1.546875 -0.46875 C 1.566406 -0.46875 1.585938 -0.472656 1.609375 -0.484375 C 1.628906 -0.503906 1.640625 -0.523438 1.640625 -0.546875 L 1.640625 -2.484375 L 2.15625 -2.484375 L 2.15625 -0.359375 C 2.15625 -0.296875 2.140625 -0.234375 2.109375 -0.171875 C 2.078125 -0.117188 2.03125 -0.078125 1.96875 -0.046875 C 1.914062 -0.015625 1.859375 0 1.796875 0 L 0.546875 0 C 0.484375 0 0.425781 -0.015625 0.375 -0.046875 C 0.320312 -0.078125 0.28125 -0.117188 0.25 -0.171875 C 0.21875 -0.234375 0.203125 -0.296875 0.203125 -0.359375 Z M 0.203125 -2.484375 "/></g></g></g><g fill="#a6a6a6" fill-opacity="1"><g transform="translate(27.054593, 17.742713)"><g><path d="M 0.203125 -2.484375 L 0.71875 -2.484375 L 0.71875 -0.46875 L 1.984375 -0.46875 L 1.984375 0 L 0.203125 0 Z M 0.203125 -2.484375 "/></g></g></g><g fill="#737373" fill-opacity="1"><g transform="translate(9.246215, 19.824649)"><g><path d="M 0.125 0 L 0.125 -0.96875 L 0.328125 -0.96875 L 0.328125 0 Z M 0.125 0 "/></g></g></g><g fill="#737373" fill-opacity="1"><g transform="translate(10.085629, 19.824649)"><g><path d="M 0.6875 -0.265625 C 0.6875 -0.179688 0.65625 -0.113281 0.59375 -0.0625 C 0.53125 -0.0078125 0.445312 0.015625 0.34375 0.015625 C 0.238281 0.015625 0.144531 -0.00390625 0.0625 -0.046875 L 0.0625 -0.234375 C 0.125 -0.203125 0.175781 -0.179688 0.21875 -0.171875 C 0.269531 -0.160156 0.316406 -0.15625 0.359375 -0.15625 C 0.398438 -0.15625 0.429688 -0.160156 0.453125 -0.171875 C 0.484375 -0.191406 0.5 -0.222656 0.5 -0.265625 C 0.5 -0.273438 0.492188 -0.285156 0.484375 -0.296875 C 0.472656 -0.316406 0.457031 -0.332031 0.4375 -0.34375 C 0.414062 -0.363281 0.367188 -0.390625 0.296875 -0.421875 C 0.242188 -0.441406 0.203125 -0.460938 0.171875 -0.484375 C 0.140625 -0.515625 0.113281 -0.546875 0.09375 -0.578125 C 0.0820312 -0.617188 0.078125 -0.660156 0.078125 -0.703125 C 0.078125 -0.796875 0.101562 -0.863281 0.15625 -0.90625 C 0.21875 -0.957031 0.300781 -0.984375 0.40625 -0.984375 C 0.457031 -0.984375 0.503906 -0.976562 0.546875 -0.96875 C 0.585938 -0.957031 0.632812 -0.941406 0.6875 -0.921875 L 0.625 -0.75 C 0.570312 -0.769531 0.523438 -0.785156 0.484375 -0.796875 C 0.453125 -0.804688 0.421875 -0.8125 0.390625 -0.8125 C 0.359375 -0.8125 0.332031 -0.800781 0.3125 -0.78125 C 0.289062 -0.769531 0.28125 -0.75 0.28125 -0.71875 C 0.28125 -0.695312 0.28125 -0.675781 0.28125 -0.65625 C 0.289062 -0.644531 0.304688 -0.632812 0.328125 -0.625 C 0.347656 -0.613281 0.390625 -0.59375 0.453125 -0.5625 C 0.546875 -0.519531 0.609375 -0.472656 0.640625 -0.421875 C 0.671875 -0.378906 0.6875 -0.328125 0.6875 -0.265625 Z M 0.6875 -0.265625 "/></g></g></g><g fill="#737373" fill-opacity="1"><g transform="translate(11.224434, 19.824649)"><g><path d="M 0.125 0 L 0.125 -0.96875 L 0.328125 -0.96875 L 0.328125 -0.171875 L 0.71875 -0.171875 L 0.71875 0 Z M 0.125 0 "/></g></g></g><g fill="#737373" fill-opacity="1"><g transform="translate(12.382533, 19.824649)"><g><path d="M 0.71875 0 L 0.640625 -0.234375 L 0.296875 -0.234375 L 0.21875 0 L 0 0 L 0.34375 -0.96875 L 0.59375 -0.96875 L 0.9375 0 Z M 0.59375 -0.40625 C 0.53125 -0.613281 0.492188 -0.726562 0.484375 -0.75 C 0.472656 -0.78125 0.46875 -0.804688 0.46875 -0.828125 C 0.457031 -0.765625 0.414062 -0.625 0.34375 -0.40625 Z M 0.59375 -0.40625 "/></g></g></g><g fill="#737373" fill-opacity="1"><g transform="translate(13.710953, 19.824649)"><g><path d="M 0.53125 0 L 0.296875 -0.765625 C 0.304688 -0.609375 0.3125 -0.503906 0.3125 -0.453125 L 0.3125 0 L 0.125 0 L 0.125 -0.96875 L 0.40625 -0.96875 L 0.625 -0.234375 L 0.640625 -0.234375 L 0.875 -0.96875 L 1.15625 -0.96875 L 1.15625 0 L 0.96875 0 L 0.96875 -0.453125 C 0.96875 -0.472656 0.96875 -0.5 0.96875 -0.53125 C 0.96875 -0.5625 0.972656 -0.640625 0.984375 -0.765625 L 0.96875 -0.765625 L 0.71875 0 Z M 0.53125 0 "/></g></g></g><g fill="#737373" fill-opacity="1"><g transform="translate(15.384005, 19.824649)"><g><path d="M 0.125 0 L 0.125 -0.96875 L 0.328125 -0.96875 L 0.328125 0 Z M 0.125 0 "/></g></g></g><g fill="#737373" fill-opacity="1"><g transform="translate(16.223418, 19.824649)"><g><path d="M 0.53125 -0.8125 C 0.457031 -0.8125 0.398438 -0.78125 0.359375 -0.71875 C 0.316406 -0.664062 0.296875 -0.585938 0.296875 -0.484375 C 0.296875 -0.265625 0.375 -0.15625 0.53125 -0.15625 C 0.601562 -0.15625 0.6875 -0.171875 0.78125 -0.203125 L 0.78125 -0.03125 C 0.695312 0 0.609375 0.015625 0.515625 0.015625 C 0.367188 0.015625 0.257812 -0.0234375 0.1875 -0.109375 C 0.113281 -0.203125 0.078125 -0.328125 0.078125 -0.484375 C 0.078125 -0.585938 0.09375 -0.675781 0.125 -0.75 C 0.164062 -0.820312 0.21875 -0.878906 0.28125 -0.921875 C 0.351562 -0.960938 0.4375 -0.984375 0.53125 -0.984375 C 0.625 -0.984375 0.71875 -0.960938 0.8125 -0.921875 L 0.75 -0.75 C 0.71875 -0.769531 0.679688 -0.785156 0.640625 -0.796875 C 0.609375 -0.804688 0.570312 -0.8125 0.53125 -0.8125 Z M 0.53125 -0.8125 "/></g></g></g><g fill="#737373" fill-opacity="1"><g transform="translate(17.479984, 19.824649)"><g/></g></g><g fill="#737373" fill-opacity="1"><g transform="translate(18.222262, 19.824649)"><g><path d="M 0.125 0 L 0.125 -0.96875 L 0.328125 -0.96875 L 0.328125 0 Z M 0.125 0 "/></g></g></g><g fill="#737373" fill-opacity="1"><g transform="translate(19.061675, 19.824649)"><g><path d="M 0.984375 0 L 0.71875 0 L 0.296875 -0.734375 C 0.304688 -0.609375 0.3125 -0.515625 0.3125 -0.453125 L 0.3125 0 L 0.125 0 L 0.125 -0.96875 L 0.375 -0.96875 L 0.796875 -0.25 L 0.8125 -0.25 C 0.800781 -0.375 0.796875 -0.460938 0.796875 -0.515625 L 0.796875 -0.96875 L 0.984375 -0.96875 Z M 0.984375 0 "/></g></g></g><g fill="#737373" fill-opacity="1"><g transform="translate(20.557754, 19.824649)"><g><path d="M 0.6875 -0.265625 C 0.6875 -0.179688 0.65625 -0.113281 0.59375 -0.0625 C 0.53125 -0.0078125 0.445312 0.015625 0.34375 0.015625 C 0.238281 0.015625 0.144531 -0.00390625 0.0625 -0.046875 L 0.0625 -0.234375 C 0.125 -0.203125 0.175781 -0.179688 0.21875 -0.171875 C 0.269531 -0.160156 0.316406 -0.15625 0.359375 -0.15625 C 0.398438 -0.15625 0.429688 -0.160156 0.453125 -0.171875 C 0.484375 -0.191406 0.5 -0.222656 0.5 -0.265625 C 0.5 -0.273438 0.492188 -0.285156 0.484375 -0.296875 C 0.472656 -0.316406 0.457031 -0.332031 0.4375 -0.34375 C 0.414062 -0.363281 0.367188 -0.390625 0.296875 -0.421875 C 0.242188 -0.441406 0.203125 -0.460938 0.171875 -0.484375 C 0.140625 -0.515625 0.113281 -0.546875 0.09375 -0.578125 C 0.0820312 -0.617188 0.078125 -0.660156 0.078125 -0.703125 C 0.078125 -0.796875 0.101562 -0.863281 0.15625 -0.90625 C 0.21875 -0.957031 0.300781 -0.984375 0.40625 -0.984375 C 0.457031 -0.984375 0.503906 -0.976562 0.546875 -0.96875 C 0.585938 -0.957031 0.632812 -0.941406 0.6875 -0.921875 L 0.625 -0.75 C 0.570312 -0.769531 0.523438 -0.785156 0.484375 -0.796875 C 0.453125 -0.804688 0.421875 -0.8125 0.390625 -0.8125 C 0.359375 -0.8125 0.332031 -0.800781 0.3125 -0.78125 C 0.289062 -0.769531 0.28125 -0.75 0.28125 -0.71875 C 0.28125 -0.695312 0.28125 -0.675781 0.28125 -0.65625 C 0.289062 -0.644531 0.304688 -0.632812 0.328125 -0.625 C 0.347656 -0.613281 0.390625 -0.59375 0.453125 -0.5625 C 0.546875 -0.519531 0.609375 -0.472656 0.640625 -0.421875 C 0.671875 -0.378906 0.6875 -0.328125 0.6875 -0.265625 Z M 0.6875 -0.265625 "/></g></g></g><g fill="#737373" fill-opacity="1"><g transform="translate(21.696559, 19.824649)"><g><path d="M 0.90625 -0.96875 L 0.90625 -0.34375 C 0.90625 -0.269531 0.890625 -0.207031 0.859375 -0.15625 C 0.828125 -0.101562 0.78125 -0.0625 0.71875 -0.03125 C 0.664062 0 0.597656 0.015625 0.515625 0.015625 C 0.390625 0.015625 0.289062 -0.015625 0.21875 -0.078125 C 0.144531 -0.140625 0.109375 -0.226562 0.109375 -0.34375 L 0.109375 -0.96875 L 0.328125 -0.96875 L 0.328125 -0.375 C 0.328125 -0.300781 0.335938 -0.242188 0.359375 -0.203125 C 0.390625 -0.171875 0.441406 -0.15625 0.515625 -0.15625 C 0.578125 -0.15625 0.625 -0.171875 0.65625 -0.203125 C 0.6875 -0.242188 0.703125 -0.300781 0.703125 -0.375 L 0.703125 -0.96875 Z M 0.90625 -0.96875 "/></g></g></g><g fill="#737373" fill-opacity="1"><g transform="translate(23.114796, 19.824649)"><g><path d="M 0.328125 -0.546875 L 0.390625 -0.546875 C 0.453125 -0.546875 0.5 -0.554688 0.53125 -0.578125 C 0.5625 -0.597656 0.578125 -0.628906 0.578125 -0.671875 C 0.578125 -0.722656 0.5625 -0.753906 0.53125 -0.765625 C 0.5 -0.785156 0.453125 -0.796875 0.390625 -0.796875 L 0.328125 -0.796875 Z M 0.328125 -0.375 L 0.328125 0 L 0.125 0 L 0.125 -0.96875 L 0.40625 -0.96875 C 0.539062 -0.96875 0.640625 -0.941406 0.703125 -0.890625 C 0.765625 -0.847656 0.796875 -0.78125 0.796875 -0.6875 C 0.796875 -0.625 0.78125 -0.566406 0.75 -0.515625 C 0.71875 -0.472656 0.671875 -0.441406 0.609375 -0.421875 C 0.753906 -0.203125 0.847656 -0.0625 0.890625 0 L 0.671875 0 L 0.4375 -0.375 Z M 0.328125 -0.375 "/></g></g></g><g fill="#737373" fill-opacity="1"><g transform="translate(24.402632, 19.824649)"><g><path d="M 0.71875 0 L 0.640625 -0.234375 L 0.296875 -0.234375 L 0.21875 0 L 0 0 L 0.34375 -0.96875 L 0.59375 -0.96875 L 0.9375 0 Z M 0.59375 -0.40625 C 0.53125 -0.613281 0.492188 -0.726562 0.484375 -0.75 C 0.472656 -0.78125 0.46875 -0.804688 0.46875 -0.828125 C 0.457031 -0.765625 0.414062 -0.625 0.34375 -0.40625 Z M 0.59375 -0.40625 "/></g></g></g><g fill="#737373" fill-opacity="1"><g transform="translate(25.731051, 19.824649)"><g><path d="M 0.984375 0 L 0.71875 0 L 0.296875 -0.734375 C 0.304688 -0.609375 0.3125 -0.515625 0.3125 -0.453125 L 0.3125 0 L 0.125 0 L 0.125 -0.96875 L 0.375 -0.96875 L 0.796875 -0.25 L 0.8125 -0.25 C 0.800781 -0.375 0.796875 -0.460938 0.796875 -0.515625 L 0.796875 -0.96875 L 0.984375 -0.96875 Z M 0.984375 0 "/></g></g></g><g fill="#737373" fill-opacity="1"><g transform="translate(27.22713, 19.824649)"><g><path d="M 0.53125 -0.8125 C 0.457031 -0.8125 0.398438 -0.78125 0.359375 -0.71875 C 0.316406 -0.664062 0.296875 -0.585938 0.296875 -0.484375 C 0.296875 -0.265625 0.375 -0.15625 0.53125 -0.15625 C 0.601562 -0.15625 0.6875 -0.171875 0.78125 -0.203125 L 0.78125 -0.03125 C 0.695312 0 0.609375 0.015625 0.515625 0.015625 C 0.367188 0.015625 0.257812 -0.0234375 0.1875 -0.109375 C 0.113281 -0.203125 0.078125 -0.328125 0.078125 -0.484375 C 0.078125 -0.585938 0.09375 -0.675781 0.125 -0.75 C 0.164062 -0.820312 0.21875 -0.878906 0.28125 -0.921875 C 0.351562 -0.960938 0.4375 -0.984375 0.53125 -0.984375 C 0.625 -0.984375 0.71875 -0.960938 0.8125 -0.921875 L 0.75 -0.75 C 0.71875 -0.769531 0.679688 -0.785156 0.640625 -0.796875 C 0.609375 -0.804688 0.570312 -0.8125 0.53125 -0.8125 Z M 0.53125 -0.8125 "/></g></g></g><g fill="#737373" fill-opacity="1"><g transform="translate(28.483695, 19.824649)"><g><path d="M 0.6875 0 L 0.125 0 L 0.125 -0.96875 L 0.6875 -0.96875 L 0.6875 -0.796875 L 0.328125 -0.796875 L 0.328125 -0.59375 L 0.65625 -0.59375 L 0.65625 -0.421875 L 0.328125 -0.421875 L 0.328125 -0.171875 L 0.6875 -0.171875 Z M 0.6875 0 "/></g></g></g></svg>