<svg xmlns="http://www.w3.org/2000/svg" xmlns:xlink="http://www.w3.org/1999/xlink" width="42" zoomAndPan="magnify" viewBox="0 0 31.5 30.75" height="41" preserveAspectRatio="xMidYMid meet" version="1.0"><defs><g/></defs><g fill="#a6a6a6" fill-opacity="1"><g transform="translate(6.38897, 19.8057)"><g><path d="M 8.34375 0.21875 C 6.9375 0.21875 5.695312 -0.0703125 4.625 -0.65625 C 3.550781 -1.238281 2.710938 -2.117188 2.109375 -3.296875 C 1.503906 -4.472656 1.203125 -5.921875 1.203125 -7.640625 C 1.203125 -9.359375 1.503906 -10.800781 2.109375 -11.96875 C 2.710938 -13.144531 3.550781 -14.023438 4.625 -14.609375 C 5.695312 -15.191406 6.9375 -15.484375 8.34375 -15.484375 C 9.8125 -15.484375 11.054688 -15.195312 12.078125 -14.625 C 13.109375 -14.050781 13.84375 -13.175781 14.28125 -12 L 12.078125 -10.65625 L 11.828125 -10.65625 C 11.492188 -11.457031 11.046875 -12.03125 10.484375 -12.375 C 9.929688 -12.71875 9.21875 -12.890625 8.34375 -12.890625 C 7.070312 -12.890625 6.082031 -12.46875 5.375 -11.625 C 4.664062 -10.789062 4.3125 -9.460938 4.3125 -7.640625 C 4.3125 -5.816406 4.664062 -4.484375 5.375 -3.640625 C 6.082031 -2.804688 7.070312 -2.390625 8.34375 -2.390625 C 10.332031 -2.390625 11.546875 -3.351562 11.984375 -5.28125 L 12.25 -5.28125 L 14.46875 -4.125 C 14.050781 -2.675781 13.335938 -1.585938 12.328125 -0.859375 C 11.328125 -0.140625 10 0.21875 8.34375 0.21875 Z M 8.34375 0.21875 "/></g></g></g><g fill="#a6a6a6" fill-opacity="1"><g transform="translate(2.329775, 26.989008)"><g><path d="M 2.796875 0.078125 C 2.328125 0.078125 1.910156 -0.0195312 1.546875 -0.21875 C 1.191406 -0.414062 0.910156 -0.707031 0.703125 -1.09375 C 0.503906 -1.488281 0.40625 -1.972656 0.40625 -2.546875 C 0.40625 -3.128906 0.503906 -3.613281 0.703125 -4 C 0.910156 -4.394531 1.191406 -4.691406 1.546875 -4.890625 C 1.910156 -5.085938 2.328125 -5.1875 2.796875 -5.1875 C 3.285156 -5.1875 3.703125 -5.085938 4.046875 -4.890625 C 4.390625 -4.703125 4.632812 -4.410156 4.78125 -4.015625 L 4.046875 -3.5625 L 3.953125 -3.5625 C 3.847656 -3.832031 3.703125 -4.023438 3.515625 -4.140625 C 3.328125 -4.253906 3.085938 -4.3125 2.796875 -4.3125 C 2.367188 -4.3125 2.035156 -4.171875 1.796875 -3.890625 C 1.554688 -3.609375 1.4375 -3.160156 1.4375 -2.546875 C 1.4375 -1.941406 1.554688 -1.5 1.796875 -1.21875 C 2.035156 -0.9375 2.367188 -0.796875 2.796875 -0.796875 C 3.453125 -0.796875 3.859375 -1.117188 4.015625 -1.765625 L 4.09375 -1.765625 L 4.84375 -1.375 C 4.707031 -0.894531 4.46875 -0.53125 4.125 -0.28125 C 3.789062 -0.0390625 3.347656 0.078125 2.796875 0.078125 Z M 2.796875 0.078125 "/></g></g></g><g fill="#a6a6a6" fill-opacity="1"><g transform="translate(7.336355, 26.989008)"><g><path d="M 4.90625 0 L 3.84375 0 L 3.453125 -1.171875 L 1.5 -1.171875 L 1.109375 0 L 0.078125 0 L 1.84375 -5.109375 L 3.140625 -5.109375 Z M 2.421875 -4.046875 L 1.765625 -2.03125 L 3.171875 -2.03125 L 2.515625 -4.046875 Z M 2.421875 -4.046875 "/></g></g></g><g fill="#a6a6a6" fill-opacity="1"><g transform="translate(12.311514, 26.989008)"><g><path d="M 2.265625 0.078125 C 1.910156 0.078125 1.59375 0.0351562 1.3125 -0.046875 C 1.039062 -0.140625 0.8125 -0.253906 0.625 -0.390625 C 0.445312 -0.535156 0.304688 -0.695312 0.203125 -0.875 L 0.765625 -1.546875 L 0.84375 -1.546875 C 1 -1.316406 1.195312 -1.132812 1.4375 -1 C 1.675781 -0.863281 1.953125 -0.796875 2.265625 -0.796875 C 2.535156 -0.796875 2.738281 -0.851562 2.875 -0.96875 C 3.007812 -1.082031 3.078125 -1.238281 3.078125 -1.4375 C 3.078125 -1.5625 3.054688 -1.664062 3.015625 -1.75 C 2.972656 -1.832031 2.898438 -1.898438 2.796875 -1.953125 C 2.691406 -2.015625 2.550781 -2.066406 2.375 -2.109375 L 1.71875 -2.25 C 1.257812 -2.363281 0.914062 -2.539062 0.6875 -2.78125 C 0.46875 -3.019531 0.359375 -3.335938 0.359375 -3.734375 C 0.359375 -4.015625 0.429688 -4.265625 0.578125 -4.484375 C 0.722656 -4.703125 0.929688 -4.875 1.203125 -5 C 1.484375 -5.125 1.816406 -5.1875 2.203125 -5.1875 C 2.585938 -5.1875 2.921875 -5.132812 3.203125 -5.03125 C 3.484375 -4.925781 3.722656 -4.765625 3.921875 -4.546875 L 3.421875 -3.859375 L 3.328125 -3.859375 C 3.179688 -4.015625 3.015625 -4.128906 2.828125 -4.203125 C 2.648438 -4.273438 2.441406 -4.3125 2.203125 -4.3125 C 1.921875 -4.3125 1.707031 -4.265625 1.5625 -4.171875 C 1.414062 -4.078125 1.34375 -3.941406 1.34375 -3.765625 C 1.34375 -3.609375 1.394531 -3.476562 1.5 -3.375 C 1.601562 -3.28125 1.78125 -3.207031 2.03125 -3.15625 L 2.703125 -3.015625 C 3.191406 -2.910156 3.546875 -2.734375 3.765625 -2.484375 C 3.992188 -2.234375 4.109375 -1.90625 4.109375 -1.5 C 4.109375 -1.1875 4.039062 -0.910156 3.90625 -0.671875 C 3.769531 -0.429688 3.5625 -0.242188 3.28125 -0.109375 C 3.007812 0.015625 2.671875 0.078125 2.265625 0.078125 Z M 2.265625 0.078125 "/></g></g></g><g fill="#a6a6a6" fill-opacity="1"><g transform="translate(16.696636, 26.989008)"><g><path d="M 2.640625 -5.109375 C 3.003906 -5.109375 3.316406 -5.039062 3.578125 -4.90625 C 3.835938 -4.769531 4.03125 -4.582031 4.15625 -4.34375 C 4.289062 -4.101562 4.359375 -3.820312 4.359375 -3.5 C 4.359375 -3.1875 4.289062 -2.910156 4.15625 -2.671875 C 4.03125 -2.429688 3.835938 -2.242188 3.578125 -2.109375 C 3.316406 -1.972656 3.003906 -1.90625 2.640625 -1.90625 L 1.671875 -1.90625 L 1.671875 0 L 0.65625 0 L 0.65625 -5.109375 Z M 2.5 -2.703125 C 3.0625 -2.703125 3.34375 -2.96875 3.34375 -3.5 C 3.34375 -4.039062 3.0625 -4.3125 2.5 -4.3125 L 1.671875 -4.3125 L 1.671875 -2.703125 Z M 2.5 -2.703125 "/></g></g></g><g fill="#a6a6a6" fill-opacity="1"><g transform="translate(21.361065, 26.989008)"><g><path d="M 1.671875 0 L 0.65625 0 L 0.65625 -5.109375 L 1.671875 -5.109375 Z M 1.671875 0 "/></g></g></g><g fill="#a6a6a6" fill-opacity="1"><g transform="translate(23.700262, 26.989008)"><g><path d="M 4.90625 0 L 3.84375 0 L 3.453125 -1.171875 L 1.5 -1.171875 L 1.109375 0 L 0.078125 0 L 1.84375 -5.109375 L 3.140625 -5.109375 Z M 2.421875 -4.046875 L 1.765625 -2.03125 L 3.171875 -2.03125 L 2.515625 -4.046875 Z M 2.421875 -4.046875 "/></g></g></g></svg>