<svg xmlns="http://www.w3.org/2000/svg" xmlns:xlink="http://www.w3.org/1999/xlink" width="42" zoomAndPan="magnify" viewBox="0 0 31.5 30.75" height="41" preserveAspectRatio="xMidYMid meet" version="1.0"><defs><g/><clipPath id="85f0c68be5"><path d="M 3.027344 23.292969 L 27.042969 23.292969 L 27.042969 28.128906 L 3.027344 28.128906 Z M 3.027344 23.292969 " clip-rule="nonzero"/></clipPath><clipPath id="bc97a0d837"><path d="M 3.765625 23.292969 L 26.289062 23.292969 C 26.699219 23.292969 27.027344 23.621094 27.027344 24.03125 L 27.027344 27.390625 C 27.027344 27.796875 26.699219 28.128906 26.289062 28.128906 L 3.765625 28.128906 C 3.359375 28.128906 3.027344 27.796875 3.027344 27.390625 L 3.027344 24.03125 C 3.027344 23.621094 3.359375 23.292969 3.765625 23.292969 Z M 3.765625 23.292969 " clip-rule="nonzero"/></clipPath></defs><g fill="#a6a6a6" fill-opacity="1"><g transform="translate(3.75388, 23.023449)"><g><path d="M 11.5625 -17.125 L 11.5625 -10.9375 C 11.5625 -10.53125 11.679688 -10.207031 11.921875 -9.96875 C 11.921875 -9.96875 11.925781 -9.953125 11.9375 -9.921875 C 11.957031 -9.890625 11.957031 -9.847656 11.9375 -9.796875 C 11.925781 -9.765625 11.90625 -9.738281 11.875 -9.71875 C 11.851562 -9.707031 11.84375 -9.703125 11.84375 -9.703125 C 11.46875 -9.648438 11.144531 -9.503906 10.875 -9.265625 C 10.613281 -9.023438 10.460938 -8.75 10.421875 -8.4375 C 10.421875 -8.4375 10.421875 -8.429688 10.421875 -8.421875 C 10.421875 -8.410156 10.40625 -8.398438 10.375 -8.390625 C 10.375 -8.367188 10.363281 -8.359375 10.34375 -8.359375 C 10.332031 -8.359375 10.328125 -8.359375 10.328125 -8.359375 L 5.625 -8.359375 L 5.625 -2.078125 L 6.765625 -2.078125 L 6.765625 -0.890625 L 7.453125 -0.234375 L 7.453125 0 L 0 0 L 0 -0.234375 L 0.6875 -0.890625 L 0.6875 -2.078125 L 1.34375 -2.078125 L 1.34375 -17.671875 L 0.6875 -17.671875 L 0.6875 -18.8125 L 0 -19.46875 L 0 -19.6875 L 10.375 -19.6875 C 10.40625 -19.675781 10.421875 -19.660156 10.421875 -19.640625 C 10.421875 -19.628906 10.421875 -19.625 10.421875 -19.625 C 10.460938 -19.320312 10.613281 -19.046875 10.875 -18.796875 C 11.144531 -18.554688 11.46875 -18.410156 11.84375 -18.359375 C 11.84375 -18.359375 11.851562 -18.351562 11.875 -18.34375 C 11.90625 -18.332031 11.925781 -18.3125 11.9375 -18.28125 C 11.957031 -18.21875 11.957031 -18.164062 11.9375 -18.125 C 11.925781 -18.09375 11.921875 -18.078125 11.921875 -18.078125 C 11.679688 -17.835938 11.5625 -17.519531 11.5625 -17.125 Z M 7.59375 -11.46875 L 7.625 -16.6875 C 7.625 -16.957031 7.582031 -17.1875 7.5 -17.375 C 7.414062 -17.5625 7.253906 -17.65625 7.015625 -17.65625 L 5.65625 -17.65625 L 5.65625 -10.484375 L 7 -10.484375 C 7.25 -10.484375 7.410156 -10.578125 7.484375 -10.765625 C 7.554688 -10.960938 7.59375 -11.195312 7.59375 -11.46875 Z M 7.59375 -11.46875 "/></g></g></g><g fill="#a6a6a6" fill-opacity="1"><g transform="translate(14.813555, 23.023449)"><g><path d="M 11.609375 -1.609375 C 11.609375 -1.609375 11.617188 -1.59375 11.640625 -1.5625 C 11.671875 -1.53125 11.679688 -1.476562 11.671875 -1.40625 C 11.648438 -1.394531 11.625 -1.378906 11.59375 -1.359375 C 11.570312 -1.347656 11.5625 -1.34375 11.5625 -1.34375 C 11.195312 -1.289062 10.878906 -1.144531 10.609375 -0.90625 C 10.335938 -0.675781 10.1875 -0.398438 10.15625 -0.078125 C 10.132812 -0.078125 10.109375 -0.0546875 10.078125 -0.015625 C 10.046875 0.015625 10.035156 0.0195312 10.046875 0 L 1.359375 0 C 1.359375 0 1.347656 0 1.328125 0 C 1.316406 0 1.300781 -0.0078125 1.28125 -0.03125 C 1.269531 -0.0390625 1.265625 -0.0507812 1.265625 -0.0625 C 1.265625 -0.0703125 1.265625 -0.078125 1.265625 -0.078125 C 1.242188 -0.398438 1.097656 -0.675781 0.828125 -0.90625 C 0.554688 -1.144531 0.226562 -1.289062 -0.15625 -1.34375 C -0.15625 -1.34375 -0.164062 -1.347656 -0.1875 -1.359375 C -0.21875 -1.378906 -0.238281 -1.394531 -0.25 -1.40625 C -0.269531 -1.476562 -0.269531 -1.53125 -0.25 -1.5625 C -0.238281 -1.59375 -0.234375 -1.609375 -0.234375 -1.609375 C 0.00390625 -1.847656 0.125 -2.132812 0.125 -2.46875 L 0.125 -17.21875 C 0.125 -17.550781 0.00390625 -17.835938 -0.234375 -18.078125 C -0.234375 -18.078125 -0.238281 -18.09375 -0.25 -18.125 C -0.269531 -18.164062 -0.269531 -18.21875 -0.25 -18.28125 C -0.238281 -18.3125 -0.21875 -18.332031 -0.1875 -18.34375 C -0.164062 -18.351562 -0.15625 -18.359375 -0.15625 -18.359375 C 0.226562 -18.410156 0.554688 -18.554688 0.828125 -18.796875 C 1.097656 -19.046875 1.242188 -19.320312 1.265625 -19.625 C 1.265625 -19.625 1.265625 -19.628906 1.265625 -19.640625 C 1.265625 -19.660156 1.269531 -19.675781 1.28125 -19.6875 L 10.078125 -19.6875 C 10.085938 -19.675781 10.09375 -19.660156 10.09375 -19.640625 C 10.09375 -19.628906 10.09375 -19.625 10.09375 -19.625 C 10.132812 -19.320312 10.285156 -19.046875 10.546875 -18.796875 C 10.816406 -18.554688 11.140625 -18.410156 11.515625 -18.359375 C 11.515625 -18.359375 11.523438 -18.351562 11.546875 -18.34375 C 11.578125 -18.332031 11.597656 -18.3125 11.609375 -18.28125 C 11.628906 -18.21875 11.628906 -18.164062 11.609375 -18.125 C 11.597656 -18.09375 11.59375 -18.078125 11.59375 -18.078125 C 11.34375 -17.828125 11.21875 -17.507812 11.21875 -17.125 L 11.21875 -11.921875 L 7.125 -14.390625 L 7.125 -16.6875 C 7.125 -16.851562 6.984375 -17.0625 6.703125 -17.3125 C 6.421875 -17.570312 6.085938 -17.703125 5.703125 -17.703125 C 5.316406 -17.703125 4.988281 -17.570312 4.71875 -17.3125 C 4.445312 -17.0625 4.3125 -16.847656 4.3125 -16.671875 L 4.3125 -3.125 C 4.3125 -2.957031 4.445312 -2.742188 4.71875 -2.484375 C 4.988281 -2.222656 5.316406 -2.09375 5.703125 -2.09375 C 6.085938 -2.09375 6.421875 -2.222656 6.703125 -2.484375 C 6.984375 -2.742188 7.128906 -2.957031 7.140625 -3.125 L 7.140625 -4.96875 L 11.21875 -7.59375 L 11.21875 -2.375 C 11.257812 -2.082031 11.390625 -1.828125 11.609375 -1.609375 Z M 10.15625 -0.078125 Z M 10.15625 -0.078125 "/></g></g></g><g clip-path="url(#85f0c68be5)"><g clip-path="url(#bc97a0d837)"><path fill="#a6a6a6" d="M 3.027344 23.292969 L 27.023438 23.292969 L 27.023438 28.128906 L 3.027344 28.128906 Z M 3.027344 23.292969 " fill-opacity="1" fill-rule="nonzero"/></g></g><g fill="#737373" fill-opacity="1"><g transform="translate(5.025885, 26.797638)"><g><path d="M 1.59375 -1.46875 C 1.59375 -1.257812 1.519531 -1.097656 1.375 -0.984375 C 1.238281 -0.867188 1.035156 -0.8125 0.765625 -0.8125 L 0.53125 -0.8125 L 0.53125 0 L 0.28125 0 L 0.28125 -2.078125 L 0.828125 -2.078125 C 1.335938 -2.078125 1.59375 -1.875 1.59375 -1.46875 Z M 0.53125 -1.015625 L 0.75 -1.015625 C 0.957031 -1.015625 1.109375 -1.050781 1.203125 -1.125 C 1.296875 -1.195312 1.34375 -1.304688 1.34375 -1.453125 C 1.34375 -1.597656 1.296875 -1.703125 1.203125 -1.765625 C 1.117188 -1.828125 0.984375 -1.859375 0.796875 -1.859375 L 0.53125 -1.859375 Z M 0.53125 -1.015625 "/></g></g></g><g fill="#737373" fill-opacity="1"><g transform="translate(6.594743, 26.797638)"><g><path d="M 1.859375 -2.078125 L 1.859375 -0.734375 C 1.859375 -0.492188 1.785156 -0.304688 1.640625 -0.171875 C 1.492188 -0.0351562 1.296875 0.03125 1.046875 0.03125 C 0.796875 0.03125 0.601562 -0.0351562 0.46875 -0.171875 C 0.332031 -0.304688 0.265625 -0.492188 0.265625 -0.734375 L 0.265625 -2.078125 L 0.5 -2.078125 L 0.5 -0.71875 C 0.5 -0.550781 0.546875 -0.421875 0.640625 -0.328125 C 0.734375 -0.234375 0.875 -0.1875 1.0625 -0.1875 C 1.238281 -0.1875 1.375 -0.234375 1.46875 -0.328125 C 1.5625 -0.421875 1.609375 -0.550781 1.609375 -0.71875 L 1.609375 -2.078125 Z M 1.859375 -2.078125 "/></g></g></g><g fill="#737373" fill-opacity="1"><g transform="translate(8.529575, 26.797638)"><g><path d="M 0.28125 -2.078125 L 0.875 -2.078125 C 1.144531 -2.078125 1.34375 -2.035156 1.46875 -1.953125 C 1.59375 -1.867188 1.65625 -1.738281 1.65625 -1.5625 C 1.65625 -1.4375 1.617188 -1.332031 1.546875 -1.25 C 1.484375 -1.175781 1.382812 -1.125 1.25 -1.09375 C 1.5625 -1.03125 1.71875 -0.863281 1.71875 -0.59375 C 1.71875 -0.40625 1.65625 -0.257812 1.53125 -0.15625 C 1.40625 -0.0507812 1.234375 0 1.015625 0 L 0.28125 0 Z M 0.53125 -1.1875 L 0.921875 -1.1875 C 1.085938 -1.1875 1.207031 -1.210938 1.28125 -1.265625 C 1.363281 -1.316406 1.40625 -1.40625 1.40625 -1.53125 C 1.40625 -1.65625 1.363281 -1.738281 1.28125 -1.78125 C 1.195312 -1.832031 1.0625 -1.859375 0.875 -1.859375 L 0.53125 -1.859375 Z M 0.53125 -0.984375 L 0.53125 -0.203125 L 0.953125 -0.203125 C 1.117188 -0.203125 1.242188 -0.234375 1.328125 -0.296875 C 1.421875 -0.367188 1.46875 -0.472656 1.46875 -0.609375 C 1.46875 -0.734375 1.421875 -0.828125 1.328125 -0.890625 C 1.242188 -0.953125 1.113281 -0.984375 0.9375 -0.984375 Z M 0.53125 -0.984375 "/></g></g></g><g fill="#737373" fill-opacity="1"><g transform="translate(10.231773, 26.797638)"><g><path d="M 0.28125 0 L 0.28125 -2.078125 L 0.53125 -2.078125 L 0.53125 -0.21875 L 1.4375 -0.21875 L 1.4375 0 Z M 0.28125 0 "/></g></g></g><g fill="#737373" fill-opacity="1"><g transform="translate(11.559484, 26.797638)"><g><path d="M 0.28125 0 L 0.28125 -2.078125 L 0.53125 -2.078125 L 0.53125 0 Z M 0.28125 0 "/></g></g></g><g fill="#737373" fill-opacity="1"><g transform="translate(12.189289, 26.797638)"><g><path d="M 1.453125 -0.546875 C 1.453125 -0.367188 1.382812 -0.226562 1.25 -0.125 C 1.125 -0.0195312 0.945312 0.03125 0.71875 0.03125 C 0.46875 0.03125 0.28125 0 0.15625 -0.0625 L 0.15625 -0.296875 C 0.238281 -0.265625 0.328125 -0.238281 0.421875 -0.21875 C 0.523438 -0.195312 0.628906 -0.1875 0.734375 -0.1875 C 0.890625 -0.1875 1.007812 -0.210938 1.09375 -0.265625 C 1.175781 -0.328125 1.21875 -0.414062 1.21875 -0.53125 C 1.21875 -0.601562 1.203125 -0.660156 1.171875 -0.703125 C 1.140625 -0.753906 1.085938 -0.796875 1.015625 -0.828125 C 0.953125 -0.867188 0.851562 -0.914062 0.71875 -0.96875 C 0.519531 -1.03125 0.378906 -1.109375 0.296875 -1.203125 C 0.210938 -1.304688 0.171875 -1.429688 0.171875 -1.578125 C 0.171875 -1.742188 0.226562 -1.875 0.34375 -1.96875 C 0.46875 -2.0625 0.628906 -2.109375 0.828125 -2.109375 C 1.035156 -2.109375 1.226562 -2.066406 1.40625 -1.984375 L 1.328125 -1.78125 C 1.160156 -1.851562 0.992188 -1.890625 0.828125 -1.890625 C 0.703125 -1.890625 0.601562 -1.859375 0.53125 -1.796875 C 0.457031 -1.742188 0.421875 -1.671875 0.421875 -1.578125 C 0.421875 -1.503906 0.429688 -1.441406 0.453125 -1.390625 C 0.484375 -1.347656 0.53125 -1.304688 0.59375 -1.265625 C 0.65625 -1.234375 0.753906 -1.191406 0.890625 -1.140625 C 1.097656 -1.066406 1.242188 -0.984375 1.328125 -0.890625 C 1.410156 -0.804688 1.453125 -0.691406 1.453125 -0.546875 Z M 1.453125 -0.546875 "/></g></g></g><g fill="#737373" fill-opacity="1"><g transform="translate(13.603528, 26.797638)"><g><path d="M 1.859375 0 L 1.625 0 L 1.625 -0.96875 L 0.53125 -0.96875 L 0.53125 0 L 0.28125 0 L 0.28125 -2.078125 L 0.53125 -2.078125 L 0.53125 -1.1875 L 1.625 -1.1875 L 1.625 -2.078125 L 1.859375 -2.078125 Z M 1.859375 0 "/></g></g></g><g fill="#737373" fill-opacity="1"><g transform="translate(15.567111, 26.797638)"><g/></g></g><g fill="#737373" fill-opacity="1"><g transform="translate(16.536216, 26.638538)"><g><path d="M 1.890625 -1.6875 C 1.890625 -1.601562 1.859375 -1.539062 1.796875 -1.5 C 1.742188 -1.457031 1.671875 -1.4375 1.578125 -1.4375 C 1.492188 -1.4375 1.421875 -1.457031 1.359375 -1.5 C 1.367188 -1.539062 1.375 -1.582031 1.375 -1.625 C 1.375 -1.675781 1.359375 -1.722656 1.328125 -1.765625 C 1.285156 -1.828125 1.222656 -1.859375 1.140625 -1.859375 C 1.003906 -1.859375 0.882812 -1.785156 0.78125 -1.640625 C 0.6875 -1.503906 0.640625 -1.3125 0.640625 -1.0625 C 0.640625 -0.8125 0.691406 -0.632812 0.796875 -0.53125 C 0.898438 -0.425781 1.046875 -0.375 1.234375 -0.375 C 1.347656 -0.375 1.457031 -0.398438 1.5625 -0.453125 C 1.664062 -0.503906 1.742188 -0.566406 1.796875 -0.640625 C 1.867188 -0.609375 1.90625 -0.550781 1.90625 -0.46875 C 1.90625 -0.351562 1.828125 -0.238281 1.671875 -0.125 C 1.515625 -0.0195312 1.328125 0.03125 1.109375 0.03125 C 0.816406 0.03125 0.585938 -0.0546875 0.421875 -0.234375 C 0.253906 -0.421875 0.171875 -0.679688 0.171875 -1.015625 C 0.171875 -1.347656 0.257812 -1.613281 0.4375 -1.8125 C 0.625 -2.007812 0.867188 -2.109375 1.171875 -2.109375 C 1.367188 -2.109375 1.535156 -2.066406 1.671875 -1.984375 C 1.816406 -1.910156 1.890625 -1.8125 1.890625 -1.6875 Z M 1.890625 -1.6875 "/></g></g></g><g fill="#737373" fill-opacity="1"><g transform="translate(18.599951, 26.638538)"><g><path d="M 0.8125 -0.671875 L 1.25 -0.671875 L 1.046875 -1.390625 Z M 2.046875 -0.125 C 2.023438 -0.0820312 1.984375 -0.046875 1.921875 -0.015625 C 1.867188 0.015625 1.804688 0.03125 1.734375 0.03125 C 1.660156 0.03125 1.597656 0.015625 1.546875 -0.015625 C 1.503906 -0.0546875 1.460938 -0.125 1.421875 -0.21875 L 1.359375 -0.390625 L 0.71875 -0.390625 L 0.640625 -0.203125 C 0.585938 -0.046875 0.5 0.03125 0.375 0.03125 C 0.3125 0.03125 0.253906 0.0195312 0.203125 0 C 0.148438 -0.03125 0.117188 -0.0664062 0.109375 -0.109375 C 0.140625 -0.128906 0.164062 -0.148438 0.1875 -0.171875 C 0.207031 -0.203125 0.226562 -0.253906 0.25 -0.328125 L 0.828125 -1.828125 C 0.796875 -1.898438 0.757812 -1.945312 0.71875 -1.96875 C 0.78125 -2.0625 0.875 -2.109375 1 -2.109375 C 1.09375 -2.109375 1.160156 -2.082031 1.203125 -2.03125 C 1.242188 -1.976562 1.289062 -1.890625 1.34375 -1.765625 L 1.84375 -0.390625 C 1.894531 -0.253906 1.960938 -0.164062 2.046875 -0.125 Z M 2.046875 -0.125 "/></g></g></g><g fill="#737373" fill-opacity="1"><g transform="translate(20.674994, 26.638538)"><g><path d="M 2.578125 -0.03125 C 2.515625 0 2.441406 0.015625 2.359375 0.015625 C 2.273438 0.015625 2.207031 -0.00390625 2.15625 -0.046875 C 2.113281 -0.0859375 2.085938 -0.160156 2.078125 -0.265625 L 2 -1.703125 L 1.5 -0.125 C 1.476562 -0.0390625 1.421875 0 1.328125 0 C 1.273438 0 1.238281 -0.0078125 1.21875 -0.03125 C 1.195312 -0.0507812 1.179688 -0.0859375 1.171875 -0.140625 L 0.65625 -1.703125 L 0.578125 -0.28125 C 0.566406 -0.175781 0.539062 -0.0976562 0.5 -0.046875 C 0.46875 0.00390625 0.40625 0.03125 0.3125 0.03125 C 0.226562 0.03125 0.148438 -0.00390625 0.078125 -0.078125 C 0.140625 -0.128906 0.171875 -0.207031 0.171875 -0.3125 L 0.28125 -1.75 C 0.28125 -1.757812 0.28125 -1.769531 0.28125 -1.78125 C 0.28125 -1.875 0.265625 -1.945312 0.234375 -2 C 0.367188 -2.070312 0.515625 -2.109375 0.671875 -2.109375 C 0.828125 -2.109375 0.9375 -2.070312 1 -2 C 1.0625 -1.925781 1.113281 -1.800781 1.15625 -1.625 L 1.390625 -0.8125 L 1.609375 -1.609375 C 1.660156 -1.804688 1.726562 -1.9375 1.8125 -2 C 1.894531 -2.070312 2.003906 -2.109375 2.140625 -2.109375 C 2.273438 -2.109375 2.390625 -2.085938 2.484375 -2.046875 C 2.453125 -1.992188 2.4375 -1.925781 2.4375 -1.84375 C 2.4375 -1.820312 2.4375 -1.800781 2.4375 -1.78125 L 2.53125 -0.3125 C 2.53125 -0.1875 2.546875 -0.09375 2.578125 -0.03125 Z M 2.578125 -0.03125 "/></g></g></g><g fill="#737373" fill-opacity="1"><g transform="translate(23.394602, 26.638538)"><g><path d="M 0.828125 -1.8125 L 0.671875 -1.8125 L 0.671875 -1 L 0.828125 -1 C 0.960938 -1 1.0625 -1.035156 1.125 -1.109375 C 1.195312 -1.179688 1.234375 -1.28125 1.234375 -1.40625 C 1.234375 -1.53125 1.195312 -1.628906 1.125 -1.703125 C 1.0625 -1.773438 0.960938 -1.8125 0.828125 -1.8125 Z M 0.390625 -2.078125 L 0.90625 -2.078125 C 0.914062 -2.078125 0.925781 -2.078125 0.9375 -2.078125 C 1.238281 -2.078125 1.46875 -1.984375 1.625 -1.796875 C 1.707031 -1.691406 1.75 -1.5625 1.75 -1.40625 C 1.75 -1.257812 1.707031 -1.132812 1.625 -1.03125 C 1.46875 -0.832031 1.226562 -0.734375 0.90625 -0.734375 L 0.671875 -0.734375 L 0.671875 -0.296875 C 0.671875 -0.191406 0.703125 -0.125 0.765625 -0.09375 C 0.691406 -0.0078125 0.601562 0.03125 0.5 0.03125 C 0.3125 0.03125 0.21875 -0.0820312 0.21875 -0.3125 L 0.21875 -1.765625 C 0.21875 -1.859375 0.1875 -1.921875 0.125 -1.953125 C 0.195312 -2.035156 0.285156 -2.078125 0.390625 -2.078125 Z M 0.390625 -2.078125 "/></g></g></g></svg>