<svg xmlns="http://www.w3.org/2000/svg" xmlns:xlink="http://www.w3.org/1999/xlink" width="42" zoomAndPan="magnify" viewBox="0 0 31.5 30.75" height="41" preserveAspectRatio="xMidYMid meet" version="1.0"><defs><g/><clipPath id="aa72610d61"><path d="M 8 2 L 21 2 L 21 22 L 8 22 Z M 8 2 " clip-rule="nonzero"/></clipPath><clipPath id="c554022fe3"><path d="M 13.503906 24.84375 L 0.558594 9.6875 L 15.71875 -3.257812 L 28.660156 11.902344 Z M 13.503906 24.84375 " clip-rule="nonzero"/></clipPath><clipPath id="e9abd63f86"><path d="M 0.796875 9.96875 L 13.742188 25.125 L 28.902344 12.183594 L 15.957031 -2.976562 Z M 0.796875 9.96875 " clip-rule="nonzero"/></clipPath><clipPath id="27ab336bf4"><path d="M 4 5 L 14 5 L 14 15 L 4 15 Z M 4 5 " clip-rule="nonzero"/></clipPath><clipPath id="1b62898136"><path d="M 13.503906 24.84375 L 0.558594 9.6875 L 15.71875 -3.257812 L 28.660156 11.902344 Z M 13.503906 24.84375 " clip-rule="nonzero"/></clipPath><clipPath id="fbe9b944ad"><path d="M 0.796875 9.96875 L 13.742188 25.125 L 28.902344 12.183594 L 15.957031 -2.976562 Z M 0.796875 9.96875 " clip-rule="nonzero"/></clipPath><clipPath id="ae6d404250"><path d="M 5 13 L 8 13 L 8 16 L 5 16 Z M 5 13 " clip-rule="nonzero"/></clipPath><clipPath id="c23887181e"><path d="M 13.503906 24.84375 L 0.558594 9.6875 L 15.71875 -3.257812 L 28.660156 11.902344 Z M 13.503906 24.84375 " clip-rule="nonzero"/></clipPath><clipPath id="fca10a2c5a"><path d="M 0.796875 9.96875 L 13.742188 25.125 L 28.902344 12.183594 L 15.957031 -2.976562 Z M 0.796875 9.96875 " clip-rule="nonzero"/></clipPath><clipPath id="50220d922c"><path d="M 7 13 L 9 13 L 9 15 L 7 15 Z M 7 13 " clip-rule="nonzero"/></clipPath><clipPath id="466ebbfea9"><path d="M 13.503906 24.84375 L 0.558594 9.6875 L 15.71875 -3.257812 L 28.660156 11.902344 Z M 13.503906 24.84375 " clip-rule="nonzero"/></clipPath><clipPath id="202d646ddc"><path d="M 0.796875 9.96875 L 13.742188 25.125 L 28.902344 12.183594 L 15.957031 -2.976562 Z M 0.796875 9.96875 " clip-rule="nonzero"/></clipPath></defs><g clip-path="url(#aa72610d61)"><g clip-path="url(#c554022fe3)"><g clip-path="url(#e9abd63f86)"><path fill="#a6a6a6" d="M 10.882812 17.523438 C 9.402344 15.429688 8.863281 12.960938 9.175781 10.609375 C 9.097656 10.550781 9.03125 10.480469 8.96875 10.394531 C 8.671875 9.972656 8.769531 9.382812 9.195312 9.082031 C 9.308594 9 9.425781 8.953125 9.554688 8.925781 C 10.171875 7 11.402344 5.25 13.183594 3.980469 C 15.4375 2.382812 18.136719 1.878906 20.652344 2.367188 C 18.269531 2.019531 15.757812 2.554688 13.628906 4.058594 C 11.863281 5.3125 10.636719 7.046875 10.019531 8.957031 C 9.824219 9.550781 9.6875 10.164062 9.609375 10.785156 C 9.320312 13.109375 9.867188 15.546875 11.324219 17.605469 C 12.832031 19.726562 15.03125 21.058594 17.394531 21.523438 C 14.867188 21.144531 12.480469 19.78125 10.882812 17.523438 Z M 10.882812 17.523438 " fill-opacity="1" fill-rule="nonzero"/></g></g></g><g clip-path="url(#27ab336bf4)"><g clip-path="url(#1b62898136)"><g clip-path="url(#fbe9b944ad)"><path fill="#a6a6a6" d="M 12.3125 14.074219 C 11.738281 13.394531 11.191406 12.699219 10.65625 11.992188 C 10.191406 11.375 9.738281 10.753906 9.289062 10.132812 C 9.210938 10.5625 9.132812 10.996094 9.042969 11.425781 C 8.933594 11.976562 8.808594 12.53125 8.664062 13.074219 C 8.710938 12.511719 8.78125 11.953125 8.855469 11.394531 C 8.917969 10.957031 8.980469 10.523438 9.050781 10.097656 C 8.421875 10.539062 7.789062 10.976562 7.144531 11.402344 C 6.410156 11.886719 5.667969 12.367188 4.902344 12.816406 C 5.578125 12.242188 6.277344 11.691406 6.984375 11.160156 C 7.601562 10.695312 8.222656 10.242188 8.84375 9.792969 C 8.414062 9.714844 7.980469 9.636719 7.550781 9.546875 C 7 9.4375 6.445312 9.3125 5.902344 9.167969 C 6.464844 9.210938 7.023438 9.285156 7.582031 9.359375 C 8.019531 9.421875 8.453125 9.484375 8.878906 9.554688 C 8.433594 8.925781 8 8.292969 7.574219 7.648438 C 7.082031 6.90625 6.601562 6.164062 6.152344 5.394531 C 6.726562 6.074219 7.269531 6.777344 7.808594 7.476562 C 8.273438 8.09375 8.726562 8.714844 9.175781 9.339844 C 9.253906 8.910156 9.332031 8.476562 9.421875 8.046875 C 9.53125 7.496094 9.65625 6.941406 9.796875 6.390625 C 9.753906 6.957031 9.679688 7.515625 9.605469 8.074219 C 9.542969 8.507812 9.480469 8.945312 9.414062 9.375 C 10.042969 8.929688 10.675781 8.496094 11.320312 8.066406 C 12.0625 7.578125 12.804688 7.097656 13.574219 6.648438 C 12.894531 7.21875 12.191406 7.765625 11.492188 8.304688 C 10.871094 8.785156 10.25 9.238281 9.621094 9.691406 C 10.054688 9.765625 10.488281 9.847656 10.917969 9.9375 C 11.46875 10.046875 12.023438 10.167969 12.570312 10.3125 C 12.007812 10.265625 11.449219 10.195312 10.890625 10.121094 C 10.453125 10.058594 10.019531 9.996094 9.59375 9.925781 C 10.035156 10.550781 10.472656 11.1875 10.898438 11.832031 C 11.382812 12.566406 11.863281 13.308594 12.3125 14.074219 Z M 12.3125 14.074219 " fill-opacity="1" fill-rule="nonzero"/></g></g></g><g clip-path="url(#ae6d404250)"><g clip-path="url(#c23887181e)"><g clip-path="url(#fca10a2c5a)"><path fill="#a6a6a6" d="M 6.804688 15.472656 C 6.683594 15.332031 6.574219 15.1875 6.460938 15.046875 C 6.371094 14.921875 6.273438 14.789062 6.179688 14.664062 C 6.164062 14.753906 6.148438 14.839844 6.128906 14.925781 C 6.105469 15.039062 6.078125 15.152344 6.054688 15.265625 C 6.0625 15.152344 6.078125 15.035156 6.09375 14.917969 C 6.109375 14.828125 6.117188 14.738281 6.132812 14.652344 C 6 14.738281 5.875 14.832031 5.738281 14.917969 C 5.589844 15.015625 5.4375 15.113281 5.277344 15.203125 C 5.417969 15.085938 5.5625 14.976562 5.703125 14.863281 C 5.828125 14.769531 5.960938 14.675781 6.085938 14.582031 C 6 14.566406 5.910156 14.550781 5.824219 14.53125 C 5.710938 14.507812 5.597656 14.480469 5.484375 14.457031 C 5.597656 14.464844 5.71875 14.476562 5.832031 14.496094 C 5.921875 14.511719 6.011719 14.515625 6.097656 14.53125 C 6.011719 14.402344 5.917969 14.277344 5.832031 14.140625 C 5.734375 13.988281 5.636719 13.835938 5.546875 13.679688 C 5.664062 13.820312 5.773438 13.964844 5.886719 14.105469 C 5.980469 14.230469 6.074219 14.363281 6.167969 14.488281 C 6.183594 14.398438 6.199219 14.308594 6.21875 14.226562 C 6.242188 14.113281 6.269531 14 6.292969 13.886719 C 6.285156 14 6.273438 14.117188 6.253906 14.230469 C 6.238281 14.320312 6.234375 14.410156 6.21875 14.5 C 6.347656 14.414062 6.476562 14.320312 6.609375 14.234375 C 6.761719 14.136719 6.914062 14.035156 7.074219 13.945312 C 6.929688 14.066406 6.785156 14.175781 6.644531 14.289062 C 6.519531 14.378906 6.386719 14.476562 6.261719 14.570312 C 6.351562 14.585938 6.441406 14.601562 6.523438 14.621094 C 6.636719 14.644531 6.75 14.671875 6.863281 14.695312 C 6.75 14.6875 6.632812 14.671875 6.519531 14.65625 C 6.429688 14.640625 6.339844 14.632812 6.25 14.617188 C 6.335938 14.75 6.429688 14.875 6.515625 15.011719 C 6.609375 15.164062 6.707031 15.316406 6.804688 15.472656 Z M 6.804688 15.472656 " fill-opacity="1" fill-rule="nonzero"/></g></g></g><g clip-path="url(#50220d922c)"><g clip-path="url(#466ebbfea9)"><g clip-path="url(#202d646ddc)"><path fill="#a6a6a6" d="M 8.53125 14.753906 C 8.476562 14.6875 8.425781 14.621094 8.375 14.550781 C 8.332031 14.492188 8.289062 14.433594 8.246094 14.371094 C 8.238281 14.417969 8.230469 14.453125 8.222656 14.5 C 8.214844 14.550781 8.199219 14.601562 8.191406 14.65625 C 8.195312 14.597656 8.203125 14.546875 8.210938 14.492188 C 8.214844 14.453125 8.222656 14.40625 8.230469 14.371094 C 8.167969 14.414062 8.105469 14.453125 8.046875 14.496094 C 7.972656 14.542969 7.902344 14.589844 7.828125 14.636719 C 7.894531 14.578125 7.960938 14.53125 8.03125 14.480469 C 8.09375 14.433594 8.148438 14.394531 8.210938 14.347656 C 8.164062 14.339844 8.128906 14.335938 8.085938 14.328125 C 8.03125 14.320312 7.980469 14.300781 7.925781 14.292969 C 7.984375 14.296875 8.035156 14.304688 8.089844 14.316406 C 8.128906 14.316406 8.175781 14.324219 8.210938 14.332031 C 8.167969 14.273438 8.128906 14.210938 8.085938 14.148438 C 8.039062 14.074219 7.992188 14.007812 7.945312 13.933594 C 8.003906 14 8.050781 14.066406 8.101562 14.136719 C 8.148438 14.195312 8.1875 14.253906 8.234375 14.3125 C 8.242188 14.269531 8.246094 14.234375 8.253906 14.1875 C 8.265625 14.136719 8.28125 14.082031 8.289062 14.03125 C 8.285156 14.085938 8.277344 14.140625 8.269531 14.191406 C 8.265625 14.234375 8.257812 14.277344 8.25 14.316406 C 8.3125 14.269531 8.371094 14.234375 8.433594 14.191406 C 8.507812 14.140625 8.574219 14.097656 8.648438 14.050781 C 8.582031 14.105469 8.519531 14.15625 8.449219 14.207031 C 8.386719 14.25 8.328125 14.292969 8.269531 14.335938 C 8.3125 14.34375 8.351562 14.351562 8.394531 14.359375 C 8.449219 14.367188 8.5 14.382812 8.550781 14.390625 C 8.496094 14.386719 8.441406 14.378906 8.390625 14.371094 C 8.347656 14.367188 8.304688 14.359375 8.265625 14.355469 C 8.3125 14.414062 8.347656 14.476562 8.394531 14.535156 C 8.445312 14.605469 8.492188 14.679688 8.53125 14.753906 Z M 8.53125 14.753906 " fill-opacity="1" fill-rule="nonzero"/></g></g></g><g fill="#a6a6a6" fill-opacity="1"><g transform="translate(0.886026, 24.207406)"><g><path d="M 4.3125 -4.40625 L 4.3125 -1.03125 L 4.28125 -1.03125 L 0.78125 -4.484375 L 0.75 -4.484375 L 0.75 0 L 1.046875 0 L 1.046875 -3.375 L 1.078125 -3.375 L 4.5625 0.078125 L 4.59375 0.078125 L 4.59375 -4.40625 Z M 4.3125 -4.40625 "/></g></g></g><g fill="#a6a6a6" fill-opacity="1"><g transform="translate(7.606113, 24.207406)"><g><path d="M 1.515625 -2.484375 C 1.609375 -2.484375 1.710938 -2.488281 1.828125 -2.5 C 1.941406 -2.519531 2.046875 -2.5625 2.140625 -2.625 C 2.242188 -2.6875 2.332031 -2.773438 2.40625 -2.890625 C 2.476562 -3.003906 2.515625 -3.15625 2.515625 -3.34375 C 2.515625 -3.445312 2.5 -3.550781 2.46875 -3.65625 C 2.4375 -3.757812 2.382812 -3.851562 2.3125 -3.9375 C 2.25 -4.019531 2.164062 -4.082031 2.0625 -4.125 C 1.96875 -4.175781 1.851562 -4.203125 1.71875 -4.203125 C 1.625 -4.203125 1.535156 -4.191406 1.453125 -4.171875 C 1.378906 -4.148438 1.3125 -4.109375 1.25 -4.046875 C 1.1875 -3.992188 1.132812 -3.914062 1.09375 -3.8125 C 1.050781 -3.71875 1.019531 -3.59375 1 -3.4375 L 0.4375 -3.4375 C 0.445312 -3.550781 0.472656 -3.671875 0.515625 -3.796875 C 0.554688 -3.921875 0.625 -4.03125 0.71875 -4.125 C 0.820312 -4.226562 0.957031 -4.3125 1.125 -4.375 C 1.289062 -4.445312 1.5 -4.484375 1.75 -4.484375 C 1.96875 -4.484375 2.160156 -4.445312 2.328125 -4.375 C 2.492188 -4.3125 2.628906 -4.226562 2.734375 -4.125 C 2.847656 -4.019531 2.925781 -3.894531 2.96875 -3.75 C 3.019531 -3.601562 3.046875 -3.457031 3.046875 -3.3125 C 3.046875 -3.09375 2.988281 -2.910156 2.875 -2.765625 C 2.757812 -2.628906 2.582031 -2.515625 2.34375 -2.421875 L 2.265625 -2.390625 L 2.265625 -2.34375 L 2.34375 -2.34375 C 2.476562 -2.3125 2.597656 -2.257812 2.703125 -2.1875 C 2.816406 -2.125 2.910156 -2.039062 2.984375 -1.9375 C 3.066406 -1.84375 3.128906 -1.734375 3.171875 -1.609375 C 3.210938 -1.492188 3.234375 -1.378906 3.234375 -1.265625 C 3.234375 -1.097656 3.203125 -0.929688 3.140625 -0.765625 C 3.078125 -0.609375 2.976562 -0.46875 2.84375 -0.34375 C 2.71875 -0.21875 2.554688 -0.117188 2.359375 -0.046875 C 2.160156 0.0234375 1.929688 0.0625 1.671875 0.0625 C 1.484375 0.0625 1.304688 0.0351562 1.140625 -0.015625 C 0.984375 -0.0664062 0.84375 -0.140625 0.71875 -0.234375 C 0.59375 -0.335938 0.492188 -0.453125 0.421875 -0.578125 C 0.347656 -0.710938 0.3125 -0.851562 0.3125 -1 L 0.9375 -1 C 0.945312 -0.894531 0.972656 -0.789062 1.015625 -0.6875 C 1.054688 -0.59375 1.109375 -0.507812 1.171875 -0.4375 C 1.242188 -0.375 1.328125 -0.316406 1.421875 -0.265625 C 1.515625 -0.222656 1.625 -0.203125 1.75 -0.203125 C 2 -0.203125 2.203125 -0.285156 2.359375 -0.453125 C 2.515625 -0.628906 2.59375 -0.890625 2.59375 -1.234375 C 2.59375 -1.316406 2.582031 -1.410156 2.5625 -1.515625 C 2.550781 -1.628906 2.507812 -1.734375 2.4375 -1.828125 C 2.375 -1.929688 2.269531 -2.019531 2.125 -2.09375 C 1.976562 -2.164062 1.773438 -2.203125 1.515625 -2.203125 Z M 1.515625 -2.484375 "/></g></g></g><g fill="#a6a6a6" fill-opacity="1"><g transform="translate(12.588025, 24.207406)"><g><path d="M 0.75 0 L 1.328125 0 L 1.328125 -1.546875 L 2.046875 -2.3125 L 3.71875 0 L 4.375 0 L 2.40625 -2.703125 L 4 -4.40625 L 3.6875 -4.40625 L 1.328125 -1.921875 L 1.328125 -4.40625 L 0.75 -4.40625 Z M 0.75 0 "/></g></g></g><g fill="#a6a6a6" fill-opacity="1"><g transform="translate(18.514599, 24.207406)"><g><path d="M 3.203125 -1.296875 L 3.8125 0 L 4.421875 0 L 2.375 -4.40625 L 2.046875 -4.40625 L 0.1875 0 L 0.484375 0 L 1.03125 -1.296875 Z M 3.078125 -1.578125 L 1.15625 -1.578125 L 2.0625 -3.703125 L 2.078125 -3.703125 Z M 3.078125 -1.578125 "/></g></g></g><g fill="#a6a6a6" fill-opacity="1"><g transform="translate(24.491553, 24.207406)"><g><path d="M 1.328125 -2.1875 L 3.96875 -2.1875 L 3.96875 0 L 4.546875 0 L 4.546875 -4.40625 L 3.96875 -4.40625 L 3.96875 -2.484375 L 1.328125 -2.484375 L 1.328125 -4.40625 L 0.75 -4.40625 L 0.75 0 L 1.328125 0 Z M 1.328125 -2.1875 "/></g></g></g></svg>