<svg xmlns="http://www.w3.org/2000/svg" xmlns:xlink="http://www.w3.org/1999/xlink" width="42" zoomAndPan="magnify" viewBox="0 0 31.5 30.75" height="41" preserveAspectRatio="xMidYMid meet" version="1.0"><defs><g/><clipPath id="70935cf75f"><path d="M 15.425781 17.65625 L 29.371094 17.65625 L 29.371094 19.828125 L 15.425781 19.828125 Z M 15.425781 17.65625 " clip-rule="nonzero"/></clipPath><clipPath id="825f341660"><path d="M 16 14 L 28 14 L 28 19.828125 L 16 19.828125 Z M 16 14 " clip-rule="nonzero"/></clipPath><clipPath id="a7eca07093"><path d="M 17 8.015625 L 24 8.015625 L 24 16 L 17 16 Z M 17 8.015625 " clip-rule="nonzero"/></clipPath></defs><g fill="#a6a6a6" fill-opacity="1"><g transform="translate(1.335205, 24.831831)"><g><path d="M 2.140625 -3.109375 L 2.140625 -2.609375 C 2.140625 -2.554688 2.113281 -2.53125 2.0625 -2.53125 L 1.59375 -2.53125 C 1.539062 -2.53125 1.515625 -2.554688 1.515625 -2.609375 L 1.515625 -2.984375 C 1.515625 -3.109375 1.453125 -3.171875 1.328125 -3.171875 L 1.078125 -3.171875 C 0.953125 -3.171875 0.890625 -3.109375 0.890625 -2.984375 L 0.890625 -0.8125 C 0.890625 -0.6875 0.953125 -0.625 1.078125 -0.625 L 1.328125 -0.625 C 1.453125 -0.625 1.515625 -0.6875 1.515625 -0.8125 L 1.515625 -1.203125 C 1.515625 -1.242188 1.539062 -1.265625 1.59375 -1.265625 L 2.0625 -1.265625 C 2.113281 -1.265625 2.140625 -1.242188 2.140625 -1.203125 L 2.140625 -0.6875 C 2.140625 -0.457031 2.082031 -0.285156 1.96875 -0.171875 C 1.851562 -0.0546875 1.679688 0 1.453125 0 L 0.921875 0 C 0.703125 0 0.53125 -0.0546875 0.40625 -0.171875 C 0.289062 -0.285156 0.234375 -0.457031 0.234375 -0.6875 L 0.234375 -3.109375 C 0.234375 -3.335938 0.289062 -3.507812 0.40625 -3.625 C 0.53125 -3.738281 0.703125 -3.796875 0.921875 -3.796875 L 1.453125 -3.796875 C 1.679688 -3.796875 1.851562 -3.738281 1.96875 -3.625 C 2.082031 -3.507812 2.140625 -3.335938 2.140625 -3.109375 Z M 2.140625 -3.109375 "/></g></g></g><g fill="#a6a6a6" fill-opacity="1"><g transform="translate(3.714116, 24.831831)"><g><path d="M 0.234375 -0.6875 L 0.234375 -3.109375 C 0.234375 -3.335938 0.289062 -3.507812 0.40625 -3.625 C 0.53125 -3.738281 0.703125 -3.796875 0.921875 -3.796875 L 1.453125 -3.796875 C 1.679688 -3.796875 1.851562 -3.738281 1.96875 -3.625 C 2.082031 -3.507812 2.140625 -3.335938 2.140625 -3.109375 L 2.140625 -0.6875 C 2.140625 -0.457031 2.082031 -0.285156 1.96875 -0.171875 C 1.851562 -0.0546875 1.679688 0 1.453125 0 L 0.921875 0 C 0.703125 0 0.53125 -0.0546875 0.40625 -0.171875 C 0.289062 -0.285156 0.234375 -0.457031 0.234375 -0.6875 Z M 1.0625 -0.609375 L 1.328125 -0.609375 C 1.460938 -0.609375 1.53125 -0.671875 1.53125 -0.796875 L 1.53125 -3 C 1.53125 -3.125 1.460938 -3.1875 1.328125 -3.1875 L 1.0625 -3.1875 C 0.9375 -3.1875 0.875 -3.125 0.875 -3 L 0.875 -0.796875 C 0.875 -0.671875 0.9375 -0.609375 1.0625 -0.609375 Z M 1.0625 -0.609375 "/></g></g></g><g fill="#a6a6a6" fill-opacity="1"><g transform="translate(6.08828, 24.831831)"><g><path d="M 1.703125 -3.796875 L 2.1875 -3.796875 C 2.238281 -3.796875 2.265625 -3.769531 2.265625 -3.71875 L 2.265625 -0.078125 C 2.265625 -0.0234375 2.238281 0 2.1875 0 L 1.71875 0 C 1.675781 0 1.648438 -0.0195312 1.640625 -0.0625 L 0.90625 -2.09375 L 0.890625 -2.09375 L 0.890625 -0.078125 C 0.890625 -0.0234375 0.863281 0 0.8125 0 L 0.3125 0 C 0.257812 0 0.234375 -0.0234375 0.234375 -0.078125 L 0.234375 -3.71875 C 0.234375 -3.769531 0.257812 -3.796875 0.3125 -3.796875 L 0.78125 -3.796875 C 0.820312 -3.796875 0.851562 -3.773438 0.875 -3.734375 L 1.59375 -1.71875 L 1.625 -1.71875 L 1.625 -3.71875 C 1.625 -3.769531 1.648438 -3.796875 1.703125 -3.796875 Z M 1.703125 -3.796875 "/></g></g></g><g fill="#a6a6a6" fill-opacity="1"><g transform="translate(8.590646, 24.831831)"><g><path d="M 0.921875 -3.796875 L 1.453125 -3.796875 C 1.679688 -3.796875 1.851562 -3.738281 1.96875 -3.625 C 2.082031 -3.507812 2.140625 -3.335938 2.140625 -3.109375 L 2.140625 -2.609375 C 2.140625 -2.554688 2.113281 -2.53125 2.0625 -2.53125 L 1.5625 -2.53125 C 1.507812 -2.53125 1.484375 -2.554688 1.484375 -2.609375 L 1.484375 -2.984375 C 1.484375 -3.109375 1.421875 -3.171875 1.296875 -3.171875 L 1.078125 -3.171875 C 0.953125 -3.171875 0.890625 -3.109375 0.890625 -2.984375 L 0.890625 -2.328125 L 2.015625 -1.953125 C 2.097656 -1.921875 2.140625 -1.863281 2.140625 -1.78125 L 2.140625 -0.6875 C 2.140625 -0.457031 2.082031 -0.285156 1.96875 -0.171875 C 1.851562 -0.0546875 1.679688 0 1.453125 0 L 0.921875 0 C 0.703125 0 0.53125 -0.0546875 0.40625 -0.171875 C 0.289062 -0.285156 0.234375 -0.457031 0.234375 -0.6875 L 0.234375 -1.1875 C 0.234375 -1.238281 0.257812 -1.265625 0.3125 -1.265625 L 0.8125 -1.265625 C 0.863281 -1.265625 0.890625 -1.238281 0.890625 -1.1875 L 0.890625 -0.8125 C 0.890625 -0.6875 0.953125 -0.625 1.078125 -0.625 L 1.296875 -0.625 C 1.421875 -0.625 1.484375 -0.6875 1.484375 -0.8125 L 1.484375 -1.453125 L 0.359375 -1.8125 C 0.273438 -1.84375 0.234375 -1.90625 0.234375 -2 L 0.234375 -3.109375 C 0.234375 -3.335938 0.289062 -3.507812 0.40625 -3.625 C 0.53125 -3.738281 0.703125 -3.796875 0.921875 -3.796875 Z M 0.921875 -3.796875 "/></g></g></g><g fill="#a6a6a6" fill-opacity="1"><g transform="translate(10.96481, 24.831831)"><g><path d="M 0.21875 -3.796875 L 1.96875 -3.796875 C 2.019531 -3.796875 2.046875 -3.769531 2.046875 -3.71875 L 2.046875 -3.25 C 2.046875 -3.195312 2.019531 -3.171875 1.96875 -3.171875 L 1.421875 -3.171875 L 1.421875 -0.078125 C 1.421875 -0.0234375 1.394531 0 1.34375 0 L 0.84375 0 C 0.789062 0 0.765625 -0.0234375 0.765625 -0.078125 L 0.765625 -3.171875 L 0.21875 -3.171875 C 0.164062 -3.171875 0.140625 -3.195312 0.140625 -3.25 L 0.140625 -3.71875 C 0.140625 -3.769531 0.164062 -3.796875 0.21875 -3.796875 Z M 0.21875 -3.796875 "/></g></g></g><g fill="#a6a6a6" fill-opacity="1"><g transform="translate(13.149039, 24.831831)"><g><path d="M 2.1875 -3.109375 L 2.1875 -1.953125 C 2.1875 -1.640625 2.070312 -1.429688 1.84375 -1.328125 L 2.171875 -0.078125 C 2.179688 -0.0234375 2.160156 0 2.109375 0 L 1.609375 0 C 1.566406 0 1.539062 -0.0195312 1.53125 -0.0625 L 1.21875 -1.265625 L 0.890625 -1.265625 L 0.890625 -0.078125 C 0.890625 -0.0234375 0.863281 0 0.8125 0 L 0.3125 0 C 0.257812 0 0.234375 -0.0234375 0.234375 -0.078125 L 0.234375 -3.71875 C 0.234375 -3.769531 0.257812 -3.796875 0.3125 -3.796875 L 1.5 -3.796875 C 1.726562 -3.796875 1.898438 -3.738281 2.015625 -3.625 C 2.128906 -3.507812 2.1875 -3.335938 2.1875 -3.109375 Z M 0.890625 -1.90625 L 1.359375 -1.90625 C 1.484375 -1.90625 1.546875 -1.96875 1.546875 -2.09375 L 1.546875 -2.984375 C 1.546875 -3.109375 1.484375 -3.171875 1.359375 -3.171875 L 0.890625 -3.171875 Z M 0.890625 -1.90625 "/></g></g></g><g fill="#a6a6a6" fill-opacity="1"><g transform="translate(15.575434, 24.831831)"><g><path d="M 1.609375 -3.796875 L 2.046875 -3.796875 C 2.066406 -3.796875 2.085938 -3.785156 2.109375 -3.765625 C 2.128906 -3.753906 2.140625 -3.734375 2.140625 -3.703125 L 2.140625 -0.6875 C 2.140625 -0.457031 2.082031 -0.285156 1.96875 -0.171875 C 1.851562 -0.0546875 1.679688 0 1.453125 0 L 0.921875 0 C 0.703125 0 0.53125 -0.0546875 0.40625 -0.171875 C 0.289062 -0.285156 0.234375 -0.457031 0.234375 -0.6875 L 0.234375 -3.703125 C 0.234375 -3.734375 0.242188 -3.753906 0.265625 -3.765625 C 0.285156 -3.785156 0.304688 -3.796875 0.328125 -3.796875 L 0.78125 -3.796875 C 0.8125 -3.796875 0.835938 -3.785156 0.859375 -3.765625 C 0.878906 -3.753906 0.890625 -3.734375 0.890625 -3.703125 L 0.890625 -0.8125 C 0.890625 -0.6875 0.953125 -0.625 1.078125 -0.625 L 1.328125 -0.625 C 1.453125 -0.625 1.515625 -0.6875 1.515625 -0.8125 L 1.515625 -3.703125 C 1.515625 -3.734375 1.519531 -3.753906 1.53125 -3.765625 C 1.550781 -3.785156 1.578125 -3.796875 1.609375 -3.796875 Z M 1.609375 -3.796875 "/></g></g></g><g fill="#a6a6a6" fill-opacity="1"><g transform="translate(17.949598, 24.831831)"><g><path d="M 2.140625 -3.109375 L 2.140625 -2.609375 C 2.140625 -2.554688 2.113281 -2.53125 2.0625 -2.53125 L 1.59375 -2.53125 C 1.539062 -2.53125 1.515625 -2.554688 1.515625 -2.609375 L 1.515625 -2.984375 C 1.515625 -3.109375 1.453125 -3.171875 1.328125 -3.171875 L 1.078125 -3.171875 C 0.953125 -3.171875 0.890625 -3.109375 0.890625 -2.984375 L 0.890625 -0.8125 C 0.890625 -0.6875 0.953125 -0.625 1.078125 -0.625 L 1.328125 -0.625 C 1.453125 -0.625 1.515625 -0.6875 1.515625 -0.8125 L 1.515625 -1.203125 C 1.515625 -1.242188 1.539062 -1.265625 1.59375 -1.265625 L 2.0625 -1.265625 C 2.113281 -1.265625 2.140625 -1.242188 2.140625 -1.203125 L 2.140625 -0.6875 C 2.140625 -0.457031 2.082031 -0.285156 1.96875 -0.171875 C 1.851562 -0.0546875 1.679688 0 1.453125 0 L 0.921875 0 C 0.703125 0 0.53125 -0.0546875 0.40625 -0.171875 C 0.289062 -0.285156 0.234375 -0.457031 0.234375 -0.6875 L 0.234375 -3.109375 C 0.234375 -3.335938 0.289062 -3.507812 0.40625 -3.625 C 0.53125 -3.738281 0.703125 -3.796875 0.921875 -3.796875 L 1.453125 -3.796875 C 1.679688 -3.796875 1.851562 -3.738281 1.96875 -3.625 C 2.082031 -3.507812 2.140625 -3.335938 2.140625 -3.109375 Z M 2.140625 -3.109375 "/></g></g></g><g fill="#a6a6a6" fill-opacity="1"><g transform="translate(20.328509, 24.831831)"><g><path d="M 0.21875 -3.796875 L 1.96875 -3.796875 C 2.019531 -3.796875 2.046875 -3.769531 2.046875 -3.71875 L 2.046875 -3.25 C 2.046875 -3.195312 2.019531 -3.171875 1.96875 -3.171875 L 1.421875 -3.171875 L 1.421875 -0.078125 C 1.421875 -0.0234375 1.394531 0 1.34375 0 L 0.84375 0 C 0.789062 0 0.765625 -0.0234375 0.765625 -0.078125 L 0.765625 -3.171875 L 0.21875 -3.171875 C 0.164062 -3.171875 0.140625 -3.195312 0.140625 -3.25 L 0.140625 -3.71875 C 0.140625 -3.769531 0.164062 -3.796875 0.21875 -3.796875 Z M 0.21875 -3.796875 "/></g></g></g><g fill="#a6a6a6" fill-opacity="1"><g transform="translate(22.512738, 24.831831)"><g><path d="M 0.3125 -3.796875 L 0.8125 -3.796875 C 0.863281 -3.796875 0.890625 -3.769531 0.890625 -3.71875 L 0.890625 -0.078125 C 0.890625 -0.0234375 0.863281 0 0.8125 0 L 0.3125 0 C 0.257812 0 0.234375 -0.0234375 0.234375 -0.078125 L 0.234375 -3.71875 C 0.234375 -3.769531 0.257812 -3.796875 0.3125 -3.796875 Z M 0.3125 -3.796875 "/></g></g></g><g fill="#a6a6a6" fill-opacity="1"><g transform="translate(23.633344, 24.831831)"><g><path d="M 0.234375 -0.6875 L 0.234375 -3.109375 C 0.234375 -3.335938 0.289062 -3.507812 0.40625 -3.625 C 0.53125 -3.738281 0.703125 -3.796875 0.921875 -3.796875 L 1.453125 -3.796875 C 1.679688 -3.796875 1.851562 -3.738281 1.96875 -3.625 C 2.082031 -3.507812 2.140625 -3.335938 2.140625 -3.109375 L 2.140625 -0.6875 C 2.140625 -0.457031 2.082031 -0.285156 1.96875 -0.171875 C 1.851562 -0.0546875 1.679688 0 1.453125 0 L 0.921875 0 C 0.703125 0 0.53125 -0.0546875 0.40625 -0.171875 C 0.289062 -0.285156 0.234375 -0.457031 0.234375 -0.6875 Z M 1.0625 -0.609375 L 1.328125 -0.609375 C 1.460938 -0.609375 1.53125 -0.671875 1.53125 -0.796875 L 1.53125 -3 C 1.53125 -3.125 1.460938 -3.1875 1.328125 -3.1875 L 1.0625 -3.1875 C 0.9375 -3.1875 0.875 -3.125 0.875 -3 L 0.875 -0.796875 C 0.875 -0.671875 0.9375 -0.609375 1.0625 -0.609375 Z M 1.0625 -0.609375 "/></g></g></g><g fill="#a6a6a6" fill-opacity="1"><g transform="translate(26.007507, 24.831831)"><g><path d="M 1.703125 -3.796875 L 2.1875 -3.796875 C 2.238281 -3.796875 2.265625 -3.769531 2.265625 -3.71875 L 2.265625 -0.078125 C 2.265625 -0.0234375 2.238281 0 2.1875 0 L 1.71875 0 C 1.675781 0 1.648438 -0.0195312 1.640625 -0.0625 L 0.90625 -2.09375 L 0.890625 -2.09375 L 0.890625 -0.078125 C 0.890625 -0.0234375 0.863281 0 0.8125 0 L 0.3125 0 C 0.257812 0 0.234375 -0.0234375 0.234375 -0.078125 L 0.234375 -3.71875 C 0.234375 -3.769531 0.257812 -3.796875 0.3125 -3.796875 L 0.78125 -3.796875 C 0.820312 -3.796875 0.851562 -3.773438 0.875 -3.734375 L 1.59375 -1.71875 L 1.625 -1.71875 L 1.625 -3.71875 C 1.625 -3.769531 1.648438 -3.796875 1.703125 -3.796875 Z M 1.703125 -3.796875 "/></g></g></g><g clip-path="url(#70935cf75f)"><path fill="#a6a6a6" d="M 15.441406 20.070312 L 27.964844 17.660156 L 29.371094 20.101562 L 15.425781 20.101562 L 15.441406 20.070312 " fill-opacity="1" fill-rule="evenodd"/></g><g clip-path="url(#825f341660)"><path fill="#a6a6a6" d="M 16.011719 19.1875 L 26.183594 14.527344 L 27.589844 16.964844 Z M 16.011719 19.1875 " fill-opacity="1" fill-rule="evenodd"/></g><path fill="#a6a6a6" d="M 16.605469 17.855469 L 24.390625 11.457031 L 25.800781 13.894531 Z M 16.605469 17.855469 " fill-opacity="1" fill-rule="evenodd"/><g clip-path="url(#a7eca07093)"><path fill="#a6a6a6" d="M 17.515625 15.933594 L 22.460938 8.023438 L 23.871094 10.460938 Z M 17.515625 15.933594 " fill-opacity="1" fill-rule="evenodd"/></g><g fill="#a6a6a6" fill-opacity="1"><g transform="translate(1.011045, 18.048916)"><g><path d="M 5.21875 -8.09375 L 5.21875 -6.46875 L 2.4375 -6.46875 L 2.4375 -4.859375 L 5.109375 -4.859375 L 5.109375 -3.25 L 2.4375 -3.25 L 2.4375 -1.625 L 5.21875 -1.625 L 5.21875 0 L 0.59375 0 L 0.59375 -8.09375 Z M 5.21875 -8.09375 "/></g></g></g><g fill="#a6a6a6" fill-opacity="1"><g transform="translate(6.044643, 18.048916)"><g><path d="M 6.8125 -8.09375 L 6.8125 -2.875 C 6.8125 -1.882812 6.539062 -1.132812 6 -0.625 C 5.46875 -0.113281 4.679688 0.140625 3.640625 0.140625 C 2.609375 0.140625 1.820312 -0.113281 1.28125 -0.625 C 0.75 -1.132812 0.484375 -1.882812 0.484375 -2.875 L 0.484375 -8.09375 L 2.328125 -8.09375 L 2.328125 -3.421875 C 2.328125 -2.765625 2.429688 -2.304688 2.640625 -2.046875 C 2.847656 -1.796875 3.179688 -1.671875 3.640625 -1.671875 C 4.109375 -1.671875 4.445312 -1.796875 4.65625 -2.046875 C 4.863281 -2.304688 4.96875 -2.765625 4.96875 -3.421875 L 4.96875 -8.09375 Z M 6.8125 -8.09375 "/></g></g></g><g fill="#a6a6a6" fill-opacity="1"><g transform="translate(12.684864, 18.048916)"><g><path d="M 2.4375 -8.09375 L 2.4375 0 L 0.59375 0 L 0.59375 -8.09375 Z M 2.4375 -8.09375 "/></g></g></g></svg>