<svg xmlns="http://www.w3.org/2000/svg" xmlns:xlink="http://www.w3.org/1999/xlink" width="42" zoomAndPan="magnify" viewBox="0 0 31.5 30.75" height="41" preserveAspectRatio="xMidYMid meet" version="1.0"><defs><g/><clipPath id="b3ab0068e0"><path d="M 17.765625 3.144531 L 27.105469 3.144531 L 27.105469 12.484375 L 17.765625 12.484375 Z M 17.765625 3.144531 " clip-rule="nonzero"/></clipPath><clipPath id="fe4055f993"><path d="M 21.457031 3.144531 L 23.414062 3.144531 C 24.394531 3.144531 25.332031 3.53125 26.027344 4.226562 C 26.71875 4.917969 27.105469 5.855469 27.105469 6.835938 L 27.105469 8.792969 C 27.105469 9.773438 26.71875 10.710938 26.027344 11.402344 C 25.332031 12.09375 24.394531 12.484375 23.414062 12.484375 L 21.457031 12.484375 C 20.480469 12.484375 19.539062 12.09375 18.847656 11.402344 C 18.15625 10.710938 17.765625 9.773438 17.765625 8.792969 L 17.765625 6.835938 C 17.765625 5.855469 18.15625 4.917969 18.847656 4.226562 C 19.539062 3.53125 20.480469 3.144531 21.457031 3.144531 Z M 21.457031 3.144531 " clip-rule="nonzero"/></clipPath><clipPath id="33cfad86ed"><path d="M 19.335938 4.714844 L 25.242188 4.714844 L 25.242188 10.621094 L 19.335938 10.621094 Z M 19.335938 4.714844 " clip-rule="nonzero"/></clipPath></defs><g clip-path="url(#b3ab0068e0)"><g clip-path="url(#fe4055f993)"><path fill="#a6a6a6" d="M 17.765625 3.144531 L 27.105469 3.144531 L 27.105469 12.484375 L 17.765625 12.484375 Z M 17.765625 3.144531 " fill-opacity="1" fill-rule="nonzero"/></g></g><g clip-path="url(#33cfad86ed)"><path fill="#ffffff" d="M 25.53125 4.714844 L 25.53125 10.90625 L 19.335938 10.90625 L 19.335938 9.710938 L 23.484375 9.710938 L 19.359375 5.582031 L 20.207031 4.734375 L 24.332031 8.859375 L 24.332031 4.714844 Z M 25.53125 4.714844 " fill-opacity="1" fill-rule="nonzero"/></g><g fill="#a6a6a6" fill-opacity="1"><g transform="translate(3.765234, 13.682517)"><g><path d="M 2.015625 0 L 1.515625 0 C 1.492188 0 1.472656 -0.00390625 1.453125 -0.015625 C 1.441406 -0.0351562 1.4375 -0.0546875 1.4375 -0.078125 L 1.4375 -0.6875 C 1.4375 -0.738281 1.425781 -0.789062 1.40625 -0.84375 C 1.394531 -0.90625 1.363281 -0.957031 1.3125 -1 C 1.257812 -1.039062 1.191406 -1.0625 1.109375 -1.0625 L 0.859375 -1.0625 C 0.835938 -1.0625 0.816406 -1.050781 0.796875 -1.03125 C 0.785156 -1.019531 0.785156 -1.003906 0.796875 -0.984375 C 0.796875 -0.753906 0.796875 -0.5625 0.796875 -0.40625 C 0.796875 -0.257812 0.800781 -0.148438 0.8125 -0.078125 C 0.8125 -0.0546875 0.800781 -0.0351562 0.78125 -0.015625 C 0.769531 -0.00390625 0.753906 0 0.734375 0 L 0.28125 0 C 0.25 0 0.226562 -0.00390625 0.21875 -0.015625 C 0.207031 -0.0351562 0.203125 -0.0546875 0.203125 -0.078125 C 0.203125 -0.160156 0.203125 -0.3125 0.203125 -0.53125 C 0.210938 -0.75 0.21875 -1.03125 0.21875 -1.375 C 0.21875 -1.71875 0.210938 -1.992188 0.203125 -2.203125 C 0.203125 -2.421875 0.203125 -2.578125 0.203125 -2.671875 C 0.203125 -2.691406 0.207031 -2.707031 0.21875 -2.71875 C 0.226562 -2.738281 0.25 -2.75 0.28125 -2.75 L 1.125 -2.75 C 1.25 -2.75 1.367188 -2.734375 1.484375 -2.703125 C 1.597656 -2.679688 1.695312 -2.640625 1.78125 -2.578125 C 1.875 -2.523438 1.945312 -2.441406 2 -2.328125 C 2.050781 -2.222656 2.078125 -2.085938 2.078125 -1.921875 C 2.078125 -1.765625 2.039062 -1.632812 1.96875 -1.53125 C 1.90625 -1.4375 1.816406 -1.359375 1.703125 -1.296875 C 1.691406 -1.296875 1.6875 -1.285156 1.6875 -1.265625 C 1.6875 -1.253906 1.695312 -1.25 1.71875 -1.25 C 1.8125 -1.195312 1.890625 -1.125 1.953125 -1.03125 C 2.023438 -0.945312 2.0625 -0.832031 2.0625 -0.6875 C 2.0625 -0.539062 2.0625 -0.414062 2.0625 -0.3125 C 2.070312 -0.21875 2.082031 -0.144531 2.09375 -0.09375 C 2.09375 -0.0625 2.082031 -0.0351562 2.0625 -0.015625 C 2.050781 -0.00390625 2.035156 0 2.015625 0 Z M 1.140625 -2.328125 L 0.875 -2.328125 C 0.851562 -2.328125 0.832031 -2.316406 0.8125 -2.296875 C 0.800781 -2.285156 0.796875 -2.269531 0.796875 -2.25 C 0.796875 -2.15625 0.789062 -2.050781 0.78125 -1.9375 C 0.78125 -1.820312 0.78125 -1.691406 0.78125 -1.546875 C 0.78125 -1.523438 0.785156 -1.503906 0.796875 -1.484375 C 0.816406 -1.472656 0.835938 -1.46875 0.859375 -1.46875 L 1.140625 -1.46875 C 1.222656 -1.46875 1.285156 -1.492188 1.328125 -1.546875 C 1.378906 -1.597656 1.414062 -1.65625 1.4375 -1.71875 C 1.457031 -1.789062 1.46875 -1.859375 1.46875 -1.921875 C 1.46875 -2.023438 1.445312 -2.101562 1.40625 -2.15625 C 1.363281 -2.21875 1.316406 -2.257812 1.265625 -2.28125 C 1.222656 -2.3125 1.179688 -2.328125 1.140625 -2.328125 Z M 1.140625 -2.328125 "/></g></g></g><g fill="#a6a6a6" fill-opacity="1"><g transform="translate(6.056634, 13.682517)"><g><path d="M 1.984375 -2.40625 C 1.984375 -2.382812 1.972656 -2.363281 1.953125 -2.34375 C 1.941406 -2.332031 1.921875 -2.328125 1.890625 -2.328125 L 0.875 -2.328125 C 0.851562 -2.328125 0.832031 -2.316406 0.8125 -2.296875 C 0.800781 -2.285156 0.796875 -2.269531 0.796875 -2.25 C 0.796875 -2.175781 0.796875 -2.085938 0.796875 -1.984375 C 0.796875 -1.878906 0.789062 -1.769531 0.78125 -1.65625 C 0.78125 -1.632812 0.785156 -1.613281 0.796875 -1.59375 C 0.816406 -1.582031 0.835938 -1.578125 0.859375 -1.578125 L 1.6875 -1.578125 C 1.707031 -1.578125 1.722656 -1.566406 1.734375 -1.546875 C 1.753906 -1.535156 1.765625 -1.519531 1.765625 -1.5 L 1.765625 -1.25 C 1.765625 -1.226562 1.753906 -1.207031 1.734375 -1.1875 C 1.722656 -1.175781 1.707031 -1.171875 1.6875 -1.171875 L 0.859375 -1.171875 C 0.835938 -1.171875 0.816406 -1.160156 0.796875 -1.140625 C 0.785156 -1.128906 0.78125 -1.113281 0.78125 -1.09375 C 0.789062 -0.96875 0.796875 -0.851562 0.796875 -0.75 C 0.796875 -0.65625 0.796875 -0.566406 0.796875 -0.484375 C 0.796875 -0.460938 0.800781 -0.445312 0.8125 -0.4375 C 0.832031 -0.425781 0.851562 -0.421875 0.875 -0.421875 L 1.890625 -0.421875 C 1.921875 -0.421875 1.941406 -0.410156 1.953125 -0.390625 C 1.972656 -0.378906 1.984375 -0.363281 1.984375 -0.34375 L 1.984375 -0.078125 C 1.984375 -0.0546875 1.972656 -0.0351562 1.953125 -0.015625 C 1.941406 -0.00390625 1.921875 0 1.890625 0 L 0.28125 0 C 0.25 0 0.226562 -0.00390625 0.21875 -0.015625 C 0.207031 -0.0351562 0.203125 -0.0546875 0.203125 -0.078125 C 0.203125 -0.160156 0.203125 -0.3125 0.203125 -0.53125 C 0.210938 -0.75 0.21875 -1.03125 0.21875 -1.375 C 0.21875 -1.71875 0.210938 -1.992188 0.203125 -2.203125 C 0.203125 -2.421875 0.203125 -2.578125 0.203125 -2.671875 C 0.203125 -2.691406 0.207031 -2.707031 0.21875 -2.71875 C 0.226562 -2.738281 0.25 -2.75 0.28125 -2.75 L 1.890625 -2.75 C 1.921875 -2.75 1.941406 -2.738281 1.953125 -2.71875 C 1.972656 -2.707031 1.984375 -2.691406 1.984375 -2.671875 Z M 1.984375 -2.40625 "/></g></g></g><g fill="#a6a6a6" fill-opacity="1"><g transform="translate(8.234247, 13.682517)"><g><path d="M 2.921875 -2.75 C 2.941406 -2.75 2.957031 -2.738281 2.96875 -2.71875 C 2.988281 -2.707031 3 -2.691406 3 -2.671875 C 3 -2.578125 2.992188 -2.421875 2.984375 -2.203125 C 2.984375 -1.992188 2.984375 -1.71875 2.984375 -1.375 C 2.984375 -1.03125 2.984375 -0.75 2.984375 -0.53125 C 2.992188 -0.3125 3 -0.160156 3 -0.078125 C 3 -0.0546875 2.988281 -0.0351562 2.96875 -0.015625 C 2.957031 -0.00390625 2.941406 0 2.921875 0 L 2.46875 0 C 2.445312 0 2.425781 -0.00390625 2.40625 -0.015625 C 2.394531 -0.0351562 2.390625 -0.0546875 2.390625 -0.078125 C 2.390625 -0.160156 2.390625 -0.3125 2.390625 -0.53125 C 2.398438 -0.75 2.40625 -1.03125 2.40625 -1.375 C 2.40625 -1.539062 2.40625 -1.691406 2.40625 -1.828125 C 2.40625 -1.960938 2.40625 -2.082031 2.40625 -2.1875 C 2.40625 -2.207031 2.394531 -2.21875 2.375 -2.21875 C 2.351562 -2.21875 2.335938 -2.207031 2.328125 -2.1875 C 2.316406 -2.082031 2.296875 -1.960938 2.265625 -1.828125 C 2.242188 -1.691406 2.222656 -1.539062 2.203125 -1.375 C 2.140625 -1.019531 2.09375 -0.734375 2.0625 -0.515625 C 2.03125 -0.296875 2.015625 -0.144531 2.015625 -0.0625 C 2.003906 -0.0195312 1.972656 0 1.921875 0 L 1.265625 0 C 1.222656 0 1.195312 -0.0195312 1.1875 -0.0625 C 1.175781 -0.144531 1.15625 -0.296875 1.125 -0.515625 C 1.09375 -0.734375 1.050781 -1.019531 1 -1.375 C 0.96875 -1.539062 0.941406 -1.691406 0.921875 -1.828125 C 0.898438 -1.960938 0.878906 -2.082031 0.859375 -2.1875 C 0.859375 -2.207031 0.847656 -2.21875 0.828125 -2.21875 C 0.804688 -2.21875 0.796875 -2.207031 0.796875 -2.1875 C 0.796875 -2.082031 0.789062 -1.960938 0.78125 -1.828125 C 0.78125 -1.691406 0.78125 -1.539062 0.78125 -1.375 C 0.78125 -1.03125 0.78125 -0.75 0.78125 -0.53125 C 0.789062 -0.3125 0.800781 -0.160156 0.8125 -0.078125 C 0.8125 -0.0546875 0.800781 -0.0351562 0.78125 -0.015625 C 0.769531 -0.00390625 0.753906 0 0.734375 0 L 0.28125 0 C 0.25 0 0.226562 -0.00390625 0.21875 -0.015625 C 0.207031 -0.0351562 0.203125 -0.0546875 0.203125 -0.078125 C 0.203125 -0.160156 0.203125 -0.3125 0.203125 -0.53125 C 0.210938 -0.75 0.21875 -1.03125 0.21875 -1.375 C 0.21875 -1.71875 0.210938 -1.992188 0.203125 -2.203125 C 0.203125 -2.421875 0.203125 -2.578125 0.203125 -2.671875 C 0.203125 -2.691406 0.207031 -2.707031 0.21875 -2.71875 C 0.226562 -2.738281 0.25 -2.75 0.28125 -2.75 L 1.171875 -2.75 C 1.210938 -2.75 1.234375 -2.722656 1.234375 -2.671875 C 1.242188 -2.597656 1.265625 -2.445312 1.296875 -2.21875 C 1.328125 -2 1.375 -1.71875 1.4375 -1.375 C 1.457031 -1.21875 1.476562 -1.070312 1.5 -0.9375 C 1.519531 -0.800781 1.539062 -0.679688 1.5625 -0.578125 C 1.5625 -0.554688 1.570312 -0.546875 1.59375 -0.546875 C 1.613281 -0.546875 1.625 -0.554688 1.625 -0.578125 C 1.644531 -0.679688 1.664062 -0.800781 1.6875 -0.9375 C 1.707031 -1.070312 1.734375 -1.21875 1.765625 -1.375 C 1.816406 -1.71875 1.859375 -2 1.890625 -2.21875 C 1.921875 -2.445312 1.941406 -2.597656 1.953125 -2.671875 C 1.960938 -2.722656 1.988281 -2.75 2.03125 -2.75 Z M 2.921875 -2.75 "/></g></g></g><g fill="#a6a6a6" fill-opacity="1"><g transform="translate(11.432003, 13.682517)"><g><path d="M 2.109375 -1.921875 C 2.109375 -1.859375 2.101562 -1.800781 2.09375 -1.75 C 2.09375 -1.707031 2.09375 -1.65625 2.09375 -1.59375 C 2.09375 -1.53125 2.09375 -1.457031 2.09375 -1.375 C 2.09375 -1.28125 2.09375 -1.203125 2.09375 -1.140625 C 2.09375 -1.085938 2.09375 -1.035156 2.09375 -0.984375 C 2.101562 -0.929688 2.109375 -0.878906 2.109375 -0.828125 C 2.109375 -0.660156 2.078125 -0.507812 2.015625 -0.375 C 1.953125 -0.25 1.847656 -0.148438 1.703125 -0.078125 C 1.566406 -0.00390625 1.382812 0.03125 1.15625 0.03125 C 0.914062 0.03125 0.722656 -0.0078125 0.578125 -0.09375 C 0.441406 -0.175781 0.34375 -0.28125 0.28125 -0.40625 C 0.226562 -0.539062 0.203125 -0.679688 0.203125 -0.828125 C 0.203125 -0.878906 0.203125 -0.929688 0.203125 -0.984375 C 0.203125 -1.035156 0.203125 -1.085938 0.203125 -1.140625 C 0.210938 -1.203125 0.21875 -1.28125 0.21875 -1.375 C 0.21875 -1.457031 0.210938 -1.53125 0.203125 -1.59375 C 0.203125 -1.65625 0.203125 -1.707031 0.203125 -1.75 C 0.203125 -1.800781 0.203125 -1.859375 0.203125 -1.921875 C 0.203125 -2.085938 0.226562 -2.234375 0.28125 -2.359375 C 0.34375 -2.492188 0.441406 -2.597656 0.578125 -2.671875 C 0.722656 -2.742188 0.914062 -2.78125 1.15625 -2.78125 C 1.394531 -2.78125 1.582031 -2.738281 1.71875 -2.65625 C 1.851562 -2.570312 1.953125 -2.460938 2.015625 -2.328125 C 2.078125 -2.203125 2.109375 -2.066406 2.109375 -1.921875 Z M 1.140625 -0.375 C 1.242188 -0.375 1.320312 -0.394531 1.375 -0.4375 C 1.425781 -0.488281 1.457031 -0.550781 1.46875 -0.625 C 1.476562 -0.695312 1.484375 -0.765625 1.484375 -0.828125 L 1.484375 -1.921875 C 1.484375 -1.941406 1.476562 -1.972656 1.46875 -2.015625 C 1.46875 -2.066406 1.457031 -2.117188 1.4375 -2.171875 C 1.425781 -2.222656 1.394531 -2.265625 1.34375 -2.296875 C 1.300781 -2.335938 1.238281 -2.359375 1.15625 -2.359375 C 1.050781 -2.359375 0.972656 -2.332031 0.921875 -2.28125 C 0.878906 -2.238281 0.847656 -2.179688 0.828125 -2.109375 C 0.816406 -2.046875 0.8125 -1.984375 0.8125 -1.921875 L 0.8125 -0.828125 C 0.8125 -0.804688 0.8125 -0.769531 0.8125 -0.71875 C 0.820312 -0.664062 0.835938 -0.613281 0.859375 -0.5625 C 0.878906 -0.507812 0.910156 -0.460938 0.953125 -0.421875 C 1.003906 -0.390625 1.066406 -0.375 1.140625 -0.375 Z M 1.140625 -0.375 "/></g></g></g><g fill="#a6a6a6" fill-opacity="1"><g transform="translate(13.739094, 13.682517)"><g><path d="M 2.109375 -2.40625 C 2.109375 -2.382812 2.097656 -2.363281 2.078125 -2.34375 C 2.066406 -2.332031 2.050781 -2.328125 2.03125 -2.328125 L 1.53125 -2.328125 C 1.507812 -2.328125 1.488281 -2.316406 1.46875 -2.296875 C 1.457031 -2.285156 1.453125 -2.269531 1.453125 -2.25 C 1.453125 -2.144531 1.445312 -2.015625 1.4375 -1.859375 C 1.4375 -1.710938 1.4375 -1.550781 1.4375 -1.375 C 1.4375 -1.03125 1.4375 -0.75 1.4375 -0.53125 C 1.445312 -0.3125 1.453125 -0.160156 1.453125 -0.078125 C 1.460938 -0.0546875 1.457031 -0.0351562 1.4375 -0.015625 C 1.425781 -0.00390625 1.410156 0 1.390625 0 L 0.921875 0 C 0.898438 0 0.878906 -0.00390625 0.859375 -0.015625 C 0.847656 -0.0351562 0.84375 -0.0546875 0.84375 -0.078125 C 0.851562 -0.160156 0.859375 -0.3125 0.859375 -0.53125 C 0.859375 -0.75 0.859375 -1.03125 0.859375 -1.375 C 0.859375 -1.550781 0.859375 -1.710938 0.859375 -1.859375 C 0.859375 -2.015625 0.859375 -2.144531 0.859375 -2.25 C 0.859375 -2.269531 0.847656 -2.285156 0.828125 -2.296875 C 0.816406 -2.316406 0.800781 -2.328125 0.78125 -2.328125 L 0.28125 -2.328125 C 0.257812 -2.328125 0.238281 -2.332031 0.21875 -2.34375 C 0.207031 -2.363281 0.203125 -2.382812 0.203125 -2.40625 L 0.203125 -2.671875 C 0.203125 -2.691406 0.207031 -2.707031 0.21875 -2.71875 C 0.238281 -2.738281 0.257812 -2.75 0.28125 -2.75 L 2.03125 -2.75 C 2.050781 -2.75 2.066406 -2.738281 2.078125 -2.71875 C 2.097656 -2.707031 2.109375 -2.691406 2.109375 -2.671875 Z M 2.109375 -2.40625 "/></g></g></g><g fill="#a6a6a6" fill-opacity="1"><g transform="translate(16.050111, 13.682517)"><g><path d="M 1.984375 -2.40625 C 1.984375 -2.382812 1.972656 -2.363281 1.953125 -2.34375 C 1.941406 -2.332031 1.921875 -2.328125 1.890625 -2.328125 L 0.875 -2.328125 C 0.851562 -2.328125 0.832031 -2.316406 0.8125 -2.296875 C 0.800781 -2.285156 0.796875 -2.269531 0.796875 -2.25 C 0.796875 -2.175781 0.796875 -2.085938 0.796875 -1.984375 C 0.796875 -1.878906 0.789062 -1.769531 0.78125 -1.65625 C 0.78125 -1.632812 0.785156 -1.613281 0.796875 -1.59375 C 0.816406 -1.582031 0.835938 -1.578125 0.859375 -1.578125 L 1.6875 -1.578125 C 1.707031 -1.578125 1.722656 -1.566406 1.734375 -1.546875 C 1.753906 -1.535156 1.765625 -1.519531 1.765625 -1.5 L 1.765625 -1.25 C 1.765625 -1.226562 1.753906 -1.207031 1.734375 -1.1875 C 1.722656 -1.175781 1.707031 -1.171875 1.6875 -1.171875 L 0.859375 -1.171875 C 0.835938 -1.171875 0.816406 -1.160156 0.796875 -1.140625 C 0.785156 -1.128906 0.78125 -1.113281 0.78125 -1.09375 C 0.789062 -0.96875 0.796875 -0.851562 0.796875 -0.75 C 0.796875 -0.65625 0.796875 -0.566406 0.796875 -0.484375 C 0.796875 -0.460938 0.800781 -0.445312 0.8125 -0.4375 C 0.832031 -0.425781 0.851562 -0.421875 0.875 -0.421875 L 1.890625 -0.421875 C 1.921875 -0.421875 1.941406 -0.410156 1.953125 -0.390625 C 1.972656 -0.378906 1.984375 -0.363281 1.984375 -0.34375 L 1.984375 -0.078125 C 1.984375 -0.0546875 1.972656 -0.0351562 1.953125 -0.015625 C 1.941406 -0.00390625 1.921875 0 1.890625 0 L 0.28125 0 C 0.25 0 0.226562 -0.00390625 0.21875 -0.015625 C 0.207031 -0.0351562 0.203125 -0.0546875 0.203125 -0.078125 C 0.203125 -0.160156 0.203125 -0.3125 0.203125 -0.53125 C 0.210938 -0.75 0.21875 -1.03125 0.21875 -1.375 C 0.21875 -1.71875 0.210938 -1.992188 0.203125 -2.203125 C 0.203125 -2.421875 0.203125 -2.578125 0.203125 -2.671875 C 0.203125 -2.691406 0.207031 -2.707031 0.21875 -2.71875 C 0.226562 -2.738281 0.25 -2.75 0.28125 -2.75 L 1.890625 -2.75 C 1.921875 -2.75 1.941406 -2.738281 1.953125 -2.71875 C 1.972656 -2.707031 1.984375 -2.691406 1.984375 -2.671875 Z M 1.984375 -2.40625 "/></g></g></g><g fill="#a6a6a6" fill-opacity="1"><g transform="translate(3.026953, 25.562645)"><g><path d="M 0.671875 -0.21875 L 0.671875 -10.46875 C 0.671875 -10.613281 0.738281 -10.6875 0.875 -10.6875 L 4.09375 -10.6875 C 4.71875 -10.6875 5.191406 -10.523438 5.515625 -10.203125 C 5.847656 -9.878906 6.015625 -9.398438 6.015625 -8.765625 L 6.015625 -5.5 C 6.015625 -4.875 5.847656 -4.394531 5.515625 -4.0625 C 5.191406 -3.738281 4.71875 -3.578125 4.09375 -3.578125 L 2.484375 -3.578125 L 2.484375 -0.21875 C 2.484375 -0.0703125 2.410156 0 2.265625 0 L 0.875 0 C 0.738281 0 0.671875 -0.0703125 0.671875 -0.21875 Z M 2.484375 -5.34375 L 3.65625 -5.34375 C 4.007812 -5.34375 4.1875 -5.519531 4.1875 -5.875 L 4.1875 -8.390625 C 4.1875 -8.742188 4.007812 -8.921875 3.65625 -8.921875 L 2.484375 -8.921875 Z M 2.484375 -5.34375 "/></g></g></g><g fill="#a6a6a6" fill-opacity="1"><g transform="translate(8.567771, 25.562645)"><g><path d="M 4.515625 -10.6875 L 5.75 -10.6875 C 5.8125 -10.6875 5.867188 -10.660156 5.921875 -10.609375 C 5.984375 -10.554688 6.015625 -10.492188 6.015625 -10.421875 L 6.015625 -1.921875 C 6.015625 -1.296875 5.847656 -0.816406 5.515625 -0.484375 C 5.191406 -0.160156 4.71875 0 4.09375 0 L 2.59375 0 C 1.96875 0 1.488281 -0.160156 1.15625 -0.484375 C 0.832031 -0.816406 0.671875 -1.296875 0.671875 -1.921875 L 0.671875 -10.421875 C 0.671875 -10.492188 0.695312 -10.554688 0.75 -10.609375 C 0.800781 -10.660156 0.863281 -10.6875 0.9375 -10.6875 L 2.21875 -10.6875 C 2.289062 -10.6875 2.351562 -10.660156 2.40625 -10.609375 C 2.457031 -10.554688 2.484375 -10.492188 2.484375 -10.421875 L 2.484375 -2.296875 C 2.484375 -1.941406 2.660156 -1.765625 3.015625 -1.765625 L 3.71875 -1.765625 C 4.070312 -1.765625 4.25 -1.941406 4.25 -2.296875 L 4.25 -10.421875 C 4.25 -10.492188 4.273438 -10.554688 4.328125 -10.609375 C 4.378906 -10.660156 4.441406 -10.6875 4.515625 -10.6875 Z M 4.515625 -10.6875 "/></g></g></g><g fill="#a6a6a6" fill-opacity="1"><g transform="translate(14.108588, 25.562645)"><g><path d="M 2.59375 -10.6875 L 4.09375 -10.6875 C 4.71875 -10.6875 5.191406 -10.523438 5.515625 -10.203125 C 5.847656 -9.878906 6.015625 -9.398438 6.015625 -8.765625 L 6.015625 -7.34375 C 6.015625 -7.207031 5.941406 -7.140625 5.796875 -7.140625 L 4.40625 -7.140625 C 4.257812 -7.140625 4.1875 -7.207031 4.1875 -7.34375 L 4.1875 -8.390625 C 4.1875 -8.742188 4.007812 -8.921875 3.65625 -8.921875 L 3.015625 -8.921875 C 2.660156 -8.921875 2.484375 -8.742188 2.484375 -8.390625 L 2.484375 -6.546875 L 5.671875 -5.5 C 5.898438 -5.40625 6.015625 -5.242188 6.015625 -5.015625 L 6.015625 -1.921875 C 6.015625 -1.296875 5.847656 -0.816406 5.515625 -0.484375 C 5.191406 -0.160156 4.71875 0 4.09375 0 L 2.59375 0 C 1.96875 0 1.488281 -0.160156 1.15625 -0.484375 C 0.832031 -0.816406 0.671875 -1.296875 0.671875 -1.921875 L 0.671875 -3.328125 C 0.671875 -3.472656 0.738281 -3.546875 0.875 -3.546875 L 2.265625 -3.546875 C 2.410156 -3.546875 2.484375 -3.472656 2.484375 -3.328125 L 2.484375 -2.296875 C 2.484375 -1.941406 2.660156 -1.765625 3.015625 -1.765625 L 3.65625 -1.765625 C 4.007812 -1.765625 4.1875 -1.941406 4.1875 -2.296875 L 4.1875 -4.078125 L 1.03125 -5.109375 C 0.789062 -5.191406 0.671875 -5.359375 0.671875 -5.609375 L 0.671875 -8.765625 C 0.671875 -9.398438 0.832031 -9.878906 1.15625 -10.203125 C 1.488281 -10.523438 1.96875 -10.6875 2.59375 -10.6875 Z M 2.59375 -10.6875 "/></g></g></g><g fill="#a6a6a6" fill-opacity="1"><g transform="translate(19.649406, 25.562645)"><g><path d="M 4.1875 -6.21875 L 4.1875 -10.46875 C 4.1875 -10.613281 4.257812 -10.6875 4.40625 -10.6875 L 5.78125 -10.6875 C 5.9375 -10.6875 6.015625 -10.613281 6.015625 -10.46875 L 6.015625 -0.21875 C 6.015625 -0.0703125 5.9375 0 5.78125 0 L 4.40625 0 C 4.257812 0 4.1875 -0.0703125 4.1875 -0.21875 L 4.1875 -4.46875 L 2.484375 -4.46875 L 2.484375 -0.21875 C 2.484375 -0.0703125 2.410156 0 2.265625 0 L 0.890625 0 C 0.742188 0 0.671875 -0.0703125 0.671875 -0.21875 L 0.671875 -10.46875 C 0.671875 -10.613281 0.742188 -10.6875 0.890625 -10.6875 L 2.265625 -10.6875 C 2.410156 -10.6875 2.484375 -10.613281 2.484375 -10.46875 L 2.484375 -6.21875 Z M 4.1875 -6.21875 "/></g></g></g></svg>