<svg xmlns="http://www.w3.org/2000/svg" xmlns:xlink="http://www.w3.org/1999/xlink" width="42" zoomAndPan="magnify" viewBox="0 0 31.5 30.75" height="41" preserveAspectRatio="xMidYMid meet" version="1.0"><defs><g/><clipPath id="87c96f4797"><path d="M 4.753906 1.628906 L 26.253906 1.628906 L 26.253906 23.066406 L 4.753906 23.066406 Z M 4.753906 1.628906 " clip-rule="nonzero"/></clipPath><clipPath id="17ab4c11a4"><path d="M 4.753906 21.40625 L 26.253906 21.40625 L 26.253906 23.066406 L 4.753906 23.066406 Z M 4.753906 21.40625 " clip-rule="nonzero"/></clipPath><clipPath id="fb87cb7db5"><path d="M 13.332031 22.917969 L 17.664062 22.917969 L 17.664062 24.925781 L 13.332031 24.925781 Z M 13.332031 22.917969 " clip-rule="nonzero"/></clipPath><clipPath id="f54dae59a9"><path d="M 15.5 24.925781 L 13.335938 22.917969 L 17.664062 22.917969 Z M 15.5 24.925781 " clip-rule="nonzero"/></clipPath></defs><g clip-path="url(#87c96f4797)"><path fill="#a6a6a6" d="M 4.753906 1.628906 L 26.277344 1.628906 L 26.277344 23.066406 L 4.753906 23.066406 Z M 4.753906 1.628906 " fill-opacity="1" fill-rule="nonzero"/></g><g clip-path="url(#17ab4c11a4)"><path fill="#a6a6a6" d="M 4.753906 21.40625 L 26.253906 21.40625 L 26.253906 23.066406 L 4.753906 23.066406 Z M 4.753906 21.40625 " fill-opacity="1" fill-rule="nonzero"/></g><g fill="#737373" fill-opacity="1"><g transform="translate(9.543824, 16.504914)"><g><path d="M 0.171875 -9 L 1.484375 -9.359375 L 2.953125 -9.359375 L 2.953125 0 L 1.171875 0 L 1.171875 -7.59375 L 0.453125 -7.390625 Z M 0.171875 -9 "/></g></g></g><g fill="#737373" fill-opacity="1"><g transform="translate(12.994429, 16.504914)"><g><path d="M 4.46875 0 L 0.21875 0 L 0.21875 -1.28125 C 0.625 -1.875 1.003906 -2.46875 1.359375 -3.0625 C 1.722656 -3.664062 2.007812 -4.257812 2.21875 -4.84375 C 2.4375 -5.425781 2.546875 -5.984375 2.546875 -6.515625 C 2.546875 -6.910156 2.453125 -7.210938 2.265625 -7.421875 C 2.085938 -7.640625 1.835938 -7.75 1.515625 -7.75 C 1.242188 -7.75 0.9375 -7.660156 0.59375 -7.484375 L 0.296875 -9.1875 C 0.929688 -9.40625 1.5 -9.515625 2 -9.515625 C 2.757812 -9.515625 3.351562 -9.265625 3.78125 -8.765625 C 4.21875 -8.273438 4.4375 -7.554688 4.4375 -6.609375 C 4.4375 -6.035156 4.332031 -5.457031 4.125 -4.875 C 3.925781 -4.289062 3.660156 -3.722656 3.328125 -3.171875 C 2.992188 -2.617188 2.617188 -2.097656 2.203125 -1.609375 L 4.46875 -1.609375 Z M 4.46875 0 "/></g></g></g><g fill="#737373" fill-opacity="1"><g transform="translate(17.876106, 16.504914)"><g><path d="M 0.171875 -9 L 1.484375 -9.359375 L 2.953125 -9.359375 L 2.953125 0 L 1.171875 0 L 1.171875 -7.59375 L 0.453125 -7.390625 Z M 0.171875 -9 "/></g></g></g><g clip-path="url(#fb87cb7db5)"><g clip-path="url(#f54dae59a9)"><path fill="#a6a6a6" d="M 17.664062 24.925781 L 13.332031 24.925781 L 13.332031 22.917969 L 17.664062 22.917969 Z M 17.664062 24.925781 " fill-opacity="1" fill-rule="nonzero"/></g></g><g fill="#a6a6a6" fill-opacity="1"><g transform="translate(4.827476, 27.651486)"><g><path d="M 1.21875 -2.296875 C 1.425781 -2.296875 1.601562 -2.257812 1.75 -2.1875 C 1.90625 -2.125 2.023438 -2.03125 2.109375 -1.90625 C 2.191406 -1.78125 2.234375 -1.632812 2.234375 -1.46875 C 2.234375 -1.289062 2.191406 -1.140625 2.109375 -1.015625 C 2.023438 -0.890625 1.90625 -0.789062 1.75 -0.71875 C 1.601562 -0.65625 1.421875 -0.625 1.203125 -0.625 L 0.8125 -0.625 L 0.8125 0 L 0.25 0 L 0.25 -2.296875 Z M 0.8125 -1.09375 L 1.203125 -1.09375 C 1.347656 -1.09375 1.460938 -1.117188 1.546875 -1.171875 C 1.628906 -1.234375 1.671875 -1.328125 1.671875 -1.453125 C 1.671875 -1.578125 1.628906 -1.671875 1.546875 -1.734375 C 1.460938 -1.796875 1.347656 -1.828125 1.203125 -1.828125 L 0.8125 -1.828125 Z M 0.8125 -1.09375 "/></g></g></g><g fill="#a6a6a6" fill-opacity="1"><g transform="translate(7.128893, 27.651486)"><g><path d="M 1.25 0.046875 C 1.039062 0.046875 0.851562 0.00390625 0.6875 -0.078125 C 0.53125 -0.160156 0.40625 -0.28125 0.3125 -0.4375 C 0.226562 -0.59375 0.1875 -0.773438 0.1875 -0.984375 L 0.1875 -2.296875 L 0.765625 -2.296875 L 0.765625 -0.984375 C 0.765625 -0.804688 0.804688 -0.671875 0.890625 -0.578125 C 0.984375 -0.484375 1.101562 -0.4375 1.25 -0.4375 C 1.40625 -0.4375 1.523438 -0.484375 1.609375 -0.578125 C 1.703125 -0.671875 1.75 -0.804688 1.75 -0.984375 L 1.75 -2.296875 L 2.3125 -2.296875 L 2.3125 -0.984375 C 2.3125 -0.773438 2.269531 -0.59375 2.1875 -0.4375 C 2.101562 -0.28125 1.976562 -0.160156 1.8125 -0.078125 C 1.65625 0.00390625 1.46875 0.046875 1.25 0.046875 Z M 1.25 0.046875 "/></g></g></g><g fill="#a6a6a6" fill-opacity="1"><g transform="translate(9.607596, 27.651486)"><g><path d="M 1.90625 -1.1875 C 2.039062 -1.144531 2.144531 -1.070312 2.21875 -0.96875 C 2.300781 -0.875 2.34375 -0.757812 2.34375 -0.625 C 2.34375 -0.425781 2.265625 -0.269531 2.109375 -0.15625 C 1.960938 -0.0507812 1.75 0 1.46875 0 L 0.25 0 L 0.25 -2.296875 L 1.4375 -2.296875 C 1.695312 -2.296875 1.894531 -2.242188 2.03125 -2.140625 C 2.175781 -2.035156 2.25 -1.894531 2.25 -1.71875 C 2.25 -1.59375 2.21875 -1.484375 2.15625 -1.390625 C 2.09375 -1.296875 2.007812 -1.226562 1.90625 -1.1875 Z M 1.328125 -1.84375 L 0.796875 -1.84375 L 0.796875 -1.359375 L 1.328125 -1.359375 C 1.460938 -1.359375 1.554688 -1.378906 1.609375 -1.421875 C 1.671875 -1.460938 1.703125 -1.523438 1.703125 -1.609375 C 1.703125 -1.691406 1.671875 -1.75 1.609375 -1.78125 C 1.546875 -1.820312 1.453125 -1.84375 1.328125 -1.84375 Z M 0.796875 -0.453125 L 1.390625 -0.453125 C 1.523438 -0.453125 1.625 -0.472656 1.6875 -0.515625 C 1.75 -0.554688 1.78125 -0.617188 1.78125 -0.703125 C 1.78125 -0.785156 1.75 -0.847656 1.6875 -0.890625 C 1.625 -0.929688 1.523438 -0.953125 1.390625 -0.953125 L 0.796875 -0.953125 Z M 0.796875 -0.453125 "/></g></g></g><g fill="#a6a6a6" fill-opacity="1"><g transform="translate(12.053468, 27.651486)"><g><path d="M 1.984375 0 L 0.25 0 L 0.25 -2.296875 L 0.8125 -2.296875 L 0.8125 -0.484375 L 1.984375 -0.484375 Z M 1.984375 0 "/></g></g></g><g fill="#a6a6a6" fill-opacity="1"><g transform="translate(14.069256, 27.651486)"><g><path d="M 0.8125 0 L 0.25 0 L 0.25 -2.296875 L 0.8125 -2.296875 Z M 0.8125 0 "/></g></g></g><g fill="#a6a6a6" fill-opacity="1"><g transform="translate(15.100122, 27.651486)"><g><path d="M 1.078125 0.046875 C 0.898438 0.046875 0.726562 0.03125 0.5625 0 C 0.394531 -0.0390625 0.25 -0.09375 0.125 -0.15625 L 0.171875 -0.640625 C 0.242188 -0.597656 0.332031 -0.5625 0.4375 -0.53125 C 0.550781 -0.5 0.660156 -0.472656 0.765625 -0.453125 C 0.878906 -0.441406 0.984375 -0.4375 1.078125 -0.4375 C 1.160156 -0.4375 1.234375 -0.441406 1.296875 -0.453125 C 1.359375 -0.460938 1.410156 -0.484375 1.453125 -0.515625 C 1.492188 -0.546875 1.515625 -0.59375 1.515625 -0.65625 C 1.515625 -0.71875 1.492188 -0.765625 1.453125 -0.796875 C 1.421875 -0.835938 1.367188 -0.867188 1.296875 -0.890625 C 1.234375 -0.910156 1.148438 -0.925781 1.046875 -0.9375 C 0.847656 -0.976562 0.679688 -1.023438 0.546875 -1.078125 C 0.410156 -1.128906 0.304688 -1.195312 0.234375 -1.28125 C 0.171875 -1.375 0.140625 -1.488281 0.140625 -1.625 C 0.140625 -1.78125 0.1875 -1.910156 0.28125 -2.015625 C 0.375 -2.117188 0.492188 -2.195312 0.640625 -2.25 C 0.796875 -2.3125 0.957031 -2.34375 1.125 -2.34375 C 1.269531 -2.34375 1.410156 -2.328125 1.546875 -2.296875 C 1.691406 -2.265625 1.832031 -2.222656 1.96875 -2.171875 L 1.890625 -1.6875 C 1.753906 -1.75 1.617188 -1.789062 1.484375 -1.8125 C 1.359375 -1.84375 1.238281 -1.859375 1.125 -1.859375 C 1.019531 -1.859375 0.929688 -1.84375 0.859375 -1.8125 C 0.785156 -1.789062 0.75 -1.734375 0.75 -1.640625 C 0.75 -1.566406 0.78125 -1.515625 0.84375 -1.484375 C 0.90625 -1.453125 1.019531 -1.421875 1.1875 -1.390625 C 1.382812 -1.359375 1.550781 -1.3125 1.6875 -1.25 C 1.820312 -1.195312 1.925781 -1.125 2 -1.03125 C 2.070312 -0.9375 2.109375 -0.816406 2.109375 -0.671875 C 2.109375 -0.515625 2.0625 -0.382812 1.96875 -0.28125 C 1.875 -0.175781 1.75 -0.09375 1.59375 -0.03125 C 1.4375 0.0195312 1.265625 0.046875 1.078125 0.046875 Z M 1.078125 0.046875 "/></g></g></g><g fill="#a6a6a6" fill-opacity="1"><g transform="translate(17.26365, 27.651486)"><g><path d="M 1.84375 -1.375 L 1.84375 -2.296875 L 2.40625 -2.296875 L 2.40625 0 L 1.84375 0 L 1.84375 -0.90625 L 0.8125 -0.90625 L 0.8125 0 L 0.25 0 L 0.25 -2.296875 L 0.8125 -2.296875 L 0.8125 -1.375 Z M 1.84375 -1.375 "/></g></g></g><g fill="#a6a6a6" fill-opacity="1"><g transform="translate(19.893374, 27.651486)"><g><path d="M 0.8125 0 L 0.25 0 L 0.25 -2.296875 L 0.8125 -2.296875 Z M 0.8125 0 "/></g></g></g><g fill="#a6a6a6" fill-opacity="1"><g transform="translate(20.924241, 27.651486)"><g><path d="M 0.8125 0 L 0.25 0 L 0.25 -2.296875 L 0.765625 -2.296875 L 1.921875 -0.890625 L 1.921875 -2.296875 L 2.484375 -2.296875 L 2.484375 0 L 1.96875 0 L 0.8125 -1.421875 Z M 0.8125 0 "/></g></g></g><g fill="#a6a6a6" fill-opacity="1"><g transform="translate(23.62291, 27.651486)"><g><path d="M 1.625 -0.828125 L 1.625 -1.25 L 2.390625 -1.25 L 2.390625 -0.265625 C 2.253906 -0.171875 2.101562 -0.09375 1.9375 -0.03125 C 1.769531 0.0195312 1.59375 0.046875 1.40625 0.046875 C 1.226562 0.046875 1.0625 0.015625 0.90625 -0.046875 C 0.757812 -0.109375 0.628906 -0.191406 0.515625 -0.296875 C 0.398438 -0.398438 0.3125 -0.523438 0.25 -0.671875 C 0.1875 -0.816406 0.15625 -0.972656 0.15625 -1.140625 C 0.15625 -1.328125 0.191406 -1.492188 0.265625 -1.640625 C 0.335938 -1.796875 0.429688 -1.921875 0.546875 -2.015625 C 0.660156 -2.117188 0.796875 -2.195312 0.953125 -2.25 C 1.109375 -2.3125 1.269531 -2.34375 1.4375 -2.34375 C 1.582031 -2.34375 1.726562 -2.320312 1.875 -2.28125 C 2.019531 -2.238281 2.160156 -2.175781 2.296875 -2.09375 L 2.078125 -1.65625 C 1.972656 -1.71875 1.863281 -1.765625 1.75 -1.796875 C 1.644531 -1.828125 1.546875 -1.84375 1.453125 -1.84375 C 1.316406 -1.84375 1.191406 -1.816406 1.078125 -1.765625 C 0.972656 -1.710938 0.890625 -1.632812 0.828125 -1.53125 C 0.765625 -1.425781 0.734375 -1.296875 0.734375 -1.140625 C 0.734375 -0.929688 0.796875 -0.765625 0.921875 -0.640625 C 1.054688 -0.515625 1.226562 -0.453125 1.4375 -0.453125 C 1.539062 -0.453125 1.625 -0.457031 1.6875 -0.46875 C 1.75 -0.488281 1.804688 -0.515625 1.859375 -0.546875 L 1.859375 -0.828125 Z M 1.625 -0.828125 "/></g></g></g></svg>