<svg xmlns="http://www.w3.org/2000/svg" xmlns:xlink="http://www.w3.org/1999/xlink" width="42" zoomAndPan="magnify" viewBox="0 0 31.5 30.75" height="41" preserveAspectRatio="xMidYMid meet" version="1.0"><defs><g/><clipPath id="8b09414c93"><path d="M 7.707031 3.414062 L 22.511719 3.414062 L 22.511719 15.167969 L 7.707031 15.167969 Z M 7.707031 3.414062 " clip-rule="nonzero"/></clipPath></defs><g clip-path="url(#8b09414c93)"><path fill="#a6a6a6" d="M 15.121094 5.425781 L 16.023438 4.523438 C 17.511719 3.042969 19.949219 3.042969 21.425781 4.523438 C 22.917969 6.011719 22.917969 8.449219 21.425781 9.925781 L 20.527344 10.828125 L 16.097656 15.265625 C 15.71875 14.582031 15.527344 13.335938 15.507812 11.523438 L 15.507812 11.046875 L 15.546875 11.046875 L 15.582031 11.035156 C 15.601562 11.035156 15.609375 11.027344 15.617188 11.027344 L 15.652344 11.019531 L 15.691406 11.007812 C 15.707031 11.007812 15.71875 11.007812 15.726562 11 C 15.734375 11 15.742188 11 15.769531 10.992188 L 15.796875 10.980469 L 15.835938 10.972656 C 15.84375 10.957031 15.851562 10.957031 15.871094 10.957031 C 15.878906 10.945312 15.898438 10.945312 15.90625 10.9375 C 15.914062 10.9375 15.925781 10.929688 15.933594 10.929688 C 15.941406 10.917969 15.960938 10.917969 15.980469 10.910156 C 15.988281 10.910156 15.996094 10.902344 16.003906 10.902344 C 16.015625 10.890625 16.023438 10.890625 16.042969 10.882812 C 16.050781 10.882812 16.058594 10.875 16.078125 10.875 C 16.085938 10.863281 16.097656 10.863281 16.105469 10.847656 L 16.140625 10.828125 L 16.175781 10.8125 C 16.1875 10.8125 16.195312 10.800781 16.203125 10.800781 C 16.214844 10.792969 16.230469 10.785156 16.242188 10.785156 C 16.25 10.773438 16.257812 10.765625 16.265625 10.765625 C 16.285156 10.746094 16.292969 10.738281 16.304688 10.730469 C 16.3125 10.730469 16.320312 10.722656 16.332031 10.710938 L 16.359375 10.695312 L 16.394531 10.675781 C 16.402344 10.667969 16.410156 10.648438 16.421875 10.648438 C 16.4375 10.640625 16.449219 10.628906 16.457031 10.621094 C 16.464844 10.613281 16.484375 10.613281 16.484375 10.601562 C 16.492188 10.59375 16.5 10.585938 16.511719 10.578125 C 16.519531 10.566406 16.527344 10.550781 16.539062 10.550781 C 16.546875 10.539062 16.554688 10.53125 16.566406 10.523438 C 16.582031 10.511719 16.59375 10.503906 16.601562 10.496094 C 16.609375 10.484375 16.621094 10.476562 16.628906 10.46875 C 16.636719 10.460938 16.644531 10.460938 16.65625 10.441406 C 16.65625 10.433594 16.664062 10.421875 16.671875 10.414062 C 16.691406 10.40625 16.699219 10.394531 16.710938 10.386719 C 16.71875 10.378906 16.726562 10.367188 16.726562 10.359375 C 16.738281 10.34375 16.746094 10.332031 16.753906 10.324219 C 16.761719 10.316406 16.773438 10.296875 16.773438 10.289062 C 16.789062 10.277344 16.800781 10.269531 16.808594 10.261719 C 16.816406 10.242188 16.816406 10.234375 16.828125 10.222656 C 16.835938 10.214844 16.84375 10.207031 16.855469 10.199219 C 16.855469 10.179688 16.863281 10.171875 16.871094 10.160156 C 16.878906 10.152344 16.878906 10.132812 16.898438 10.125 C 16.90625 10.105469 16.917969 10.097656 16.917969 10.089844 C 16.925781 10.082031 16.933594 10.070312 16.933594 10.054688 C 16.945312 10.035156 16.953125 10.027344 16.953125 10.015625 C 16.960938 10.007812 16.972656 9.988281 16.972656 9.980469 C 16.980469 9.972656 17 9.964844 17 9.9375 C 17.007812 9.925781 17.015625 9.917969 17.015625 9.898438 C 17.023438 9.890625 17.035156 9.882812 17.035156 9.863281 C 17.042969 9.855469 17.042969 9.84375 17.050781 9.820312 C 17.050781 9.808594 17.0625 9.800781 17.070312 9.78125 C 17.070312 9.773438 17.078125 9.765625 17.078125 9.746094 C 17.097656 9.726562 17.097656 9.71875 17.105469 9.703125 C 17.105469 9.691406 17.117188 9.675781 17.117188 9.664062 C 17.125 9.648438 17.125 9.628906 17.132812 9.621094 C 17.132812 9.601562 17.140625 9.59375 17.140625 9.574219 C 17.140625 9.566406 17.152344 9.546875 17.152344 9.53125 C 17.160156 9.511719 17.160156 9.503906 17.167969 9.484375 C 17.167969 9.476562 17.167969 9.457031 17.179688 9.449219 C 17.179688 9.421875 17.179688 9.414062 17.1875 9.394531 C 17.1875 9.386719 17.1875 9.367188 17.207031 9.347656 L 17.207031 9.304688 L 17.214844 9.285156 L 17.214844 9.242188 L 17.222656 9.214844 L 17.222656 9.167969 L 17.234375 9.152344 L 17.234375 9.097656 L 17.242188 9.078125 L 17.242188 9.035156 L 17.25 8.996094 L 17.25 8.933594 L 17.257812 8.898438 L 17.257812 8.851562 L 17.269531 8.835938 L 17.269531 8.773438 L 17.277344 8.753906 L 17.277344 8.699219 L 17.285156 8.671875 L 17.285156 8.628906 L 17.304688 8.589844 L 17.304688 8.539062 L 17.3125 8.519531 L 17.3125 8.457031 L 17.324219 8.429688 L 17.324219 8.347656 L 17.332031 8.320312 L 17.332031 8.257812 L 17.339844 8.238281 L 17.339844 8.175781 L 17.351562 8.148438 L 17.351562 8.085938 L 17.359375 8.058594 L 17.359375 7.996094 L 17.367188 7.96875 L 17.367188 7.914062 L 17.375 7.878906 L 17.375 7.78125 L 17.386719 7.753906 L 17.386719 7.691406 L 17.402344 7.664062 L 17.402344 7.636719 L 17.367188 7.625 C 17.359375 7.625 17.359375 7.625 17.351562 7.625 L 17.324219 7.625 C 17.3125 7.625 17.304688 7.625 17.285156 7.625 L 17.222656 7.625 C 17.214844 7.625 17.207031 7.625 17.1875 7.625 C 17.179688 7.625 17.167969 7.625 17.160156 7.625 L 17.140625 7.625 L 17.117188 7.636719 C 17.105469 7.636719 17.097656 7.636719 17.097656 7.636719 L 17.0625 7.636719 L 17.042969 7.644531 L 17.015625 7.644531 L 16.980469 7.652344 L 16.960938 7.652344 L 16.933594 7.664062 L 16.917969 7.671875 L 16.898438 7.679688 L 16.863281 7.679688 L 16.84375 7.691406 L 16.816406 7.707031 L 16.800781 7.714844 L 16.773438 7.726562 L 16.746094 7.734375 L 16.726562 7.742188 L 16.710938 7.753906 L 16.691406 7.761719 L 16.65625 7.78125 L 16.636719 7.789062 L 16.621094 7.808594 L 16.601562 7.816406 L 16.582031 7.832031 L 16.554688 7.84375 L 16.539062 7.859375 L 16.511719 7.871094 C 16.511719 7.878906 16.5 7.878906 16.492188 7.886719 L 16.484375 7.898438 L 16.457031 7.925781 L 16.4375 7.941406 L 16.421875 7.960938 L 16.402344 7.96875 L 16.382812 7.988281 C 16.382812 7.996094 16.367188 7.996094 16.359375 8.015625 L 16.347656 8.03125 L 16.332031 8.050781 L 16.3125 8.070312 L 16.304688 8.085938 L 16.285156 8.113281 L 16.25 8.148438 L 16.242188 8.167969 C 16.230469 8.175781 16.230469 8.175781 16.222656 8.1875 L 16.214844 8.210938 L 16.195312 8.238281 L 16.1875 8.257812 L 16.175781 8.277344 L 16.160156 8.304688 C 16.148438 8.304688 16.148438 8.320312 16.148438 8.328125 L 16.132812 8.347656 C 16.132812 8.355469 16.132812 8.367188 16.121094 8.375 L 16.113281 8.394531 L 16.105469 8.429688 L 15.121094 7.363281 L 14.136719 8.429688 C 14.136719 8.421875 14.136719 8.402344 14.121094 8.394531 C 14.121094 8.382812 14.121094 8.382812 14.109375 8.375 L 14.101562 8.347656 L 14.09375 8.328125 L 14.085938 8.304688 L 14.074219 8.277344 L 14.058594 8.257812 C 14.058594 8.25 14.058594 8.238281 14.046875 8.238281 L 14.039062 8.210938 L 14.011719 8.1875 C 14.011719 8.175781 14.003906 8.175781 14.003906 8.167969 L 13.992188 8.148438 L 13.957031 8.113281 L 13.949219 8.085938 L 13.921875 8.070312 L 13.914062 8.050781 L 13.894531 8.03125 L 13.875 8.015625 C 13.875 7.996094 13.867188 7.996094 13.859375 7.988281 L 13.847656 7.96875 L 13.832031 7.960938 L 13.804688 7.941406 L 13.785156 7.925781 L 13.769531 7.898438 L 13.75 7.886719 L 13.730469 7.871094 L 13.707031 7.859375 L 13.6875 7.84375 C 13.679688 7.84375 13.679688 7.832031 13.667969 7.832031 L 13.652344 7.816406 L 13.632812 7.808594 L 13.597656 7.789062 L 13.578125 7.78125 L 13.5625 7.761719 L 13.542969 7.753906 L 13.523438 7.742188 C 13.507812 7.742188 13.496094 7.734375 13.488281 7.734375 L 13.46875 7.726562 L 13.453125 7.714844 L 13.425781 7.707031 L 13.398438 7.691406 C 13.390625 7.691406 13.378906 7.691406 13.371094 7.679688 L 13.351562 7.679688 L 13.335938 7.671875 L 13.300781 7.664062 C 13.289062 7.664062 13.28125 7.664062 13.28125 7.652344 L 13.253906 7.652344 L 13.234375 7.644531 L 13.199219 7.644531 C 13.191406 7.644531 13.183594 7.636719 13.183594 7.636719 L 13.15625 7.636719 C 13.144531 7.636719 13.136719 7.636719 13.128906 7.636719 L 13.101562 7.625 L 13.074219 7.625 C 13.066406 7.625 13.066406 7.625 13.054688 7.625 L 12.929688 7.625 C 12.921875 7.625 12.902344 7.625 12.894531 7.625 L 12.867188 7.625 L 12.847656 7.636719 L 12.847656 7.691406 L 12.855469 7.726562 L 12.855469 7.816406 L 12.867188 7.851562 L 12.867188 7.914062 L 12.875 7.941406 L 12.875 7.996094 L 12.882812 8.03125 L 12.882812 8.085938 L 12.894531 8.121094 L 12.894531 8.175781 L 12.902344 8.210938 L 12.902344 8.285156 L 12.921875 8.320312 L 12.921875 8.375 L 12.929688 8.402344 L 12.929688 8.457031 L 12.9375 8.484375 L 12.9375 8.539062 L 12.949219 8.566406 L 12.949219 8.628906 L 12.957031 8.644531 L 12.957031 8.699219 L 12.964844 8.726562 L 12.964844 8.800781 L 12.972656 8.835938 L 12.972656 8.878906 L 12.984375 8.898438 L 12.984375 8.953125 L 12.992188 8.980469 L 12.992188 9.035156 L 13 9.050781 L 13 9.097656 L 13.019531 9.113281 L 13.019531 9.167969 L 13.027344 9.1875 L 13.027344 9.242188 L 13.039062 9.257812 L 13.039062 9.304688 L 13.046875 9.324219 L 13.046875 9.347656 C 13.046875 9.367188 13.046875 9.386719 13.054688 9.394531 C 13.054688 9.414062 13.066406 9.421875 13.066406 9.449219 C 13.066406 9.457031 13.074219 9.476562 13.074219 9.484375 C 13.074219 9.503906 13.082031 9.511719 13.082031 9.53125 C 13.089844 9.546875 13.089844 9.566406 13.101562 9.574219 C 13.101562 9.59375 13.101562 9.601562 13.117188 9.621094 C 13.117188 9.628906 13.128906 9.648438 13.128906 9.664062 C 13.136719 9.675781 13.136719 9.691406 13.144531 9.703125 C 13.144531 9.71875 13.15625 9.726562 13.15625 9.746094 C 13.164062 9.765625 13.164062 9.773438 13.171875 9.78125 C 13.183594 9.800781 13.183594 9.808594 13.191406 9.820312 C 13.191406 9.84375 13.199219 9.855469 13.199219 9.863281 C 13.21875 9.882812 13.226562 9.890625 13.226562 9.898438 C 13.234375 9.917969 13.246094 9.925781 13.246094 9.9375 C 13.253906 9.964844 13.253906 9.972656 13.261719 9.980469 C 13.273438 9.988281 13.273438 10.007812 13.28125 10.015625 C 13.289062 10.027344 13.289062 10.035156 13.300781 10.054688 C 13.308594 10.070312 13.328125 10.082031 13.328125 10.089844 C 13.335938 10.097656 13.34375 10.105469 13.34375 10.125 C 13.351562 10.132812 13.363281 10.152344 13.371094 10.160156 C 13.371094 10.171875 13.378906 10.179688 13.390625 10.199219 C 13.398438 10.207031 13.40625 10.214844 13.40625 10.222656 C 13.425781 10.234375 13.433594 10.242188 13.445312 10.261719 C 13.445312 10.269531 13.453125 10.277344 13.460938 10.289062 C 13.46875 10.296875 13.480469 10.316406 13.488281 10.324219 C 13.488281 10.332031 13.496094 10.34375 13.507812 10.359375 C 13.523438 10.367188 13.535156 10.378906 13.542969 10.386719 C 13.550781 10.394531 13.550781 10.40625 13.5625 10.414062 C 13.570312 10.421875 13.578125 10.433594 13.589844 10.441406 C 13.597656 10.460938 13.605469 10.460938 13.613281 10.46875 C 13.632812 10.476562 13.640625 10.484375 13.652344 10.496094 C 13.652344 10.503906 13.660156 10.511719 13.667969 10.523438 C 13.679688 10.53125 13.6875 10.539062 13.695312 10.550781 C 13.707031 10.550781 13.714844 10.566406 13.730469 10.578125 C 13.742188 10.585938 13.75 10.59375 13.757812 10.601562 L 13.785156 10.621094 L 13.8125 10.648438 C 13.832031 10.648438 13.839844 10.667969 13.847656 10.675781 C 13.859375 10.683594 13.867188 10.683594 13.875 10.695312 C 13.886719 10.703125 13.894531 10.710938 13.902344 10.710938 C 13.914062 10.722656 13.921875 10.730469 13.949219 10.730469 C 13.957031 10.738281 13.96875 10.746094 13.976562 10.765625 C 13.984375 10.765625 13.992188 10.773438 14.003906 10.785156 L 14.039062 10.800781 C 14.046875 10.800781 14.058594 10.8125 14.074219 10.8125 L 14.101562 10.828125 L 14.136719 10.847656 C 14.148438 10.863281 14.15625 10.863281 14.175781 10.875 C 14.183594 10.875 14.191406 10.882812 14.203125 10.882812 C 14.210938 10.890625 14.21875 10.890625 14.226562 10.902344 C 14.253906 10.902344 14.265625 10.910156 14.273438 10.910156 C 14.28125 10.917969 14.292969 10.917969 14.300781 10.929688 C 14.320312 10.929688 14.328125 10.9375 14.347656 10.9375 C 14.355469 10.945312 14.363281 10.945312 14.371094 10.957031 C 14.390625 10.957031 14.398438 10.957031 14.410156 10.972656 L 14.445312 10.980469 L 14.480469 10.992188 C 14.488281 11 14.5 11 14.515625 11 L 14.554688 11.007812 L 14.589844 11.019531 C 14.597656 11.027344 14.605469 11.027344 14.625 11.027344 C 14.632812 11.027344 14.652344 11.035156 14.660156 11.035156 C 14.671875 11.035156 14.6875 11.035156 14.699219 11.046875 C 14.707031 11.046875 14.714844 11.046875 14.734375 11.046875 L 14.734375 11.523438 C 14.714844 13.335938 14.515625 14.582031 14.15625 15.265625 L 8.816406 9.925781 C 7.335938 8.449219 7.335938 6.011719 8.816406 4.523438 C 10.304688 3.042969 12.738281 3.042969 14.21875 4.523438 Z M 15.121094 5.425781 " fill-opacity="1" fill-rule="evenodd"/></g><g fill="#a6a6a6" fill-opacity="1"><g transform="translate(2.233145, 22.362486)"><g><path d="M 1.171875 -0.625 C 1.222656 -0.5625 1.296875 -0.503906 1.390625 -0.453125 C 1.492188 -0.410156 1.628906 -0.390625 1.796875 -0.390625 C 2.066406 -0.390625 2.289062 -0.457031 2.46875 -0.59375 C 2.65625 -0.738281 2.75 -0.941406 2.75 -1.203125 C 2.75 -1.378906 2.6875 -1.53125 2.5625 -1.65625 C 2.445312 -1.78125 2.300781 -1.894531 2.125 -2 C 1.945312 -2.101562 1.753906 -2.207031 1.546875 -2.3125 C 1.347656 -2.414062 1.160156 -2.535156 0.984375 -2.671875 C 0.804688 -2.804688 0.65625 -2.96875 0.53125 -3.15625 C 0.414062 -3.351562 0.359375 -3.59375 0.359375 -3.875 C 0.359375 -4.113281 0.398438 -4.320312 0.484375 -4.5 C 0.578125 -4.6875 0.703125 -4.835938 0.859375 -4.953125 C 1.015625 -5.066406 1.195312 -5.148438 1.40625 -5.203125 C 1.625 -5.265625 1.859375 -5.296875 2.109375 -5.296875 C 2.410156 -5.296875 2.691406 -5.273438 2.953125 -5.234375 C 3.210938 -5.191406 3.445312 -5.125 3.65625 -5.03125 C 3.65625 -4.9375 3.644531 -4.820312 3.625 -4.6875 C 3.613281 -4.5625 3.597656 -4.4375 3.578125 -4.3125 C 3.566406 -4.1875 3.546875 -4.066406 3.515625 -3.953125 C 3.492188 -3.835938 3.472656 -3.742188 3.453125 -3.671875 L 3.15625 -3.671875 L 2.8125 -4.6875 C 2.75 -4.71875 2.660156 -4.742188 2.546875 -4.765625 C 2.429688 -4.796875 2.3125 -4.8125 2.1875 -4.8125 C 1.976562 -4.8125 1.800781 -4.753906 1.65625 -4.640625 C 1.507812 -4.535156 1.4375 -4.378906 1.4375 -4.171875 C 1.4375 -3.984375 1.492188 -3.820312 1.609375 -3.6875 C 1.734375 -3.5625 1.882812 -3.441406 2.0625 -3.328125 C 2.238281 -3.222656 2.429688 -3.113281 2.640625 -3 C 2.859375 -2.894531 3.054688 -2.773438 3.234375 -2.640625 C 3.410156 -2.503906 3.554688 -2.34375 3.671875 -2.15625 C 3.796875 -1.96875 3.859375 -1.738281 3.859375 -1.46875 C 3.859375 -0.96875 3.691406 -0.582031 3.359375 -0.3125 C 3.023438 -0.0390625 2.53125 0.09375 1.875 0.09375 C 1.71875 0.09375 1.554688 0.0820312 1.390625 0.0625 C 1.234375 0.0390625 1.082031 0.015625 0.9375 -0.015625 C 0.800781 -0.0546875 0.675781 -0.09375 0.5625 -0.125 C 0.445312 -0.164062 0.363281 -0.210938 0.3125 -0.265625 C 0.3125 -0.378906 0.320312 -0.5 0.34375 -0.625 C 0.363281 -0.757812 0.382812 -0.890625 0.40625 -1.015625 C 0.4375 -1.148438 0.460938 -1.273438 0.484375 -1.390625 C 0.503906 -1.515625 0.53125 -1.617188 0.5625 -1.703125 L 0.859375 -1.703125 Z M 1.171875 -0.625 "/></g></g></g><g fill="#a6a6a6" fill-opacity="1"><g transform="translate(7.056292, 22.362486)"><g><path d="M 6.4375 -4.703125 C 6.238281 -4.734375 6.03125 -4.804688 5.8125 -4.921875 L 5.8125 -5.203125 L 7.6875 -5.203125 L 7.6875 -4.921875 C 7.601562 -4.867188 7.515625 -4.820312 7.421875 -4.78125 C 7.328125 -4.75 7.234375 -4.722656 7.140625 -4.703125 L 5.828125 0 L 5.046875 0.09375 L 3.890625 -3.515625 L 2.78125 0 L 2 0.09375 L 0.546875 -4.703125 C 0.441406 -4.722656 0.34375 -4.75 0.25 -4.78125 C 0.164062 -4.820312 0.0820312 -4.867188 0 -4.921875 L 0 -5.203125 L 2.40625 -5.203125 L 2.40625 -4.921875 C 2.320312 -4.878906 2.226562 -4.835938 2.125 -4.796875 C 2.019531 -4.765625 1.910156 -4.734375 1.796875 -4.703125 L 2.484375 -2.078125 L 2.640625 -1.109375 L 2.65625 -1.109375 L 2.921875 -2.125 L 3.90625 -5.203125 L 4.34375 -5.203125 L 5.40625 -2.15625 L 5.65625 -1.1875 L 5.671875 -1.1875 L 5.84375 -2.171875 Z M 6.4375 -4.703125 "/></g></g></g><g fill="#a6a6a6" fill-opacity="1"><g transform="translate(15.414803, 22.362486)"><g><path d="M 2.546875 0 L 0.21875 0 L 0.21875 -0.28125 C 0.414062 -0.394531 0.617188 -0.46875 0.828125 -0.5 L 0.828125 -4.703125 C 0.722656 -4.722656 0.613281 -4.75 0.5 -4.78125 C 0.394531 -4.820312 0.300781 -4.867188 0.21875 -4.921875 L 0.21875 -5.203125 L 2.546875 -5.203125 L 2.546875 -4.921875 C 2.453125 -4.867188 2.351562 -4.820312 2.25 -4.78125 C 2.144531 -4.75 2.039062 -4.722656 1.9375 -4.703125 L 1.9375 -0.5 C 2.039062 -0.476562 2.144531 -0.445312 2.25 -0.40625 C 2.351562 -0.375 2.453125 -0.332031 2.546875 -0.28125 Z M 2.546875 0 "/></g></g></g><g fill="#a6a6a6" fill-opacity="1"><g transform="translate(18.853577, 22.362486)"><g><path d="M 1.796875 -0.5 C 2.023438 -0.46875 2.242188 -0.394531 2.453125 -0.28125 L 2.453125 0 L 0.15625 0 L 0.15625 -0.28125 C 0.226562 -0.320312 0.304688 -0.363281 0.390625 -0.40625 C 0.484375 -0.445312 0.582031 -0.476562 0.6875 -0.5 L 0.6875 -4.703125 C 0.570312 -4.734375 0.46875 -4.765625 0.375 -4.796875 C 0.289062 -4.835938 0.21875 -4.878906 0.15625 -4.921875 L 0.15625 -5.203125 L 4.03125 -5.203125 C 4.03125 -5.109375 4.023438 -5 4.015625 -4.875 C 4.015625 -4.757812 4.003906 -4.640625 3.984375 -4.515625 C 3.972656 -4.398438 3.957031 -4.285156 3.9375 -4.171875 C 3.925781 -4.054688 3.910156 -3.945312 3.890625 -3.84375 L 3.578125 -3.84375 L 3.25 -4.71875 L 1.796875 -4.71875 L 1.796875 -2.765625 L 2.8125 -2.765625 L 3.15625 -3.34375 L 3.375 -3.34375 C 3.394531 -3.207031 3.40625 -3.066406 3.40625 -2.921875 C 3.414062 -2.785156 3.421875 -2.644531 3.421875 -2.5 C 3.421875 -2.351562 3.414062 -2.207031 3.40625 -2.0625 C 3.40625 -1.925781 3.394531 -1.804688 3.375 -1.703125 L 3.15625 -1.703125 L 2.8125 -2.28125 L 1.796875 -2.28125 Z M 1.796875 -0.5 "/></g></g></g><g fill="#a6a6a6" fill-opacity="1"><g transform="translate(23.803249, 22.362486)"><g><path d="M 3.75 0 L 1.203125 0 L 1.203125 -0.28125 C 1.296875 -0.320312 1.40625 -0.363281 1.53125 -0.40625 C 1.65625 -0.445312 1.785156 -0.476562 1.921875 -0.5 L 1.921875 -4.71875 L 1.0625 -4.71875 L 0.578125 -3.453125 L 0.28125 -3.453125 C 0.257812 -3.546875 0.238281 -3.671875 0.21875 -3.828125 C 0.195312 -3.984375 0.175781 -4.140625 0.15625 -4.296875 C 0.144531 -4.460938 0.132812 -4.625 0.125 -4.78125 C 0.113281 -4.945312 0.109375 -5.085938 0.109375 -5.203125 L 4.84375 -5.203125 C 4.84375 -5.085938 4.835938 -4.945312 4.828125 -4.78125 C 4.816406 -4.625 4.804688 -4.460938 4.796875 -4.296875 C 4.785156 -4.140625 4.769531 -3.984375 4.75 -3.828125 C 4.726562 -3.679688 4.707031 -3.554688 4.6875 -3.453125 L 4.375 -3.453125 L 3.890625 -4.71875 L 3.03125 -4.71875 L 3.03125 -0.5 C 3.164062 -0.476562 3.296875 -0.445312 3.421875 -0.40625 C 3.546875 -0.375 3.65625 -0.332031 3.75 -0.28125 Z M 3.75 0 "/></g></g></g><g fill="#a6a6a6" fill-opacity="1"><g transform="translate(7.019805, 26.774815)"><g><path d="M 1.03125 -0.796875 L 1.03125 -0.875 L 1.84375 -0.875 L 1.84375 -0.796875 L 1.6875 -0.78125 C 1.65625 -0.78125 1.632812 -0.769531 1.625 -0.75 C 1.625 -0.738281 1.625 -0.703125 1.625 -0.640625 L 1.625 0 L 1.546875 0 C 1.492188 -0.0507812 1.4375 -0.0976562 1.375 -0.140625 C 1.320312 -0.0859375 1.257812 -0.046875 1.1875 -0.015625 C 1.125 0.015625 1.039062 0.03125 0.9375 0.03125 C 0.78125 0.03125 0.644531 -0.00390625 0.53125 -0.078125 C 0.414062 -0.160156 0.328125 -0.269531 0.265625 -0.40625 C 0.210938 -0.550781 0.1875 -0.710938 0.1875 -0.890625 L 0.1875 -1.078125 C 0.1875 -1.253906 0.210938 -1.40625 0.265625 -1.53125 C 0.328125 -1.664062 0.414062 -1.769531 0.53125 -1.84375 C 0.644531 -1.925781 0.785156 -1.96875 0.953125 -1.96875 C 1.109375 -1.96875 1.238281 -1.9375 1.34375 -1.875 C 1.445312 -1.820312 1.519531 -1.75 1.5625 -1.65625 C 1.613281 -1.570312 1.632812 -1.472656 1.625 -1.359375 L 1.296875 -1.28125 C 1.316406 -1.46875 1.289062 -1.613281 1.21875 -1.71875 C 1.15625 -1.820312 1.066406 -1.875 0.953125 -1.875 C 0.691406 -1.875 0.5625 -1.640625 0.5625 -1.171875 L 0.5625 -0.765625 C 0.5625 -0.304688 0.695312 -0.078125 0.96875 -0.078125 C 1.03125 -0.078125 1.09375 -0.0859375 1.15625 -0.109375 C 1.21875 -0.128906 1.269531 -0.164062 1.3125 -0.21875 L 1.3125 -0.640625 C 1.3125 -0.703125 1.304688 -0.738281 1.296875 -0.75 C 1.296875 -0.769531 1.28125 -0.78125 1.25 -0.78125 Z M 1.03125 -0.796875 "/></g></g></g><g fill="#a6a6a6" fill-opacity="1"><g transform="translate(9.729002, 26.774815)"><g><path d="M 0.125 -1.859375 L 0.125 -1.9375 L 0.984375 -1.9375 C 1.179688 -1.9375 1.332031 -1.890625 1.4375 -1.796875 C 1.550781 -1.710938 1.609375 -1.597656 1.609375 -1.453125 L 1.609375 -1.390625 C 1.609375 -1.273438 1.578125 -1.175781 1.515625 -1.09375 C 1.453125 -1.007812 1.363281 -0.953125 1.25 -0.921875 L 1.609375 -0.234375 C 1.628906 -0.191406 1.644531 -0.160156 1.65625 -0.140625 C 1.664062 -0.128906 1.675781 -0.117188 1.6875 -0.109375 C 1.695312 -0.109375 1.710938 -0.101562 1.734375 -0.09375 L 1.859375 -0.078125 L 1.859375 0 L 1.328125 0 L 0.890625 -0.890625 L 0.6875 -0.890625 L 0.6875 -0.234375 C 0.6875 -0.171875 0.6875 -0.132812 0.6875 -0.125 C 0.695312 -0.113281 0.71875 -0.101562 0.75 -0.09375 L 0.90625 -0.078125 L 0.90625 0 L 0.125 0 L 0.125 -0.078125 L 0.28125 -0.09375 C 0.3125 -0.101562 0.328125 -0.113281 0.328125 -0.125 C 0.335938 -0.132812 0.34375 -0.171875 0.34375 -0.234375 L 0.34375 -1.703125 C 0.34375 -1.765625 0.335938 -1.800781 0.328125 -1.8125 C 0.328125 -1.832031 0.3125 -1.84375 0.28125 -1.84375 Z M 0.984375 -1.84375 L 0.6875 -1.84375 L 0.6875 -0.984375 L 0.984375 -0.984375 C 1.066406 -0.984375 1.128906 -1.007812 1.171875 -1.0625 C 1.222656 -1.113281 1.25 -1.210938 1.25 -1.359375 L 1.25 -1.484375 C 1.25 -1.617188 1.222656 -1.710938 1.171875 -1.765625 C 1.128906 -1.816406 1.066406 -1.84375 0.984375 -1.84375 Z M 0.984375 -1.84375 "/></g></g></g><g fill="#a6a6a6" fill-opacity="1"><g transform="translate(12.403909, 26.774815)"><g><path d="M 1.734375 -1.0625 L 1.734375 -0.890625 C 1.734375 -0.585938 1.664062 -0.359375 1.53125 -0.203125 C 1.40625 -0.046875 1.21875 0.03125 0.96875 0.03125 C 0.707031 0.03125 0.507812 -0.046875 0.375 -0.203125 C 0.25 -0.359375 0.1875 -0.585938 0.1875 -0.890625 L 0.1875 -1.0625 C 0.1875 -1.351562 0.25 -1.578125 0.375 -1.734375 C 0.507812 -1.890625 0.707031 -1.96875 0.96875 -1.96875 C 1.21875 -1.96875 1.40625 -1.890625 1.53125 -1.734375 C 1.664062 -1.578125 1.734375 -1.351562 1.734375 -1.0625 Z M 1.375 -1.203125 C 1.375 -1.367188 1.359375 -1.5 1.328125 -1.59375 C 1.296875 -1.695312 1.25 -1.769531 1.1875 -1.8125 C 1.132812 -1.851562 1.0625 -1.875 0.96875 -1.875 C 0.875 -1.875 0.796875 -1.851562 0.734375 -1.8125 C 0.671875 -1.769531 0.625 -1.695312 0.59375 -1.59375 C 0.570312 -1.5 0.5625 -1.367188 0.5625 -1.203125 L 0.5625 -0.734375 C 0.5625 -0.566406 0.570312 -0.4375 0.59375 -0.34375 C 0.625 -0.25 0.671875 -0.179688 0.734375 -0.140625 C 0.796875 -0.0976562 0.875 -0.078125 0.96875 -0.078125 C 1.0625 -0.078125 1.132812 -0.0976562 1.1875 -0.140625 C 1.25 -0.179688 1.296875 -0.25 1.328125 -0.34375 C 1.359375 -0.4375 1.375 -0.566406 1.375 -0.734375 Z M 1.375 -1.203125 "/></g></g></g><g fill="#a6a6a6" fill-opacity="1"><g transform="translate(15.144534, 26.774815)"><g><path d="M 1.796875 0 L 1.328125 -1.5625 L 0.890625 0 L 0.640625 0 L 0.234375 -1.703125 C 0.222656 -1.742188 0.210938 -1.773438 0.203125 -1.796875 C 0.203125 -1.816406 0.195312 -1.828125 0.1875 -1.828125 C 0.175781 -1.835938 0.160156 -1.84375 0.140625 -1.84375 L -0.015625 -1.859375 L -0.015625 -1.9375 L 0.78125 -1.9375 L 0.78125 -1.859375 L 0.625 -1.84375 C 0.59375 -1.84375 0.570312 -1.832031 0.5625 -1.8125 C 0.5625 -1.800781 0.570312 -1.765625 0.59375 -1.703125 L 0.890625 -0.375 L 1.328125 -1.9375 L 1.5625 -1.9375 L 2.03125 -0.40625 L 2.328125 -1.703125 C 2.347656 -1.765625 2.351562 -1.800781 2.34375 -1.8125 C 2.34375 -1.832031 2.328125 -1.84375 2.296875 -1.84375 L 2.140625 -1.859375 L 2.140625 -1.9375 L 2.703125 -1.9375 L 2.703125 -1.859375 L 2.546875 -1.84375 C 2.515625 -1.84375 2.492188 -1.835938 2.484375 -1.828125 C 2.484375 -1.828125 2.476562 -1.816406 2.46875 -1.796875 C 2.457031 -1.773438 2.445312 -1.742188 2.4375 -1.703125 L 2.046875 0 Z M 1.796875 0 "/></g></g></g><g fill="#a6a6a6" fill-opacity="1"><g transform="translate(18.639514, 26.774815)"><g><path d="M 0.03125 -1.9375 L 1.609375 -1.9375 L 1.609375 -1.453125 L 1.53125 -1.453125 L 1.4375 -1.765625 C 1.425781 -1.796875 1.414062 -1.816406 1.40625 -1.828125 C 1.40625 -1.835938 1.394531 -1.84375 1.375 -1.84375 C 1.351562 -1.84375 1.320312 -1.84375 1.28125 -1.84375 L 1 -1.84375 L 1 -0.234375 C 1 -0.171875 1 -0.132812 1 -0.125 C 1.007812 -0.113281 1.03125 -0.101562 1.0625 -0.09375 L 1.21875 -0.078125 L 1.21875 0 L 0.421875 0 L 0.421875 -0.078125 L 0.59375 -0.09375 C 0.613281 -0.101562 0.628906 -0.113281 0.640625 -0.125 C 0.648438 -0.132812 0.65625 -0.171875 0.65625 -0.234375 L 0.65625 -1.84375 L 0.359375 -1.84375 C 0.316406 -1.84375 0.285156 -1.84375 0.265625 -1.84375 C 0.242188 -1.84375 0.226562 -1.835938 0.21875 -1.828125 C 0.21875 -1.816406 0.210938 -1.796875 0.203125 -1.765625 L 0.109375 -1.453125 L 0.03125 -1.453125 Z M 0.03125 -1.9375 "/></g></g></g><g fill="#a6a6a6" fill-opacity="1"><g transform="translate(21.094403, 26.774815)"><g><path d="M 2 -0.078125 L 2 0 L 1.21875 0 L 1.21875 -0.078125 L 1.375 -0.09375 C 1.40625 -0.101562 1.421875 -0.113281 1.421875 -0.125 C 1.429688 -0.132812 1.4375 -0.171875 1.4375 -0.234375 L 1.4375 -0.9375 L 0.6875 -0.9375 L 0.6875 -0.234375 C 0.6875 -0.171875 0.6875 -0.132812 0.6875 -0.125 C 0.695312 -0.113281 0.71875 -0.101562 0.75 -0.09375 L 0.90625 -0.078125 L 0.90625 0 L 0.125 0 L 0.125 -0.078125 L 0.28125 -0.09375 C 0.3125 -0.101562 0.328125 -0.113281 0.328125 -0.125 C 0.335938 -0.132812 0.34375 -0.171875 0.34375 -0.234375 L 0.34375 -1.703125 C 0.34375 -1.765625 0.335938 -1.800781 0.328125 -1.8125 C 0.328125 -1.832031 0.3125 -1.84375 0.28125 -1.84375 L 0.125 -1.859375 L 0.125 -1.9375 L 0.90625 -1.9375 L 0.90625 -1.859375 L 0.75 -1.84375 C 0.71875 -1.84375 0.695312 -1.832031 0.6875 -1.8125 C 0.6875 -1.800781 0.6875 -1.765625 0.6875 -1.703125 L 0.6875 -1.03125 L 1.4375 -1.03125 L 1.4375 -1.703125 C 1.4375 -1.765625 1.429688 -1.800781 1.421875 -1.8125 C 1.421875 -1.832031 1.40625 -1.84375 1.375 -1.84375 L 1.21875 -1.859375 L 1.21875 -1.9375 L 2 -1.9375 L 2 -1.859375 L 1.84375 -1.84375 C 1.8125 -1.84375 1.789062 -1.832031 1.78125 -1.8125 C 1.78125 -1.800781 1.78125 -1.765625 1.78125 -1.703125 L 1.78125 -0.234375 C 1.78125 -0.171875 1.78125 -0.132812 1.78125 -0.125 C 1.789062 -0.113281 1.8125 -0.101562 1.84375 -0.09375 Z M 2 -0.078125 "/></g></g></g></svg>