<svg xmlns="http://www.w3.org/2000/svg" xmlns:xlink="http://www.w3.org/1999/xlink" width="42" zoomAndPan="magnify" viewBox="0 0 31.5 30.75" height="41" preserveAspectRatio="xMidYMid meet" version="1.0"><defs><g/><clipPath id="5fa4c5da4d"><path d="M 13 5 L 18 5 L 18 16.742188 L 13 16.742188 Z M 13 5 " clip-rule="nonzero"/></clipPath><clipPath id="28c61c9895"><path d="M 8.050781 7 L 13 7 L 13 16.742188 L 8.050781 16.742188 Z M 8.050781 7 " clip-rule="nonzero"/></clipPath><clipPath id="27a1d2536c"><path d="M 18 1.238281 L 22.816406 1.238281 L 22.816406 16.742188 L 18 16.742188 Z M 18 1.238281 " clip-rule="nonzero"/></clipPath></defs><g clip-path="url(#5fa4c5da4d)"><path fill="#a6a6a6" d="M 17.167969 10.480469 C 17.785156 9.863281 17.734375 8.851562 17.734375 8.804688 C 17.726562 8.664062 17.652344 8.59375 17.511719 8.585938 C 17.46875 8.585938 16.453125 8.53125 15.835938 9.152344 C 15.800781 9.1875 15.769531 9.222656 15.738281 9.261719 L 15.738281 8.210938 C 15.9375 8.003906 16.441406 7.417969 16.441406 6.699219 C 16.441406 5.828125 15.691406 5.144531 15.660156 5.113281 C 15.554688 5.019531 15.449219 5.019531 15.347656 5.113281 C 15.3125 5.140625 14.5625 5.820312 14.5625 6.699219 C 14.5625 7.417969 15.070312 8.007812 15.269531 8.210938 L 15.269531 9.261719 C 15.238281 9.222656 15.207031 9.1875 15.171875 9.152344 C 14.5625 8.53125 13.535156 8.582031 13.492188 8.582031 C 13.351562 8.589844 13.277344 8.664062 13.269531 8.800781 C 13.269531 8.84375 13.21875 9.859375 13.835938 10.480469 C 14.246094 10.839844 14.722656 11.027344 15.265625 11.042969 L 15.265625 12.433594 C 15.238281 12.398438 15.203125 12.359375 15.167969 12.324219 C 14.550781 11.707031 13.535156 11.753906 13.492188 11.757812 C 13.351562 11.765625 13.277344 11.839844 13.269531 11.980469 C 13.269531 12.019531 13.21875 13.035156 13.835938 13.65625 C 14.246094 14.019531 14.722656 14.207031 15.265625 14.222656 L 15.265625 16.339844 L 15.738281 16.339844 L 15.738281 14.222656 C 16.28125 14.210938 16.757812 14.023438 17.167969 13.660156 C 17.785156 13.042969 17.734375 12.03125 17.734375 11.984375 C 17.726562 11.847656 17.652344 11.773438 17.511719 11.765625 C 17.46875 11.765625 16.453125 11.714844 15.835938 12.332031 C 15.800781 12.367188 15.769531 12.402344 15.738281 12.441406 L 15.738281 11.050781 C 16.28125 11.035156 16.757812 10.84375 17.167969 10.480469 Z M 16.167969 9.484375 C 16.484375 9.214844 16.847656 9.074219 17.257812 9.0625 C 17.242188 9.472656 17.101562 9.835938 16.832031 10.148438 C 16.519531 10.417969 16.15625 10.558594 15.746094 10.574219 C 15.757812 10.160156 15.898438 9.796875 16.167969 9.480469 Z M 14.171875 10.148438 C 13.902344 9.835938 13.761719 9.472656 13.75 9.0625 C 14.160156 9.074219 14.523438 9.21875 14.835938 9.488281 C 15.105469 9.800781 15.246094 10.164062 15.261719 10.574219 C 14.847656 10.558594 14.484375 10.417969 14.171875 10.148438 Z M 14.171875 13.324219 C 13.902344 13.011719 13.761719 12.648438 13.75 12.234375 C 14.160156 12.25 14.523438 12.390625 14.835938 12.660156 C 15.109375 12.972656 15.25 13.339844 15.265625 13.753906 C 14.851562 13.738281 14.484375 13.597656 14.171875 13.324219 Z M 16.167969 12.65625 C 16.484375 12.390625 16.847656 12.25 17.257812 12.234375 C 17.242188 12.648438 17.101562 13.011719 16.832031 13.324219 C 16.519531 13.59375 16.152344 13.738281 15.738281 13.753906 C 15.75 13.335938 15.894531 12.972656 16.167969 12.65625 Z M 15.503906 5.632812 C 15.652344 5.769531 15.765625 5.929688 15.847656 6.117188 C 15.929688 6.304688 15.972656 6.496094 15.972656 6.699219 C 15.972656 6.90625 15.929688 7.097656 15.847656 7.285156 C 15.765625 7.472656 15.652344 7.632812 15.503906 7.769531 C 15.351562 7.632812 15.238281 7.472656 15.15625 7.285156 C 15.074219 7.097656 15.03125 6.90625 15.03125 6.699219 C 15.03125 6.496094 15.074219 6.304688 15.15625 6.117188 C 15.238281 5.929688 15.351562 5.769531 15.503906 5.632812 Z M 15.503906 5.632812 " fill-opacity="1" fill-rule="nonzero"/></g><g clip-path="url(#28c61c9895)"><path fill="#a6a6a6" d="M 12.339844 11.757812 C 12.296875 11.757812 11.28125 11.707031 10.664062 12.324219 C 10.628906 12.359375 10.597656 12.398438 10.566406 12.433594 L 10.566406 10.789062 C 10.765625 10.585938 11.269531 9.996094 11.269531 9.28125 C 11.269531 8.40625 10.519531 7.722656 10.488281 7.691406 C 10.382812 7.601562 10.28125 7.601562 10.175781 7.691406 C 10.140625 7.722656 9.390625 8.398438 9.390625 9.28125 C 9.390625 9.996094 9.898438 10.585938 10.097656 10.789062 L 10.097656 12.433594 C 10.066406 12.398438 10.035156 12.359375 10 12.324219 C 9.378906 11.707031 8.367188 11.753906 8.324219 11.757812 C 8.183594 11.765625 8.109375 11.839844 8.101562 11.980469 C 8.101562 12.019531 8.050781 13.035156 8.667969 13.65625 C 9.074219 14.019531 9.550781 14.207031 10.09375 14.222656 L 10.09375 16.339844 L 10.566406 16.339844 L 10.566406 14.222656 C 11.109375 14.210938 11.585938 14.023438 11.996094 13.660156 C 12.613281 13.042969 12.5625 12.03125 12.5625 11.984375 C 12.558594 11.84375 12.484375 11.765625 12.339844 11.757812 Z M 9 13.324219 C 8.730469 13.011719 8.589844 12.648438 8.578125 12.234375 C 8.988281 12.25 9.351562 12.390625 9.664062 12.660156 C 9.9375 12.972656 10.082031 13.339844 10.09375 13.753906 C 9.679688 13.738281 9.3125 13.597656 9 13.324219 Z M 10.332031 8.21875 C 10.480469 8.355469 10.59375 8.515625 10.675781 8.703125 C 10.757812 8.890625 10.800781 9.082031 10.800781 9.285156 C 10.800781 9.488281 10.757812 9.683594 10.675781 9.871094 C 10.59375 10.058594 10.480469 10.21875 10.332031 10.355469 C 10.179688 10.21875 10.066406 10.058594 9.984375 9.871094 C 9.902344 9.683594 9.859375 9.488281 9.859375 9.285156 C 9.859375 9.082031 9.902344 8.890625 9.984375 8.703125 C 10.066406 8.515625 10.179688 8.355469 10.332031 8.21875 Z M 11.660156 13.324219 C 11.347656 13.59375 10.980469 13.738281 10.566406 13.753906 C 10.578125 13.339844 10.722656 12.976562 10.992188 12.664062 C 11.304688 12.398438 11.667969 12.257812 12.078125 12.242188 C 12.066406 12.652344 11.925781 13.011719 11.660156 13.324219 Z M 11.660156 13.324219 " fill-opacity="1" fill-rule="nonzero"/></g><g clip-path="url(#27a1d2536c)"><path fill="#a6a6a6" d="M 22.339844 10.363281 C 22.957031 9.746094 22.90625 8.730469 22.90625 8.6875 C 22.898438 8.546875 22.824219 8.476562 22.683594 8.464844 C 22.640625 8.464844 21.625 8.414062 21.007812 9.03125 C 20.972656 9.066406 20.9375 9.105469 20.910156 9.144531 L 20.910156 7.640625 C 21.453125 7.628906 21.929688 7.441406 22.339844 7.078125 C 22.957031 6.460938 22.90625 5.449219 22.90625 5.402344 C 22.898438 5.265625 22.824219 5.191406 22.683594 5.183594 C 22.640625 5.183594 21.625 5.128906 21.007812 5.75 C 20.972656 5.785156 20.941406 5.820312 20.910156 5.859375 L 20.910156 4.449219 C 21.109375 4.246094 21.613281 3.65625 21.613281 2.941406 C 21.613281 2.066406 20.863281 1.382812 20.832031 1.351562 C 20.726562 1.261719 20.621094 1.261719 20.519531 1.351562 C 20.484375 1.382812 19.734375 2.058594 19.734375 2.941406 C 19.734375 3.65625 20.242188 4.246094 20.441406 4.449219 L 20.441406 5.859375 C 20.410156 5.820312 20.378906 5.785156 20.34375 5.75 C 19.722656 5.128906 18.710938 5.179688 18.667969 5.183594 C 18.527344 5.191406 18.453125 5.265625 18.445312 5.402344 C 18.445312 5.445312 18.394531 6.460938 19.011719 7.078125 C 19.417969 7.441406 19.894531 7.628906 20.4375 7.640625 L 20.4375 9.152344 C 20.40625 9.113281 20.375 9.074219 20.339844 9.039062 C 19.722656 8.421875 18.707031 8.472656 18.664062 8.472656 C 18.523438 8.480469 18.449219 8.554688 18.441406 8.695312 C 18.441406 8.738281 18.390625 9.753906 19.007812 10.371094 C 19.417969 10.730469 19.894531 10.917969 20.4375 10.933594 L 20.4375 12.441406 C 20.40625 12.402344 20.375 12.367188 20.339844 12.332031 C 19.722656 11.714844 18.707031 11.761719 18.664062 11.765625 C 18.523438 11.773438 18.449219 11.847656 18.441406 11.984375 C 18.441406 12.027344 18.390625 13.042969 19.007812 13.660156 C 19.417969 14.023438 19.894531 14.210938 20.4375 14.222656 L 20.4375 16.339844 L 20.910156 16.339844 L 20.910156 14.222656 C 21.453125 14.210938 21.929688 14.023438 22.339844 13.660156 C 22.957031 13.042969 22.90625 12.03125 22.90625 11.984375 C 22.898438 11.847656 22.824219 11.773438 22.683594 11.765625 C 22.640625 11.765625 21.625 11.714844 21.007812 12.332031 C 20.972656 12.367188 20.9375 12.402344 20.910156 12.441406 L 20.910156 10.933594 C 21.453125 10.917969 21.929688 10.726562 22.339844 10.363281 Z M 21.339844 9.367188 C 21.65625 9.097656 22.019531 8.957031 22.429688 8.945312 C 22.4375 9.148438 22.40625 9.34375 22.332031 9.535156 C 22.257812 9.726562 22.148438 9.894531 22.003906 10.039062 C 21.859375 10.183594 21.691406 10.292969 21.5 10.367188 C 21.3125 10.441406 21.113281 10.472656 20.910156 10.460938 C 20.921875 10.046875 21.066406 9.679688 21.339844 9.367188 Z M 21.339844 6.074219 C 21.65625 5.808594 22.019531 5.667969 22.429688 5.652344 C 22.4375 5.855469 22.40625 6.054688 22.332031 6.246094 C 22.257812 6.4375 22.148438 6.605469 22.003906 6.75 C 21.859375 6.894531 21.691406 7 21.5 7.074219 C 21.3125 7.148438 21.113281 7.179688 20.910156 7.171875 C 20.921875 6.753906 21.066406 6.390625 21.339844 6.074219 Z M 19.34375 6.742188 C 19.074219 6.425781 18.933594 6.066406 18.921875 5.652344 C 19.332031 5.667969 19.695312 5.808594 20.007812 6.078125 C 20.28125 6.390625 20.421875 6.757812 20.4375 7.171875 C 20.023438 7.15625 19.65625 7.015625 19.34375 6.742188 Z M 19.34375 10.03125 C 19.074219 9.71875 18.933594 9.355469 18.921875 8.945312 C 19.332031 8.957031 19.695312 9.097656 20.007812 9.371094 C 20.28125 9.683594 20.421875 10.046875 20.4375 10.460938 C 20.023438 10.449219 19.65625 10.304688 19.34375 10.03125 Z M 19.34375 13.324219 C 19.074219 13.011719 18.933594 12.648438 18.921875 12.234375 C 19.332031 12.25 19.695312 12.390625 20.007812 12.660156 C 20.28125 12.972656 20.421875 13.339844 20.4375 13.753906 C 20.023438 13.738281 19.65625 13.597656 19.34375 13.324219 Z M 21.339844 12.65625 C 21.65625 12.390625 22.019531 12.25 22.429688 12.234375 C 22.4375 12.4375 22.40625 12.636719 22.332031 12.828125 C 22.257812 13.019531 22.148438 13.1875 22.003906 13.332031 C 21.859375 13.476562 21.691406 13.585938 21.5 13.65625 C 21.3125 13.730469 21.113281 13.761719 20.910156 13.753906 C 20.921875 13.335938 21.066406 12.972656 21.339844 12.65625 Z M 20.671875 1.871094 C 20.824219 2.007812 20.9375 2.167969 21.019531 2.355469 C 21.101562 2.542969 21.144531 2.738281 21.144531 2.941406 C 21.144531 3.144531 21.101562 3.335938 21.019531 3.523438 C 20.9375 3.710938 20.824219 3.871094 20.671875 4.007812 C 20.523438 3.871094 20.410156 3.710938 20.328125 3.523438 C 20.246094 3.335938 20.203125 3.144531 20.203125 2.941406 C 20.203125 2.738281 20.246094 2.542969 20.328125 2.355469 C 20.410156 2.167969 20.523438 2.007812 20.671875 1.871094 Z M 20.671875 1.871094 " fill-opacity="1" fill-rule="nonzero"/></g><g fill="#a6a6a6" fill-opacity="1"><g transform="translate(2.567742, 23.047956)"><g><path d="M 2.53125 -4.90625 C 3 -4.90625 3.421875 -4.804688 3.796875 -4.609375 L 3.609375 -3.765625 L 3.53125 -3.71875 C 3.382812 -3.820312 3.21875 -3.90625 3.03125 -3.96875 C 2.851562 -4.03125 2.671875 -4.0625 2.484375 -4.0625 C 1.679688 -4.0625 1.28125 -3.535156 1.28125 -2.484375 C 1.28125 -1.921875 1.382812 -1.5 1.59375 -1.21875 C 1.800781 -0.9375 2.109375 -0.796875 2.515625 -0.796875 C 2.691406 -0.796875 2.878906 -0.820312 3.078125 -0.875 C 3.273438 -0.9375 3.457031 -1.015625 3.625 -1.109375 L 3.71875 -1.0625 L 3.625 -0.203125 C 3.25 -0.0234375 2.847656 0.0625 2.421875 0.0625 C 1.703125 0.0625 1.148438 -0.144531 0.765625 -0.5625 C 0.390625 -0.976562 0.203125 -1.582031 0.203125 -2.375 C 0.203125 -3.175781 0.40625 -3.796875 0.8125 -4.234375 C 1.21875 -4.679688 1.789062 -4.90625 2.53125 -4.90625 Z M 2.53125 -4.90625 "/></g></g></g><g fill="#a6a6a6" fill-opacity="1"><g transform="translate(6.454788, 23.047956)"><g><path d="M 4.625 -1.53125 L 4.65625 0 L 3.640625 0 L 3.6875 -1.4375 L 3.671875 -2 L 2.578125 -2.015625 L 1.59375 -2 L 1.59375 -1.53125 L 1.625 0 L 0.609375 0 L 0.671875 -1.4375 L 0.609375 -4.84375 L 1.640625 -4.84375 L 1.609375 -2.84375 L 2.65625 -2.828125 L 3.671875 -2.84375 L 3.640625 -4.84375 L 4.671875 -4.84375 Z M 4.625 -1.53125 "/></g></g></g><g fill="#a6a6a6" fill-opacity="1"><g transform="translate(11.687641, 23.047956)"><g><path d="M 4.390625 0 L 3.359375 0 L 3.234375 -0.625 L 3.109375 -1.078125 L 2.15625 -1.109375 L 1.328125 -1.078125 L 1.1875 -0.6875 L 1.0625 0 L 0.0625 0 L 1.703125 -4.84375 L 2.90625 -4.84375 Z M 2.890625 -1.875 L 2.3125 -3.890625 L 2.25 -3.890625 L 1.578125 -1.875 L 2.234375 -1.859375 Z M 2.890625 -1.875 "/></g></g></g><g fill="#a6a6a6" fill-opacity="1"><g transform="translate(16.198719, 23.047956)"><g><path d="M 4.578125 -1.5 L 4.625 0 L 3.53125 0 L 1.546875 -3.28125 L 1.484375 -3.28125 L 1.484375 -1.671875 L 1.515625 0 L 0.59375 0 L 0.640625 -1.421875 L 0.59375 -4.84375 L 1.6875 -4.84375 L 3.65625 -1.5625 L 3.734375 -1.5625 L 3.703125 -4.796875 L 4.640625 -4.859375 Z M 4.578125 -1.5 "/></g></g></g><g fill="#a6a6a6" fill-opacity="1"><g transform="translate(21.424052, 23.047956)"><g><path d="M 2.734375 -4.90625 C 3.265625 -4.90625 3.738281 -4.804688 4.15625 -4.609375 L 3.9375 -3.6875 L 3.84375 -3.671875 C 3.59375 -3.816406 3.367188 -3.921875 3.171875 -3.984375 C 2.984375 -4.046875 2.78125 -4.078125 2.5625 -4.078125 C 2.113281 -4.078125 1.785156 -3.941406 1.578125 -3.671875 C 1.378906 -3.410156 1.28125 -2.976562 1.28125 -2.375 C 1.28125 -1.96875 1.320312 -1.644531 1.40625 -1.40625 C 1.5 -1.175781 1.632812 -1.003906 1.8125 -0.890625 C 2 -0.785156 2.25 -0.734375 2.5625 -0.734375 C 2.664062 -0.734375 2.757812 -0.738281 2.84375 -0.75 C 2.9375 -0.769531 3.050781 -0.800781 3.1875 -0.84375 L 3.203125 -1.25 L 3.1875 -2.015625 L 4.140625 -2.09375 L 4.109375 -1.40625 L 4.140625 -0.234375 C 3.535156 -0.0351562 2.976562 0.0625 2.46875 0.0625 C 1.71875 0.0625 1.148438 -0.140625 0.765625 -0.546875 C 0.390625 -0.960938 0.203125 -1.550781 0.203125 -2.3125 C 0.203125 -3.144531 0.421875 -3.785156 0.859375 -4.234375 C 1.304688 -4.679688 1.929688 -4.90625 2.734375 -4.90625 Z M 2.734375 -4.90625 "/></g></g></g><g fill="#a6a6a6" fill-opacity="1"><g transform="translate(25.920094, 23.047956)"><g><path d="M 3.625 -0.84375 L 3.6875 -0.765625 L 3.625 0 L 0.59375 0 L 0.640625 -1.4375 L 0.59375 -4.84375 L 3.65625 -4.84375 L 3.71875 -4.75 L 3.640625 -4 L 2.484375 -4.03125 L 1.609375 -4.03125 L 1.578125 -2.859375 L 2.421875 -2.84375 L 3.203125 -2.875 L 3.265625 -2.796875 L 3.203125 -2.03125 L 2.34375 -2.0625 L 1.578125 -2.046875 L 1.5625 -1.53125 L 1.578125 -0.796875 L 2.4375 -0.796875 Z M 3.625 -0.84375 "/></g></g></g><g fill="#a6a6a6" fill-opacity="1"><g transform="translate(4.249279, 26.28573)"><g><path d="M 0.578125 -1.90625 L 0.578125 -1.15625 L 0.9375 -1.15625 L 1.28125 -1.171875 L 1.296875 -1.140625 L 1.28125 -0.9375 L 0.5625 -0.9375 L 0.5625 -0.671875 L 0.578125 0 L 0.3125 0 L 0.328125 -0.640625 L 0.3125 -2.140625 L 1.4375 -2.140625 L 1.46875 -2.109375 L 1.4375 -1.890625 L 0.953125 -1.90625 Z M 0.578125 -1.90625 "/></g></g></g><g fill="#a6a6a6" fill-opacity="1"><g transform="translate(7.030447, 26.28573)"><g><path d="M 1.078125 -2.15625 C 1.367188 -2.15625 1.59375 -2.0625 1.75 -1.875 C 1.90625 -1.695312 1.984375 -1.441406 1.984375 -1.109375 C 1.984375 -0.742188 1.898438 -0.460938 1.734375 -0.265625 C 1.566406 -0.0664062 1.332031 0.03125 1.03125 0.03125 C 0.738281 0.03125 0.515625 -0.0625 0.359375 -0.25 C 0.203125 -0.4375 0.125 -0.703125 0.125 -1.046875 C 0.125 -1.398438 0.207031 -1.671875 0.375 -1.859375 C 0.539062 -2.054688 0.773438 -2.15625 1.078125 -2.15625 Z M 1.0625 -1.9375 C 0.625 -1.9375 0.40625 -1.648438 0.40625 -1.078125 C 0.40625 -0.773438 0.457031 -0.550781 0.5625 -0.40625 C 0.664062 -0.257812 0.828125 -0.1875 1.046875 -0.1875 C 1.492188 -0.1875 1.71875 -0.476562 1.71875 -1.0625 C 1.71875 -1.351562 1.660156 -1.570312 1.546875 -1.71875 C 1.441406 -1.863281 1.28125 -1.9375 1.0625 -1.9375 Z M 1.0625 -1.9375 "/></g></g></g><g fill="#a6a6a6" fill-opacity="1"><g transform="translate(10.481677, 26.28573)"><g><path d="M 1.828125 -1.046875 L 1.828125 -0.8125 C 1.835938 -0.550781 1.769531 -0.347656 1.625 -0.203125 C 1.476562 -0.0546875 1.273438 0.015625 1.015625 0.015625 C 0.765625 0.015625 0.570312 -0.0507812 0.4375 -0.1875 C 0.300781 -0.320312 0.238281 -0.519531 0.25 -0.78125 L 0.25 -2.140625 L 0.515625 -2.140625 L 0.5 -0.8125 C 0.5 -0.613281 0.539062 -0.460938 0.625 -0.359375 C 0.71875 -0.253906 0.851562 -0.203125 1.03125 -0.203125 C 1.21875 -0.203125 1.359375 -0.25 1.453125 -0.34375 C 1.546875 -0.445312 1.585938 -0.59375 1.578125 -0.78125 L 1.578125 -2.140625 L 1.84375 -2.140625 Z M 1.828125 -1.046875 "/></g></g></g><g fill="#a6a6a6" fill-opacity="1"><g transform="translate(13.902905, 26.28573)"><g><path d="M 1.953125 -0.625 L 1.953125 0 L 1.671875 0 L 0.5625 -1.703125 L 0.546875 -1.703125 L 0.546875 0 L 0.3125 0 L 0.328125 -0.625 L 0.3125 -2.140625 L 0.59375 -2.140625 L 1.6875 -0.421875 L 1.71875 -0.421875 L 1.71875 -2.125 L 1.96875 -2.140625 Z M 1.953125 -0.625 "/></g></g></g><g fill="#a6a6a6" fill-opacity="1"><g transform="translate(17.51415, 26.28573)"><g><path d="M 1.078125 -2.140625 C 1.378906 -2.140625 1.613281 -2.050781 1.78125 -1.875 C 1.945312 -1.707031 2.03125 -1.460938 2.03125 -1.140625 C 2.03125 -0.765625 1.941406 -0.476562 1.765625 -0.28125 C 1.585938 -0.0820312 1.332031 0.015625 1 0.015625 C 0.914062 0.015625 0.804688 0.015625 0.671875 0.015625 C 0.546875 0.015625 0.425781 0.0078125 0.3125 0 L 0.328125 -0.640625 L 0.3125 -2.140625 Z M 1.046875 -0.203125 C 1.273438 -0.203125 1.445312 -0.273438 1.5625 -0.421875 C 1.6875 -0.566406 1.75 -0.785156 1.75 -1.078125 C 1.75 -1.640625 1.519531 -1.921875 1.0625 -1.921875 C 0.925781 -1.921875 0.765625 -1.914062 0.578125 -1.90625 L 0.5625 -0.671875 L 0.578125 -0.21875 C 0.640625 -0.21875 0.71875 -0.210938 0.8125 -0.203125 C 0.914062 -0.203125 0.992188 -0.203125 1.046875 -0.203125 Z M 1.046875 -0.203125 "/></g></g></g><g fill="#a6a6a6" fill-opacity="1"><g transform="translate(21.002049, 26.28573)"><g><path d="M 1.53125 -0.203125 L 1.5 0 L 0.3125 0 L 0.328125 -0.640625 L 0.3125 -2.140625 L 1.515625 -2.140625 L 1.53125 -2.109375 L 1.5 -1.90625 L 0.578125 -1.90625 L 0.578125 -1.203125 L 1.328125 -1.203125 L 1.34375 -1.1875 L 1.328125 -0.984375 L 0.5625 -0.984375 L 0.5625 -0.671875 L 0.578125 -0.21875 L 1 -0.21875 L 1.515625 -0.234375 Z M 1.53125 -0.203125 "/></g></g></g><g fill="#a6a6a6" fill-opacity="1"><g transform="translate(23.943233, 26.28573)"><g><path d="M 1.171875 -0.859375 C 1.316406 -0.617188 1.503906 -0.351562 1.734375 -0.0625 L 1.734375 -0.03125 C 1.648438 0 1.566406 0.0195312 1.484375 0.03125 L 1.4375 0 C 1.257812 -0.269531 1.097656 -0.535156 0.953125 -0.796875 L 0.5625 -0.796875 L 0.5625 -0.671875 L 0.578125 0 L 0.3125 0 L 0.328125 -0.640625 L 0.3125 -2.140625 L 0.96875 -2.140625 C 1.175781 -2.140625 1.335938 -2.085938 1.453125 -1.984375 C 1.566406 -1.878906 1.625 -1.726562 1.625 -1.53125 C 1.625 -1.382812 1.582031 -1.25 1.5 -1.125 C 1.425781 -1.007812 1.316406 -0.921875 1.171875 -0.859375 Z M 0.5625 -1.015625 L 0.96875 -1.015625 C 1.21875 -1.078125 1.34375 -1.238281 1.34375 -1.5 C 1.34375 -1.632812 1.304688 -1.734375 1.234375 -1.796875 C 1.160156 -1.867188 1.050781 -1.910156 0.90625 -1.921875 L 0.578125 -1.90625 Z M 0.5625 -1.015625 "/></g></g></g><g fill="#a6a6a6" fill-opacity="1"><g transform="translate(27.127771, 26.28573)"><g><path d="M 0.890625 -2.15625 C 1.046875 -2.15625 1.203125 -2.117188 1.359375 -2.046875 L 1.328125 -1.796875 L 1.28125 -1.78125 C 1.207031 -1.832031 1.132812 -1.867188 1.0625 -1.890625 C 1 -1.921875 0.929688 -1.9375 0.859375 -1.9375 C 0.773438 -1.9375 0.703125 -1.914062 0.640625 -1.875 C 0.578125 -1.84375 0.53125 -1.800781 0.5 -1.75 C 0.46875 -1.695312 0.453125 -1.644531 0.453125 -1.59375 C 0.453125 -1.53125 0.46875 -1.472656 0.5 -1.421875 C 0.539062 -1.378906 0.585938 -1.34375 0.640625 -1.3125 C 0.703125 -1.28125 0.78125 -1.238281 0.875 -1.1875 C 0.988281 -1.132812 1.082031 -1.082031 1.15625 -1.03125 C 1.226562 -0.988281 1.289062 -0.929688 1.34375 -0.859375 C 1.394531 -0.785156 1.421875 -0.695312 1.421875 -0.59375 C 1.421875 -0.476562 1.390625 -0.375 1.328125 -0.28125 C 1.273438 -0.1875 1.191406 -0.113281 1.078125 -0.0625 C 0.972656 -0.0078125 0.851562 0.015625 0.71875 0.015625 C 0.625 0.015625 0.523438 0.00390625 0.421875 -0.015625 C 0.316406 -0.0351562 0.222656 -0.0703125 0.140625 -0.125 L 0.171875 -0.40625 L 0.203125 -0.421875 C 0.285156 -0.335938 0.375 -0.273438 0.46875 -0.234375 C 0.5625 -0.203125 0.648438 -0.1875 0.734375 -0.1875 C 0.816406 -0.1875 0.890625 -0.203125 0.953125 -0.234375 C 1.023438 -0.273438 1.078125 -0.320312 1.109375 -0.375 C 1.148438 -0.425781 1.171875 -0.484375 1.171875 -0.546875 C 1.171875 -0.640625 1.132812 -0.710938 1.0625 -0.765625 C 0.988281 -0.828125 0.878906 -0.894531 0.734375 -0.96875 C 0.617188 -1.019531 0.523438 -1.066406 0.453125 -1.109375 C 0.378906 -1.160156 0.316406 -1.222656 0.265625 -1.296875 C 0.210938 -1.367188 0.1875 -1.457031 0.1875 -1.5625 C 0.1875 -1.664062 0.21875 -1.765625 0.28125 -1.859375 C 0.34375 -1.953125 0.425781 -2.023438 0.53125 -2.078125 C 0.632812 -2.128906 0.753906 -2.15625 0.890625 -2.15625 Z M 0.890625 -2.15625 "/></g></g></g></svg>