<svg xmlns="http://www.w3.org/2000/svg" xmlns:xlink="http://www.w3.org/1999/xlink" width="42" zoomAndPan="magnify" viewBox="0 0 31.5 30.75" height="41" preserveAspectRatio="xMidYMid meet" version="1.0"><defs><g/><clipPath id="fe168dd439"><path d="M 7.464844 1.542969 L 24.445312 1.542969 L 24.445312 19.261719 L 7.464844 19.261719 Z M 7.464844 1.542969 " clip-rule="nonzero"/></clipPath><clipPath id="03d52ffec1"><path d="M 18.09375 4.308594 L 16.566406 4.933594 L 16.507812 4.507812 L 17.359375 3.886719 L 18.132812 4.046875 Z M 12.628906 16.597656 C 12.964844 13.523438 14.699219 10.546875 17.125 8.625 C 14.679688 11.835938 15.03125 16.371094 17.941406 19.167969 C 17.3125 14.90625 19.140625 10.652344 22.664062 8.175781 L 23.957031 6.289062 C 23.019531 6.414062 22.105469 6.632812 21.210938 6.945312 L 24.085938 3.15625 L 24.464844 1.539062 L 19.851562 3.429688 C 13.75 1.769531 12.296875 6.414062 7.472656 5.355469 C 7.730469 6.355469 8.609375 7.15625 10.109375 7.753906 C 8.742188 9.542969 8.621094 11.105469 9.472656 12.875 C 10.089844 10.171875 11.125 8.226562 12.578125 7.042969 C 10.882812 7.28125 9.710938 7.019531 9.066406 6.265625 C 11.558594 6.539062 13.375 6.375 14.511719 5.773438 C 11.347656 8.449219 10.550781 13.011719 12.628906 16.597656 Z M 12.628906 16.597656 " clip-rule="evenodd"/></clipPath></defs><g clip-path="url(#fe168dd439)"><g clip-path="url(#03d52ffec1)"><path fill="#a6a6a6" d="M 7.472656 1.542969 L 7.472656 19.167969 L 24.445312 19.167969 L 24.445312 1.542969 Z M 7.472656 1.542969 " fill-opacity="1" fill-rule="nonzero"/></g></g><g fill="#a6a6a6" fill-opacity="1"><g transform="translate(6.003525, 22.521716)"><g><path d="M 3.796875 -2.09375 L 5.03125 -0.234375 C 4.8125 -0.0976562 4.59375 -0.0195312 4.375 0 C 4.15625 0.0078125 3.941406 -0.03125 3.734375 -0.125 C 3.535156 -0.226562 3.367188 -0.382812 3.234375 -0.59375 L 2.40625 -1.8125 L 1.78125 -1.8125 L 1.78125 -1.75 C 1.78125 -1.425781 1.710938 -1.132812 1.578125 -0.875 C 1.441406 -0.613281 1.257812 -0.398438 1.03125 -0.234375 C 0.8125 -0.078125 0.5625 0 0.28125 0 L 0.28125 -4.890625 C 0.28125 -5.085938 0.316406 -5.273438 0.390625 -5.453125 C 0.472656 -5.628906 0.582031 -5.78125 0.71875 -5.90625 C 0.863281 -6.039062 1.019531 -6.144531 1.1875 -6.21875 C 1.363281 -6.289062 1.535156 -6.328125 1.703125 -6.328125 L 2.609375 -6.328125 C 2.960938 -6.328125 3.273438 -6.28125 3.546875 -6.1875 C 3.828125 -6.082031 4.066406 -5.9375 4.265625 -5.75 C 4.472656 -5.5625 4.628906 -5.328125 4.734375 -5.046875 C 4.835938 -4.773438 4.890625 -4.460938 4.890625 -4.109375 L 4.890625 -4.09375 C 4.890625 -3.71875 4.828125 -3.390625 4.703125 -3.109375 C 4.585938 -2.816406 4.429688 -2.578125 4.234375 -2.390625 C 4.097656 -2.265625 3.953125 -2.164062 3.796875 -2.09375 Z M 1.78125 -4.875 L 1.78125 -3.1875 L 2.515625 -3.1875 C 2.785156 -3.1875 2.992188 -3.257812 3.140625 -3.40625 C 3.296875 -3.550781 3.375 -3.753906 3.375 -4.015625 L 3.375 -4.03125 C 3.375 -4.3125 3.296875 -4.519531 3.140625 -4.65625 C 2.992188 -4.800781 2.78125 -4.875 2.5 -4.875 Z M 1.78125 -4.875 "/></g></g></g><g fill="#a6a6a6" fill-opacity="1"><g transform="translate(12.180492, 22.521716)"><g><path d="M 3.625 -5.421875 L 5.078125 -0.046875 C 4.828125 0.015625 4.585938 0.015625 4.359375 -0.046875 C 4.128906 -0.109375 3.925781 -0.21875 3.75 -0.375 C 3.582031 -0.53125 3.472656 -0.722656 3.421875 -0.953125 L 3.34375 -1.25 L 3.3125 -1.390625 L 1.8125 -1.390625 L 1.78125 -1.25 L 1.703125 -0.953125 C 1.640625 -0.722656 1.523438 -0.53125 1.359375 -0.375 C 1.203125 -0.21875 1.003906 -0.109375 0.765625 -0.046875 C 0.535156 0.015625 0.296875 0.015625 0.046875 -0.046875 L 1.484375 -5.421875 C 1.566406 -5.742188 1.753906 -5.988281 2.046875 -6.15625 C 2.210938 -6.25 2.382812 -6.296875 2.5625 -6.296875 C 2.738281 -6.296875 2.910156 -6.25 3.078125 -6.15625 C 3.367188 -5.988281 3.550781 -5.742188 3.625 -5.421875 Z M 3.09375 -2.515625 L 2.5625 -4.53125 L 2.046875 -2.515625 Z M 3.09375 -2.515625 "/></g></g></g><g fill="#a6a6a6" fill-opacity="1"><g transform="translate(18.258049, 22.521716)"><g><path d="M 6.453125 -5.328125 C 6.523438 -5.554688 6.648438 -5.742188 6.828125 -5.890625 C 7.015625 -6.046875 7.222656 -6.144531 7.453125 -6.1875 C 7.691406 -6.238281 7.9375 -6.226562 8.1875 -6.15625 L 6.546875 -0.828125 C 6.472656 -0.609375 6.347656 -0.421875 6.171875 -0.265625 C 6.085938 -0.191406 5.988281 -0.128906 5.875 -0.078125 C 5.769531 -0.0234375 5.65625 0 5.53125 0 C 5.414062 0 5.300781 -0.0234375 5.1875 -0.078125 C 5.082031 -0.128906 4.984375 -0.191406 4.890625 -0.265625 C 4.710938 -0.421875 4.59375 -0.609375 4.53125 -0.828125 L 4.21875 -1.8125 L 3.921875 -0.828125 C 3.847656 -0.609375 3.722656 -0.421875 3.546875 -0.265625 C 3.453125 -0.191406 3.351562 -0.128906 3.25 -0.078125 C 3.144531 -0.0234375 3.03125 0 2.90625 0 C 2.78125 0 2.660156 -0.0234375 2.546875 -0.078125 C 2.441406 -0.128906 2.347656 -0.191406 2.265625 -0.265625 C 2.085938 -0.421875 1.960938 -0.609375 1.890625 -0.828125 L 0.25 -6.15625 C 0.5 -6.226562 0.742188 -6.238281 0.984375 -6.1875 C 1.222656 -6.144531 1.429688 -6.046875 1.609375 -5.890625 C 1.785156 -5.742188 1.910156 -5.554688 1.984375 -5.328125 L 2.90625 -2.0625 L 3.828125 -5.328125 C 3.898438 -5.554688 4.023438 -5.742188 4.203125 -5.890625 C 4.378906 -6.046875 4.585938 -6.144531 4.828125 -6.1875 C 5.066406 -6.238281 5.3125 -6.226562 5.5625 -6.15625 L 4.9375 -4.171875 L 5.53125 -2.09375 Z M 6.453125 -5.328125 "/></g></g></g><g fill="#a6a6a6" fill-opacity="1"><g transform="translate(27.518229, 22.521716)"><g/></g></g><g fill="#a6a6a6" fill-opacity="1"><g transform="translate(6.003525, 27.194722)"><g><path d="M 1.40625 -1.90625 L 1.40625 -1.5625 L 0.578125 -1.5625 L 0.578125 -0.34375 L 1.609375 -0.34375 L 1.609375 0 L 0.203125 0 L 0.203125 -3.421875 L 1.609375 -3.421875 L 1.609375 -3.078125 L 0.578125 -3.078125 L 0.578125 -1.90625 Z M 1.40625 -1.90625 "/></g></g></g><g fill="#a6a6a6" fill-opacity="1"><g transform="translate(8.010876, 27.194722)"><g><path d="M 1.046875 -1.484375 L 0.46875 0 L 0.109375 0 L 0.796875 -1.765625 L 0.15625 -3.421875 L 0.546875 -3.421875 L 1.078125 -2.046875 L 1.609375 -3.421875 L 1.96875 -3.421875 L 1.328125 -1.765625 L 2.015625 0 L 1.609375 0 Z M 1.046875 -1.484375 "/></g></g></g><g fill="#a6a6a6" fill-opacity="1"><g transform="translate(10.385423, 27.194722)"><g><path d="M 0.9375 -3.421875 C 1.207031 -3.421875 1.40625 -3.347656 1.53125 -3.203125 C 1.65625 -3.054688 1.71875 -2.851562 1.71875 -2.59375 L 1.71875 -2.171875 C 1.71875 -1.898438 1.648438 -1.691406 1.515625 -1.546875 C 1.390625 -1.410156 1.191406 -1.34375 0.921875 -1.34375 L 0.578125 -1.34375 L 0.578125 0 L 0.203125 0 L 0.203125 -3.421875 Z M 0.921875 -1.6875 C 1.054688 -1.6875 1.15625 -1.722656 1.21875 -1.796875 C 1.289062 -1.867188 1.328125 -1.988281 1.328125 -2.15625 L 1.328125 -2.609375 C 1.328125 -2.765625 1.296875 -2.878906 1.234375 -2.953125 C 1.179688 -3.035156 1.082031 -3.078125 0.9375 -3.078125 L 0.578125 -3.078125 L 0.578125 -1.6875 Z M 0.921875 -1.6875 "/></g></g></g><g fill="#a6a6a6" fill-opacity="1"><g transform="translate(12.446629, 27.194722)"><g><path d="M 0.171875 -2.59375 C 0.171875 -2.863281 0.234375 -3.070312 0.359375 -3.21875 C 0.484375 -3.375 0.679688 -3.453125 0.953125 -3.453125 C 1.210938 -3.453125 1.40625 -3.375 1.53125 -3.21875 C 1.664062 -3.070312 1.734375 -2.863281 1.734375 -2.59375 L 1.734375 -0.828125 C 1.734375 -0.566406 1.664062 -0.359375 1.53125 -0.203125 C 1.40625 -0.046875 1.210938 0.03125 0.953125 0.03125 C 0.679688 0.03125 0.484375 -0.046875 0.359375 -0.203125 C 0.234375 -0.359375 0.171875 -0.566406 0.171875 -0.828125 Z M 0.546875 -0.8125 C 0.546875 -0.65625 0.578125 -0.53125 0.640625 -0.4375 C 0.710938 -0.351562 0.816406 -0.3125 0.953125 -0.3125 C 1.085938 -0.3125 1.1875 -0.351562 1.25 -0.4375 C 1.320312 -0.53125 1.359375 -0.65625 1.359375 -0.8125 L 1.359375 -2.609375 C 1.359375 -2.765625 1.320312 -2.882812 1.25 -2.96875 C 1.1875 -3.0625 1.085938 -3.109375 0.953125 -3.109375 C 0.816406 -3.109375 0.710938 -3.0625 0.640625 -2.96875 C 0.578125 -2.882812 0.546875 -2.765625 0.546875 -2.609375 Z M 0.546875 -0.8125 "/></g></g></g><g fill="#a6a6a6" fill-opacity="1"><g transform="translate(14.595962, 27.194722)"><g><path d="M 0.953125 -3.421875 C 1.222656 -3.421875 1.414062 -3.351562 1.53125 -3.21875 C 1.65625 -3.082031 1.71875 -2.890625 1.71875 -2.640625 L 1.71875 -2.359375 C 1.71875 -2.171875 1.679688 -2.015625 1.609375 -1.890625 C 1.546875 -1.773438 1.441406 -1.695312 1.296875 -1.65625 C 1.453125 -1.613281 1.5625 -1.53125 1.625 -1.40625 C 1.6875 -1.28125 1.71875 -1.125 1.71875 -0.9375 L 1.71875 -0.40625 C 1.71875 -0.332031 1.722656 -0.257812 1.734375 -0.1875 C 1.742188 -0.125 1.765625 -0.0625 1.796875 0 L 1.40625 0 C 1.382812 -0.0507812 1.367188 -0.101562 1.359375 -0.15625 C 1.347656 -0.21875 1.34375 -0.304688 1.34375 -0.421875 L 1.34375 -0.953125 C 1.34375 -1.148438 1.296875 -1.285156 1.203125 -1.359375 C 1.117188 -1.429688 1 -1.46875 0.84375 -1.46875 L 0.578125 -1.46875 L 0.578125 0 L 0.203125 0 L 0.203125 -3.421875 Z M 0.859375 -1.8125 C 1.015625 -1.8125 1.132812 -1.84375 1.21875 -1.90625 C 1.300781 -1.96875 1.34375 -2.09375 1.34375 -2.28125 L 1.34375 -2.609375 C 1.34375 -2.765625 1.3125 -2.878906 1.25 -2.953125 C 1.1875 -3.035156 1.085938 -3.078125 0.953125 -3.078125 L 0.578125 -3.078125 L 0.578125 -1.8125 Z M 0.859375 -1.8125 "/></g></g></g><g fill="#a6a6a6" fill-opacity="1"><g transform="translate(16.769776, 27.194722)"><g><path d="M 0.6875 0 L 0.6875 -3.078125 L 0.0625 -3.078125 L 0.0625 -3.421875 L 1.703125 -3.421875 L 1.703125 -3.078125 L 1.0625 -3.078125 L 1.0625 0 Z M 0.6875 0 "/></g></g></g><g fill="#a6a6a6" fill-opacity="1"><g transform="translate(18.777127, 27.194722)"><g><path d="M 1.40625 -1.90625 L 1.40625 -1.5625 L 0.578125 -1.5625 L 0.578125 -0.34375 L 1.609375 -0.34375 L 1.609375 0 L 0.203125 0 L 0.203125 -3.421875 L 1.609375 -3.421875 L 1.609375 -3.078125 L 0.578125 -3.078125 L 0.578125 -1.90625 Z M 1.40625 -1.90625 "/></g></g></g><g fill="#a6a6a6" fill-opacity="1"><g transform="translate(20.784478, 27.194722)"><g><path d="M 0.953125 -3.421875 C 1.222656 -3.421875 1.414062 -3.351562 1.53125 -3.21875 C 1.65625 -3.082031 1.71875 -2.890625 1.71875 -2.640625 L 1.71875 -2.359375 C 1.71875 -2.171875 1.679688 -2.015625 1.609375 -1.890625 C 1.546875 -1.773438 1.441406 -1.695312 1.296875 -1.65625 C 1.453125 -1.613281 1.5625 -1.53125 1.625 -1.40625 C 1.6875 -1.28125 1.71875 -1.125 1.71875 -0.9375 L 1.71875 -0.40625 C 1.71875 -0.332031 1.722656 -0.257812 1.734375 -0.1875 C 1.742188 -0.125 1.765625 -0.0625 1.796875 0 L 1.40625 0 C 1.382812 -0.0507812 1.367188 -0.101562 1.359375 -0.15625 C 1.347656 -0.21875 1.34375 -0.304688 1.34375 -0.421875 L 1.34375 -0.953125 C 1.34375 -1.148438 1.296875 -1.285156 1.203125 -1.359375 C 1.117188 -1.429688 1 -1.46875 0.84375 -1.46875 L 0.578125 -1.46875 L 0.578125 0 L 0.203125 0 L 0.203125 -3.421875 Z M 0.859375 -1.8125 C 1.015625 -1.8125 1.132812 -1.84375 1.21875 -1.90625 C 1.300781 -1.96875 1.34375 -2.09375 1.34375 -2.28125 L 1.34375 -2.609375 C 1.34375 -2.765625 1.3125 -2.878906 1.25 -2.953125 C 1.1875 -3.035156 1.085938 -3.078125 0.953125 -3.078125 L 0.578125 -3.078125 L 0.578125 -1.8125 Z M 0.859375 -1.8125 "/></g></g></g><g fill="#a6a6a6" fill-opacity="1"><g transform="translate(22.958292, 27.194722)"><g><path d="M 0.921875 -3.453125 C 1.179688 -3.453125 1.367188 -3.375 1.484375 -3.21875 C 1.609375 -3.070312 1.671875 -2.867188 1.671875 -2.609375 L 1.671875 -2.515625 L 1.3125 -2.515625 L 1.3125 -2.625 C 1.3125 -2.78125 1.28125 -2.898438 1.21875 -2.984375 C 1.15625 -3.066406 1.054688 -3.109375 0.921875 -3.109375 C 0.785156 -3.109375 0.6875 -3.066406 0.625 -2.984375 C 0.5625 -2.898438 0.53125 -2.78125 0.53125 -2.625 C 0.53125 -2.5 0.554688 -2.390625 0.609375 -2.296875 C 0.671875 -2.203125 0.742188 -2.113281 0.828125 -2.03125 C 0.910156 -1.945312 1 -1.867188 1.09375 -1.796875 C 1.195312 -1.722656 1.289062 -1.640625 1.375 -1.546875 C 1.46875 -1.453125 1.539062 -1.347656 1.59375 -1.234375 C 1.65625 -1.117188 1.6875 -0.984375 1.6875 -0.828125 C 1.6875 -0.566406 1.625 -0.359375 1.5 -0.203125 C 1.375 -0.046875 1.175781 0.03125 0.90625 0.03125 C 0.644531 0.03125 0.453125 -0.046875 0.328125 -0.203125 C 0.203125 -0.359375 0.140625 -0.566406 0.140625 -0.828125 L 0.140625 -1.015625 L 0.5 -1.015625 L 0.5 -0.796875 C 0.5 -0.640625 0.53125 -0.519531 0.59375 -0.4375 C 0.65625 -0.351562 0.757812 -0.3125 0.90625 -0.3125 C 1.039062 -0.3125 1.140625 -0.351562 1.203125 -0.4375 C 1.265625 -0.519531 1.296875 -0.640625 1.296875 -0.796875 C 1.296875 -0.929688 1.265625 -1.039062 1.203125 -1.125 C 1.148438 -1.21875 1.082031 -1.304688 1 -1.390625 C 0.914062 -1.472656 0.820312 -1.550781 0.71875 -1.625 C 0.625 -1.695312 0.535156 -1.78125 0.453125 -1.875 C 0.367188 -1.96875 0.296875 -2.070312 0.234375 -2.1875 C 0.179688 -2.300781 0.15625 -2.441406 0.15625 -2.609375 C 0.15625 -2.867188 0.21875 -3.070312 0.34375 -3.21875 C 0.46875 -3.375 0.660156 -3.453125 0.921875 -3.453125 Z M 0.921875 -3.453125 "/></g></g></g></svg>