<svg xmlns="http://www.w3.org/2000/svg" xmlns:xlink="http://www.w3.org/1999/xlink" width="42" zoomAndPan="magnify" viewBox="0 0 31.5 30.75" height="41" preserveAspectRatio="xMidYMid meet" version="1.0"><defs><g/><clipPath id="174c3cdde5"><path d="M 8.632812 0.117188 L 22.371094 0.117188 L 22.371094 14.144531 L 8.632812 14.144531 Z M 8.632812 0.117188 " clip-rule="nonzero"/></clipPath></defs><g fill="#a6a6a6" fill-opacity="1"><g transform="translate(1.778138, 22.560702)"><g><path d="M 1.265625 -1.953125 L 1.21875 -1.5625 C 1.21875 -1.15625 1.351562 -0.878906 1.625 -0.734375 C 1.71875 -0.679688 1.828125 -0.65625 1.953125 -0.65625 C 2.085938 -0.65625 2.207031 -0.675781 2.3125 -0.71875 C 2.414062 -0.769531 2.5 -0.832031 2.5625 -0.90625 C 2.707031 -1.0625 2.78125 -1.234375 2.78125 -1.421875 C 2.78125 -1.617188 2.738281 -1.796875 2.65625 -1.953125 C 2.570312 -2.117188 2.472656 -2.285156 2.359375 -2.453125 L 1.953125 -2.9375 C 1.628906 -3.320312 1.410156 -3.671875 1.296875 -3.984375 C 1.191406 -4.304688 1.140625 -4.601562 1.140625 -4.875 C 1.140625 -5.144531 1.171875 -5.398438 1.234375 -5.640625 C 1.296875 -5.878906 1.382812 -6.101562 1.5 -6.3125 C 1.625 -6.53125 1.765625 -6.726562 1.921875 -6.90625 C 2.085938 -7.09375 2.269531 -7.25 2.46875 -7.375 C 2.894531 -7.65625 3.3125 -7.796875 3.71875 -7.796875 C 4.125 -7.796875 4.441406 -7.738281 4.671875 -7.625 C 4.910156 -7.507812 5.097656 -7.367188 5.234375 -7.203125 C 5.492188 -6.867188 5.625 -6.472656 5.625 -6.015625 C 5.625 -5.578125 5.503906 -5.171875 5.265625 -4.796875 C 5.035156 -4.441406 4.785156 -4.21875 4.515625 -4.125 C 4.453125 -4.09375 4.367188 -4.078125 4.265625 -4.078125 C 4.160156 -4.078125 4.070312 -4.09375 4 -4.125 C 3.925781 -4.164062 3.863281 -4.210938 3.8125 -4.265625 C 3.695312 -4.378906 3.640625 -4.503906 3.640625 -4.640625 C 3.640625 -4.734375 3.664062 -4.796875 3.71875 -4.828125 C 3.96875 -4.960938 4.1875 -5.160156 4.375 -5.421875 C 4.582031 -5.703125 4.691406 -5.984375 4.703125 -6.265625 C 4.710938 -6.554688 4.644531 -6.769531 4.5 -6.90625 C 4.351562 -7.039062 4.160156 -7.109375 3.921875 -7.109375 C 3.679688 -7.109375 3.460938 -7.050781 3.265625 -6.9375 C 3.078125 -6.832031 2.910156 -6.6875 2.765625 -6.5 C 2.460938 -6.101562 2.3125 -5.640625 2.3125 -5.109375 C 2.3125 -4.742188 2.4375 -4.363281 2.6875 -3.96875 C 2.789062 -3.800781 2.898438 -3.632812 3.015625 -3.46875 C 3.140625 -3.300781 3.257812 -3.128906 3.375 -2.953125 C 3.613281 -2.546875 3.734375 -2.179688 3.734375 -1.859375 C 3.734375 -1.546875 3.675781 -1.28125 3.5625 -1.0625 C 3.445312 -0.84375 3.296875 -0.648438 3.109375 -0.484375 C 2.691406 -0.128906 2.222656 0.046875 1.703125 0.046875 C 1.203125 0.046875 0.820312 -0.0976562 0.5625 -0.390625 C 0.34375 -0.628906 0.234375 -0.882812 0.234375 -1.15625 C 0.234375 -1.457031 0.316406 -1.710938 0.484375 -1.921875 C 0.617188 -2.078125 0.742188 -2.171875 0.859375 -2.203125 C 1.128906 -2.273438 1.265625 -2.191406 1.265625 -1.953125 Z M 1.265625 -1.953125 "/></g></g></g><g fill="#a6a6a6" fill-opacity="1"><g transform="translate(6.645079, 22.560702)"><g><path d="M 3.75 -1.140625 C 3.75 -1.585938 3.875 -2.28125 4.125 -3.21875 C 3.320312 -3.195312 2.707031 -3.171875 2.28125 -3.140625 C 2.144531 -2.898438 2.023438 -2.675781 1.921875 -2.46875 L 1.609375 -1.84375 C 1.203125 -1.039062 0.832031 -0.507812 0.5 -0.25 C 0.25 -0.0507812 -0.015625 0.046875 -0.296875 0.046875 C -0.503906 0.046875 -0.664062 -0.0195312 -0.78125 -0.15625 C -0.820312 -0.21875 -0.84375 -0.273438 -0.84375 -0.328125 C -0.851562 -0.378906 -0.84375 -0.410156 -0.8125 -0.421875 C -0.425781 -0.566406 -0.113281 -0.785156 0.125 -1.078125 C 0.332031 -1.347656 0.539062 -1.671875 0.75 -2.046875 L 1.328125 -3.0625 L 1.015625 -3.015625 C 0.804688 -2.984375 0.703125 -3.015625 0.703125 -3.109375 C 0.703125 -3.210938 0.765625 -3.3125 0.890625 -3.40625 C 1.097656 -3.5625 1.300781 -3.660156 1.5 -3.703125 L 1.71875 -3.765625 C 2.269531 -4.671875 2.6875 -5.300781 2.96875 -5.65625 C 3.257812 -6.019531 3.523438 -6.320312 3.765625 -6.5625 C 4.003906 -6.800781 4.253906 -7.015625 4.515625 -7.203125 C 5.097656 -7.597656 5.671875 -7.796875 6.234375 -7.796875 C 6.398438 -7.796875 6.515625 -7.757812 6.578125 -7.6875 C 6.679688 -7.582031 6.710938 -7.460938 6.671875 -7.328125 C 6.628906 -7.203125 6.566406 -7.023438 6.484375 -6.796875 C 5.953125 -5.335938 5.628906 -4.4375 5.515625 -4.09375 C 5.566406 -4.09375 5.613281 -4.09375 5.65625 -4.09375 L 5.765625 -4.09375 C 6.140625 -4.09375 6.34375 -4.054688 6.375 -3.984375 C 6.375 -3.960938 6.375 -3.921875 6.375 -3.859375 C 6.375 -3.796875 6.351562 -3.722656 6.3125 -3.640625 C 6.28125 -3.566406 6.222656 -3.5 6.140625 -3.4375 C 5.960938 -3.320312 5.664062 -3.253906 5.25 -3.234375 C 5.019531 -2.441406 4.890625 -1.894531 4.859375 -1.59375 C 4.828125 -1.289062 4.835938 -1.085938 4.890625 -0.984375 C 4.941406 -0.878906 5.015625 -0.828125 5.109375 -0.828125 C 5.203125 -0.828125 5.273438 -0.835938 5.328125 -0.859375 C 5.390625 -0.878906 5.445312 -0.898438 5.5 -0.921875 L 5.625 -0.984375 C 5.664062 -1.003906 5.703125 -1.015625 5.734375 -1.015625 C 5.765625 -1.015625 5.789062 -0.988281 5.8125 -0.9375 C 5.84375 -0.894531 5.859375 -0.835938 5.859375 -0.765625 C 5.859375 -0.691406 5.828125 -0.601562 5.765625 -0.5 C 5.703125 -0.394531 5.617188 -0.304688 5.515625 -0.234375 C 5.285156 -0.046875 5.023438 0.046875 4.734375 0.046875 C 4.273438 0.046875 3.972656 -0.148438 3.828125 -0.546875 C 3.773438 -0.691406 3.75 -0.816406 3.75 -0.921875 Z M 2.75 -3.9375 C 3.34375 -4.007812 3.890625 -4.050781 4.390625 -4.0625 C 4.484375 -4.351562 4.585938 -4.640625 4.703125 -4.921875 L 5.015625 -5.71875 C 5.117188 -5.976562 5.222656 -6.222656 5.328125 -6.453125 L 5.609375 -7.0625 C 4.921875 -6.882812 4.234375 -6.285156 3.546875 -5.265625 C 3.410156 -5.046875 3.273438 -4.820312 3.140625 -4.59375 Z M 2.75 -3.9375 "/></g></g></g><g fill="#a6a6a6" fill-opacity="1"><g transform="translate(12.965586, 22.560702)"><g><path d="M 5.171875 -1.3125 C 5.171875 -0.988281 5.289062 -0.828125 5.53125 -0.828125 C 5.664062 -0.828125 5.789062 -0.859375 5.90625 -0.921875 C 6.019531 -0.984375 6.09375 -1.015625 6.125 -1.015625 C 6.195312 -1.015625 6.234375 -0.976562 6.234375 -0.90625 C 6.234375 -0.613281 6.078125 -0.363281 5.765625 -0.15625 C 5.546875 -0.0195312 5.335938 0.046875 5.140625 0.046875 C 4.953125 0.046875 4.796875 0.0234375 4.671875 -0.015625 C 4.554688 -0.0546875 4.457031 -0.128906 4.375 -0.234375 C 4.1875 -0.429688 4.09375 -0.726562 4.09375 -1.125 C 4.09375 -1.4375 4.148438 -1.800781 4.265625 -2.21875 C 4.390625 -2.632812 4.476562 -2.929688 4.53125 -3.109375 L 4.015625 -2.3125 C 2.929688 -0.738281 2.019531 0.046875 1.28125 0.046875 C 0.769531 0.046875 0.4375 -0.160156 0.28125 -0.578125 C 0.226562 -0.710938 0.203125 -0.832031 0.203125 -0.9375 L 0.203125 -1.140625 C 0.203125 -1.554688 0.4375 -2.328125 0.90625 -3.453125 L 1.953125 -5.875 C 2.148438 -6.351562 2.25 -6.648438 2.25 -6.765625 C 2.25 -6.878906 2.226562 -6.960938 2.1875 -7.015625 C 2.15625 -7.078125 2.113281 -7.125 2.0625 -7.15625 L 1.921875 -7.265625 C 1.878906 -7.285156 1.859375 -7.320312 1.859375 -7.375 C 1.859375 -7.425781 1.882812 -7.476562 1.9375 -7.53125 C 2 -7.59375 2.070312 -7.640625 2.15625 -7.671875 C 2.332031 -7.753906 2.503906 -7.796875 2.671875 -7.796875 C 2.835938 -7.796875 2.96875 -7.773438 3.0625 -7.734375 C 3.15625 -7.703125 3.226562 -7.660156 3.28125 -7.609375 C 3.40625 -7.492188 3.46875 -7.359375 3.46875 -7.203125 C 3.46875 -7.054688 3.4375 -6.875 3.375 -6.65625 C 3.3125 -6.445312 3.234375 -6.21875 3.140625 -5.96875 C 3.046875 -5.71875 2.9375 -5.457031 2.8125 -5.1875 L 2.0625 -3.515625 C 1.570312 -2.441406 1.328125 -1.734375 1.328125 -1.390625 L 1.328125 -1.3125 C 1.328125 -1 1.445312 -0.84375 1.6875 -0.84375 C 2.125 -0.84375 2.695312 -1.394531 3.40625 -2.5 C 3.613281 -2.832031 3.828125 -3.175781 4.046875 -3.53125 L 4.65625 -4.65625 C 5.53125 -6.351562 6.035156 -7.320312 6.171875 -7.5625 C 6.234375 -7.675781 6.328125 -7.734375 6.453125 -7.734375 C 6.578125 -7.734375 6.679688 -7.71875 6.765625 -7.6875 C 6.847656 -7.65625 6.921875 -7.609375 6.984375 -7.546875 C 7.117188 -7.410156 7.148438 -7.273438 7.078125 -7.140625 C 6.765625 -6.535156 6.378906 -5.570312 5.921875 -4.25 C 5.421875 -2.78125 5.171875 -1.800781 5.171875 -1.3125 Z M 5.171875 -1.3125 "/></g></g></g><g fill="#a6a6a6" fill-opacity="1"><g transform="translate(19.376313, 22.560702)"><g><path d="M 0.5 -1.1875 C 0.53125 -1.40625 0.59375 -1.703125 0.6875 -2.078125 C 0.78125 -2.460938 0.90625 -2.875 1.0625 -3.3125 C 1.414062 -4.300781 1.832031 -5.1875 2.3125 -5.96875 C 2.375 -6.070312 2.457031 -6.132812 2.5625 -6.15625 C 2.71875 -6.175781 2.847656 -6.1875 2.953125 -6.1875 C 3.066406 -6.1875 3.164062 -6.171875 3.25 -6.140625 C 3.34375 -6.117188 3.414062 -6.085938 3.46875 -6.046875 C 3.5625 -5.960938 3.578125 -5.875 3.515625 -5.78125 C 2.910156 -4.875 2.382812 -3.765625 1.9375 -2.453125 C 1.757812 -1.941406 1.65625 -1.585938 1.625 -1.390625 C 1.59375 -1.203125 1.566406 -1.070312 1.546875 -1 C 1.535156 -0.925781 1.53125 -0.863281 1.53125 -0.8125 C 1.53125 -0.695312 1.597656 -0.640625 1.734375 -0.640625 C 1.878906 -0.640625 2.035156 -0.671875 2.203125 -0.734375 C 2.378906 -0.804688 2.566406 -0.898438 2.765625 -1.015625 C 2.972656 -1.140625 3.179688 -1.285156 3.390625 -1.453125 C 3.609375 -1.617188 3.820312 -1.804688 4.03125 -2.015625 C 4.238281 -2.234375 4.429688 -2.46875 4.609375 -2.71875 C 4.796875 -2.96875 4.957031 -3.226562 5.09375 -3.5 C 5.40625 -4.101562 5.5625 -4.695312 5.5625 -5.28125 C 5.5625 -6.082031 5.234375 -6.613281 4.578125 -6.875 C 4.347656 -6.96875 4.109375 -7.015625 3.859375 -7.015625 C 3.617188 -7.015625 3.410156 -7 3.234375 -6.96875 C 3.066406 -6.9375 2.90625 -6.890625 2.75 -6.828125 C 2.4375 -6.710938 2.171875 -6.5625 1.953125 -6.375 C 1.898438 -6.34375 1.832031 -6.328125 1.75 -6.328125 C 1.664062 -6.328125 1.578125 -6.347656 1.484375 -6.390625 C 1.390625 -6.441406 1.304688 -6.503906 1.234375 -6.578125 C 1.066406 -6.734375 1.003906 -6.890625 1.046875 -7.046875 C 1.078125 -7.253906 1.394531 -7.4375 2 -7.59375 C 2.507812 -7.726562 3.019531 -7.796875 3.53125 -7.796875 C 4.050781 -7.796875 4.515625 -7.722656 4.921875 -7.578125 C 5.335938 -7.441406 5.675781 -7.253906 5.9375 -7.015625 C 6.414062 -6.566406 6.65625 -5.96875 6.65625 -5.21875 C 6.65625 -4.21875 6.3125 -3.253906 5.625 -2.328125 C 4.988281 -1.472656 4.234375 -0.820312 3.359375 -0.375 C 2.796875 -0.09375 2.28125 0.046875 1.8125 0.046875 C 1.4375 0.046875 1.113281 -0.0625 0.84375 -0.28125 C 0.5625 -0.507812 0.445312 -0.8125 0.5 -1.1875 Z M 0.5 -1.1875 "/></g></g></g><g fill="#a6a6a6" fill-opacity="1"><g transform="translate(25.847188, 22.560702)"><g><path d="M -0.046875 -0.46875 C 0.535156 -0.882812 1.117188 -1.972656 1.703125 -3.734375 C 2.046875 -4.765625 2.285156 -5.691406 2.421875 -6.515625 C 2.453125 -6.742188 2.46875 -6.921875 2.46875 -7.046875 C 2.332031 -7.035156 2.207031 -7 2.09375 -6.9375 L 1.71875 -6.71875 C 1.613281 -6.664062 1.472656 -6.710938 1.296875 -6.859375 C 1.128906 -7.003906 1.050781 -7.128906 1.0625 -7.234375 C 1.082031 -7.335938 1.140625 -7.421875 1.234375 -7.484375 C 1.335938 -7.546875 1.453125 -7.601562 1.578125 -7.65625 C 1.859375 -7.75 2.085938 -7.796875 2.265625 -7.796875 C 2.453125 -7.796875 2.617188 -7.78125 2.765625 -7.75 C 2.910156 -7.71875 3.039062 -7.671875 3.15625 -7.609375 C 3.414062 -7.453125 3.550781 -7.234375 3.5625 -6.953125 C 3.570312 -6.453125 3.40625 -5.601562 3.0625 -4.40625 C 2.5 -2.519531 1.847656 -1.195312 1.109375 -0.4375 C 0.898438 -0.21875 0.6875 -0.0703125 0.46875 0 C 0.40625 0.0195312 0.34375 0.03125 0.28125 0.03125 C 0.21875 0.03125 0.160156 0.0195312 0.109375 0 C 0.0664062 -0.0195312 0.0234375 -0.046875 -0.015625 -0.078125 C -0.078125 -0.140625 -0.109375 -0.207031 -0.109375 -0.28125 C -0.109375 -0.363281 -0.0859375 -0.425781 -0.046875 -0.46875 Z M -0.046875 -0.46875 "/></g></g></g><g clip-path="url(#174c3cdde5)"><path fill="#a6a6a6" d="M 9.304688 1.078125 C 9.742188 2.191406 10.773438 4.597656 11.914062 5.738281 C 12.5 6.324219 13.253906 6.921875 14.015625 7.410156 C 14.015625 7.410156 12.457031 5.679688 10.867188 2.640625 C 13.902344 4.230469 15.632812 5.789062 15.632812 5.789062 C 15.148438 5.027344 14.550781 4.273438 13.964844 3.6875 C 12.824219 2.546875 10.417969 1.515625 9.304688 1.078125 Z M 13.082031 9.496094 C 13.023438 8.976562 13.042969 8.355469 13.363281 7.90625 C 12.832031 7.550781 12.3125 7.148438 11.851562 6.738281 C 11.902344 7.472656 12.179688 8.464844 13.082031 9.496094 Z M 17.722656 4.855469 C 16.691406 3.957031 15.699219 3.679688 14.964844 3.625 C 15.375 4.085938 15.777344 4.609375 16.132812 5.136719 C 16.578125 4.820312 17.199219 4.796875 17.722656 4.855469 Z M 8.90625 0.316406 C 9.058594 0.367188 12.453125 1.574219 14.148438 3.074219 L 14.28125 3.058594 C 15.21875 2.96875 17.058594 3.125 18.828125 5.15625 L 19.539062 5.976562 L 18.515625 5.617188 C 18.054688 5.453125 16.753906 5.164062 16.308594 5.753906 L 16.296875 5.769531 L 16.359375 5.871094 L 14.097656 8.136719 L 13.992188 8.070312 L 13.980469 8.082031 C 13.390625 8.527344 13.679688 9.828125 13.84375 10.289062 L 14.199219 11.3125 L 13.382812 10.601562 C 11.347656 8.832031 11.195312 6.996094 11.285156 6.054688 L 11.296875 5.921875 C 9.796875 4.226562 8.59375 0.832031 8.539062 0.679688 L 8.34375 0.117188 Z M 22.660156 14.433594 L 15.242188 8.390625 L 16.613281 7.019531 Z M 16.460938 6.671875 L 14.894531 8.234375 C 14.75 8.164062 14.597656 8.085938 14.445312 8 L 16.226562 6.21875 C 16.3125 6.371094 16.390625 6.523438 16.460938 6.671875 " fill-opacity="1" fill-rule="nonzero"/></g><g fill="#a6a6a6" fill-opacity="1"><g transform="translate(1.778138, 26.943831)"><g><path d="M 2.65625 -4.09375 L 2.65625 -3.265625 L 1.234375 -3.265625 L 1.234375 -2.453125 L 2.546875 -2.453125 L 2.546875 -1.640625 L 1.234375 -1.640625 L 1.234375 0 L 0.296875 0 L 0.296875 -4.09375 Z M 2.65625 -4.09375 "/></g></g></g><g fill="#a6a6a6" fill-opacity="1"><g transform="translate(4.2562, 26.943831)"><g><path d="M 0.109375 -2.046875 C 0.109375 -2.640625 0.3125 -3.140625 0.71875 -3.546875 C 1.125 -3.953125 1.609375 -4.15625 2.171875 -4.15625 C 2.742188 -4.15625 3.226562 -3.953125 3.625 -3.546875 C 4.03125 -3.140625 4.234375 -2.640625 4.234375 -2.046875 C 4.234375 -1.453125 4.035156 -0.945312 3.640625 -0.53125 C 3.242188 -0.125 2.753906 0.078125 2.171875 0.078125 C 1.578125 0.078125 1.082031 -0.125 0.6875 -0.53125 C 0.300781 -0.9375 0.109375 -1.441406 0.109375 -2.046875 Z M 1.125 -2.046875 C 1.125 -1.828125 1.15625 -1.628906 1.21875 -1.453125 C 1.28125 -1.273438 1.394531 -1.125 1.5625 -1 C 1.726562 -0.882812 1.929688 -0.828125 2.171875 -0.828125 C 2.515625 -0.828125 2.773438 -0.945312 2.953125 -1.1875 C 3.128906 -1.425781 3.21875 -1.710938 3.21875 -2.046875 C 3.21875 -2.378906 3.128906 -2.664062 2.953125 -2.90625 C 2.773438 -3.144531 2.515625 -3.265625 2.171875 -3.265625 C 1.835938 -3.265625 1.578125 -3.144531 1.390625 -2.90625 C 1.210938 -2.664062 1.125 -2.378906 1.125 -2.046875 Z M 1.125 -2.046875 "/></g></g></g><g fill="#a6a6a6" fill-opacity="1"><g transform="translate(8.267749, 26.943831)"><g><path d="M 3.4375 -4.09375 L 3.4375 -1.453125 C 3.4375 -0.953125 3.300781 -0.570312 3.03125 -0.3125 C 2.757812 -0.0507812 2.363281 0.078125 1.84375 0.078125 C 1.320312 0.078125 0.925781 -0.0507812 0.65625 -0.3125 C 0.382812 -0.570312 0.25 -0.953125 0.25 -1.453125 L 0.25 -4.09375 L 1.171875 -4.09375 L 1.171875 -1.71875 C 1.171875 -1.394531 1.222656 -1.164062 1.328125 -1.03125 C 1.429688 -0.90625 1.597656 -0.84375 1.828125 -0.84375 C 2.066406 -0.84375 2.238281 -0.90625 2.34375 -1.03125 C 2.445312 -1.164062 2.5 -1.394531 2.5 -1.71875 L 2.5 -4.09375 Z M 3.4375 -4.09375 "/></g></g></g><g fill="#a6a6a6" fill-opacity="1"><g transform="translate(11.621381, 26.943831)"><g><path d="M 1.234375 -2.53125 L 1.234375 0 L 0.296875 0 L 0.296875 -4.09375 L 1.234375 -4.09375 L 2.859375 -1.546875 L 2.859375 -4.09375 L 3.796875 -4.09375 L 3.796875 0 L 2.859375 0 Z M 1.234375 -2.53125 "/></g></g></g><g fill="#a6a6a6" fill-opacity="1"><g transform="translate(15.380647, 26.943831)"><g><path d="M 0.296875 -4.09375 L 1.484375 -4.09375 C 2.046875 -4.09375 2.53125 -3.894531 2.9375 -3.5 C 3.34375 -3.113281 3.546875 -2.628906 3.546875 -2.046875 C 3.546875 -1.453125 3.34375 -0.960938 2.9375 -0.578125 C 2.539062 -0.191406 2.054688 0 1.484375 0 L 0.296875 0 Z M 1.234375 -0.828125 L 1.375 -0.828125 C 1.707031 -0.828125 1.984375 -0.941406 2.203125 -1.171875 C 2.421875 -1.398438 2.53125 -1.691406 2.53125 -2.046875 C 2.53125 -2.390625 2.421875 -2.675781 2.203125 -2.90625 C 1.992188 -3.132812 1.71875 -3.25 1.375 -3.25 L 1.234375 -3.25 Z M 1.234375 -0.828125 "/></g></g></g><g fill="#a6a6a6" fill-opacity="1"><g transform="translate(18.704598, 26.943831)"><g><path d="M 2.640625 -4.09375 L 2.640625 -3.265625 L 1.234375 -3.265625 L 1.234375 -2.453125 L 2.578125 -2.453125 L 2.578125 -1.640625 L 1.234375 -1.640625 L 1.234375 -0.8125 L 2.640625 -0.8125 L 2.640625 0 L 0.296875 0 L 0.296875 -4.09375 Z M 2.640625 -4.09375 "/></g></g></g><g fill="#a6a6a6" fill-opacity="1"><g transform="translate(21.246966, 26.943831)"><g><path d="M 0.296875 -4.09375 L 1.765625 -4.09375 C 2.148438 -4.09375 2.46875 -3.984375 2.71875 -3.765625 C 2.96875 -3.554688 3.09375 -3.257812 3.09375 -2.875 C 3.09375 -2.570312 3.015625 -2.316406 2.859375 -2.109375 C 2.710938 -1.910156 2.507812 -1.769531 2.25 -1.6875 L 3.65625 0 L 2.484375 0 L 1.234375 -1.609375 L 1.234375 0 L 0.296875 0 Z M 1.234375 -2.28125 L 1.34375 -2.28125 C 1.425781 -2.28125 1.492188 -2.28125 1.546875 -2.28125 C 1.609375 -2.28125 1.675781 -2.289062 1.75 -2.3125 C 1.832031 -2.332031 1.894531 -2.359375 1.9375 -2.390625 C 1.988281 -2.429688 2.03125 -2.484375 2.0625 -2.546875 C 2.09375 -2.617188 2.109375 -2.703125 2.109375 -2.796875 C 2.109375 -2.898438 2.09375 -2.988281 2.0625 -3.0625 C 2.03125 -3.132812 1.988281 -3.1875 1.9375 -3.21875 C 1.894531 -3.257812 1.832031 -3.285156 1.75 -3.296875 C 1.675781 -3.316406 1.609375 -3.328125 1.546875 -3.328125 C 1.492188 -3.335938 1.425781 -3.34375 1.34375 -3.34375 L 1.234375 -3.34375 Z M 1.234375 -2.28125 "/></g></g></g><g fill="#a6a6a6" fill-opacity="1"><g transform="translate(24.462091, 26.943831)"><g><path d="M 1.796875 -4.15625 C 2.023438 -4.15625 2.242188 -4.125 2.453125 -4.0625 C 2.660156 -4 2.816406 -3.9375 2.921875 -3.875 L 3.078125 -3.78125 L 2.6875 -3.03125 C 2.664062 -3.050781 2.625 -3.078125 2.5625 -3.109375 C 2.507812 -3.140625 2.410156 -3.179688 2.265625 -3.234375 C 2.128906 -3.285156 2 -3.3125 1.875 -3.3125 C 1.71875 -3.3125 1.59375 -3.273438 1.5 -3.203125 C 1.414062 -3.140625 1.375 -3.054688 1.375 -2.953125 C 1.375 -2.890625 1.394531 -2.832031 1.4375 -2.78125 C 1.476562 -2.738281 1.546875 -2.691406 1.640625 -2.640625 C 1.734375 -2.585938 1.816406 -2.539062 1.890625 -2.5 C 1.960938 -2.46875 2.078125 -2.421875 2.234375 -2.359375 C 2.492188 -2.242188 2.71875 -2.085938 2.90625 -1.890625 C 3.09375 -1.703125 3.1875 -1.488281 3.1875 -1.25 C 3.1875 -1.007812 3.144531 -0.800781 3.0625 -0.625 C 2.976562 -0.445312 2.863281 -0.304688 2.71875 -0.203125 C 2.570312 -0.109375 2.410156 -0.0390625 2.234375 0 C 2.054688 0.0507812 1.863281 0.078125 1.65625 0.078125 C 1.46875 0.078125 1.285156 0.0546875 1.109375 0.015625 C 0.941406 -0.015625 0.800781 -0.0546875 0.6875 -0.109375 C 0.570312 -0.171875 0.46875 -0.226562 0.375 -0.28125 C 0.289062 -0.332031 0.222656 -0.375 0.171875 -0.40625 L 0.109375 -0.46875 L 0.578125 -1.25 C 0.617188 -1.21875 0.671875 -1.175781 0.734375 -1.125 C 0.804688 -1.070312 0.929688 -1 1.109375 -0.90625 C 1.285156 -0.820312 1.441406 -0.78125 1.578125 -0.78125 C 1.972656 -0.78125 2.171875 -0.914062 2.171875 -1.1875 C 2.171875 -1.238281 2.15625 -1.289062 2.125 -1.34375 C 2.09375 -1.394531 2.039062 -1.441406 1.96875 -1.484375 C 1.90625 -1.535156 1.84375 -1.570312 1.78125 -1.59375 C 1.726562 -1.625 1.640625 -1.664062 1.515625 -1.71875 C 1.398438 -1.78125 1.3125 -1.828125 1.25 -1.859375 C 1 -1.984375 0.804688 -2.132812 0.671875 -2.3125 C 0.535156 -2.5 0.46875 -2.695312 0.46875 -2.90625 C 0.46875 -3.28125 0.601562 -3.582031 0.875 -3.8125 C 1.144531 -4.039062 1.453125 -4.15625 1.796875 -4.15625 Z M 1.796875 -4.15625 "/></g></g></g></svg>