<svg xmlns="http://www.w3.org/2000/svg" xmlns:xlink="http://www.w3.org/1999/xlink" width="42" zoomAndPan="magnify" viewBox="0 0 31.5 30.75" height="41" preserveAspectRatio="xMidYMid meet" version="1.0"><defs><g/><clipPath id="130c94d9da"><path d="M 10 4 L 21 4 L 21 13 L 10 13 Z M 10 4 " clip-rule="nonzero"/></clipPath><clipPath id="ad2ca56ea5"><path d="M 10.265625 12.453125 L 11.765625 2.972656 L 20.515625 4.355469 L 19.015625 13.835938 Z M 10.265625 12.453125 " clip-rule="nonzero"/></clipPath><clipPath id="9897514860"><path d="M 10.265625 12.453125 L 11.765625 2.972656 L 20.515625 4.355469 L 19.015625 13.835938 Z M 10.265625 12.453125 " clip-rule="nonzero"/></clipPath></defs><g clip-path="url(#130c94d9da)"><g clip-path="url(#ad2ca56ea5)"><g clip-path="url(#9897514860)"><path fill="#a6a6a6" d="M 10.777344 9.265625 C 10.785156 9.203125 10.835938 9.105469 10.890625 9.054688 C 10.960938 8.984375 11.015625 8.96875 11.121094 8.984375 C 11.195312 8.996094 11.476562 9.109375 11.75 9.242188 C 12.027344 9.371094 12.265625 9.480469 12.289062 9.484375 C 12.308594 9.488281 12.394531 9.382812 12.472656 9.246094 C 12.554688 9.113281 12.773438 8.8125 12.960938 8.582031 C 13.144531 8.347656 13.410156 8.042969 13.550781 7.902344 C 13.6875 7.761719 13.964844 7.5 14.164062 7.324219 C 14.367188 7.152344 14.738281 6.863281 14.992188 6.6875 C 15.246094 6.515625 15.6875 6.234375 15.976562 6.070312 C 16.265625 5.90625 16.730469 5.667969 17.011719 5.535156 C 17.292969 5.402344 17.714844 5.222656 17.949219 5.128906 C 18.179688 5.039062 18.613281 4.894531 18.910156 4.804688 C 19.207031 4.714844 19.644531 4.609375 19.878906 4.570312 C 20.113281 4.53125 20.351562 4.503906 20.410156 4.511719 C 20.46875 4.523438 20.558594 4.574219 20.605469 4.632812 C 20.664062 4.703125 20.6875 4.777344 20.679688 4.859375 C 20.667969 4.9375 20.628906 5.011719 20.574219 5.050781 C 20.523438 5.089844 20.355469 5.132812 20.203125 5.148438 C 20.046875 5.167969 19.761719 5.222656 19.570312 5.269531 C 19.375 5.320312 18.953125 5.445312 18.632812 5.554688 C 18.3125 5.660156 17.847656 5.839844 17.601562 5.949219 C 17.355469 6.058594 16.976562 6.238281 16.765625 6.351562 C 16.550781 6.460938 16.167969 6.679688 15.914062 6.835938 C 15.660156 6.992188 15.292969 7.238281 15.097656 7.378906 C 14.90625 7.519531 14.59375 7.773438 14.410156 7.941406 C 14.226562 8.105469 13.945312 8.390625 13.78125 8.574219 C 13.621094 8.753906 13.375 9.054688 13.238281 9.238281 C 13.101562 9.425781 12.964844 9.621094 12.875 9.777344 L 13.179688 9.921875 C 13.347656 10 13.582031 10.113281 13.703125 10.171875 C 13.824219 10.226562 13.949219 10.308594 13.980469 10.355469 C 14.015625 10.402344 14.027344 10.496094 14.015625 10.582031 C 13.992188 10.71875 13.933594 10.769531 12.683594 11.675781 C 11.507812 12.53125 11.363281 12.625 11.25 12.609375 C 11.164062 12.59375 11.089844 12.546875 11.023438 12.464844 C 10.933594 12.347656 10.921875 12.265625 10.847656 10.863281 C 10.800781 10.046875 10.769531 9.332031 10.777344 9.265625 Z M 10.777344 9.265625 " fill-opacity="1" fill-rule="nonzero"/></g></g></g><g fill="#a6a6a6" fill-opacity="1"><g transform="translate(2.451478, 24.283664)"><g><path d="M 1.96875 -0.09375 C 1.945312 -0.351562 1.929688 -0.609375 1.921875 -0.859375 C 1.910156 -1.109375 1.894531 -1.347656 1.875 -1.578125 L 1.71875 -4.1875 C 1.707031 -4.375 1.695312 -4.546875 1.6875 -4.703125 C 1.675781 -4.867188 1.664062 -5.03125 1.65625 -5.1875 C 1.644531 -5.34375 1.632812 -5.5 1.625 -5.65625 C 1.613281 -5.820312 1.597656 -5.992188 1.578125 -6.171875 C 1.453125 -6.160156 1.320312 -6.144531 1.1875 -6.125 C 1.0625 -6.113281 0.925781 -6.097656 0.78125 -6.078125 L -0.265625 -5.9375 C -0.296875 -5.925781 -0.316406 -5.9375 -0.328125 -5.96875 C -0.347656 -6 -0.359375 -6.023438 -0.359375 -6.046875 L -0.359375 -6.09375 L 0 -7.734375 L 0 -7.75 C 0 -7.769531 0.00390625 -7.785156 0.015625 -7.796875 C 0.0351562 -7.816406 0.09375 -7.835938 0.1875 -7.859375 C 0.6875 -7.960938 1.164062 -8.054688 1.625 -8.140625 C 2.09375 -8.234375 2.550781 -8.320312 3 -8.40625 C 3.457031 -8.488281 3.910156 -8.570312 4.359375 -8.65625 C 4.816406 -8.75 5.289062 -8.835938 5.78125 -8.921875 C 5.820312 -8.921875 5.863281 -8.914062 5.90625 -8.90625 C 5.957031 -8.90625 5.988281 -8.875 6 -8.8125 C 6 -8.800781 6 -8.789062 6 -8.78125 C 6 -8.769531 6 -8.765625 6 -8.765625 C 5.957031 -8.609375 5.921875 -8.460938 5.890625 -8.328125 C 5.859375 -8.191406 5.828125 -8.050781 5.796875 -7.90625 C 5.765625 -7.769531 5.734375 -7.628906 5.703125 -7.484375 C 5.679688 -7.347656 5.648438 -7.203125 5.609375 -7.046875 C 5.609375 -7.046875 5.601562 -7.03125 5.59375 -7 C 5.582031 -6.96875 5.570312 -6.925781 5.5625 -6.875 C 5.550781 -6.832031 5.523438 -6.789062 5.484375 -6.75 C 5.453125 -6.71875 5.40625 -6.695312 5.34375 -6.6875 C 5.332031 -6.6875 5.316406 -6.6875 5.296875 -6.6875 C 5.273438 -6.6875 5.253906 -6.679688 5.234375 -6.671875 L 3.796875 -6.484375 C 3.804688 -6.296875 3.816406 -6.097656 3.828125 -5.890625 C 3.835938 -5.679688 3.847656 -5.476562 3.859375 -5.28125 L 4.046875 -1 C 4.054688 -0.96875 4.054688 -0.9375 4.046875 -0.90625 C 4.035156 -0.875 4.015625 -0.84375 3.984375 -0.8125 L 2.53125 -0.046875 C 2.488281 -0.0234375 2.4375 -0.00390625 2.375 0.015625 C 2.3125 0.046875 2.25 0.0664062 2.1875 0.078125 C 2.132812 0.0859375 2.085938 0.0820312 2.046875 0.0625 C 2.003906 0.0390625 1.976562 0 1.96875 -0.0625 Z M 1.96875 -0.09375 "/></g></g></g><g fill="#a6a6a6" fill-opacity="1"><g transform="translate(8.57255, 23.439983)"><g><path d="M 3.0625 -6.578125 C 3.394531 -6.628906 3.707031 -6.609375 4 -6.515625 C 4.300781 -6.429688 4.5625 -6.296875 4.78125 -6.109375 C 5.007812 -5.929688 5.195312 -5.722656 5.34375 -5.484375 C 5.488281 -5.242188 5.578125 -5.003906 5.609375 -4.765625 C 5.640625 -4.535156 5.601562 -4.296875 5.5 -4.046875 C 5.394531 -3.804688 5.226562 -3.578125 5 -3.359375 C 4.78125 -3.148438 4.503906 -2.96875 4.171875 -2.8125 C 3.847656 -2.65625 3.476562 -2.546875 3.0625 -2.484375 C 2.84375 -2.460938 2.613281 -2.453125 2.375 -2.453125 C 2.40625 -2.304688 2.46875 -2.179688 2.5625 -2.078125 C 2.65625 -1.972656 2.765625 -1.890625 2.890625 -1.828125 C 3.015625 -1.773438 3.148438 -1.738281 3.296875 -1.71875 C 3.453125 -1.707031 3.609375 -1.710938 3.765625 -1.734375 C 3.929688 -1.753906 4.09375 -1.789062 4.25 -1.84375 C 4.414062 -1.894531 4.566406 -1.957031 4.703125 -2.03125 C 4.835938 -2.101562 4.972656 -2.179688 5.109375 -2.265625 C 5.242188 -2.347656 5.367188 -2.425781 5.484375 -2.5 C 5.515625 -2.519531 5.539062 -2.53125 5.5625 -2.53125 C 5.582031 -2.539062 5.601562 -2.550781 5.625 -2.5625 C 5.625 -2.5625 5.625 -2.53125 5.625 -2.46875 C 5.625 -2.414062 5.628906 -2.332031 5.640625 -2.21875 C 5.660156 -2.113281 5.679688 -1.988281 5.703125 -1.84375 C 5.722656 -1.707031 5.742188 -1.546875 5.765625 -1.359375 C 5.773438 -1.335938 5.785156 -1.316406 5.796875 -1.296875 C 5.804688 -1.285156 5.8125 -1.273438 5.8125 -1.265625 C 5.820312 -1.222656 5.789062 -1.171875 5.71875 -1.109375 C 5.644531 -1.046875 5.546875 -0.972656 5.421875 -0.890625 C 5.296875 -0.816406 5.15625 -0.742188 5 -0.671875 C 4.84375 -0.597656 4.679688 -0.523438 4.515625 -0.453125 C 4.347656 -0.390625 4.1875 -0.335938 4.03125 -0.296875 C 3.882812 -0.253906 3.75 -0.226562 3.625 -0.21875 C 3.226562 -0.15625 2.835938 -0.164062 2.453125 -0.25 C 2.078125 -0.34375 1.726562 -0.492188 1.40625 -0.703125 C 1.082031 -0.910156 0.8125 -1.1875 0.59375 -1.53125 C 0.382812 -1.875 0.25 -2.269531 0.1875 -2.71875 C 0.113281 -3.195312 0.128906 -3.648438 0.234375 -4.078125 C 0.335938 -4.515625 0.515625 -4.90625 0.765625 -5.25 C 1.023438 -5.601562 1.347656 -5.894531 1.734375 -6.125 C 2.117188 -6.363281 2.5625 -6.515625 3.0625 -6.578125 Z M 3.171875 -5.140625 C 3.023438 -5.117188 2.894531 -5.0625 2.78125 -4.96875 C 2.664062 -4.882812 2.5625 -4.78125 2.46875 -4.65625 C 2.382812 -4.539062 2.3125 -4.394531 2.25 -4.21875 C 2.195312 -4.039062 2.164062 -3.84375 2.15625 -3.625 C 2.519531 -3.75 2.816406 -3.863281 3.046875 -3.96875 C 3.285156 -4.070312 3.472656 -4.171875 3.609375 -4.265625 C 3.742188 -4.359375 3.835938 -4.445312 3.890625 -4.53125 C 3.953125 -4.613281 3.976562 -4.6875 3.96875 -4.75 C 3.957031 -4.8125 3.921875 -4.867188 3.859375 -4.921875 C 3.804688 -4.984375 3.738281 -5.03125 3.65625 -5.0625 C 3.582031 -5.09375 3.5 -5.113281 3.40625 -5.125 C 3.320312 -5.144531 3.242188 -5.148438 3.171875 -5.140625 Z M 3.171875 -5.140625 "/></g></g></g><g fill="#a6a6a6" fill-opacity="1"><g transform="translate(14.601561, 22.608991)"><g><path d="M 0.1875 -2.71875 C 0.113281 -3.195312 0.132812 -3.648438 0.25 -4.078125 C 0.363281 -4.515625 0.554688 -4.910156 0.828125 -5.265625 C 1.097656 -5.617188 1.429688 -5.910156 1.828125 -6.140625 C 2.222656 -6.378906 2.671875 -6.53125 3.171875 -6.59375 C 3.503906 -6.644531 3.789062 -6.65625 4.03125 -6.625 C 4.28125 -6.601562 4.488281 -6.570312 4.65625 -6.53125 C 4.820312 -6.488281 4.9375 -6.441406 5 -6.390625 C 5.070312 -6.347656 5.109375 -6.328125 5.109375 -6.328125 C 5.117188 -6.304688 5.117188 -6.242188 5.109375 -6.140625 C 5.109375 -6.035156 5.109375 -5.914062 5.109375 -5.78125 C 5.117188 -5.644531 5.125 -5.503906 5.125 -5.359375 C 5.125 -5.222656 5.132812 -5.101562 5.15625 -5 C 5.15625 -4.988281 5.148438 -4.96875 5.140625 -4.9375 C 5.140625 -4.914062 5.113281 -4.90625 5.0625 -4.90625 C 5.019531 -4.894531 4.953125 -4.894531 4.859375 -4.90625 C 4.773438 -4.925781 4.671875 -4.945312 4.546875 -4.96875 C 4.421875 -4.988281 4.273438 -5 4.109375 -5 C 3.941406 -5.007812 3.765625 -5.003906 3.578125 -4.984375 C 3.347656 -4.953125 3.140625 -4.878906 2.953125 -4.765625 C 2.765625 -4.660156 2.613281 -4.523438 2.5 -4.359375 C 2.382812 -4.191406 2.300781 -4 2.25 -3.78125 C 2.207031 -3.5625 2.203125 -3.332031 2.234375 -3.09375 C 2.265625 -2.851562 2.332031 -2.648438 2.4375 -2.484375 C 2.550781 -2.316406 2.679688 -2.1875 2.828125 -2.09375 C 2.972656 -2 3.132812 -1.9375 3.3125 -1.90625 C 3.488281 -1.882812 3.671875 -1.890625 3.859375 -1.921875 C 4.066406 -1.953125 4.273438 -2.007812 4.484375 -2.09375 C 4.703125 -2.175781 4.898438 -2.289062 5.078125 -2.4375 C 5.085938 -2.4375 5.101562 -2.4375 5.125 -2.4375 C 5.144531 -2.445312 5.160156 -2.441406 5.171875 -2.421875 C 5.191406 -2.398438 5.203125 -2.367188 5.203125 -2.328125 C 5.222656 -2.203125 5.242188 -2.054688 5.265625 -1.890625 C 5.285156 -1.722656 5.300781 -1.566406 5.3125 -1.421875 C 5.332031 -1.273438 5.347656 -1.148438 5.359375 -1.046875 C 5.378906 -0.941406 5.382812 -0.890625 5.375 -0.890625 C 5.257812 -0.785156 5.125 -0.691406 4.96875 -0.609375 C 4.820312 -0.535156 4.671875 -0.472656 4.515625 -0.421875 C 4.359375 -0.367188 4.203125 -0.320312 4.046875 -0.28125 C 3.890625 -0.25 3.734375 -0.222656 3.578125 -0.203125 C 3.148438 -0.148438 2.742188 -0.164062 2.359375 -0.25 C 1.984375 -0.34375 1.640625 -0.5 1.328125 -0.71875 C 1.023438 -0.9375 0.773438 -1.210938 0.578125 -1.546875 C 0.378906 -1.890625 0.25 -2.28125 0.1875 -2.71875 Z M 0.1875 -2.71875 "/></g></g></g><g fill="#a6a6a6" fill-opacity="1"><g transform="translate(20.148609, 21.844429)"><g><path d="M 0.1875 -8.046875 C 0.175781 -8.066406 0.171875 -8.085938 0.171875 -8.109375 C 0.171875 -8.128906 0.171875 -8.144531 0.171875 -8.15625 C 0.160156 -8.195312 0.160156 -8.226562 0.171875 -8.25 C 0.191406 -8.28125 0.253906 -8.316406 0.359375 -8.359375 L 1.828125 -8.921875 C 1.867188 -8.941406 1.921875 -8.96875 1.984375 -9 C 2.046875 -9.039062 2.109375 -9.066406 2.171875 -9.078125 C 2.296875 -9.085938 2.367188 -9.03125 2.390625 -8.90625 C 2.390625 -8.90625 2.394531 -8.832031 2.40625 -8.6875 C 2.414062 -8.539062 2.421875 -8.363281 2.421875 -8.15625 C 2.429688 -7.945312 2.441406 -7.71875 2.453125 -7.46875 C 2.472656 -7.21875 2.488281 -6.972656 2.5 -6.734375 C 2.507812 -6.503906 2.515625 -6.304688 2.515625 -6.140625 C 2.515625 -5.984375 2.515625 -5.878906 2.515625 -5.828125 C 2.671875 -5.941406 2.835938 -6.050781 3.015625 -6.15625 C 3.191406 -6.269531 3.367188 -6.367188 3.546875 -6.453125 C 3.722656 -6.535156 3.898438 -6.609375 4.078125 -6.671875 C 4.265625 -6.734375 4.441406 -6.773438 4.609375 -6.796875 C 4.835938 -6.828125 5.046875 -6.820312 5.234375 -6.78125 C 5.429688 -6.738281 5.613281 -6.65625 5.78125 -6.53125 C 5.945312 -6.414062 6.082031 -6.242188 6.1875 -6.015625 C 6.300781 -5.785156 6.382812 -5.5 6.4375 -5.15625 C 6.445312 -5.082031 6.457031 -5 6.46875 -4.90625 C 6.488281 -4.8125 6.5 -4.710938 6.5 -4.609375 L 6.5625 -2.359375 C 6.5625 -2.191406 6.570312 -2.03125 6.59375 -1.875 C 6.613281 -1.71875 6.632812 -1.550781 6.65625 -1.375 C 6.65625 -1.34375 6.65625 -1.316406 6.65625 -1.296875 C 6.664062 -1.273438 6.671875 -1.257812 6.671875 -1.25 C 6.679688 -1.21875 6.671875 -1.191406 6.640625 -1.171875 C 6.617188 -1.148438 6.5625 -1.113281 6.46875 -1.0625 L 5.203125 -0.515625 C 5.160156 -0.492188 5.109375 -0.46875 5.046875 -0.4375 C 4.984375 -0.40625 4.921875 -0.390625 4.859375 -0.390625 C 4.796875 -0.378906 4.75 -0.382812 4.71875 -0.40625 C 4.6875 -0.425781 4.664062 -0.476562 4.65625 -0.5625 C 4.632812 -0.832031 4.617188 -1.050781 4.609375 -1.21875 C 4.609375 -1.394531 4.601562 -1.53125 4.59375 -1.625 C 4.59375 -1.71875 4.59375 -1.789062 4.59375 -1.84375 C 4.59375 -1.90625 4.59375 -1.957031 4.59375 -2 C 4.59375 -2.039062 4.59375 -2.085938 4.59375 -2.140625 C 4.59375 -2.191406 4.585938 -2.269531 4.578125 -2.375 C 4.578125 -2.476562 4.570312 -2.613281 4.5625 -2.78125 C 4.550781 -2.957031 4.546875 -3.175781 4.546875 -3.4375 C 4.535156 -3.59375 4.523438 -3.742188 4.515625 -3.890625 C 4.515625 -4.035156 4.503906 -4.164062 4.484375 -4.28125 C 4.460938 -4.4375 4.4375 -4.570312 4.40625 -4.6875 C 4.375 -4.8125 4.332031 -4.910156 4.28125 -4.984375 C 4.226562 -5.066406 4.160156 -5.128906 4.078125 -5.171875 C 3.992188 -5.222656 3.894531 -5.238281 3.78125 -5.21875 C 3.695312 -5.207031 3.585938 -5.171875 3.453125 -5.109375 C 3.328125 -5.054688 3.195312 -4.976562 3.0625 -4.875 C 2.925781 -4.769531 2.8125 -4.644531 2.71875 -4.5 C 2.632812 -4.363281 2.597656 -4.1875 2.609375 -3.96875 C 2.609375 -3.6875 2.613281 -3.453125 2.625 -3.265625 C 2.632812 -3.085938 2.640625 -2.941406 2.640625 -2.828125 C 2.648438 -2.722656 2.65625 -2.632812 2.65625 -2.5625 C 2.664062 -2.488281 2.675781 -2.425781 2.6875 -2.375 C 2.675781 -2.351562 2.671875 -2.304688 2.671875 -2.234375 C 2.679688 -2.160156 2.6875 -2.070312 2.6875 -1.96875 C 2.6875 -1.875 2.6875 -1.769531 2.6875 -1.65625 C 2.695312 -1.539062 2.703125 -1.4375 2.703125 -1.34375 C 2.710938 -1.25 2.71875 -1.164062 2.71875 -1.09375 C 2.726562 -1.03125 2.734375 -0.988281 2.734375 -0.96875 C 2.734375 -0.9375 2.734375 -0.910156 2.734375 -0.890625 C 2.742188 -0.867188 2.75 -0.847656 2.75 -0.828125 C 2.75 -0.804688 2.738281 -0.78125 2.71875 -0.75 C 2.695312 -0.726562 2.640625 -0.695312 2.546875 -0.65625 L 1.21875 0.03125 C 1.175781 0.0507812 1.117188 0.078125 1.046875 0.109375 C 0.984375 0.140625 0.921875 0.160156 0.859375 0.171875 C 0.816406 0.171875 0.773438 0.15625 0.734375 0.125 C 0.703125 0.101562 0.679688 0.0546875 0.671875 -0.015625 Z M 0.1875 -8.046875 "/></g></g></g><g fill="#a6a6a6" fill-opacity="1"><g transform="translate(7.302647, 28.42161)"><g><path d="M 1.25 -0.125 C 0.894531 -0.0703125 0.613281 -0.113281 0.40625 -0.25 C 0.207031 -0.382812 0.09375 -0.585938 0.0625 -0.859375 C 0.03125 -1.023438 0.046875 -1.175781 0.109375 -1.3125 C 0.179688 -1.457031 0.300781 -1.578125 0.46875 -1.671875 C 0.632812 -1.773438 0.867188 -1.847656 1.171875 -1.890625 C 1.328125 -1.910156 1.476562 -1.90625 1.625 -1.875 C 1.78125 -1.851562 1.914062 -1.8125 2.03125 -1.75 C 2.03125 -1.789062 2.023438 -1.828125 2.015625 -1.859375 C 2.015625 -1.898438 2.007812 -1.9375 2 -1.96875 C 1.96875 -2.09375 1.890625 -2.179688 1.765625 -2.234375 C 1.640625 -2.296875 1.484375 -2.316406 1.296875 -2.296875 C 1.160156 -2.273438 1.039062 -2.238281 0.9375 -2.1875 C 0.832031 -2.144531 0.722656 -2.097656 0.609375 -2.046875 C 0.578125 -2.023438 0.546875 -2.007812 0.515625 -2 C 0.492188 -2 0.46875 -1.992188 0.4375 -1.984375 C 0.375 -1.972656 0.316406 -1.984375 0.265625 -2.015625 C 0.222656 -2.046875 0.179688 -2.097656 0.140625 -2.171875 C 0.0859375 -2.234375 0.0625 -2.289062 0.0625 -2.34375 C 0.0507812 -2.394531 0.0546875 -2.441406 0.078125 -2.484375 C 0.0976562 -2.523438 0.132812 -2.5625 0.1875 -2.59375 C 0.300781 -2.675781 0.453125 -2.742188 0.640625 -2.796875 C 0.828125 -2.859375 1.046875 -2.910156 1.296875 -2.953125 C 1.566406 -2.984375 1.8125 -2.972656 2.03125 -2.921875 C 2.25 -2.878906 2.429688 -2.78125 2.578125 -2.625 C 2.722656 -2.476562 2.8125 -2.289062 2.84375 -2.0625 C 2.863281 -1.894531 2.875 -1.757812 2.875 -1.65625 C 2.882812 -1.5625 2.898438 -1.457031 2.921875 -1.34375 C 2.929688 -1.257812 2.953125 -1.171875 2.984375 -1.078125 C 3.023438 -0.992188 3.066406 -0.921875 3.109375 -0.859375 C 3.140625 -0.804688 3.160156 -0.757812 3.171875 -0.71875 C 3.179688 -0.601562 3.09375 -0.5 2.90625 -0.40625 C 2.820312 -0.363281 2.742188 -0.335938 2.671875 -0.328125 C 2.515625 -0.296875 2.410156 -0.351562 2.359375 -0.5 C 2.335938 -0.53125 2.316406 -0.554688 2.296875 -0.578125 C 2.285156 -0.609375 2.273438 -0.632812 2.265625 -0.65625 C 2.171875 -0.53125 2.039062 -0.414062 1.875 -0.3125 C 1.71875 -0.21875 1.507812 -0.15625 1.25 -0.125 Z M 0.875 -1.03125 C 0.90625 -0.84375 1.070312 -0.769531 1.375 -0.8125 C 1.53125 -0.832031 1.65625 -0.875 1.75 -0.9375 C 1.851562 -1 1.953125 -1.078125 2.046875 -1.171875 C 1.960938 -1.253906 1.851562 -1.316406 1.71875 -1.359375 C 1.582031 -1.398438 1.441406 -1.410156 1.296875 -1.390625 C 1.128906 -1.367188 1.015625 -1.320312 0.953125 -1.25 C 0.890625 -1.1875 0.863281 -1.113281 0.875 -1.03125 Z M 0.875 -1.03125 "/></g></g></g><g fill="#a6a6a6" fill-opacity="1"><g transform="translate(10.685697, 27.955468)"><g><path d="M 1.5625 -0.171875 C 1.144531 -0.109375 0.796875 -0.175781 0.515625 -0.375 C 0.234375 -0.570312 0.0625 -0.914062 0 -1.40625 C -0.0390625 -1.675781 -0.0234375 -1.921875 0.046875 -2.140625 C 0.117188 -2.359375 0.242188 -2.53125 0.421875 -2.65625 C 0.597656 -2.789062 0.84375 -2.882812 1.15625 -2.9375 C 1.351562 -2.957031 1.53125 -2.953125 1.6875 -2.921875 C 1.84375 -2.890625 1.984375 -2.835938 2.109375 -2.765625 C 2.085938 -2.929688 2.066406 -3.097656 2.046875 -3.265625 C 2.035156 -3.441406 2.019531 -3.597656 2 -3.734375 C 1.988281 -3.878906 1.976562 -3.984375 1.96875 -4.046875 C 1.945312 -4.191406 1.957031 -4.289062 2 -4.34375 C 2.050781 -4.40625 2.148438 -4.445312 2.296875 -4.46875 C 2.429688 -4.488281 2.53125 -4.488281 2.59375 -4.46875 C 2.664062 -4.457031 2.710938 -4.429688 2.734375 -4.390625 C 2.765625 -4.347656 2.785156 -4.285156 2.796875 -4.203125 C 2.804688 -4.117188 2.816406 -3.976562 2.828125 -3.78125 C 2.847656 -3.59375 2.867188 -3.378906 2.890625 -3.140625 C 2.910156 -2.910156 2.9375 -2.679688 2.96875 -2.453125 C 3.007812 -2.171875 3.046875 -1.9375 3.078125 -1.75 C 3.109375 -1.570312 3.140625 -1.425781 3.171875 -1.3125 C 3.203125 -1.195312 3.242188 -1.09375 3.296875 -1 C 3.347656 -0.90625 3.375 -0.828125 3.375 -0.765625 C 3.382812 -0.703125 3.367188 -0.644531 3.328125 -0.59375 C 3.296875 -0.550781 3.25 -0.507812 3.1875 -0.46875 C 3.125 -0.4375 3.066406 -0.410156 3.015625 -0.390625 C 2.960938 -0.367188 2.914062 -0.351562 2.875 -0.34375 C 2.757812 -0.332031 2.664062 -0.390625 2.59375 -0.515625 C 2.5625 -0.554688 2.535156 -0.601562 2.515625 -0.65625 C 2.503906 -0.707031 2.488281 -0.753906 2.46875 -0.796875 C 2.28125 -0.429688 1.976562 -0.222656 1.5625 -0.171875 Z M 0.828125 -1.5 C 0.859375 -1.257812 0.9375 -1.097656 1.0625 -1.015625 C 1.1875 -0.929688 1.347656 -0.898438 1.546875 -0.921875 C 1.734375 -0.953125 1.878906 -1.035156 1.984375 -1.171875 C 2.085938 -1.316406 2.15625 -1.519531 2.1875 -1.78125 C 2.101562 -1.957031 1.988281 -2.082031 1.84375 -2.15625 C 1.707031 -2.238281 1.550781 -2.269531 1.375 -2.25 C 1.15625 -2.21875 1.003906 -2.128906 0.921875 -1.984375 C 0.835938 -1.847656 0.804688 -1.6875 0.828125 -1.5 Z M 0.828125 -1.5 "/></g></g></g><g fill="#a6a6a6" fill-opacity="1"><g transform="translate(14.331456, 27.453128)"><g><path d="M 1.484375 -0.15625 C 1.378906 -0.144531 1.28125 -0.144531 1.1875 -0.15625 C 1.101562 -0.164062 1.015625 -0.195312 0.921875 -0.25 C 0.628906 -0.445312 0.390625 -0.738281 0.203125 -1.125 C 0.015625 -1.507812 -0.113281 -1.957031 -0.1875 -2.46875 C -0.195312 -2.570312 -0.171875 -2.644531 -0.109375 -2.6875 C -0.0546875 -2.738281 0.0390625 -2.773438 0.1875 -2.796875 C 0.320312 -2.816406 0.425781 -2.816406 0.5 -2.796875 C 0.582031 -2.773438 0.628906 -2.71875 0.640625 -2.625 C 0.679688 -2.21875 0.78125 -1.863281 0.9375 -1.5625 C 1.09375 -1.257812 1.253906 -1.035156 1.421875 -0.890625 C 1.523438 -1.015625 1.625 -1.171875 1.71875 -1.359375 C 1.8125 -1.554688 1.878906 -1.773438 1.921875 -2.015625 C 1.960938 -2.253906 1.960938 -2.515625 1.921875 -2.796875 C 1.898438 -2.953125 2.023438 -3.050781 2.296875 -3.09375 C 2.460938 -3.113281 2.578125 -3.101562 2.640625 -3.0625 C 2.703125 -3.019531 2.738281 -2.96875 2.75 -2.90625 C 2.8125 -2.375 2.773438 -1.890625 2.640625 -1.453125 C 2.515625 -1.015625 2.304688 -0.660156 2.015625 -0.390625 C 1.941406 -0.328125 1.859375 -0.273438 1.765625 -0.234375 C 1.679688 -0.191406 1.585938 -0.164062 1.484375 -0.15625 Z M 1.484375 -0.15625 "/></g></g></g><g fill="#a6a6a6" fill-opacity="1"><g transform="translate(17.585832, 27.004716)"><g><path d="M 0.734375 -0.046875 C 0.554688 -0.0234375 0.4375 -0.0351562 0.375 -0.078125 C 0.3125 -0.117188 0.273438 -0.195312 0.265625 -0.3125 C 0.234375 -0.488281 0.210938 -0.648438 0.203125 -0.796875 C 0.191406 -0.941406 0.175781 -1.117188 0.15625 -1.328125 C 0.144531 -1.429688 0.132812 -1.53125 0.125 -1.625 C 0.113281 -1.71875 0.101562 -1.8125 0.09375 -1.90625 C 0.0820312 -1.988281 0.0664062 -2.070312 0.046875 -2.15625 C 0.0234375 -2.238281 0.0078125 -2.328125 0 -2.421875 C -0.0078125 -2.515625 0.00390625 -2.59375 0.046875 -2.65625 C 0.0859375 -2.71875 0.175781 -2.769531 0.3125 -2.8125 C 0.332031 -2.8125 0.351562 -2.8125 0.375 -2.8125 C 0.394531 -2.820312 0.414062 -2.828125 0.4375 -2.828125 C 0.53125 -2.835938 0.609375 -2.828125 0.671875 -2.796875 C 0.734375 -2.765625 0.773438 -2.703125 0.796875 -2.609375 C 0.828125 -2.472656 0.851562 -2.347656 0.875 -2.234375 C 0.882812 -2.160156 0.894531 -2.085938 0.90625 -2.015625 C 0.914062 -1.941406 0.925781 -1.867188 0.9375 -1.796875 C 0.9375 -1.734375 0.941406 -1.640625 0.953125 -1.515625 C 0.960938 -1.398438 0.972656 -1.273438 0.984375 -1.140625 C 1.003906 -1.015625 1.019531 -0.890625 1.03125 -0.765625 C 1.039062 -0.640625 1.050781 -0.539062 1.0625 -0.46875 C 1.082031 -0.332031 1.0625 -0.234375 1 -0.171875 C 0.945312 -0.109375 0.859375 -0.0664062 0.734375 -0.046875 Z M -0.15625 -3.59375 C -0.164062 -3.625 -0.171875 -3.65625 -0.171875 -3.6875 C -0.171875 -3.71875 -0.175781 -3.753906 -0.1875 -3.796875 C -0.207031 -3.910156 -0.1875 -4 -0.125 -4.0625 C -0.0625 -4.125 0.0390625 -4.164062 0.1875 -4.1875 C 0.351562 -4.207031 0.46875 -4.195312 0.53125 -4.15625 C 0.601562 -4.113281 0.648438 -4.046875 0.671875 -3.953125 C 0.679688 -3.867188 0.6875 -3.796875 0.6875 -3.734375 C 0.695312 -3.671875 0.703125 -3.609375 0.703125 -3.546875 C 0.710938 -3.429688 0.6875 -3.347656 0.625 -3.296875 C 0.570312 -3.253906 0.472656 -3.222656 0.328125 -3.203125 C 0.203125 -3.179688 0.101562 -3.179688 0.03125 -3.203125 C -0.03125 -3.234375 -0.0703125 -3.28125 -0.09375 -3.34375 C -0.125 -3.40625 -0.144531 -3.488281 -0.15625 -3.59375 Z M -0.15625 -3.59375 "/></g></g></g><g fill="#a6a6a6" fill-opacity="1"><g transform="translate(19.070943, 26.800086)"><g><path d="M 1.390625 -0.140625 C 1.148438 -0.109375 0.941406 -0.0976562 0.765625 -0.109375 C 0.597656 -0.117188 0.4375 -0.144531 0.28125 -0.1875 C 0.164062 -0.207031 0.101562 -0.269531 0.09375 -0.375 C 0.0820312 -0.425781 0.0859375 -0.5 0.109375 -0.59375 C 0.140625 -0.695312 0.171875 -0.769531 0.203125 -0.8125 C 0.242188 -0.851562 0.289062 -0.878906 0.34375 -0.890625 C 0.394531 -0.898438 0.441406 -0.898438 0.484375 -0.890625 C 0.640625 -0.847656 0.800781 -0.816406 0.96875 -0.796875 C 1.132812 -0.773438 1.285156 -0.773438 1.421875 -0.796875 C 1.578125 -0.816406 1.679688 -0.847656 1.734375 -0.890625 C 1.785156 -0.941406 1.804688 -1.003906 1.796875 -1.078125 C 1.785156 -1.128906 1.742188 -1.164062 1.671875 -1.1875 C 1.609375 -1.21875 1.472656 -1.226562 1.265625 -1.21875 C 0.878906 -1.21875 0.59375 -1.269531 0.40625 -1.375 C 0.21875 -1.476562 0.101562 -1.675781 0.0625 -1.96875 C 0.0195312 -2.257812 0.0859375 -2.476562 0.265625 -2.625 C 0.441406 -2.769531 0.710938 -2.867188 1.078125 -2.921875 C 1.347656 -2.953125 1.570312 -2.953125 1.75 -2.921875 C 1.925781 -2.898438 2.078125 -2.867188 2.203125 -2.828125 C 2.304688 -2.773438 2.363281 -2.707031 2.375 -2.625 C 2.382812 -2.550781 2.363281 -2.460938 2.3125 -2.359375 C 2.257812 -2.222656 2.179688 -2.144531 2.078125 -2.125 C 2.023438 -2.125 1.972656 -2.132812 1.921875 -2.15625 C 1.796875 -2.21875 1.671875 -2.253906 1.546875 -2.265625 C 1.421875 -2.285156 1.300781 -2.289062 1.1875 -2.28125 C 0.976562 -2.25 0.878906 -2.171875 0.890625 -2.046875 C 0.898438 -1.972656 0.945312 -1.921875 1.03125 -1.890625 C 1.125 -1.859375 1.285156 -1.84375 1.515625 -1.84375 C 1.898438 -1.851562 2.171875 -1.796875 2.328125 -1.671875 C 2.492188 -1.546875 2.59375 -1.367188 2.625 -1.140625 C 2.644531 -0.984375 2.625 -0.835938 2.5625 -0.703125 C 2.5 -0.566406 2.375 -0.453125 2.1875 -0.359375 C 2 -0.265625 1.734375 -0.191406 1.390625 -0.140625 Z M 1.390625 -0.140625 "/></g></g></g><g fill="#a6a6a6" fill-opacity="1"><g transform="translate(22.046526, 26.390089)"><g><path d="M 1.671875 -0.1875 C 1.148438 -0.113281 0.757812 -0.1875 0.5 -0.40625 C 0.238281 -0.632812 0.078125 -0.96875 0.015625 -1.40625 C -0.015625 -1.65625 0.00390625 -1.890625 0.078125 -2.109375 C 0.160156 -2.335938 0.300781 -2.519531 0.5 -2.65625 C 0.695312 -2.800781 0.960938 -2.898438 1.296875 -2.953125 C 1.578125 -2.984375 1.820312 -2.976562 2.03125 -2.9375 C 2.238281 -2.90625 2.414062 -2.832031 2.5625 -2.71875 C 2.632812 -2.675781 2.675781 -2.613281 2.6875 -2.53125 C 2.695312 -2.476562 2.691406 -2.425781 2.671875 -2.375 C 2.765625 -2.28125 2.84375 -2.171875 2.90625 -2.046875 C 2.96875 -1.929688 3.007812 -1.800781 3.03125 -1.65625 C 3.09375 -1.257812 3.007812 -0.929688 2.78125 -0.671875 C 2.550781 -0.410156 2.179688 -0.25 1.671875 -0.1875 Z M 0.828125 -1.484375 C 0.890625 -1.035156 1.164062 -0.84375 1.65625 -0.90625 C 1.875 -0.9375 2.023438 -1.003906 2.109375 -1.109375 C 2.203125 -1.222656 2.238281 -1.351562 2.21875 -1.5 C 2.1875 -1.675781 2.101562 -1.8125 1.96875 -1.90625 C 1.925781 -1.9375 1.894531 -1.960938 1.875 -1.984375 C 1.851562 -2.015625 1.835938 -2.050781 1.828125 -2.09375 C 1.828125 -2.113281 1.828125 -2.148438 1.828125 -2.203125 C 1.765625 -2.222656 1.691406 -2.234375 1.609375 -2.234375 C 1.535156 -2.242188 1.457031 -2.242188 1.375 -2.234375 C 1.1875 -2.203125 1.039062 -2.117188 0.9375 -1.984375 C 0.84375 -1.847656 0.804688 -1.679688 0.828125 -1.484375 Z M 0.828125 -1.484375 "/></g></g></g><g fill="#a6a6a6" fill-opacity="1"><g transform="translate(25.4403, 25.922469)"><g><path d="M 0.734375 -0.046875 C 0.617188 -0.0351562 0.53125 -0.0351562 0.46875 -0.046875 C 0.414062 -0.0664062 0.375 -0.101562 0.34375 -0.15625 C 0.3125 -0.207031 0.296875 -0.265625 0.296875 -0.328125 C 0.253906 -0.492188 0.21875 -0.675781 0.1875 -0.875 C 0.15625 -1.070312 0.125 -1.269531 0.09375 -1.46875 C 0.0703125 -1.644531 0.0507812 -1.804688 0.03125 -1.953125 C 0.0195312 -2.097656 0.0078125 -2.25 0 -2.40625 C -0.0195312 -2.539062 -0.00390625 -2.640625 0.046875 -2.703125 C 0.109375 -2.765625 0.203125 -2.800781 0.328125 -2.8125 C 0.492188 -2.832031 0.609375 -2.816406 0.671875 -2.765625 C 0.742188 -2.722656 0.789062 -2.660156 0.8125 -2.578125 C 0.882812 -2.679688 0.972656 -2.765625 1.078125 -2.828125 C 1.191406 -2.890625 1.304688 -2.929688 1.421875 -2.953125 C 1.546875 -2.960938 1.65625 -2.957031 1.75 -2.9375 C 1.851562 -2.925781 1.941406 -2.894531 2.015625 -2.84375 C 2.078125 -2.8125 2.113281 -2.757812 2.125 -2.6875 C 2.132812 -2.644531 2.132812 -2.597656 2.125 -2.546875 C 2.125 -2.503906 2.113281 -2.457031 2.09375 -2.40625 C 2.0625 -2.332031 2.019531 -2.269531 1.96875 -2.21875 C 1.925781 -2.175781 1.878906 -2.148438 1.828125 -2.140625 C 1.785156 -2.140625 1.742188 -2.144531 1.703125 -2.15625 C 1.585938 -2.207031 1.46875 -2.222656 1.34375 -2.203125 C 1.269531 -2.191406 1.195312 -2.160156 1.125 -2.109375 C 1.050781 -2.054688 0.992188 -1.976562 0.953125 -1.875 C 0.921875 -1.769531 0.921875 -1.625 0.953125 -1.4375 C 0.953125 -1.394531 0.957031 -1.328125 0.96875 -1.234375 C 0.988281 -1.148438 1.003906 -1.054688 1.015625 -0.953125 C 1.035156 -0.859375 1.054688 -0.757812 1.078125 -0.65625 C 1.097656 -0.5625 1.113281 -0.488281 1.125 -0.4375 C 1.132812 -0.320312 1.109375 -0.234375 1.046875 -0.171875 C 0.984375 -0.109375 0.878906 -0.0664062 0.734375 -0.046875 Z M 0.734375 -0.046875 "/></g></g></g></svg>