<svg xmlns="http://www.w3.org/2000/svg" xmlns:xlink="http://www.w3.org/1999/xlink" width="42" zoomAndPan="magnify" viewBox="0 0 31.5 30.75" height="41" preserveAspectRatio="xMidYMid meet" version="1.0"><defs><g/></defs><g fill="#a6a6a6" fill-opacity="1"><g transform="translate(1.03878, 22.889503)"><g><path d="M 3.125 -1.109375 C 3.125 -0.859375 3.0625 -0.644531 2.9375 -0.46875 C 2.8125 -0.289062 2.644531 -0.15625 2.4375 -0.0625 C 2.238281 0.0195312 2.023438 0.0625 1.796875 0.0625 C 1.441406 0.0625 1.128906 -0.0351562 0.859375 -0.234375 C 0.597656 -0.441406 0.382812 -0.695312 0.21875 -1 L 0.59375 -1.21875 C 0.6875 -1.070312 0.789062 -0.929688 0.90625 -0.796875 C 1.019531 -0.671875 1.148438 -0.566406 1.296875 -0.484375 C 1.441406 -0.410156 1.609375 -0.375 1.796875 -0.375 C 2.023438 -0.375 2.21875 -0.429688 2.375 -0.546875 C 2.539062 -0.660156 2.625 -0.847656 2.625 -1.109375 C 2.625 -1.273438 2.582031 -1.410156 2.5 -1.515625 C 2.414062 -1.628906 2.304688 -1.726562 2.171875 -1.8125 C 2.046875 -1.894531 1.898438 -1.96875 1.734375 -2.03125 C 1.578125 -2.09375 1.421875 -2.15625 1.265625 -2.21875 C 1.109375 -2.28125 0.960938 -2.351562 0.828125 -2.4375 C 0.691406 -2.519531 0.582031 -2.617188 0.5 -2.734375 C 0.425781 -2.847656 0.390625 -2.988281 0.390625 -3.15625 C 0.390625 -3.40625 0.445312 -3.613281 0.5625 -3.78125 C 0.6875 -3.957031 0.847656 -4.085938 1.046875 -4.171875 C 1.253906 -4.265625 1.46875 -4.3125 1.6875 -4.3125 C 1.90625 -4.3125 2.097656 -4.265625 2.265625 -4.171875 C 2.441406 -4.078125 2.59375 -3.953125 2.71875 -3.796875 C 2.851562 -3.648438 2.960938 -3.488281 3.046875 -3.3125 L 2.625 -3.140625 C 2.539062 -3.335938 2.414062 -3.507812 2.25 -3.65625 C 2.082031 -3.800781 1.890625 -3.875 1.671875 -3.875 C 1.460938 -3.875 1.28125 -3.8125 1.125 -3.6875 C 0.96875 -3.5625 0.890625 -3.390625 0.890625 -3.171875 C 0.890625 -3.046875 0.941406 -2.941406 1.046875 -2.859375 C 1.148438 -2.785156 1.285156 -2.710938 1.453125 -2.640625 C 1.628906 -2.578125 1.8125 -2.503906 2 -2.421875 C 2.195312 -2.347656 2.378906 -2.253906 2.546875 -2.140625 C 2.710938 -2.035156 2.847656 -1.894531 2.953125 -1.71875 C 3.066406 -1.550781 3.125 -1.347656 3.125 -1.109375 Z M 3.125 -1.109375 "/></g></g></g><g fill="#a6a6a6" fill-opacity="1"><g transform="translate(4.247385, 22.889503)"><g><path d="M 1.953125 -0.375 L 1.953125 0.0625 L 1.65625 0.0625 C 1.363281 0.0625 1.132812 -0.00390625 0.96875 -0.140625 C 0.8125 -0.273438 0.734375 -0.488281 0.734375 -0.78125 L 0.734375 -2.75 L 0.21875 -2.75 L 0.21875 -3.125 L 0.734375 -3.125 L 0.734375 -4.3125 L 1.171875 -4.3125 L 1.171875 -3.125 L 1.953125 -3.125 L 1.953125 -2.75 L 1.171875 -2.75 L 1.171875 -0.78125 C 1.171875 -0.65625 1.195312 -0.5625 1.25 -0.5 C 1.300781 -0.445312 1.363281 -0.410156 1.4375 -0.390625 C 1.519531 -0.367188 1.601562 -0.359375 1.6875 -0.359375 C 1.78125 -0.367188 1.867188 -0.375 1.953125 -0.375 Z M 1.953125 -0.375 "/></g></g></g><g fill="#a6a6a6" fill-opacity="1"><g transform="translate(6.279486, 22.889503)"><g><path d="M 2.59375 -1.84375 L 2.59375 0 L 2.21875 0 L 2.15625 -0.40625 C 2.070312 -0.332031 1.972656 -0.257812 1.859375 -0.1875 C 1.753906 -0.113281 1.640625 -0.0507812 1.515625 0 C 1.398438 0.0390625 1.285156 0.0625 1.171875 0.0625 C 1.003906 0.0625 0.847656 0.0234375 0.703125 -0.046875 C 0.554688 -0.117188 0.4375 -0.21875 0.34375 -0.34375 C 0.257812 -0.476562 0.21875 -0.628906 0.21875 -0.796875 C 0.21875 -1.015625 0.273438 -1.195312 0.390625 -1.34375 C 0.515625 -1.488281 0.671875 -1.601562 0.859375 -1.6875 C 1.054688 -1.769531 1.265625 -1.835938 1.484375 -1.890625 C 1.710938 -1.953125 1.929688 -2.003906 2.140625 -2.046875 C 2.140625 -2.179688 2.117188 -2.300781 2.078125 -2.40625 C 2.046875 -2.519531 1.988281 -2.601562 1.90625 -2.65625 C 1.820312 -2.71875 1.695312 -2.75 1.53125 -2.75 C 1.332031 -2.75 1.175781 -2.707031 1.0625 -2.625 C 0.957031 -2.550781 0.851562 -2.4375 0.75 -2.28125 L 0.390625 -2.5625 C 0.535156 -2.769531 0.691406 -2.925781 0.859375 -3.03125 C 1.035156 -3.132812 1.257812 -3.1875 1.53125 -3.1875 C 1.8125 -3.1875 2.023438 -3.125 2.171875 -3 C 2.328125 -2.882812 2.4375 -2.722656 2.5 -2.515625 C 2.5625 -2.316406 2.59375 -2.09375 2.59375 -1.84375 Z M 2.15625 -0.828125 L 2.15625 -1.8125 C 2.03125 -1.769531 1.882812 -1.722656 1.71875 -1.671875 C 1.550781 -1.617188 1.390625 -1.550781 1.234375 -1.46875 C 1.085938 -1.394531 0.960938 -1.300781 0.859375 -1.1875 C 0.765625 -1.082031 0.71875 -0.957031 0.71875 -0.8125 C 0.71875 -0.675781 0.757812 -0.566406 0.84375 -0.484375 C 0.925781 -0.410156 1.035156 -0.375 1.171875 -0.375 C 1.273438 -0.375 1.390625 -0.394531 1.515625 -0.4375 C 1.640625 -0.476562 1.757812 -0.535156 1.875 -0.609375 C 1.988281 -0.679688 2.082031 -0.753906 2.15625 -0.828125 Z M 2.15625 -0.828125 "/></g></g></g><g fill="#a6a6a6" fill-opacity="1"><g transform="translate(8.9659, 22.889503)"><g><path d="M 1.6875 -3.203125 L 1.6875 -2.765625 C 1.476562 -2.765625 1.28125 -2.707031 1.09375 -2.59375 C 0.914062 -2.488281 0.769531 -2.347656 0.65625 -2.171875 L 0.65625 0 L 0.21875 0 L 0.21875 -3.125 L 0.65625 -3.125 L 0.65625 -2.734375 C 0.726562 -2.835938 0.820312 -2.921875 0.9375 -2.984375 C 1.050781 -3.054688 1.175781 -3.109375 1.3125 -3.140625 C 1.445312 -3.179688 1.570312 -3.203125 1.6875 -3.203125 Z M 1.6875 -3.203125 "/></g></g></g><g fill="#a6a6a6" fill-opacity="1"><g transform="translate(10.746343, 22.889503)"><g><path d="M 1.953125 -0.375 L 1.953125 0.0625 L 1.65625 0.0625 C 1.363281 0.0625 1.132812 -0.00390625 0.96875 -0.140625 C 0.8125 -0.273438 0.734375 -0.488281 0.734375 -0.78125 L 0.734375 -2.75 L 0.21875 -2.75 L 0.21875 -3.125 L 0.734375 -3.125 L 0.734375 -4.3125 L 1.171875 -4.3125 L 1.171875 -3.125 L 1.953125 -3.125 L 1.953125 -2.75 L 1.171875 -2.75 L 1.171875 -0.78125 C 1.171875 -0.65625 1.195312 -0.5625 1.25 -0.5 C 1.300781 -0.445312 1.363281 -0.410156 1.4375 -0.390625 C 1.519531 -0.367188 1.601562 -0.359375 1.6875 -0.359375 C 1.78125 -0.367188 1.867188 -0.375 1.953125 -0.375 Z M 1.953125 -0.375 "/></g></g></g><g fill="#a6a6a6" fill-opacity="1"><g transform="translate(12.778444, 22.889503)"><g><path d="M 2.40625 -3.125 L 2.40625 0 L 2.03125 0 L 1.96875 -0.328125 C 1.84375 -0.210938 1.703125 -0.117188 1.546875 -0.046875 C 1.398438 0.0234375 1.242188 0.0625 1.078125 0.0625 C 0.878906 0.0625 0.71875 0.015625 0.59375 -0.078125 C 0.46875 -0.179688 0.375 -0.3125 0.3125 -0.46875 C 0.25 -0.632812 0.21875 -0.800781 0.21875 -0.96875 L 0.21875 -3.125 L 0.65625 -3.125 L 0.65625 -0.96875 C 0.65625 -0.882812 0.671875 -0.796875 0.703125 -0.703125 C 0.734375 -0.609375 0.78125 -0.53125 0.84375 -0.46875 C 0.90625 -0.40625 0.984375 -0.375 1.078125 -0.375 C 1.253906 -0.375 1.421875 -0.421875 1.578125 -0.515625 C 1.734375 -0.609375 1.863281 -0.710938 1.96875 -0.828125 L 1.96875 -3.125 Z M 2.40625 -3.125 "/></g></g></g><g fill="#a6a6a6" fill-opacity="1"><g transform="translate(15.276114, 22.889503)"><g><path d="M 2.84375 -1.546875 C 2.84375 -1.347656 2.804688 -1.15625 2.734375 -0.96875 C 2.671875 -0.78125 2.578125 -0.609375 2.453125 -0.453125 C 2.328125 -0.296875 2.175781 -0.171875 2 -0.078125 C 1.832031 0.00390625 1.644531 0.046875 1.4375 0.046875 C 1.300781 0.046875 1.164062 0.015625 1.03125 -0.046875 C 0.894531 -0.117188 0.769531 -0.210938 0.65625 -0.328125 L 0.65625 1 L 0.21875 1 L 0.21875 -3.125 L 0.59375 -3.125 L 0.65625 -2.828125 C 0.757812 -2.929688 0.875 -3.019531 1 -3.09375 C 1.132812 -3.164062 1.28125 -3.203125 1.4375 -3.203125 C 1.664062 -3.203125 1.863281 -3.15625 2.03125 -3.0625 C 2.207031 -2.96875 2.351562 -2.835938 2.46875 -2.671875 C 2.59375 -2.515625 2.6875 -2.335938 2.75 -2.140625 C 2.8125 -1.941406 2.84375 -1.742188 2.84375 -1.546875 Z M 0.65625 -2.296875 L 0.65625 -0.90625 C 0.726562 -0.78125 0.832031 -0.660156 0.96875 -0.546875 C 1.113281 -0.441406 1.273438 -0.390625 1.453125 -0.390625 C 1.660156 -0.390625 1.828125 -0.453125 1.953125 -0.578125 C 2.078125 -0.703125 2.171875 -0.859375 2.234375 -1.046875 C 2.304688 -1.234375 2.34375 -1.414062 2.34375 -1.59375 C 2.34375 -1.769531 2.304688 -1.945312 2.234375 -2.125 C 2.171875 -2.3125 2.070312 -2.460938 1.9375 -2.578125 C 1.800781 -2.703125 1.628906 -2.765625 1.421875 -2.765625 C 1.253906 -2.765625 1.097656 -2.710938 0.953125 -2.609375 C 0.816406 -2.515625 0.71875 -2.410156 0.65625 -2.296875 Z M 0.65625 -2.296875 "/></g></g></g><g fill="#a6a6a6" fill-opacity="1"><g transform="translate(18.201604, 22.889503)"><g><path d="M 0.625 -0.40625 L 0.625 0 L 0.21875 0 L 0.21875 -0.40625 Z M 0.625 -0.40625 "/></g></g></g><g fill="#a6a6a6" fill-opacity="1"><g transform="translate(18.918789, 22.889503)"><g><path d="M 2.125 -0.984375 L 2.484375 -0.84375 C 2.429688 -0.6875 2.351562 -0.535156 2.25 -0.390625 C 2.15625 -0.253906 2.035156 -0.144531 1.890625 -0.0625 C 1.753906 0.0195312 1.597656 0.0625 1.421875 0.0625 C 1.171875 0.0625 0.96875 0.015625 0.8125 -0.078125 C 0.65625 -0.171875 0.535156 -0.296875 0.453125 -0.453125 C 0.367188 -0.609375 0.304688 -0.785156 0.265625 -0.984375 C 0.234375 -1.179688 0.21875 -1.382812 0.21875 -1.59375 C 0.21875 -1.789062 0.234375 -1.984375 0.265625 -2.171875 C 0.304688 -2.367188 0.375 -2.539062 0.46875 -2.6875 C 0.5625 -2.84375 0.6875 -2.96875 0.84375 -3.0625 C 1.007812 -3.15625 1.210938 -3.203125 1.453125 -3.203125 C 1.734375 -3.203125 1.960938 -3.113281 2.140625 -2.9375 C 2.316406 -2.757812 2.425781 -2.535156 2.46875 -2.265625 L 2.109375 -2.1875 C 2.078125 -2.351562 2.003906 -2.488281 1.890625 -2.59375 C 1.773438 -2.707031 1.628906 -2.765625 1.453125 -2.765625 C 1.285156 -2.765625 1.148438 -2.726562 1.046875 -2.65625 C 0.953125 -2.582031 0.878906 -2.488281 0.828125 -2.375 C 0.785156 -2.257812 0.753906 -2.132812 0.734375 -2 C 0.722656 -1.863281 0.71875 -1.726562 0.71875 -1.59375 C 0.71875 -1.445312 0.722656 -1.300781 0.734375 -1.15625 C 0.742188 -1.019531 0.769531 -0.890625 0.8125 -0.765625 C 0.851562 -0.648438 0.921875 -0.554688 1.015625 -0.484375 C 1.109375 -0.410156 1.242188 -0.375 1.421875 -0.375 C 1.597656 -0.375 1.742188 -0.4375 1.859375 -0.5625 C 1.984375 -0.695312 2.070312 -0.835938 2.125 -0.984375 Z M 2.125 -0.984375 "/></g></g></g><g fill="#a6a6a6" fill-opacity="1"><g transform="translate(21.491957, 22.889503)"><g><path d="M 2.625 -1.59375 C 2.625 -1.382812 2.609375 -1.179688 2.578125 -0.984375 C 2.546875 -0.785156 2.484375 -0.609375 2.390625 -0.453125 C 2.304688 -0.296875 2.1875 -0.171875 2.03125 -0.078125 C 1.875 0.015625 1.671875 0.0625 1.421875 0.0625 C 1.179688 0.0625 0.976562 0.015625 0.8125 -0.078125 C 0.65625 -0.171875 0.535156 -0.296875 0.453125 -0.453125 C 0.367188 -0.609375 0.304688 -0.785156 0.265625 -0.984375 C 0.234375 -1.179688 0.21875 -1.382812 0.21875 -1.59375 C 0.21875 -1.789062 0.234375 -1.984375 0.265625 -2.171875 C 0.304688 -2.367188 0.367188 -2.539062 0.453125 -2.6875 C 0.546875 -2.84375 0.671875 -2.96875 0.828125 -3.0625 C 0.984375 -3.15625 1.179688 -3.203125 1.421875 -3.203125 C 1.660156 -3.203125 1.859375 -3.15625 2.015625 -3.0625 C 2.179688 -2.96875 2.304688 -2.84375 2.390625 -2.6875 C 2.472656 -2.539062 2.53125 -2.367188 2.5625 -2.171875 C 2.601562 -1.984375 2.625 -1.789062 2.625 -1.59375 Z M 2.125 -1.59375 C 2.125 -1.726562 2.117188 -1.863281 2.109375 -2 C 2.097656 -2.132812 2.070312 -2.257812 2.03125 -2.375 C 1.988281 -2.488281 1.921875 -2.582031 1.828125 -2.65625 C 1.734375 -2.726562 1.597656 -2.765625 1.421875 -2.765625 C 1.253906 -2.765625 1.117188 -2.726562 1.015625 -2.65625 C 0.921875 -2.582031 0.851562 -2.488281 0.8125 -2.375 C 0.769531 -2.269531 0.742188 -2.144531 0.734375 -2 C 0.722656 -1.863281 0.71875 -1.726562 0.71875 -1.59375 C 0.71875 -1.457031 0.722656 -1.316406 0.734375 -1.171875 C 0.742188 -1.023438 0.769531 -0.890625 0.8125 -0.765625 C 0.851562 -0.648438 0.921875 -0.554688 1.015625 -0.484375 C 1.117188 -0.410156 1.253906 -0.375 1.421875 -0.375 C 1.597656 -0.375 1.734375 -0.410156 1.828125 -0.484375 C 1.921875 -0.554688 1.988281 -0.648438 2.03125 -0.765625 C 2.070312 -0.890625 2.097656 -1.023438 2.109375 -1.171875 C 2.117188 -1.316406 2.125 -1.457031 2.125 -1.59375 Z M 2.125 -1.59375 "/></g></g></g><g fill="#a6a6a6" fill-opacity="1"><g transform="translate(24.203536, 22.889503)"><g><path d="M 0.625 -0.40625 L 0.625 0 L 0.21875 0 L 0.21875 -0.40625 Z M 0.625 -0.40625 "/></g></g></g><g fill="#a6a6a6" fill-opacity="1"><g transform="translate(24.920721, 22.889503)"><g><path d="M 2.40625 -3.125 L 2.40625 0 L 2.03125 0 L 1.96875 -0.328125 C 1.84375 -0.210938 1.703125 -0.117188 1.546875 -0.046875 C 1.398438 0.0234375 1.242188 0.0625 1.078125 0.0625 C 0.878906 0.0625 0.71875 0.015625 0.59375 -0.078125 C 0.46875 -0.179688 0.375 -0.3125 0.3125 -0.46875 C 0.25 -0.632812 0.21875 -0.800781 0.21875 -0.96875 L 0.21875 -3.125 L 0.65625 -3.125 L 0.65625 -0.96875 C 0.65625 -0.882812 0.671875 -0.796875 0.703125 -0.703125 C 0.734375 -0.609375 0.78125 -0.53125 0.84375 -0.46875 C 0.90625 -0.40625 0.984375 -0.375 1.078125 -0.375 C 1.253906 -0.375 1.421875 -0.421875 1.578125 -0.515625 C 1.734375 -0.609375 1.863281 -0.710938 1.96875 -0.828125 L 1.96875 -3.125 Z M 2.40625 -3.125 "/></g></g></g><g fill="#a6a6a6" fill-opacity="1"><g transform="translate(27.418391, 22.889503)"><g><path d="M 0.21875 -4.3125 L 0.65625 -4.3125 L 0.65625 -1.625 L 1.84375 -3.125 L 2.390625 -3.125 L 1.46875 -1.953125 L 2.390625 0 L 1.90625 0 L 1.171875 -1.5625 L 0.65625 -0.890625 L 0.65625 0 L 0.21875 0 Z M 0.21875 -4.3125 "/></g></g></g><g fill="#a6a6a6" fill-opacity="1"><g transform="translate(0.232533, 16.72127)"><g><path d="M 0.546875 -6.15625 C 0.535156 -6.15625 0.539062 -6.160156 0.5625 -6.171875 C 0.59375 -6.171875 0.679688 -6.171875 0.828125 -6.171875 C 0.984375 -6.171875 1.207031 -6.171875 1.5 -6.171875 L 2.515625 -6.171875 L 2.515625 0.6875 L 0.671875 0.6875 L 0.671875 -6.03125 L 0.625 -6.078125 C 0.59375 -6.117188 0.566406 -6.144531 0.546875 -6.15625 Z M 3.1875 -6.21875 C 3.25 -6.226562 3.320312 -6.234375 3.40625 -6.234375 C 3.488281 -6.242188 3.582031 -6.242188 3.6875 -6.234375 C 3.945312 -6.222656 4.179688 -6.195312 4.390625 -6.15625 C 4.609375 -6.113281 4.804688 -6.046875 4.984375 -5.953125 C 5.171875 -5.859375 5.34375 -5.738281 5.5 -5.59375 C 5.65625 -5.457031 5.804688 -5.28125 5.953125 -5.0625 C 6.222656 -4.632812 6.410156 -4.15625 6.515625 -3.625 C 6.609375 -3.132812 6.632812 -2.660156 6.59375 -2.203125 C 6.550781 -1.765625 6.445312 -1.363281 6.28125 -1 C 6.113281 -0.644531 5.894531 -0.335938 5.625 -0.078125 C 5.363281 0.179688 5.050781 0.378906 4.6875 0.515625 C 4.320312 0.660156 3.914062 0.734375 3.46875 0.734375 C 3.332031 0.734375 3.207031 0.722656 3.09375 0.703125 C 2.988281 0.691406 2.890625 0.675781 2.796875 0.65625 C 2.773438 0.644531 2.765625 0.425781 2.765625 0 L 2.765625 -0.640625 L 3.046875 -0.640625 C 3.359375 -0.640625 3.613281 -0.6875 3.8125 -0.78125 C 4.019531 -0.875 4.1875 -1.003906 4.3125 -1.171875 C 4.445312 -1.335938 4.539062 -1.535156 4.59375 -1.765625 C 4.65625 -2.003906 4.691406 -2.273438 4.703125 -2.578125 C 4.710938 -2.804688 4.707031 -3.050781 4.6875 -3.3125 C 4.664062 -3.582031 4.617188 -3.820312 4.546875 -4.03125 C 4.484375 -4.1875 4.398438 -4.316406 4.296875 -4.421875 C 4.203125 -4.523438 4.09375 -4.609375 3.96875 -4.671875 C 3.84375 -4.734375 3.707031 -4.78125 3.5625 -4.8125 C 3.425781 -4.84375 3.28125 -4.863281 3.125 -4.875 L 2.765625 -4.875 L 2.765625 -6.140625 L 2.90625 -6.171875 C 3.019531 -6.203125 3.113281 -6.21875 3.1875 -6.21875 Z M 3.1875 -6.21875 "/></g></g></g><g fill="#a6a6a6" fill-opacity="1"><g transform="translate(6.908684, 16.72127)"><g><path d="M 3.9375 -4.65625 L 4.015625 -4.65625 L 4.015625 -2.9375 L 3.859375 -2.953125 C 3.546875 -2.972656 3.273438 -2.925781 3.046875 -2.8125 C 2.921875 -2.738281 2.804688 -2.613281 2.703125 -2.4375 C 2.609375 -2.269531 2.539062 -2.078125 2.5 -1.859375 C 2.488281 -1.765625 2.484375 -1.316406 2.484375 -0.515625 L 2.484375 0.6875 L 0.640625 0.6875 L 0.640625 -1.859375 C 0.640625 -2.710938 0.632812 -3.347656 0.625 -3.765625 C 0.625 -4.179688 0.617188 -4.394531 0.609375 -4.40625 C 0.578125 -4.46875 0.535156 -4.515625 0.484375 -4.546875 C 0.472656 -4.546875 0.476562 -4.550781 0.5 -4.5625 C 0.53125 -4.570312 0.625 -4.578125 0.78125 -4.578125 C 0.945312 -4.578125 1.175781 -4.578125 1.46875 -4.578125 L 2.484375 -4.578125 L 2.484375 -3.671875 L 2.546875 -3.796875 C 2.660156 -4.078125 2.84375 -4.289062 3.09375 -4.4375 C 3.351562 -4.582031 3.632812 -4.65625 3.9375 -4.65625 Z M 3.9375 -4.65625 "/></g></g></g><g fill="#a6a6a6" fill-opacity="1"><g transform="translate(10.70397, 16.72127)"><g><path d="M 2.609375 -4.640625 C 2.648438 -4.640625 2.707031 -4.640625 2.78125 -4.640625 C 2.851562 -4.640625 2.941406 -4.640625 3.046875 -4.640625 C 3.148438 -4.640625 3.238281 -4.632812 3.3125 -4.625 C 3.394531 -4.613281 3.460938 -4.601562 3.515625 -4.59375 C 3.878906 -4.53125 4.1875 -4.414062 4.4375 -4.25 C 4.6875 -4.082031 4.882812 -3.875 5.03125 -3.625 C 5.1875 -3.382812 5.296875 -3.113281 5.359375 -2.8125 C 5.429688 -2.519531 5.472656 -2.210938 5.484375 -1.890625 L 5.484375 -1.59375 L 3.875 -1.578125 L 2.265625 -1.578125 L 2.25 -1.515625 C 2.238281 -1.453125 2.242188 -1.332031 2.265625 -1.15625 C 2.285156 -0.957031 2.34375 -0.789062 2.4375 -0.65625 C 2.53125 -0.519531 2.691406 -0.453125 2.921875 -0.453125 C 3.066406 -0.453125 3.195312 -0.484375 3.3125 -0.546875 C 3.425781 -0.609375 3.507812 -0.710938 3.5625 -0.859375 C 3.582031 -0.929688 3.597656 -0.96875 3.609375 -0.96875 C 3.628906 -0.976562 3.925781 -0.984375 4.5 -0.984375 C 5.082031 -0.984375 5.378906 -0.976562 5.390625 -0.96875 C 5.410156 -0.96875 5.390625 -0.894531 5.328125 -0.75 C 5.222656 -0.46875 5.085938 -0.226562 4.921875 -0.03125 C 4.753906 0.15625 4.566406 0.304688 4.359375 0.421875 C 4.148438 0.546875 3.921875 0.632812 3.671875 0.6875 C 3.429688 0.738281 3.171875 0.765625 2.890625 0.765625 C 2.640625 0.765625 2.382812 0.734375 2.125 0.671875 C 1.863281 0.617188 1.628906 0.523438 1.421875 0.390625 C 1.390625 0.367188 1.347656 0.335938 1.296875 0.296875 C 1.242188 0.253906 1.191406 0.203125 1.140625 0.140625 C 1.085938 0.0859375 1.035156 0.0351562 0.984375 -0.015625 C 0.941406 -0.0664062 0.910156 -0.113281 0.890625 -0.15625 C 0.703125 -0.414062 0.5625 -0.71875 0.46875 -1.0625 C 0.382812 -1.40625 0.351562 -1.757812 0.375 -2.125 C 0.425781 -2.851562 0.640625 -3.429688 1.015625 -3.859375 C 1.398438 -4.285156 1.929688 -4.546875 2.609375 -4.640625 Z M 3.140625 -3.46875 C 3.109375 -3.46875 3.078125 -3.46875 3.046875 -3.46875 C 3.015625 -3.476562 2.984375 -3.484375 2.953125 -3.484375 C 2.691406 -3.484375 2.515625 -3.40625 2.421875 -3.25 C 2.328125 -3.101562 2.269531 -2.910156 2.25 -2.671875 L 2.234375 -2.5625 L 3.6875 -2.5625 L 3.6875 -2.625 C 3.675781 -2.75 3.644531 -2.875 3.59375 -3 C 3.550781 -3.132812 3.503906 -3.238281 3.453125 -3.3125 C 3.390625 -3.394531 3.285156 -3.445312 3.140625 -3.46875 Z M 3.140625 -3.46875 "/></g></g></g><g fill="#a6a6a6" fill-opacity="1"><g transform="translate(16.200338, 16.72127)"><g><path d="M 3.015625 -4.65625 C 3.273438 -4.65625 3.523438 -4.632812 3.765625 -4.59375 C 4.003906 -4.5625 4.222656 -4.492188 4.421875 -4.390625 C 4.617188 -4.296875 4.789062 -4.160156 4.9375 -3.984375 C 5.09375 -3.816406 5.207031 -3.601562 5.28125 -3.34375 L 5.328125 -3.203125 L 5.328125 0.6875 L 3.53125 0.6875 L 3.53125 -1.578125 L 3.03125 -1.5625 L 2.515625 -1.5625 L 2.40625 -1.515625 C 2.300781 -1.460938 2.238281 -1.363281 2.21875 -1.21875 C 2.164062 -0.988281 2.207031 -0.800781 2.34375 -0.65625 C 2.4375 -0.539062 2.597656 -0.484375 2.828125 -0.484375 C 2.921875 -0.484375 3.007812 -0.488281 3.09375 -0.5 C 3.175781 -0.519531 3.253906 -0.546875 3.328125 -0.578125 C 3.335938 -0.578125 3.34375 -0.570312 3.34375 -0.5625 C 3.351562 -0.539062 3.359375 -0.363281 3.359375 -0.03125 L 3.359375 0.515625 L 3.265625 0.5625 C 3.109375 0.644531 2.9375 0.703125 2.75 0.734375 C 2.570312 0.765625 2.394531 0.78125 2.21875 0.78125 C 2.113281 0.78125 2.015625 0.773438 1.921875 0.765625 C 1.828125 0.765625 1.738281 0.75 1.65625 0.71875 C 1.207031 0.601562 0.859375 0.367188 0.609375 0.015625 C 0.359375 -0.335938 0.238281 -0.753906 0.25 -1.234375 C 0.289062 -2.003906 0.707031 -2.46875 1.5 -2.625 C 1.582031 -2.632812 1.945312 -2.644531 2.59375 -2.65625 L 3.53125 -2.671875 L 3.515625 -2.828125 C 3.503906 -3.066406 3.441406 -3.21875 3.328125 -3.28125 C 3.210938 -3.34375 3.050781 -3.375 2.84375 -3.375 C 2.800781 -3.375 2.75 -3.367188 2.6875 -3.359375 C 2.625 -3.359375 2.554688 -3.347656 2.484375 -3.328125 C 2.421875 -3.316406 2.363281 -3.296875 2.3125 -3.265625 C 2.257812 -3.242188 2.222656 -3.207031 2.203125 -3.15625 L 2.1875 -3.109375 L 0.515625 -3.109375 C 0.515625 -3.148438 0.566406 -3.28125 0.671875 -3.5 C 0.753906 -3.664062 0.863281 -3.820312 1 -3.96875 C 1.132812 -4.113281 1.257812 -4.226562 1.375 -4.3125 C 1.625 -4.46875 1.890625 -4.5625 2.171875 -4.59375 C 2.453125 -4.632812 2.734375 -4.65625 3.015625 -4.65625 Z M 3.015625 -4.65625 "/></g></g></g><g fill="#a6a6a6" fill-opacity="1"><g transform="translate(21.769871, 16.72127)"><g><path d="M 3.4375 -4.609375 C 3.570312 -4.628906 3.734375 -4.632812 3.921875 -4.625 C 4.117188 -4.625 4.273438 -4.609375 4.390625 -4.578125 C 4.679688 -4.492188 4.925781 -4.316406 5.125 -4.046875 C 5.144531 -3.992188 5.15625 -3.96875 5.15625 -3.96875 C 5.164062 -3.96875 5.207031 -4.003906 5.28125 -4.078125 C 5.582031 -4.367188 5.945312 -4.546875 6.375 -4.609375 C 6.664062 -4.660156 6.941406 -4.644531 7.203125 -4.5625 C 7.472656 -4.488281 7.691406 -4.375 7.859375 -4.21875 C 8.085938 -3.976562 8.253906 -3.628906 8.359375 -3.171875 C 8.367188 -3.085938 8.378906 -2.425781 8.390625 -1.1875 L 8.40625 0.6875 L 6.5625 0.6875 L 6.5625 -2.859375 L 6.515625 -2.96875 C 6.460938 -3.125 6.378906 -3.210938 6.265625 -3.234375 C 6.054688 -3.304688 5.878906 -3.304688 5.734375 -3.234375 C 5.609375 -3.171875 5.503906 -3.007812 5.421875 -2.75 L 5.390625 -2.640625 L 5.390625 -0.984375 L 5.375 0.6875 L 3.53125 0.6875 L 3.53125 -2.921875 L 3.5 -3.015625 C 3.4375 -3.171875 3.300781 -3.265625 3.09375 -3.296875 C 2.914062 -3.304688 2.769531 -3.253906 2.65625 -3.140625 C 2.550781 -3.035156 2.476562 -2.898438 2.4375 -2.734375 C 2.4375 -2.703125 2.429688 -2.664062 2.421875 -2.625 C 2.410156 -2.582031 2.40625 -2.519531 2.40625 -2.4375 C 2.40625 -2.363281 2.40625 -2.203125 2.40625 -1.953125 C 2.40625 -1.710938 2.40625 -1.382812 2.40625 -0.96875 L 2.40625 0.6875 L 0.578125 0.6875 L 0.578125 -2.40625 C 0.578125 -2.945312 0.578125 -3.363281 0.578125 -3.65625 C 0.578125 -3.957031 0.578125 -4.148438 0.578125 -4.234375 C 0.566406 -4.410156 0.539062 -4.507812 0.5 -4.53125 C 0.5 -4.539062 0.492188 -4.546875 0.484375 -4.546875 C 0.460938 -4.554688 0.472656 -4.566406 0.515625 -4.578125 L 2.40625 -4.578125 L 2.40625 -3.953125 L 2.46875 -4.046875 C 2.6875 -4.367188 3.007812 -4.554688 3.4375 -4.609375 Z M 3.4375 -4.609375 "/></g></g></g></svg>