<svg xmlns="http://www.w3.org/2000/svg" xmlns:xlink="http://www.w3.org/1999/xlink" width="42" zoomAndPan="magnify" viewBox="0 0 31.5 30.75" height="41" preserveAspectRatio="xMidYMid meet" version="1.0"><defs><g/><clipPath id="3093da3cd4"><path d="M 0.917969 2 L 30.449219 2 L 30.449219 29.75 L 0.917969 29.75 Z M 0.917969 2 " clip-rule="nonzero"/></clipPath><clipPath id="faa9d83876"><path d="M 4 22 L 27 22 L 27 29.75 L 4 29.75 Z M 4 22 " clip-rule="nonzero"/></clipPath><clipPath id="f6fef83533"><path d="M 4.453125 10.570312 L 26.601562 10.570312 L 26.601562 15.738281 L 4.453125 15.738281 Z M 4.453125 10.570312 " clip-rule="nonzero"/></clipPath><clipPath id="a6e0a6a3eb"><path d="M 4.214844 9.445312 L 27 9.445312 L 27 15.351562 L 4.214844 15.351562 Z M 4.214844 9.445312 " clip-rule="nonzero"/></clipPath><clipPath id="28493c7040"><path d="M 14 6.542969 L 17 6.542969 L 17 9.496094 L 14 9.496094 Z M 14 6.542969 " clip-rule="nonzero"/></clipPath><clipPath id="1127644e84"><path d="M 12 7 L 15 7 L 15 9.496094 L 12 9.496094 Z M 12 7 " clip-rule="nonzero"/></clipPath><clipPath id="3925e16f72"><path d="M 16 7 L 19 7 L 19 9.496094 L 16 9.496094 Z M 16 7 " clip-rule="nonzero"/></clipPath><clipPath id="b1d9fc09b2"><path d="M 11.355469 8.300781 L 12.597656 8.300781 L 12.597656 9.484375 L 11.355469 9.484375 Z M 11.355469 8.300781 " clip-rule="nonzero"/></clipPath><clipPath id="6504bfc3a4"><path d="M 18.40625 8.300781 L 19.476562 8.300781 L 19.476562 9.484375 L 18.40625 9.484375 Z M 18.40625 8.300781 " clip-rule="nonzero"/></clipPath></defs><g clip-path="url(#3093da3cd4)"><path fill="#a6a6a6" d="M 28.878906 15.640625 L 30.003906 15.640625 C 30.042969 15.773438 30.046875 20.53125 30.011719 20.714844 L 29.648438 20.714844 C 29.480469 20.714844 29.316406 20.722656 29.148438 20.714844 C 29.046875 20.699219 28.976562 20.742188 28.933594 20.835938 C 28.648438 21.335938 28.359375 21.835938 28.070312 22.332031 C 27.996094 22.457031 27.921875 22.582031 27.851562 22.707031 C 27.824219 22.773438 27.773438 22.804688 27.699219 22.796875 C 27.539062 22.789062 27.378906 22.804688 27.21875 22.792969 C 27.082031 22.78125 27.007812 22.828125 26.9375 22.945312 C 26.382812 23.863281 25.726562 24.703125 24.960938 25.460938 C 23.039062 27.363281 20.753906 28.589844 18.097656 29.128906 C 16.925781 29.371094 15.742188 29.445312 14.550781 29.355469 C 11.289062 29.105469 8.480469 27.851562 6.125 25.589844 C 5.296875 24.796875 4.589844 23.910156 4 22.929688 C 3.941406 22.828125 3.878906 22.78125 3.761719 22.792969 C 3.632812 22.800781 3.503906 22.785156 3.375 22.796875 C 3.269531 22.8125 3.199219 22.769531 3.160156 22.671875 C 2.871094 22.167969 2.578125 21.664062 2.285156 21.160156 C 2.222656 21.054688 2.152344 20.953125 2.101562 20.839844 C 2.054688 20.734375 1.980469 20.710938 1.875 20.714844 C 1.613281 20.722656 1.351562 20.714844 1.085938 20.714844 C 1.054688 20.714844 1.023438 20.714844 0.992188 20.710938 C 0.957031 20.597656 0.945312 15.859375 0.984375 15.648438 L 2.070312 15.648438 C 2.1875 12.152344 3.4375 9.132812 5.859375 6.617188 C 6.535156 5.921875 7.28125 5.304688 8.089844 4.769531 C 8.902344 4.234375 9.757812 3.792969 10.664062 3.445312 C 11.574219 3.097656 12.507812 2.851562 13.464844 2.707031 C 14.425781 2.5625 15.390625 2.523438 16.359375 2.585938 C 19.8125 2.835938 22.761719 4.203125 25.15625 6.691406 C 27.550781 9.183594 28.757812 12.183594 28.878906 15.640625 Z M 27.667969 15.636719 C 27.648438 12.199219 25.902344 7.800781 21.445312 5.296875 C 17.332031 2.984375 12.148438 3.257812 8.289062 6.070312 C 6.351562 7.464844 4.953125 9.273438 4.09375 11.5 C 3.570312 12.828125 3.296875 14.207031 3.273438 15.636719 Z M 29.804688 15.867188 L 1.199219 15.867188 C 1.160156 16.074219 1.171875 20.378906 1.207031 20.488281 L 29.804688 20.488281 Z M 25.496094 22.804688 L 5.453125 22.804688 C 7.1875 25.433594 10.828125 28.125 15.683594 28.050781 C 20.175781 27.980469 23.738281 25.480469 25.496094 22.804688 Z M 2.710938 15.636719 C 2.773438 13.398438 3.355469 11.320312 4.503906 9.40625 C 5.652344 7.480469 7.199219 5.964844 9.152344 4.859375 C 11.09375 3.742188 13.1875 3.183594 15.429688 3.191406 C 18.4375 3.191406 21.144531 4.113281 23.480469 6.011719 C 26.523438 8.488281 28.074219 11.722656 28.25 15.632812 L 28.628906 15.632812 C 28.601562 13.828125 28.210938 12.109375 27.453125 10.472656 C 24.414062 3.859375 16.585938 0.960938 9.972656 4 C 9.230469 4.34375 8.523438 4.75 7.855469 5.222656 C 5.6875 6.746094 4.132812 8.742188 3.183594 11.214844 C 2.632812 12.636719 2.34375 14.109375 2.316406 15.636719 Z M 4.214844 22.796875 C 6.296875 26.339844 10.765625 29.539062 16.492188 29.109375 C 19.101562 28.910156 21.449219 27.996094 23.523438 26.40625 C 24.824219 25.402344 25.902344 24.199219 26.75 22.792969 C 26.589844 22.792969 26.46875 22.800781 26.347656 22.792969 C 26.234375 22.78125 26.167969 22.828125 26.105469 22.925781 C 25.585938 23.707031 24.988281 24.421875 24.304688 25.066406 C 22.015625 27.222656 19.296875 28.394531 16.152344 28.585938 C 14.976562 28.660156 13.816406 28.5625 12.671875 28.296875 C 9.421875 27.535156 6.847656 25.78125 4.933594 23.058594 C 4.890625 22.996094 4.847656 22.925781 4.796875 22.863281 C 4.773438 22.828125 4.742188 22.808594 4.699219 22.796875 C 4.542969 22.792969 4.390625 22.796875 4.214844 22.796875 Z M 4.214844 22.796875 " fill-opacity="1" fill-rule="nonzero"/><path fill="#a6a6a6" d="M 15.515625 29.421875 C 15.191406 29.421875 14.871094 29.410156 14.546875 29.386719 C 11.292969 29.136719 8.453125 27.867188 6.101562 25.613281 C 5.277344 24.816406 4.566406 23.925781 3.976562 22.941406 C 3.917969 22.847656 3.859375 22.8125 3.761719 22.820312 C 3.699219 22.828125 3.632812 22.824219 3.566406 22.824219 C 3.503906 22.824219 3.441406 22.820312 3.378906 22.828125 C 3.257812 22.839844 3.175781 22.792969 3.132812 22.683594 C 2.917969 22.304688 2.691406 21.917969 2.476562 21.546875 L 2.261719 21.175781 C 2.242188 21.144531 2.222656 21.109375 2.203125 21.078125 C 2.15625 21.007812 2.113281 20.929688 2.078125 20.855469 C 2.035156 20.757812 1.96875 20.742188 1.875 20.746094 C 1.683594 20.75 1.484375 20.746094 1.292969 20.746094 C 1.226562 20.746094 1.15625 20.746094 1.085938 20.746094 C 1.0625 20.746094 1.042969 20.746094 1.019531 20.742188 L 0.972656 20.738281 L 0.964844 20.722656 C 0.925781 20.601562 0.914062 15.855469 0.953125 15.640625 L 0.957031 15.617188 L 2.039062 15.617188 C 2.164062 12.117188 3.445312 9.082031 5.839844 6.597656 C 6.515625 5.898438 7.261719 5.28125 8.074219 4.742188 C 8.886719 4.207031 9.746094 3.761719 10.652344 3.414062 C 11.5625 3.066406 12.5 2.820312 13.460938 2.675781 C 14.425781 2.53125 15.390625 2.492188 16.363281 2.558594 C 19.828125 2.808594 22.792969 4.191406 25.175781 6.671875 C 27.523438 9.113281 28.78125 12.121094 28.910156 15.609375 L 30.023438 15.609375 L 30.03125 15.632812 C 30.070312 15.769531 30.078125 20.527344 30.039062 20.722656 L 30.035156 20.746094 L 29.648438 20.746094 C 29.597656 20.746094 29.550781 20.746094 29.5 20.746094 C 29.386719 20.75 29.265625 20.75 29.148438 20.742188 C 29.058594 20.730469 28.996094 20.765625 28.960938 20.847656 C 28.746094 21.226562 28.527344 21.605469 28.3125 21.972656 L 28.09375 22.347656 C 28.074219 22.386719 28.050781 22.425781 28.027344 22.464844 C 27.976562 22.546875 27.925781 22.636719 27.878906 22.722656 C 27.84375 22.800781 27.78125 22.835938 27.695312 22.824219 C 27.632812 22.824219 27.5625 22.824219 27.5 22.824219 C 27.40625 22.828125 27.308594 22.828125 27.214844 22.820312 C 27.097656 22.8125 27.027344 22.847656 26.960938 22.960938 C 26.40625 23.882812 25.746094 24.722656 24.984375 25.480469 C 23.0625 27.402344 20.769531 28.628906 18.105469 29.160156 C 17.25 29.335938 16.386719 29.421875 15.515625 29.421875 Z M 3.789062 22.761719 C 3.890625 22.761719 3.960938 22.804688 4.027344 22.914062 C 4.613281 23.890625 5.320312 24.777344 6.144531 25.570312 C 8.484375 27.816406 11.3125 29.078125 14.550781 29.328125 C 15.742188 29.417969 16.921875 29.339844 18.09375 29.101562 C 20.746094 28.574219 23.027344 27.351562 24.941406 25.4375 C 25.703125 24.683594 26.359375 23.847656 26.910156 22.929688 C 26.988281 22.796875 27.078125 22.75 27.21875 22.761719 C 27.3125 22.769531 27.40625 22.765625 27.496094 22.765625 C 27.5625 22.765625 27.632812 22.765625 27.699219 22.765625 C 27.757812 22.773438 27.800781 22.75 27.824219 22.695312 C 27.875 22.605469 27.925781 22.519531 27.976562 22.433594 C 28 22.394531 28.019531 22.355469 28.042969 22.316406 L 28.261719 21.941406 C 28.472656 21.574219 28.695312 21.195312 28.910156 20.820312 C 28.957031 20.714844 29.039062 20.667969 29.152344 20.683594 C 29.265625 20.691406 29.386719 20.6875 29.5 20.6875 C 29.550781 20.6875 29.597656 20.6875 29.648438 20.6875 L 29.984375 20.6875 C 30.015625 20.292969 30.011719 16.035156 29.976562 15.667969 L 28.851562 15.667969 L 28.851562 15.640625 C 28.726562 12.15625 27.476562 9.152344 25.132812 6.710938 C 22.761719 4.242188 19.808594 2.863281 16.359375 2.617188 C 15.390625 2.550781 14.429688 2.589844 13.46875 2.734375 C 12.511719 2.878906 11.582031 3.125 10.675781 3.46875 C 9.769531 3.816406 8.914062 4.257812 8.105469 4.792969 C 7.296875 5.328125 6.554688 5.941406 5.882812 6.636719 C 3.492188 9.121094 2.21875 12.152344 2.097656 15.648438 L 2.097656 15.675781 L 1.011719 15.675781 C 0.980469 16.078125 0.988281 20.335938 1.019531 20.683594 L 1.023438 20.683594 C 1.042969 20.683594 1.066406 20.6875 1.085938 20.6875 C 1.15625 20.6875 1.226562 20.6875 1.292969 20.6875 C 1.484375 20.6875 1.679688 20.6875 1.875 20.683594 C 1.972656 20.683594 2.070312 20.699219 2.128906 20.828125 C 2.167969 20.902344 2.207031 20.976562 2.253906 21.046875 C 2.273438 21.078125 2.292969 21.113281 2.3125 21.144531 L 2.527344 21.515625 C 2.742188 21.890625 2.96875 22.277344 3.1875 22.65625 C 3.21875 22.742188 3.28125 22.777344 3.371094 22.765625 C 3.4375 22.761719 3.503906 22.761719 3.570312 22.765625 C 3.632812 22.765625 3.695312 22.765625 3.757812 22.761719 C 3.769531 22.761719 3.777344 22.761719 3.789062 22.761719 Z M 15.472656 29.175781 C 13.15625 29.179688 10.988281 28.613281 8.972656 27.46875 C 6.992188 26.34375 5.292969 24.6875 4.1875 22.808594 L 4.164062 22.765625 L 4.214844 22.765625 C 4.261719 22.765625 4.308594 22.765625 4.351562 22.765625 C 4.472656 22.765625 4.585938 22.761719 4.699219 22.769531 C 4.75 22.777344 4.792969 22.804688 4.824219 22.84375 C 4.855469 22.886719 4.882812 22.929688 4.910156 22.972656 C 4.925781 22.996094 4.941406 23.019531 4.960938 23.042969 C 6.867188 25.757812 9.464844 27.515625 12.679688 28.265625 C 13.820312 28.53125 14.976562 28.628906 16.148438 28.554688 C 19.273438 28.367188 22.007812 27.183594 24.28125 25.046875 C 24.964844 24.402344 25.5625 23.691406 26.078125 22.90625 C 26.15625 22.792969 26.234375 22.753906 26.351562 22.761719 C 26.4375 22.769531 26.523438 22.769531 26.605469 22.765625 C 26.652344 22.765625 26.699219 22.765625 26.75 22.765625 L 26.804688 22.765625 L 26.777344 22.808594 C 25.925781 24.21875 24.847656 25.425781 23.539062 26.429688 C 21.453125 28.03125 19.082031 28.945312 16.492188 29.136719 C 16.152344 29.164062 15.8125 29.175781 15.472656 29.175781 Z M 4.265625 22.824219 C 5.367188 24.675781 7.046875 26.304688 9 27.417969 C 11.328125 28.734375 13.824219 29.289062 16.488281 29.078125 C 19.0625 28.886719 21.425781 27.976562 23.503906 26.382812 C 24.789062 25.394531 25.855469 24.207031 26.699219 22.824219 C 26.667969 22.824219 26.636719 22.824219 26.609375 22.824219 C 26.519531 22.828125 26.433594 22.828125 26.347656 22.820312 C 26.25 22.8125 26.191406 22.84375 26.128906 22.941406 C 25.609375 23.726562 25.007812 24.441406 24.324219 25.089844 C 22.039062 27.238281 19.289062 28.425781 16.152344 28.617188 C 14.976562 28.6875 13.8125 28.589844 12.664062 28.324219 C 9.4375 27.570312 6.828125 25.804688 4.910156 23.078125 C 4.894531 23.054688 4.878906 23.027344 4.859375 23.003906 C 4.835938 22.960938 4.804688 22.921875 4.773438 22.882812 C 4.753906 22.851562 4.726562 22.835938 4.691406 22.828125 C 4.585938 22.824219 4.472656 22.824219 4.355469 22.824219 C 4.324219 22.824219 4.296875 22.824219 4.265625 22.824219 Z M 15.488281 28.082031 C 13.3125 28.082031 11.277344 27.546875 9.382812 26.46875 C 7.777344 25.550781 6.371094 24.253906 5.425781 22.820312 L 5.394531 22.777344 L 25.550781 22.777344 L 25.519531 22.820312 C 24.59375 24.234375 23.210938 25.515625 21.628906 26.429688 C 19.789062 27.496094 17.808594 28.042969 15.683594 28.078125 C 15.621094 28.082031 15.554688 28.082031 15.488281 28.082031 Z M 5.507812 22.835938 C 6.449219 24.242188 7.832031 25.511719 9.414062 26.414062 C 10.339844 26.945312 11.324219 27.347656 12.355469 27.617188 C 13.390625 27.890625 14.441406 28.023438 15.511719 28.023438 C 16.582031 28.019531 17.628906 27.878906 18.664062 27.597656 C 19.695312 27.320312 20.675781 26.914062 21.597656 26.378906 C 23.15625 25.476562 24.519531 24.222656 25.441406 22.835938 Z M 29.835938 20.519531 L 1.1875 20.519531 L 1.179688 20.496094 C 1.140625 20.375 1.128906 16.085938 1.167969 15.859375 L 1.171875 15.835938 L 29.835938 15.835938 Z M 1.234375 20.457031 L 29.777344 20.457031 L 29.777344 15.894531 L 1.226562 15.894531 C 1.191406 16.285156 1.199219 20.113281 1.234375 20.457031 Z M 27.699219 15.664062 L 3.242188 15.664062 L 3.242188 15.636719 C 3.265625 14.203125 3.539062 12.820312 4.0625 11.488281 C 4.925781 9.257812 6.328125 7.441406 8.269531 6.046875 C 9.21875 5.359375 10.242188 4.816406 11.34375 4.421875 C 12.449219 4.03125 13.582031 3.796875 14.753906 3.730469 C 15.921875 3.660156 17.074219 3.757812 18.21875 4.019531 C 19.359375 4.28125 20.441406 4.699219 21.460938 5.269531 C 26.027344 7.835938 27.675781 12.308594 27.699219 15.636719 Z M 3.304688 15.605469 L 27.636719 15.605469 C 27.609375 12.296875 25.960938 7.867188 21.433594 5.320312 C 20.414062 4.753906 19.339844 4.335938 18.203125 4.078125 C 17.066406 3.816406 15.917969 3.71875 14.753906 3.789062 C 13.59375 3.855469 12.460938 4.085938 11.367188 4.480469 C 10.269531 4.871094 9.25 5.410156 8.304688 6.09375 C 6.371094 7.484375 4.976562 9.289062 4.121094 11.507812 C 3.601562 12.824219 3.328125 14.191406 3.304688 15.605469 Z M 2.742188 15.664062 L 2.289062 15.664062 L 2.289062 15.636719 C 2.3125 14.105469 2.601562 12.628906 3.15625 11.203125 C 4.101562 8.722656 5.664062 6.722656 7.839844 5.199219 C 8.234375 4.917969 8.644531 4.660156 9.066406 4.425781 C 9.488281 4.191406 9.921875 3.980469 10.371094 3.792969 C 10.816406 3.605469 11.269531 3.445312 11.734375 3.308594 C 12.199219 3.171875 12.667969 3.058594 13.144531 2.972656 C 13.621094 2.890625 14.101562 2.832031 14.585938 2.796875 C 15.066406 2.765625 15.550781 2.757812 16.035156 2.777344 C 16.515625 2.800781 16.996094 2.847656 17.476562 2.917969 C 17.953125 2.992188 18.425781 3.09375 18.894531 3.21875 C 19.363281 3.34375 19.820312 3.492188 20.273438 3.667969 C 20.722656 3.84375 21.164062 4.042969 21.589844 4.269531 C 22.019531 4.492188 22.4375 4.738281 22.835938 5.007812 C 23.238281 5.277344 23.625 5.570312 23.996094 5.882812 C 24.363281 6.195312 24.714844 6.523438 25.050781 6.875 C 25.382812 7.226562 25.695312 7.59375 25.988281 7.980469 C 26.28125 8.363281 26.554688 8.765625 26.800781 9.179688 C 27.050781 9.59375 27.277344 10.023438 27.476562 10.460938 C 28.238281 12.101562 28.632812 13.824219 28.660156 15.632812 L 28.660156 15.664062 L 28.222656 15.664062 L 28.21875 15.632812 C 28.042969 11.691406 26.441406 8.460938 23.460938 6.035156 C 21.164062 4.167969 18.460938 3.222656 15.429688 3.222656 C 15.414062 3.222656 15.402344 3.222656 15.386719 3.222656 C 13.164062 3.222656 11.09375 3.777344 9.167969 4.886719 C 7.21875 5.988281 5.675781 7.5 4.53125 9.421875 C 3.402344 11.300781 2.800781 13.390625 2.742188 15.636719 Z M 2.347656 15.605469 L 2.683594 15.605469 C 2.746094 13.363281 3.351562 11.269531 4.480469 9.390625 C 5.628906 7.460938 7.179688 5.941406 9.136719 4.835938 C 11.070312 3.71875 13.15625 3.164062 15.386719 3.160156 C 15.402344 3.160156 15.414062 3.160156 15.429688 3.160156 C 18.476562 3.160156 21.191406 4.113281 23.496094 5.988281 C 26.488281 8.421875 28.09375 11.65625 28.277344 15.601562 L 28.597656 15.601562 C 28.570312 13.8125 28.179688 12.109375 27.425781 10.488281 C 27.222656 10.046875 27 9.625 26.75 9.210938 C 26.503906 8.796875 26.234375 8.398438 25.941406 8.015625 C 25.648438 7.632812 25.339844 7.265625 25.007812 6.917969 C 24.675781 6.566406 24.324219 6.238281 23.957031 5.925781 C 23.589844 5.617188 23.203125 5.328125 22.804688 5.058594 C 22.40625 4.789062 21.992188 4.542969 21.5625 4.320312 C 21.136719 4.097656 20.699219 3.898438 20.25 3.722656 C 19.800781 3.550781 19.34375 3.398438 18.878906 3.273438 C 18.414062 3.148438 17.941406 3.050781 17.46875 2.976562 C 16.992188 2.90625 16.511719 2.859375 16.03125 2.839844 C 15.550781 2.816406 15.070312 2.824219 14.589844 2.855469 C 14.109375 2.890625 13.628906 2.949219 13.15625 3.03125 C 12.683594 3.117188 12.214844 3.230469 11.75 3.363281 C 11.289062 3.5 10.835938 3.664062 10.394531 3.847656 C 9.949219 4.035156 9.515625 4.246094 9.09375 4.480469 C 8.671875 4.710938 8.265625 4.96875 7.875 5.246094 C 5.707031 6.765625 4.15625 8.757812 3.210938 11.226562 C 2.664062 12.636719 2.375 14.09375 2.347656 15.605469 Z M 2.347656 15.605469 " fill-opacity="1" fill-rule="nonzero"/></g><path fill="#ffffff" d="M 27.667969 15.636719 L 3.273438 15.636719 C 3.296875 14.207031 3.570312 12.828125 4.09375 11.5 C 4.953125 9.273438 6.351562 7.464844 8.289062 6.070312 C 12.148438 3.257812 17.332031 2.984375 21.445312 5.296875 C 25.902344 7.800781 27.648438 12.199219 27.667969 15.636719 Z M 27.667969 15.636719 " fill-opacity="1" fill-rule="nonzero"/><path fill="#a6a6a6" d="M 27.699219 15.664062 L 3.242188 15.664062 L 3.242188 15.636719 C 3.265625 14.203125 3.539062 12.820312 4.0625 11.488281 C 4.925781 9.257812 6.328125 7.441406 8.269531 6.046875 C 9.21875 5.359375 10.242188 4.816406 11.34375 4.421875 C 12.449219 4.03125 13.582031 3.796875 14.753906 3.730469 C 15.921875 3.660156 17.074219 3.757812 18.21875 4.019531 C 19.359375 4.28125 20.441406 4.699219 21.460938 5.269531 C 26.027344 7.835938 27.675781 12.308594 27.699219 15.636719 Z M 3.304688 15.605469 L 27.636719 15.605469 C 27.609375 12.296875 25.960938 7.867188 21.433594 5.320312 C 20.414062 4.753906 19.339844 4.335938 18.203125 4.078125 C 17.066406 3.816406 15.917969 3.71875 14.753906 3.789062 C 13.59375 3.855469 12.460938 4.085938 11.367188 4.480469 C 10.269531 4.871094 9.25 5.410156 8.304688 6.09375 C 6.371094 7.484375 4.976562 9.289062 4.121094 11.507812 C 3.601562 12.824219 3.328125 14.191406 3.304688 15.605469 Z M 3.304688 15.605469 " fill-opacity="1" fill-rule="nonzero"/><path fill="#ffffff" d="M 29.804688 15.867188 L 29.804688 20.488281 L 1.207031 20.488281 C 1.171875 20.378906 1.160156 16.074219 1.199219 15.867188 Z M 29.804688 15.867188 " fill-opacity="1" fill-rule="nonzero"/><path fill="#a6a6a6" d="M 29.835938 20.519531 L 1.1875 20.519531 L 1.179688 20.496094 C 1.140625 20.375 1.128906 16.085938 1.167969 15.859375 L 1.171875 15.835938 L 29.835938 15.835938 Z M 1.234375 20.457031 L 29.777344 20.457031 L 29.777344 15.894531 L 1.226562 15.894531 C 1.191406 16.285156 1.199219 20.113281 1.234375 20.457031 Z M 1.234375 20.457031 " fill-opacity="1" fill-rule="nonzero"/><path fill="#ffffff" d="M 25.496094 22.804688 C 23.738281 25.480469 20.175781 27.980469 15.683594 28.050781 C 10.828125 28.125 7.1875 25.433594 5.453125 22.804688 Z M 25.496094 22.804688 " fill-opacity="1" fill-rule="nonzero"/><path fill="#a6a6a6" d="M 15.488281 28.082031 C 13.3125 28.082031 11.277344 27.546875 9.382812 26.46875 C 7.777344 25.550781 6.371094 24.253906 5.425781 22.820312 L 5.394531 22.777344 L 25.550781 22.777344 L 25.519531 22.820312 C 24.59375 24.234375 23.210938 25.515625 21.628906 26.429688 C 19.789062 27.496094 17.808594 28.042969 15.683594 28.078125 C 15.621094 28.082031 15.554688 28.082031 15.488281 28.082031 Z M 5.507812 22.835938 C 6.449219 24.242188 7.832031 25.511719 9.414062 26.414062 C 10.339844 26.945312 11.324219 27.347656 12.355469 27.617188 C 13.390625 27.890625 14.441406 28.023438 15.511719 28.023438 C 16.582031 28.019531 17.628906 27.878906 18.664062 27.597656 C 19.695312 27.320312 20.675781 26.914062 21.597656 26.378906 C 23.15625 25.476562 24.519531 24.222656 25.441406 22.835938 Z M 5.507812 22.835938 " fill-opacity="1" fill-rule="nonzero"/><path fill="#ffffff" d="M 2.710938 15.636719 L 2.316406 15.636719 C 2.34375 14.109375 2.632812 12.636719 3.183594 11.214844 C 4.132812 8.742188 5.6875 6.746094 7.855469 5.222656 C 13.792969 1.015625 22.019531 2.417969 26.230469 8.355469 C 26.703125 9.023438 27.109375 9.730469 27.453125 10.472656 C 28.210938 12.109375 28.601562 13.828125 28.628906 15.632812 L 28.25 15.632812 C 28.074219 11.722656 26.523438 8.488281 23.480469 6.011719 C 21.144531 4.113281 18.4375 3.191406 15.429688 3.191406 C 13.1875 3.183594 11.09375 3.742188 9.152344 4.859375 C 7.199219 5.964844 5.652344 7.480469 4.503906 9.40625 C 3.355469 11.320312 2.773438 13.398438 2.710938 15.636719 Z M 2.710938 15.636719 " fill-opacity="1" fill-rule="nonzero"/><path fill="#a6a6a6" d="M 2.742188 15.664062 L 2.289062 15.664062 L 2.289062 15.636719 C 2.3125 14.105469 2.601562 12.628906 3.15625 11.203125 C 4.101562 8.722656 5.664062 6.722656 7.839844 5.199219 C 8.234375 4.917969 8.644531 4.660156 9.066406 4.425781 C 9.488281 4.191406 9.921875 3.980469 10.371094 3.792969 C 10.816406 3.605469 11.269531 3.445312 11.734375 3.308594 C 12.199219 3.171875 12.667969 3.058594 13.144531 2.972656 C 13.621094 2.890625 14.101562 2.828125 14.585938 2.796875 C 15.066406 2.765625 15.550781 2.757812 16.035156 2.777344 C 16.515625 2.800781 16.996094 2.847656 17.476562 2.917969 C 17.953125 2.992188 18.425781 3.09375 18.894531 3.21875 C 19.363281 3.34375 19.820312 3.492188 20.273438 3.667969 C 20.722656 3.84375 21.164062 4.042969 21.589844 4.269531 C 22.019531 4.492188 22.4375 4.738281 22.835938 5.007812 C 23.238281 5.277344 23.625 5.570312 23.996094 5.882812 C 24.363281 6.195312 24.714844 6.523438 25.050781 6.875 C 25.382812 7.226562 25.695312 7.59375 25.988281 7.980469 C 26.28125 8.363281 26.554688 8.765625 26.800781 9.179688 C 27.050781 9.59375 27.277344 10.023438 27.476562 10.460938 C 28.238281 12.101562 28.632812 13.824219 28.660156 15.632812 L 28.660156 15.664062 L 28.222656 15.664062 L 28.21875 15.632812 C 28.042969 11.691406 26.441406 8.460938 23.460938 6.035156 C 21.164062 4.167969 18.460938 3.222656 15.429688 3.222656 C 15.414062 3.222656 15.402344 3.222656 15.386719 3.222656 C 13.164062 3.222656 11.09375 3.777344 9.167969 4.886719 C 7.21875 5.988281 5.675781 7.5 4.53125 9.421875 C 3.402344 11.300781 2.800781 13.390625 2.742188 15.636719 Z M 2.347656 15.605469 L 2.683594 15.605469 C 2.746094 13.363281 3.351562 11.269531 4.480469 9.390625 C 5.628906 7.460938 7.179688 5.941406 9.136719 4.835938 C 11.085938 3.710938 13.179688 3.152344 15.429688 3.160156 C 18.476562 3.160156 21.191406 4.113281 23.496094 5.988281 C 26.488281 8.421875 28.09375 11.65625 28.277344 15.601562 L 28.597656 15.601562 C 28.570312 13.8125 28.179688 12.109375 27.425781 10.488281 C 27.222656 10.046875 27 9.625 26.75 9.210938 C 26.503906 8.796875 26.234375 8.398438 25.941406 8.015625 C 25.648438 7.632812 25.339844 7.265625 25.007812 6.917969 C 24.675781 6.566406 24.324219 6.238281 23.957031 5.925781 C 23.589844 5.617188 23.203125 5.328125 22.804688 5.058594 C 22.40625 4.789062 21.992188 4.542969 21.5625 4.320312 C 21.136719 4.097656 20.699219 3.898438 20.25 3.722656 C 19.800781 3.550781 19.34375 3.398438 18.878906 3.273438 C 18.414062 3.148438 17.941406 3.050781 17.46875 2.980469 C 16.992188 2.90625 16.511719 2.859375 16.03125 2.839844 C 15.550781 2.816406 15.070312 2.824219 14.589844 2.855469 C 14.109375 2.890625 13.628906 2.949219 13.15625 3.03125 C 12.683594 3.117188 12.214844 3.230469 11.75 3.363281 C 11.289062 3.5 10.835938 3.664062 10.394531 3.847656 C 9.949219 4.035156 9.515625 4.246094 9.09375 4.480469 C 8.671875 4.710938 8.265625 4.96875 7.875 5.246094 C 5.707031 6.765625 4.15625 8.757812 3.210938 11.226562 C 2.664062 12.636719 2.375 14.09375 2.347656 15.605469 Z M 2.347656 15.605469 " fill-opacity="1" fill-rule="nonzero"/><g clip-path="url(#faa9d83876)"><path fill="#ffffff" d="M 4.214844 22.796875 C 4.390625 22.796875 4.542969 22.792969 4.699219 22.796875 C 4.742188 22.808594 4.773438 22.828125 4.796875 22.863281 C 4.847656 22.925781 4.890625 22.996094 4.933594 23.058594 C 6.847656 25.78125 9.421875 27.535156 12.671875 28.296875 C 13.816406 28.5625 14.976562 28.660156 16.152344 28.585938 C 19.296875 28.398438 22.011719 27.226562 24.304688 25.066406 C 24.988281 24.421875 25.585938 23.707031 26.105469 22.925781 C 26.167969 22.828125 26.234375 22.78125 26.347656 22.792969 C 26.46875 22.800781 26.589844 22.792969 26.75 22.792969 C 25.902344 24.199219 24.824219 25.402344 23.523438 26.40625 C 21.449219 27.996094 19.101562 28.910156 16.492188 29.109375 C 10.765625 29.539062 6.296875 26.339844 4.214844 22.796875 Z M 4.214844 22.796875 " fill-opacity="1" fill-rule="nonzero"/><path fill="#a6a6a6" d="M 15.472656 29.175781 C 13.15625 29.179688 10.988281 28.613281 8.972656 27.46875 C 6.992188 26.34375 5.292969 24.6875 4.1875 22.808594 L 4.164062 22.765625 L 4.214844 22.765625 C 4.261719 22.765625 4.308594 22.765625 4.351562 22.765625 C 4.472656 22.765625 4.585938 22.761719 4.699219 22.769531 C 4.75 22.777344 4.792969 22.804688 4.824219 22.84375 C 4.855469 22.886719 4.882812 22.929688 4.910156 22.972656 C 4.925781 22.996094 4.941406 23.019531 4.960938 23.042969 C 6.867188 25.757812 9.464844 27.515625 12.679688 28.265625 C 13.820312 28.53125 14.976562 28.628906 16.148438 28.554688 C 19.269531 28.371094 22.007812 27.191406 24.28125 25.046875 C 24.964844 24.402344 25.5625 23.691406 26.078125 22.90625 C 26.15625 22.792969 26.234375 22.753906 26.351562 22.761719 C 26.4375 22.769531 26.523438 22.769531 26.605469 22.765625 C 26.652344 22.765625 26.699219 22.765625 26.75 22.765625 L 26.804688 22.765625 L 26.777344 22.808594 C 25.925781 24.21875 24.847656 25.425781 23.539062 26.429688 C 21.453125 28.03125 19.082031 28.945312 16.492188 29.136719 C 16.152344 29.164062 15.8125 29.175781 15.472656 29.175781 Z M 4.265625 22.824219 C 5.367188 24.675781 7.046875 26.304688 9 27.417969 C 11.328125 28.734375 13.824219 29.289062 16.488281 29.078125 C 19.0625 28.886719 21.425781 27.976562 23.503906 26.382812 C 24.789062 25.394531 25.855469 24.207031 26.699219 22.824219 C 26.667969 22.824219 26.636719 22.824219 26.609375 22.824219 C 26.519531 22.828125 26.433594 22.828125 26.347656 22.820312 C 26.25 22.8125 26.191406 22.84375 26.128906 22.941406 C 25.609375 23.726562 25.007812 24.441406 24.324219 25.089844 C 22.039062 27.242188 19.289062 28.429688 16.152344 28.617188 C 14.976562 28.6875 13.8125 28.589844 12.664062 28.324219 C 9.4375 27.570312 6.828125 25.804688 4.910156 23.078125 C 4.894531 23.054688 4.878906 23.027344 4.859375 23.003906 C 4.835938 22.960938 4.804688 22.921875 4.773438 22.882812 C 4.753906 22.851562 4.726562 22.835938 4.691406 22.828125 C 4.585938 22.824219 4.472656 22.824219 4.355469 22.824219 C 4.324219 22.824219 4.296875 22.824219 4.265625 22.824219 Z M 4.265625 22.824219 " fill-opacity="1" fill-rule="nonzero"/></g><g clip-path="url(#f6fef83533)"><path fill="#a6a6a6" d="M 15.503906 4.535156 C 14.777344 4.535156 14.058594 4.609375 13.347656 4.75 C 12.636719 4.890625 11.945312 5.101562 11.273438 5.378906 C 10.605469 5.65625 9.96875 5.996094 9.363281 6.398438 C 8.761719 6.804688 8.203125 7.261719 7.6875 7.773438 C 7.175781 8.289062 6.71875 8.847656 6.3125 9.449219 C 5.910156 10.054688 5.570312 10.691406 5.292969 11.359375 C 5.015625 12.03125 4.804688 12.722656 4.664062 13.433594 C 4.523438 14.144531 4.453125 14.863281 4.453125 15.589844 C 4.453125 16.316406 4.523438 17.035156 4.664062 17.746094 C 4.804688 18.457031 5.015625 19.148438 5.292969 19.820312 C 5.570312 20.492188 5.910156 21.128906 6.3125 21.730469 C 6.71875 22.335938 7.175781 22.894531 7.6875 23.40625 C 8.203125 23.917969 8.761719 24.378906 9.363281 24.78125 C 9.96875 25.183594 10.605469 25.523438 11.273438 25.800781 C 11.945312 26.078125 12.636719 26.289062 13.347656 26.429688 C 14.058594 26.574219 14.777344 26.644531 15.503906 26.644531 C 16.230469 26.644531 16.949219 26.574219 17.660156 26.429688 C 18.371094 26.289062 19.0625 26.078125 19.734375 25.800781 C 20.40625 25.523438 21.042969 25.183594 21.644531 24.78125 C 22.25 24.378906 22.808594 23.917969 23.320312 23.40625 C 23.832031 22.894531 24.292969 22.335938 24.695312 21.730469 C 25.097656 21.128906 25.4375 20.492188 25.714844 19.820312 C 25.992188 19.148438 26.203125 18.457031 26.34375 17.746094 C 26.488281 17.035156 26.558594 16.316406 26.558594 15.589844 C 26.554688 14.863281 26.484375 14.144531 26.34375 13.433594 C 26.199219 12.722656 25.992188 12.03125 25.710938 11.363281 C 25.433594 10.691406 25.09375 10.054688 24.691406 9.453125 C 24.289062 8.847656 23.828125 8.292969 23.316406 7.777344 C 22.804688 7.265625 22.246094 6.808594 21.640625 6.402344 C 21.039062 6 20.402344 5.660156 19.730469 5.382812 C 19.0625 5.105469 18.371094 4.894531 17.660156 4.75 C 16.949219 4.609375 16.230469 4.539062 15.503906 4.535156 Z M 15.503906 26.347656 C 14.796875 26.347656 14.097656 26.277344 13.40625 26.140625 C 12.714844 26.003906 12.039062 25.796875 11.386719 25.527344 C 10.734375 25.257812 10.117188 24.925781 9.527344 24.535156 C 8.941406 24.140625 8.398438 23.695312 7.898438 23.195312 C 7.398438 22.695312 6.953125 22.152344 6.5625 21.566406 C 6.167969 20.980469 5.835938 20.359375 5.566406 19.707031 C 5.296875 19.054688 5.09375 18.382812 4.953125 17.6875 C 4.816406 16.996094 4.746094 16.296875 4.746094 15.589844 C 4.746094 14.882812 4.816406 14.183594 4.953125 13.492188 C 5.09375 12.800781 5.296875 12.125 5.566406 11.472656 C 5.835938 10.820312 6.167969 10.203125 6.5625 9.613281 C 6.953125 9.027344 7.398438 8.484375 7.898438 7.984375 C 8.398438 7.484375 8.941406 7.039062 9.527344 6.644531 C 10.117188 6.253906 10.734375 5.921875 11.386719 5.652344 C 12.039062 5.382812 12.714844 5.179688 13.40625 5.039062 C 14.097656 4.902344 14.796875 4.832031 15.503906 4.832031 C 16.210938 4.832031 16.910156 4.902344 17.601562 5.039062 C 18.296875 5.179688 18.96875 5.382812 19.621094 5.652344 C 20.273438 5.921875 20.894531 6.253906 21.480469 6.644531 C 22.066406 7.039062 22.609375 7.484375 23.109375 7.984375 C 23.609375 8.484375 24.054688 9.027344 24.449219 9.613281 C 24.839844 10.203125 25.171875 10.820312 25.441406 11.472656 C 25.710938 12.125 25.917969 12.800781 26.054688 13.492188 C 26.191406 14.183594 26.261719 14.882812 26.261719 15.589844 C 26.261719 16.296875 26.191406 16.996094 26.050781 17.6875 C 25.914062 18.378906 25.710938 19.050781 25.4375 19.703125 C 25.167969 20.355469 24.835938 20.976562 24.445312 21.5625 C 24.050781 22.152344 23.605469 22.695312 23.105469 23.191406 C 22.609375 23.691406 22.066406 24.136719 21.476562 24.53125 C 20.890625 24.921875 20.269531 25.253906 19.617188 25.523438 C 18.964844 25.796875 18.292969 26 17.601562 26.136719 C 16.910156 26.277344 16.210938 26.347656 15.503906 26.347656 Z M 15.503906 26.347656 " fill-opacity="1" fill-rule="nonzero"/></g><g clip-path="url(#a6e0a6a3eb)"><path fill="#a6a6a6" d="M 4.230469 15.675781 C 6.34375 14.246094 8.453125 12.816406 10.570312 11.390625 C 11.089844 11.039062 11.261719 11.082031 11.667969 11.324219 C 11.992188 11.527344 12.171875 11.527344 12.503906 11.296875 C 13.308594 10.738281 14.117188 10.175781 14.921875 9.617188 C 15.175781 9.445312 15.261719 9.445312 15.507812 9.605469 C 16.628906 10.320312 17.75 11.027344 18.863281 11.742188 C 18.15625 12 16.800781 12.46875 16.472656 13.207031 C 16.308594 13.582031 16.414062 13.964844 16.824219 14.339844 C 17.226562 14.707031 17.390625 14.921875 16.886719 15.300781 C 16.703125 15.433594 16.511719 15.558594 16.320312 15.675781 C 15.089844 15.675781 13.851562 15.675781 12.621094 15.675781 C 13.636719 14.597656 14.644531 13.519531 15.660156 12.449219 C 15.136719 12.707031 14.621094 12.972656 14.105469 13.230469 C 14.40625 12.300781 14.707031 11.371094 15.007812 10.441406 C 13.597656 11.511719 12.195312 12.585938 10.785156 13.65625 C 10.796875 13.015625 10.804688 12.382812 10.816406 11.742188 C 9.523438 13.050781 8.226562 14.363281 6.933594 15.675781 C 6.027344 15.675781 5.128906 15.675781 4.230469 15.675781 Z M 18.289062 15.675781 C 18.542969 15.304688 18.566406 14.960938 18.425781 14.640625 C 18.242188 14.214844 17.820312 13.976562 17.441406 13.734375 C 16.75 13.292969 17.386719 12.835938 17.808594 12.578125 C 18.351562 12.25 18.949219 11.976562 19.539062 11.691406 C 19.835938 11.542969 19.953125 11.539062 20.234375 11.710938 C 22.414062 13.027344 24.59375 14.351562 26.773438 15.675781 C 26.039062 15.675781 25.308594 15.675781 24.574219 15.675781 C 24.089844 15.3125 23.609375 14.953125 23.121094 14.597656 C 23.410156 14.953125 23.699219 15.3125 23.984375 15.675781 C 23.171875 15.503906 22.390625 15.300781 21.6875 15.023438 C 21.441406 14.921875 21.378906 14.683594 21.496094 14.449219 C 21.738281 13.992188 21.453125 13.890625 21.152344 14.167969 C 20.609375 14.671875 20.074219 15.167969 19.53125 15.675781 C 19.121094 15.675781 18.703125 15.675781 18.289062 15.675781 Z M 18.289062 15.675781 " fill-opacity="1" fill-rule="evenodd"/></g><g fill="#a6a6a6" fill-opacity="1"><g transform="translate(9.202499, 21.945343)"><g><path d="M 1.0625 -0.671875 L 0.84375 0 L 0.71875 0 L 0.546875 -0.484375 L 0.375 0 L 0.25 0 L 0.03125 -0.671875 L 0.15625 -0.671875 L 0.328125 -0.15625 L 0.484375 -0.671875 L 0.609375 -0.671875 L 0.78125 -0.15625 L 0.953125 -0.671875 Z M 1.0625 -0.671875 "/></g></g></g><g fill="#a6a6a6" fill-opacity="1"><g transform="translate(10.577589, 21.945343)"><g><path d="M 0.09375 -0.671875 L 0.203125 -0.671875 L 0.203125 0 L 0.09375 0 Z M 0.09375 -0.671875 "/></g></g></g><g fill="#a6a6a6" fill-opacity="1"><g transform="translate(11.167228, 21.945343)"><g><path d="M 0.5 0 L 0.328125 -0.25 L 0.15625 0 L 0.015625 0 L 0.25 -0.34375 L 0.015625 -0.671875 L 0.15625 -0.671875 L 0.328125 -0.4375 L 0.5 -0.671875 L 0.640625 -0.671875 L 0.40625 -0.34375 L 0.65625 0 Z M 0.5 0 "/></g></g></g><g fill="#a6a6a6" fill-opacity="1"><g transform="translate(12.112939, 21.945343)"><g/></g></g><g fill="#a6a6a6" fill-opacity="1"><g transform="translate(12.661638, 21.945343)"><g><path d="M 0.296875 0.015625 C 0.242188 0.015625 0.191406 0.0078125 0.140625 0 C 0.0976562 -0.0195312 0.0625 -0.046875 0.03125 -0.078125 L 0.078125 -0.15625 C 0.109375 -0.144531 0.140625 -0.128906 0.171875 -0.109375 C 0.210938 -0.0976562 0.253906 -0.09375 0.296875 -0.09375 C 0.347656 -0.09375 0.382812 -0.0976562 0.40625 -0.109375 C 0.4375 -0.128906 0.453125 -0.148438 0.453125 -0.171875 C 0.453125 -0.191406 0.441406 -0.207031 0.421875 -0.21875 C 0.410156 -0.238281 0.394531 -0.25 0.375 -0.25 C 0.351562 -0.257812 0.320312 -0.269531 0.28125 -0.28125 C 0.226562 -0.289062 0.1875 -0.300781 0.15625 -0.3125 C 0.132812 -0.320312 0.109375 -0.34375 0.078125 -0.375 C 0.0546875 -0.40625 0.046875 -0.4375 0.046875 -0.46875 C 0.046875 -0.507812 0.0546875 -0.546875 0.078125 -0.578125 C 0.0976562 -0.609375 0.125 -0.628906 0.15625 -0.640625 C 0.195312 -0.660156 0.25 -0.671875 0.3125 -0.671875 C 0.351562 -0.671875 0.390625 -0.664062 0.421875 -0.65625 C 0.460938 -0.644531 0.5 -0.628906 0.53125 -0.609375 L 0.5 -0.515625 C 0.476562 -0.535156 0.445312 -0.550781 0.40625 -0.5625 C 0.375 -0.570312 0.34375 -0.578125 0.3125 -0.578125 C 0.257812 -0.578125 0.21875 -0.566406 0.1875 -0.546875 C 0.164062 -0.523438 0.15625 -0.5 0.15625 -0.46875 C 0.15625 -0.46875 0.160156 -0.457031 0.171875 -0.4375 C 0.191406 -0.425781 0.210938 -0.414062 0.234375 -0.40625 C 0.253906 -0.40625 0.285156 -0.398438 0.328125 -0.390625 C 0.378906 -0.378906 0.414062 -0.363281 0.4375 -0.34375 C 0.46875 -0.332031 0.492188 -0.3125 0.515625 -0.28125 C 0.546875 -0.257812 0.5625 -0.226562 0.5625 -0.1875 C 0.5625 -0.15625 0.550781 -0.125 0.53125 -0.09375 C 0.507812 -0.0625 0.476562 -0.0351562 0.4375 -0.015625 C 0.40625 0.00390625 0.359375 0.015625 0.296875 0.015625 Z M 0.296875 0.015625 "/></g></g></g><g fill="#a6a6a6" fill-opacity="1"><g transform="translate(13.546417, 21.945343)"><g><path d="M 0.359375 -0.671875 C 0.421875 -0.671875 0.472656 -0.660156 0.515625 -0.640625 C 0.554688 -0.617188 0.585938 -0.585938 0.609375 -0.546875 C 0.640625 -0.515625 0.65625 -0.476562 0.65625 -0.4375 C 0.65625 -0.382812 0.640625 -0.335938 0.609375 -0.296875 C 0.585938 -0.265625 0.554688 -0.238281 0.515625 -0.21875 C 0.472656 -0.195312 0.421875 -0.1875 0.359375 -0.1875 L 0.203125 -0.1875 L 0.203125 0 L 0.09375 0 L 0.09375 -0.671875 Z M 0.359375 -0.296875 C 0.421875 -0.296875 0.460938 -0.304688 0.484375 -0.328125 C 0.503906 -0.359375 0.515625 -0.394531 0.515625 -0.4375 C 0.515625 -0.46875 0.503906 -0.492188 0.484375 -0.515625 C 0.460938 -0.546875 0.421875 -0.5625 0.359375 -0.5625 L 0.203125 -0.5625 L 0.203125 -0.296875 Z M 0.359375 -0.296875 "/></g></g></g><g fill="#a6a6a6" fill-opacity="1"><g transform="translate(14.523545, 21.945343)"><g><path d="M 0.59375 -0.109375 L 0.59375 0 L 0.09375 0 L 0.09375 -0.671875 L 0.578125 -0.671875 L 0.578125 -0.5625 L 0.203125 -0.5625 L 0.203125 -0.390625 L 0.53125 -0.390625 L 0.53125 -0.28125 L 0.203125 -0.28125 L 0.203125 -0.109375 Z M 0.59375 -0.109375 "/></g></g></g><g fill="#a6a6a6" fill-opacity="1"><g transform="translate(15.447359, 21.945343)"><g><path d="M 0.40625 0.015625 C 0.332031 0.015625 0.269531 0 0.21875 -0.03125 C 0.164062 -0.0625 0.125 -0.101562 0.09375 -0.15625 C 0.0625 -0.207031 0.046875 -0.265625 0.046875 -0.328125 C 0.046875 -0.398438 0.0625 -0.457031 0.09375 -0.5 C 0.125 -0.550781 0.164062 -0.59375 0.21875 -0.625 C 0.269531 -0.65625 0.332031 -0.671875 0.40625 -0.671875 C 0.445312 -0.671875 0.488281 -0.660156 0.53125 -0.640625 C 0.582031 -0.628906 0.628906 -0.601562 0.671875 -0.5625 L 0.578125 -0.484375 C 0.523438 -0.535156 0.46875 -0.5625 0.40625 -0.5625 C 0.363281 -0.5625 0.320312 -0.550781 0.28125 -0.53125 C 0.238281 -0.507812 0.207031 -0.484375 0.1875 -0.453125 C 0.164062 -0.421875 0.15625 -0.378906 0.15625 -0.328125 C 0.15625 -0.285156 0.164062 -0.242188 0.1875 -0.203125 C 0.207031 -0.171875 0.238281 -0.144531 0.28125 -0.125 C 0.320312 -0.113281 0.363281 -0.109375 0.40625 -0.109375 C 0.46875 -0.109375 0.523438 -0.128906 0.578125 -0.171875 L 0.671875 -0.109375 C 0.628906 -0.0664062 0.582031 -0.0351562 0.53125 -0.015625 C 0.488281 0.00390625 0.445312 0.015625 0.40625 0.015625 Z M 0.40625 0.015625 "/></g></g></g><g fill="#a6a6a6" fill-opacity="1"><g transform="translate(16.425439, 21.945343)"><g><path d="M 0.09375 -0.671875 L 0.203125 -0.671875 L 0.203125 0 L 0.09375 0 Z M 0.09375 -0.671875 "/></g></g></g><g fill="#a6a6a6" fill-opacity="1"><g transform="translate(17.015078, 21.945343)"><g><path d="M 0.515625 -0.15625 L 0.1875 -0.15625 L 0.125 0 L 0 0 L 0.296875 -0.671875 L 0.421875 -0.671875 L 0.71875 0 L 0.59375 0 Z M 0.46875 -0.25 L 0.359375 -0.53125 L 0.21875 -0.25 Z M 0.46875 -0.25 "/></g></g></g><g fill="#a6a6a6" fill-opacity="1"><g transform="translate(18.014103, 21.945343)"><g><path d="M 0.09375 -0.671875 L 0.203125 -0.671875 L 0.203125 -0.109375 L 0.5625 -0.109375 L 0.5625 0 L 0.09375 0 Z M 0.09375 -0.671875 "/></g></g></g><g fill="#a6a6a6" fill-opacity="1"><g transform="translate(18.87032, 21.945343)"><g><path d="M 0.09375 -0.671875 L 0.203125 -0.671875 L 0.203125 0 L 0.09375 0 Z M 0.09375 -0.671875 "/></g></g></g><g fill="#a6a6a6" fill-opacity="1"><g transform="translate(19.459958, 21.945343)"><g><path d="M 0.296875 0.015625 C 0.242188 0.015625 0.191406 0.0078125 0.140625 0 C 0.0976562 -0.0195312 0.0625 -0.046875 0.03125 -0.078125 L 0.078125 -0.15625 C 0.109375 -0.144531 0.140625 -0.128906 0.171875 -0.109375 C 0.210938 -0.0976562 0.253906 -0.09375 0.296875 -0.09375 C 0.347656 -0.09375 0.382812 -0.0976562 0.40625 -0.109375 C 0.4375 -0.128906 0.453125 -0.148438 0.453125 -0.171875 C 0.453125 -0.191406 0.441406 -0.207031 0.421875 -0.21875 C 0.410156 -0.238281 0.394531 -0.25 0.375 -0.25 C 0.351562 -0.257812 0.320312 -0.269531 0.28125 -0.28125 C 0.226562 -0.289062 0.1875 -0.300781 0.15625 -0.3125 C 0.132812 -0.320312 0.109375 -0.34375 0.078125 -0.375 C 0.0546875 -0.40625 0.046875 -0.4375 0.046875 -0.46875 C 0.046875 -0.507812 0.0546875 -0.546875 0.078125 -0.578125 C 0.0976562 -0.609375 0.125 -0.628906 0.15625 -0.640625 C 0.195312 -0.660156 0.25 -0.671875 0.3125 -0.671875 C 0.351562 -0.671875 0.390625 -0.664062 0.421875 -0.65625 C 0.460938 -0.644531 0.5 -0.628906 0.53125 -0.609375 L 0.5 -0.515625 C 0.476562 -0.535156 0.445312 -0.550781 0.40625 -0.5625 C 0.375 -0.570312 0.34375 -0.578125 0.3125 -0.578125 C 0.257812 -0.578125 0.21875 -0.566406 0.1875 -0.546875 C 0.164062 -0.523438 0.15625 -0.5 0.15625 -0.46875 C 0.15625 -0.46875 0.160156 -0.457031 0.171875 -0.4375 C 0.191406 -0.425781 0.210938 -0.414062 0.234375 -0.40625 C 0.253906 -0.40625 0.285156 -0.398438 0.328125 -0.390625 C 0.378906 -0.378906 0.414062 -0.363281 0.4375 -0.34375 C 0.46875 -0.332031 0.492188 -0.3125 0.515625 -0.28125 C 0.546875 -0.257812 0.5625 -0.226562 0.5625 -0.1875 C 0.5625 -0.15625 0.550781 -0.125 0.53125 -0.09375 C 0.507812 -0.0625 0.476562 -0.0351562 0.4375 -0.015625 C 0.40625 0.00390625 0.359375 0.015625 0.296875 0.015625 Z M 0.296875 0.015625 "/></g></g></g><g fill="#a6a6a6" fill-opacity="1"><g transform="translate(20.344736, 21.945343)"><g><path d="M 0.21875 -0.5625 L 0 -0.5625 L 0 -0.671875 L 0.5625 -0.671875 L 0.5625 -0.5625 L 0.34375 -0.5625 L 0.34375 0 L 0.21875 0 Z M 0.21875 -0.5625 "/></g></g></g><g fill="#a6a6a6" fill-opacity="1"><g transform="translate(21.203808, 21.945343)"><g><path d="M 0.296875 0.015625 C 0.242188 0.015625 0.191406 0.0078125 0.140625 0 C 0.0976562 -0.0195312 0.0625 -0.046875 0.03125 -0.078125 L 0.078125 -0.15625 C 0.109375 -0.144531 0.140625 -0.128906 0.171875 -0.109375 C 0.210938 -0.0976562 0.253906 -0.09375 0.296875 -0.09375 C 0.347656 -0.09375 0.382812 -0.0976562 0.40625 -0.109375 C 0.4375 -0.128906 0.453125 -0.148438 0.453125 -0.171875 C 0.453125 -0.191406 0.441406 -0.207031 0.421875 -0.21875 C 0.410156 -0.238281 0.394531 -0.25 0.375 -0.25 C 0.351562 -0.257812 0.320312 -0.269531 0.28125 -0.28125 C 0.226562 -0.289062 0.1875 -0.300781 0.15625 -0.3125 C 0.132812 -0.320312 0.109375 -0.34375 0.078125 -0.375 C 0.0546875 -0.40625 0.046875 -0.4375 0.046875 -0.46875 C 0.046875 -0.507812 0.0546875 -0.546875 0.078125 -0.578125 C 0.0976562 -0.609375 0.125 -0.628906 0.15625 -0.640625 C 0.195312 -0.660156 0.25 -0.671875 0.3125 -0.671875 C 0.351562 -0.671875 0.390625 -0.664062 0.421875 -0.65625 C 0.460938 -0.644531 0.5 -0.628906 0.53125 -0.609375 L 0.5 -0.515625 C 0.476562 -0.535156 0.445312 -0.550781 0.40625 -0.5625 C 0.375 -0.570312 0.34375 -0.578125 0.3125 -0.578125 C 0.257812 -0.578125 0.21875 -0.566406 0.1875 -0.546875 C 0.164062 -0.523438 0.15625 -0.5 0.15625 -0.46875 C 0.15625 -0.46875 0.160156 -0.457031 0.171875 -0.4375 C 0.191406 -0.425781 0.210938 -0.414062 0.234375 -0.40625 C 0.253906 -0.40625 0.285156 -0.398438 0.328125 -0.390625 C 0.378906 -0.378906 0.414062 -0.363281 0.4375 -0.34375 C 0.46875 -0.332031 0.492188 -0.3125 0.515625 -0.28125 C 0.546875 -0.257812 0.5625 -0.226562 0.5625 -0.1875 C 0.5625 -0.15625 0.550781 -0.125 0.53125 -0.09375 C 0.507812 -0.0625 0.476562 -0.0351562 0.4375 -0.015625 C 0.40625 0.00390625 0.359375 0.015625 0.296875 0.015625 Z M 0.296875 0.015625 "/></g></g></g><path stroke-linecap="butt" transform="matrix(0.738281, 0, 0, 0.738281, 5.506158, 21.181332)" fill="none" stroke-linejoin="miter" d="M 0.00224097 0.500418 L 4.563088 0.500418 " stroke="#ffffff" stroke-width="1" stroke-opacity="1" stroke-miterlimit="4"/><path stroke-linecap="butt" transform="matrix(0.738281, 0, 0, 0.738281, 22.202297, 21.322146)" fill="none" stroke-linejoin="miter" d="M 0.00112109 0.500162 L 4.561968 0.500162 " stroke="#ffffff" stroke-width="1" stroke-opacity="1" stroke-miterlimit="4"/><path stroke-linecap="butt" transform="matrix(0.738281, 0, 0, 0.738281, 7.191039, 23.552484)" fill="none" stroke-linejoin="miter" d="M 0.000496987 0.50034 L 8.80473 0.50034 " stroke="#a6a6a6" stroke-width="1" stroke-opacity="1" stroke-miterlimit="4"/><path stroke-linecap="butt" transform="matrix(0.738281, 0, 0, 0.738281, 17.315315, 23.552484)" fill="none" stroke-linejoin="miter" d="M 0.00147767 0.50034 L 8.900949 0.50034 " stroke="#a6a6a6" stroke-width="1" stroke-opacity="1" stroke-miterlimit="4"/><path stroke-linecap="butt" transform="matrix(0.738281, 0, 0, 0.738281, 17.315315, 25.508684)" fill="none" stroke-linejoin="miter" d="M 0.00147767 0.501465 L 5.451213 0.501465 " stroke="#a6a6a6" stroke-width="1" stroke-opacity="1" stroke-miterlimit="4"/><path stroke-linecap="butt" transform="matrix(0.738281, 0, 0, 0.738281, 9.667232, 25.508684)" fill="none" stroke-linejoin="miter" d="M 0.000998001 0.501465 L 5.450734 0.501465 " stroke="#a6a6a6" stroke-width="1" stroke-opacity="1" stroke-miterlimit="4"/><g clip-path="url(#28493c7040)"><path fill="#a6a6a6" d="M 15.5 6.546875 L 15.808594 7.519531 L 16.828125 7.507812 L 15.996094 8.101562 L 16.320312 9.070312 L 15.5 8.460938 L 14.679688 9.070312 L 15.003906 8.101562 L 14.175781 7.507812 L 15.195312 7.519531 L 15.5 6.546875 " fill-opacity="1" fill-rule="evenodd"/></g><g clip-path="url(#1127644e84)"><path fill="#a6a6a6" d="M 13.441406 7.5 L 13.648438 8.15625 L 14.339844 8.152344 L 13.777344 8.550781 L 13.996094 9.207031 L 13.441406 8.796875 L 12.886719 9.207031 L 13.105469 8.550781 L 12.542969 8.152344 L 13.234375 8.15625 L 13.441406 7.5 " fill-opacity="1" fill-rule="evenodd"/></g><g clip-path="url(#3925e16f72)"><path fill="#a6a6a6" d="M 17.5625 7.5 L 17.355469 8.15625 L 16.664062 8.152344 L 17.226562 8.550781 L 17.007812 9.207031 L 17.5625 8.796875 L 18.117188 9.207031 L 17.898438 8.550781 L 18.460938 8.152344 L 17.769531 8.15625 L 17.5625 7.5 " fill-opacity="1" fill-rule="evenodd"/></g><g clip-path="url(#b1d9fc09b2)"><path fill="#a6a6a6" d="M 11.96875 8.3125 L 12.113281 8.761719 L 12.585938 8.757812 L 12.199219 9.035156 L 12.351562 9.484375 L 11.96875 9.199219 L 11.589844 9.484375 L 11.738281 9.035156 L 11.355469 8.757812 L 11.828125 8.761719 L 11.96875 8.3125 " fill-opacity="1" fill-rule="evenodd"/></g><g clip-path="url(#6504bfc3a4)"><path fill="#a6a6a6" d="M 19.035156 8.3125 L 18.890625 8.761719 L 18.417969 8.757812 L 18.804688 9.035156 L 18.652344 9.484375 L 19.035156 9.199219 L 19.414062 9.484375 L 19.261719 9.035156 L 19.648438 8.757812 L 19.175781 8.761719 L 19.035156 8.3125 " fill-opacity="1" fill-rule="evenodd"/></g><g fill="#a6a6a6" fill-opacity="1"><g transform="translate(9.441594, 25.252312)"><g><path d="M 0.6875 -0.625 L 0.28125 -0.625 L 0.28125 -0.46875 L 0.65625 -0.46875 L 0.65625 -0.3125 L 0.28125 -0.3125 L 0.28125 -0.15625 L 0.703125 -0.15625 L 0.703125 0 L 0.078125 0 L 0.078125 -0.78125 L 0.6875 -0.78125 Z M 0.6875 -0.625 "/></g></g></g><g fill="#a6a6a6" fill-opacity="1"><g transform="translate(10.538813, 25.252312)"><g><path d="M 0.375 -0.796875 C 0.5 -0.796875 0.601562 -0.765625 0.6875 -0.703125 L 0.609375 -0.546875 C 0.566406 -0.578125 0.519531 -0.597656 0.46875 -0.609375 C 0.425781 -0.628906 0.390625 -0.640625 0.359375 -0.640625 C 0.304688 -0.640625 0.28125 -0.617188 0.28125 -0.578125 C 0.28125 -0.554688 0.289062 -0.535156 0.3125 -0.515625 C 0.34375 -0.503906 0.378906 -0.492188 0.421875 -0.484375 C 0.460938 -0.472656 0.503906 -0.457031 0.546875 -0.4375 C 0.585938 -0.425781 0.617188 -0.398438 0.640625 -0.359375 C 0.671875 -0.328125 0.6875 -0.285156 0.6875 -0.234375 C 0.6875 -0.160156 0.65625 -0.101562 0.59375 -0.0625 C 0.539062 -0.0195312 0.46875 0 0.375 0 C 0.3125 0 0.25 -0.0078125 0.1875 -0.03125 C 0.125 -0.0507812 0.0664062 -0.0820312 0.015625 -0.125 L 0.09375 -0.265625 C 0.132812 -0.234375 0.179688 -0.207031 0.234375 -0.1875 C 0.285156 -0.164062 0.332031 -0.15625 0.375 -0.15625 C 0.414062 -0.15625 0.441406 -0.160156 0.453125 -0.171875 C 0.472656 -0.179688 0.484375 -0.195312 0.484375 -0.21875 C 0.484375 -0.238281 0.472656 -0.253906 0.453125 -0.265625 C 0.429688 -0.285156 0.40625 -0.300781 0.375 -0.3125 C 0.34375 -0.320312 0.304688 -0.332031 0.265625 -0.34375 C 0.234375 -0.351562 0.203125 -0.363281 0.171875 -0.375 C 0.140625 -0.394531 0.113281 -0.421875 0.09375 -0.453125 C 0.0703125 -0.484375 0.0625 -0.519531 0.0625 -0.5625 C 0.0625 -0.632812 0.0859375 -0.691406 0.140625 -0.734375 C 0.203125 -0.773438 0.28125 -0.796875 0.375 -0.796875 Z M 0.375 -0.796875 "/></g></g></g><g fill="#a6a6a6" fill-opacity="1"><g transform="translate(11.602237, 25.252312)"><g><path d="M 0.6875 -0.625 L 0.4375 -0.625 L 0.4375 0 L 0.25 0 L 0.25 -0.625 L 0.015625 -0.625 L 0.015625 -0.78125 L 0.6875 -0.78125 Z M 0.6875 -0.625 "/></g></g></g><g fill="#a6a6a6" fill-opacity="1"><g transform="translate(12.628486, 25.252312)"><g><path d="M 0.078125 -0.78125 L 0.421875 -0.78125 C 0.546875 -0.78125 0.644531 -0.742188 0.71875 -0.671875 C 0.800781 -0.597656 0.84375 -0.503906 0.84375 -0.390625 C 0.84375 -0.273438 0.800781 -0.179688 0.71875 -0.109375 C 0.632812 -0.0351562 0.53125 0 0.40625 0 L 0.078125 0 Z M 0.28125 -0.625 L 0.28125 -0.15625 L 0.421875 -0.15625 C 0.484375 -0.15625 0.53125 -0.175781 0.5625 -0.21875 C 0.601562 -0.269531 0.625 -0.328125 0.625 -0.390625 C 0.625 -0.460938 0.601562 -0.519531 0.5625 -0.5625 C 0.53125 -0.601562 0.476562 -0.625 0.40625 -0.625 Z M 0.28125 -0.625 "/></g></g></g><g fill="#a6a6a6" fill-opacity="1"><g transform="translate(17.315315, 25.252312)"><g><path d="M 0.34375 -0.796875 C 0.425781 -0.796875 0.488281 -0.773438 0.53125 -0.734375 C 0.582031 -0.703125 0.609375 -0.65625 0.609375 -0.59375 C 0.609375 -0.519531 0.5625 -0.429688 0.46875 -0.328125 L 0.3125 -0.15625 L 0.640625 -0.15625 L 0.640625 0 L 0.046875 0 L 0.046875 -0.125 L 0.328125 -0.421875 C 0.378906 -0.472656 0.40625 -0.519531 0.40625 -0.5625 C 0.40625 -0.582031 0.394531 -0.597656 0.375 -0.609375 C 0.363281 -0.628906 0.34375 -0.640625 0.3125 -0.640625 C 0.25 -0.640625 0.175781 -0.601562 0.09375 -0.53125 L 0.03125 -0.671875 C 0.132812 -0.753906 0.238281 -0.796875 0.34375 -0.796875 Z M 0.34375 -0.796875 "/></g></g></g><g fill="#a6a6a6" fill-opacity="1"><g transform="translate(18.329173, 25.252312)"><g><path d="M 0.390625 -0.796875 C 0.503906 -0.796875 0.59375 -0.757812 0.65625 -0.6875 C 0.71875 -0.625 0.75 -0.523438 0.75 -0.390625 C 0.75 -0.265625 0.71875 -0.164062 0.65625 -0.09375 C 0.59375 -0.03125 0.503906 0 0.390625 0 C 0.285156 0 0.203125 -0.03125 0.140625 -0.09375 C 0.078125 -0.164062 0.046875 -0.265625 0.046875 -0.390625 C 0.046875 -0.523438 0.078125 -0.625 0.140625 -0.6875 C 0.203125 -0.757812 0.285156 -0.796875 0.390625 -0.796875 Z M 0.390625 -0.640625 C 0.335938 -0.640625 0.300781 -0.617188 0.28125 -0.578125 C 0.257812 -0.546875 0.25 -0.484375 0.25 -0.390625 C 0.25 -0.304688 0.257812 -0.242188 0.28125 -0.203125 C 0.300781 -0.160156 0.335938 -0.140625 0.390625 -0.140625 C 0.441406 -0.140625 0.476562 -0.160156 0.5 -0.203125 C 0.519531 -0.242188 0.53125 -0.304688 0.53125 -0.390625 C 0.53125 -0.484375 0.519531 -0.546875 0.5 -0.578125 C 0.476562 -0.617188 0.441406 -0.640625 0.390625 -0.640625 Z M 0.390625 -0.640625 "/></g></g></g><g fill="#a6a6a6" fill-opacity="1"><g transform="translate(19.459061, 25.252312)"><g><path d="M 0.359375 0 L 0.15625 0 L 0.15625 -0.625 L 0.015625 -0.625 L 0.015625 -0.78125 L 0.359375 -0.78125 Z M 0.359375 0 "/></g></g></g><g fill="#a6a6a6" fill-opacity="1"><g transform="translate(20.261134, 25.252312)"><g><path d="M 0.359375 -0.796875 C 0.441406 -0.796875 0.507812 -0.773438 0.5625 -0.734375 C 0.613281 -0.703125 0.640625 -0.648438 0.640625 -0.578125 C 0.640625 -0.546875 0.628906 -0.515625 0.609375 -0.484375 C 0.597656 -0.460938 0.578125 -0.441406 0.546875 -0.421875 C 0.585938 -0.398438 0.617188 -0.367188 0.640625 -0.328125 C 0.671875 -0.296875 0.6875 -0.257812 0.6875 -0.21875 C 0.6875 -0.144531 0.65625 -0.0859375 0.59375 -0.046875 C 0.539062 -0.00390625 0.460938 0.015625 0.359375 0.015625 C 0.265625 0.015625 0.1875 -0.00390625 0.125 -0.046875 C 0.0625 -0.0859375 0.03125 -0.144531 0.03125 -0.21875 C 0.03125 -0.257812 0.046875 -0.296875 0.078125 -0.328125 C 0.109375 -0.367188 0.144531 -0.398438 0.1875 -0.421875 C 0.15625 -0.441406 0.128906 -0.46875 0.109375 -0.5 C 0.0859375 -0.53125 0.078125 -0.5625 0.078125 -0.59375 C 0.078125 -0.65625 0.101562 -0.703125 0.15625 -0.734375 C 0.207031 -0.773438 0.273438 -0.796875 0.359375 -0.796875 Z M 0.4375 -0.640625 C 0.425781 -0.660156 0.398438 -0.671875 0.359375 -0.671875 C 0.328125 -0.671875 0.300781 -0.660156 0.28125 -0.640625 C 0.257812 -0.628906 0.25 -0.609375 0.25 -0.578125 C 0.25 -0.546875 0.257812 -0.519531 0.28125 -0.5 C 0.300781 -0.488281 0.328125 -0.484375 0.359375 -0.484375 C 0.398438 -0.484375 0.425781 -0.488281 0.4375 -0.5 C 0.457031 -0.519531 0.46875 -0.546875 0.46875 -0.578125 C 0.46875 -0.609375 0.457031 -0.628906 0.4375 -0.640625 Z M 0.453125 -0.3125 C 0.429688 -0.332031 0.398438 -0.34375 0.359375 -0.34375 C 0.316406 -0.34375 0.285156 -0.332031 0.265625 -0.3125 C 0.242188 -0.300781 0.234375 -0.273438 0.234375 -0.234375 C 0.234375 -0.203125 0.242188 -0.175781 0.265625 -0.15625 C 0.285156 -0.144531 0.316406 -0.140625 0.359375 -0.140625 C 0.398438 -0.140625 0.429688 -0.144531 0.453125 -0.15625 C 0.484375 -0.175781 0.5 -0.203125 0.5 -0.234375 C 0.5 -0.273438 0.484375 -0.300781 0.453125 -0.3125 Z M 0.453125 -0.3125 "/></g></g></g><g fill="#a6a6a6" fill-opacity="1"><g transform="translate(3.326429, 19.522059)"><g><path d="M 1.640625 -0.515625 L 0.765625 -0.515625 L 0.546875 0 L 0.046875 0 L 1.21875 -2.71875 L 1.25 -2.71875 L 2.4375 0 L 1.84375 0 Z M 1.46875 -0.953125 L 1.21875 -1.578125 L 0.953125 -0.953125 Z M 1.46875 -0.953125 "/></g></g></g><g fill="#a6a6a6" fill-opacity="1"><g transform="translate(6.165466, 19.522059)"><g><path d="M 0.796875 -0.96875 C 0.796875 -0.882812 0.820312 -0.800781 0.875 -0.71875 C 0.925781 -0.644531 0.992188 -0.582031 1.078125 -0.53125 C 1.160156 -0.488281 1.25 -0.46875 1.34375 -0.46875 C 1.445312 -0.46875 1.539062 -0.488281 1.625 -0.53125 C 1.707031 -0.582031 1.773438 -0.644531 1.828125 -0.71875 C 1.878906 -0.800781 1.90625 -0.882812 1.90625 -0.96875 L 1.90625 -2.625 L 2.40625 -2.625 L 2.40625 -0.953125 C 2.40625 -0.765625 2.359375 -0.59375 2.265625 -0.4375 C 2.171875 -0.289062 2.039062 -0.175781 1.875 -0.09375 C 1.71875 -0.0078125 1.539062 0.03125 1.34375 0.03125 C 1.144531 0.03125 0.960938 -0.0078125 0.796875 -0.09375 C 0.640625 -0.175781 0.515625 -0.289062 0.421875 -0.4375 C 0.328125 -0.59375 0.28125 -0.765625 0.28125 -0.953125 L 0.28125 -2.625 L 0.796875 -2.625 Z M 0.796875 -0.96875 "/></g></g></g><g fill="#a6a6a6" fill-opacity="1"><g transform="translate(9.218495, 19.522059)"><g><path d="M 1.921875 -2.625 L 1.921875 -2.125 L 1.296875 -2.125 L 1.296875 0 L 0.765625 0 L 0.765625 -2.125 L 0.15625 -2.125 L 0.15625 -2.625 Z M 1.921875 -2.625 "/></g></g></g><g fill="#a6a6a6" fill-opacity="1"><g transform="translate(11.665212, 19.522059)"><g><path d="M 2.546875 0 L 2.03125 0 L 2.03125 -1.0625 L 0.859375 -1.0625 L 0.859375 0 L 0.34375 0 L 0.34375 -2.625 L 0.859375 -2.625 L 0.859375 -1.5625 L 2.03125 -1.5625 L 2.03125 -2.625 L 2.546875 -2.625 Z M 2.546875 0 "/></g></g></g><g fill="#a6a6a6" fill-opacity="1"><g transform="translate(14.907268, 19.522059)"><g><path d="M 0.171875 -1.3125 C 0.171875 -1.539062 0.226562 -1.757812 0.34375 -1.96875 C 0.46875 -2.175781 0.632812 -2.34375 0.84375 -2.46875 C 1.050781 -2.59375 1.273438 -2.65625 1.515625 -2.65625 C 1.753906 -2.65625 1.972656 -2.59375 2.171875 -2.46875 C 2.378906 -2.34375 2.546875 -2.175781 2.671875 -1.96875 C 2.796875 -1.757812 2.859375 -1.539062 2.859375 -1.3125 C 2.859375 -1.0625 2.796875 -0.832031 2.671875 -0.625 C 2.546875 -0.425781 2.378906 -0.265625 2.171875 -0.140625 C 1.972656 -0.0234375 1.753906 0.03125 1.515625 0.03125 C 1.273438 0.03125 1.050781 -0.0234375 0.84375 -0.140625 C 0.632812 -0.265625 0.46875 -0.425781 0.34375 -0.625 C 0.226562 -0.832031 0.171875 -1.0625 0.171875 -1.3125 Z M 0.71875 -1.3125 C 0.71875 -1.15625 0.753906 -1.007812 0.828125 -0.875 C 0.898438 -0.75 0.992188 -0.648438 1.109375 -0.578125 C 1.234375 -0.503906 1.375 -0.46875 1.53125 -0.46875 C 1.675781 -0.46875 1.804688 -0.503906 1.921875 -0.578125 C 2.046875 -0.648438 2.144531 -0.75 2.21875 -0.875 C 2.289062 -1.007812 2.328125 -1.15625 2.328125 -1.3125 C 2.328125 -1.46875 2.289062 -1.609375 2.21875 -1.734375 C 2.144531 -1.859375 2.046875 -1.957031 1.921875 -2.03125 C 1.796875 -2.113281 1.660156 -2.15625 1.515625 -2.15625 C 1.367188 -2.15625 1.234375 -2.113281 1.109375 -2.03125 C 0.984375 -1.957031 0.882812 -1.859375 0.8125 -1.734375 C 0.75 -1.609375 0.71875 -1.46875 0.71875 -1.3125 Z M 0.71875 -1.3125 "/></g></g></g><g fill="#a6a6a6" fill-opacity="1"><g transform="translate(18.302685, 19.522059)"><g><path d="M 1.75 0 L 1.203125 -0.828125 L 0.859375 -0.828125 L 0.859375 0 L 0.34375 0 L 0.34375 -2.625 L 1.140625 -2.625 C 1.460938 -2.625 1.710938 -2.539062 1.890625 -2.375 C 2.066406 -2.21875 2.15625 -2.003906 2.15625 -1.734375 C 2.15625 -1.578125 2.117188 -1.425781 2.046875 -1.28125 C 1.984375 -1.144531 1.882812 -1.035156 1.75 -0.953125 L 2.359375 0 Z M 0.859375 -1.328125 L 1.21875 -1.328125 C 1.363281 -1.328125 1.46875 -1.367188 1.53125 -1.453125 C 1.59375 -1.535156 1.625 -1.625 1.625 -1.71875 C 1.625 -1.8125 1.59375 -1.898438 1.53125 -1.984375 C 1.476562 -2.078125 1.375 -2.125 1.21875 -2.125 L 0.859375 -2.125 Z M 0.859375 -1.328125 "/></g></g></g><g fill="#a6a6a6" fill-opacity="1"><g transform="translate(21.106056, 19.522059)"><g><path d="M 0.859375 -2.625 L 0.859375 0 L 0.34375 0 L 0.34375 -2.625 Z M 0.859375 -2.625 "/></g></g></g><g fill="#a6a6a6" fill-opacity="1"><g transform="translate(22.657571, 19.522059)"><g><path d="M 1.921875 -2.625 L 1.921875 -2.125 L 1.296875 -2.125 L 1.296875 0 L 0.765625 0 L 0.765625 -2.125 L 0.15625 -2.125 L 0.15625 -2.625 Z M 1.921875 -2.625 "/></g></g></g><g fill="#a6a6a6" fill-opacity="1"><g transform="translate(25.104287, 19.522059)"><g><path d="M 2.515625 -2.625 L 1.53125 -0.8125 L 1.53125 0 L 1.015625 0 L 1.015625 -0.8125 L 0.046875 -2.625 L 0.6875 -2.625 L 1.296875 -1.40625 L 1.875 -2.625 Z M 2.515625 -2.625 "/></g></g></g><g fill="#a6a6a6" fill-opacity="1"><g transform="translate(8.334351, 8.221465)"><g><path d="M -0.25 -0.828125 L -0.078125 -0.640625 L 0.265625 -0.9375 L 0.375 -0.796875 L 0.03125 -0.5 L 0.265625 -0.21875 L 0.078125 -0.0625 L -0.546875 -0.8125 L 0.03125 -1.296875 L 0.140625 -1.15625 Z M -0.25 -0.828125 "/></g></g></g><g fill="#a6a6a6" fill-opacity="1"><g transform="translate(9.209157, 7.500809)"><g><path d="M 0.46875 -0.28125 C 0.351562 -0.207031 0.238281 -0.179688 0.125 -0.203125 C 0.0195312 -0.234375 -0.0664062 -0.304688 -0.140625 -0.421875 L -0.453125 -0.890625 L -0.265625 -1.015625 L 0.046875 -0.546875 C 0.140625 -0.398438 0.25 -0.367188 0.375 -0.453125 C 0.425781 -0.484375 0.457031 -0.53125 0.46875 -0.59375 C 0.476562 -0.65625 0.460938 -0.71875 0.421875 -0.78125 L 0.109375 -1.25 L 0.296875 -1.375 L 0.609375 -0.90625 C 0.679688 -0.789062 0.707031 -0.675781 0.6875 -0.5625 C 0.664062 -0.457031 0.59375 -0.363281 0.46875 -0.28125 Z M 0.46875 -0.28125 "/></g></g></g><g fill="#a6a6a6" fill-opacity="1"><g transform="translate(10.344274, 6.78219)"><g><path d="M -0.34375 -0.921875 L -0.125 -1.03125 L 0.234375 -0.328125 L 0.671875 -0.546875 L 0.75 -0.375 L 0.09375 -0.046875 Z M -0.34375 -0.921875 "/></g></g></g><g fill="#a6a6a6" fill-opacity="1"><g transform="translate(11.32286, 6.303377)"><g><path d="M -0.234375 -0.953125 L -0.015625 -1.046875 L 0.265625 -0.296875 L 0.71875 -0.46875 L 0.78125 -0.296875 L 0.109375 -0.03125 Z M -0.234375 -0.953125 "/></g></g></g><g fill="#a6a6a6" fill-opacity="1"><g transform="translate(12.355099, 5.930491)"><g/></g></g><g fill="#a6a6a6" fill-opacity="1"><g transform="translate(12.970616, 5.747171)"><g><path d="M 0.734375 -0.65625 C 0.785156 -0.644531 0.832031 -0.625 0.875 -0.59375 C 0.914062 -0.5625 0.941406 -0.515625 0.953125 -0.453125 C 0.960938 -0.367188 0.9375 -0.296875 0.875 -0.234375 C 0.820312 -0.179688 0.734375 -0.144531 0.609375 -0.125 L 0.109375 -0.015625 L -0.078125 -0.984375 L 0.390625 -1.078125 C 0.515625 -1.097656 0.613281 -1.09375 0.6875 -1.0625 C 0.757812 -1.03125 0.800781 -0.976562 0.8125 -0.90625 C 0.820312 -0.851562 0.816406 -0.804688 0.796875 -0.765625 C 0.785156 -0.722656 0.765625 -0.6875 0.734375 -0.65625 Z M 0.1875 -0.859375 L 0.234375 -0.625 L 0.4375 -0.671875 C 0.5 -0.679688 0.539062 -0.695312 0.5625 -0.71875 C 0.582031 -0.75 0.585938 -0.785156 0.578125 -0.828125 C 0.578125 -0.859375 0.5625 -0.878906 0.53125 -0.890625 C 0.5 -0.910156 0.453125 -0.914062 0.390625 -0.90625 Z M 0.5625 -0.28125 C 0.625 -0.300781 0.664062 -0.320312 0.6875 -0.34375 C 0.71875 -0.375 0.726562 -0.410156 0.71875 -0.453125 C 0.707031 -0.535156 0.640625 -0.5625 0.515625 -0.53125 L 0.265625 -0.484375 L 0.3125 -0.234375 Z M 0.5625 -0.28125 "/></g></g></g><g fill="#a6a6a6" fill-opacity="1"><g transform="translate(14.258349, 5.51398)"><g><path d="M 0.75 -0.046875 L 0.53125 -0.3125 L 0.328125 -0.3125 L 0.34375 -0.03125 L 0.109375 0 L 0.046875 -0.984375 L 0.484375 -1.015625 C 0.566406 -1.023438 0.640625 -1.015625 0.703125 -0.984375 C 0.765625 -0.960938 0.816406 -0.925781 0.859375 -0.875 C 0.898438 -0.820312 0.921875 -0.757812 0.921875 -0.6875 C 0.929688 -0.613281 0.914062 -0.550781 0.875 -0.5 C 0.84375 -0.445312 0.800781 -0.398438 0.75 -0.359375 L 0.984375 -0.0625 Z M 0.6875 -0.671875 C 0.6875 -0.722656 0.664062 -0.765625 0.625 -0.796875 C 0.582031 -0.828125 0.53125 -0.835938 0.46875 -0.828125 L 0.28125 -0.828125 L 0.3125 -0.484375 L 0.5 -0.484375 C 0.5625 -0.492188 0.609375 -0.515625 0.640625 -0.546875 C 0.679688 -0.578125 0.695312 -0.617188 0.6875 -0.671875 Z M 0.6875 -0.671875 "/></g></g></g><g fill="#a6a6a6" fill-opacity="1"><g transform="translate(15.52258, 5.437731)"><g><path d="M 0.78125 -0.171875 L 0.328125 -0.1875 L 0.21875 0.015625 L -0.015625 0 L 0.46875 -0.96875 L 0.703125 -0.953125 L 1.09375 0.0625 L 0.859375 0.046875 Z M 0.703125 -0.359375 L 0.5625 -0.734375 L 0.390625 -0.375 Z M 0.703125 -0.359375 "/></g></g></g><g fill="#a6a6a6" fill-opacity="1"><g transform="translate(16.828624, 5.516064)"><g><path d="M 1.171875 -0.796875 L 1 0.171875 L 0.8125 0.140625 L 0.453125 -0.515625 L 0.34375 0.0625 L 0.109375 0.015625 L 0.28125 -0.953125 L 0.484375 -0.921875 L 0.84375 -0.25 L 0.953125 -0.828125 Z M 1.171875 -0.796875 "/></g></g></g><g fill="#a6a6a6" fill-opacity="1"><g transform="translate(18.171121, 5.768296)"><g><path d="M 0.40625 -0.90625 L 0.828125 -0.765625 C 0.929688 -0.734375 1.015625 -0.679688 1.078125 -0.609375 C 1.140625 -0.546875 1.179688 -0.472656 1.203125 -0.390625 C 1.234375 -0.316406 1.234375 -0.234375 1.203125 -0.140625 C 1.179688 -0.046875 1.132812 0.0234375 1.0625 0.078125 C 0.988281 0.140625 0.90625 0.175781 0.8125 0.1875 C 0.726562 0.207031 0.632812 0.203125 0.53125 0.171875 L 0.109375 0.03125 Z M 0.578125 -0.015625 C 0.679688 0.015625 0.765625 0.015625 0.828125 -0.015625 C 0.898438 -0.046875 0.945312 -0.109375 0.96875 -0.203125 C 1 -0.285156 0.992188 -0.363281 0.953125 -0.4375 C 0.921875 -0.519531 0.851562 -0.578125 0.75 -0.609375 L 0.5625 -0.65625 L 0.390625 -0.0625 Z M 0.578125 -0.015625 "/></g></g></g><g fill="#a6a6a6" fill-opacity="1"><g transform="translate(19.500354, 6.216749)"><g><path d="M 0.484375 -0.859375 L 0.703125 -0.765625 L 0.3125 0.140625 L 0.09375 0.046875 Z M 0.484375 -0.859375 "/></g></g></g><g fill="#a6a6a6" fill-opacity="1"><g transform="translate(20.149245, 6.488209)"><g><path d="M 1.359375 -0.375 L 0.890625 0.484375 L 0.71875 0.390625 L 0.578125 -0.34375 L 0.296875 0.171875 L 0.09375 0.046875 L 0.5625 -0.8125 L 0.75 -0.703125 L 0.890625 0.03125 L 1.171875 -0.484375 Z M 1.359375 -0.375 "/></g></g></g><g fill="#a6a6a6" fill-opacity="1"><g transform="translate(21.340897, 7.158563)"><g><path d="M 0.9375 0.046875 L 1.09375 0.171875 L 0.859375 0.484375 C 0.796875 0.492188 0.726562 0.484375 0.65625 0.453125 C 0.582031 0.429688 0.519531 0.398438 0.46875 0.359375 C 0.382812 0.296875 0.320312 0.222656 0.28125 0.140625 C 0.238281 0.0546875 0.222656 -0.0234375 0.234375 -0.109375 C 0.242188 -0.203125 0.273438 -0.285156 0.328125 -0.359375 C 0.390625 -0.441406 0.460938 -0.5 0.546875 -0.53125 C 0.628906 -0.570312 0.71875 -0.585938 0.8125 -0.578125 C 0.90625 -0.566406 0.992188 -0.53125 1.078125 -0.46875 C 1.140625 -0.414062 1.191406 -0.351562 1.234375 -0.28125 C 1.273438 -0.21875 1.300781 -0.148438 1.3125 -0.078125 L 1.109375 -0.0625 C 1.085938 -0.164062 1.039062 -0.242188 0.96875 -0.296875 C 0.914062 -0.335938 0.863281 -0.363281 0.8125 -0.375 C 0.757812 -0.382812 0.707031 -0.375 0.65625 -0.34375 C 0.601562 -0.3125 0.554688 -0.269531 0.515625 -0.21875 C 0.484375 -0.175781 0.460938 -0.128906 0.453125 -0.078125 C 0.441406 -0.0234375 0.445312 0.0234375 0.46875 0.078125 C 0.5 0.128906 0.539062 0.175781 0.59375 0.21875 C 0.632812 0.25 0.691406 0.269531 0.765625 0.28125 Z M 0.9375 0.046875 "/></g></g></g><g fill="#a6a6a6" fill-opacity="1"><g transform="translate(22.401092, 7.958285)"><g/></g></g></svg>