<svg xmlns="http://www.w3.org/2000/svg" xmlns:xlink="http://www.w3.org/1999/xlink" width="42" zoomAndPan="magnify" viewBox="0 0 31.5 30.75" height="41" preserveAspectRatio="xMidYMid meet" version="1.0"><defs><g/><clipPath id="a10e0ee301"><path d="M 14 3 L 22 3 L 22 13 L 14 13 Z M 14 3 " clip-rule="nonzero"/></clipPath><clipPath id="9a1fe15f84"><path d="M 8.1875 1.210938 L 21.433594 0.144531 L 22.5 13.390625 L 9.253906 14.457031 Z M 8.1875 1.210938 " clip-rule="nonzero"/></clipPath><clipPath id="86ae042466"><path d="M 8.1875 1.210938 L 21.433594 0.144531 L 22.5 13.390625 L 9.253906 14.457031 Z M 8.1875 1.210938 " clip-rule="nonzero"/></clipPath><clipPath id="2fe54aa9b1"><path d="M 8 1 L 18 1 L 18 12 L 8 12 Z M 8 1 " clip-rule="nonzero"/></clipPath><clipPath id="3d62dc8df8"><path d="M 8.1875 1.210938 L 21.433594 0.144531 L 22.5 13.390625 L 9.253906 14.457031 Z M 8.1875 1.210938 " clip-rule="nonzero"/></clipPath><clipPath id="7299a0bb75"><path d="M 8.1875 1.210938 L 21.433594 0.144531 L 22.5 13.390625 L 9.253906 14.457031 Z M 8.1875 1.210938 " clip-rule="nonzero"/></clipPath></defs><g clip-path="url(#a10e0ee301)"><g clip-path="url(#9a1fe15f84)"><g clip-path="url(#86ae042466)"><path fill="#a6a6a6" d="M 20.644531 10.988281 C 22.410156 8.210938 19.660156 3.015625 19.660156 3.015625 C 19.660156 3.015625 18.25 5.644531 16.539062 6.488281 C 15.398438 7.046875 12.480469 9.480469 15.949219 12.28125 C 15.988281 12.3125 16.027344 12.339844 16.066406 12.371094 C 17.5625 11.441406 20.390625 8.941406 19.652344 3.5625 C 19.652344 3.5625 21.222656 9.632812 16.289062 12.519531 C 17.316406 13.160156 19.066406 13.472656 20.644531 10.988281 " fill-opacity="1" fill-rule="nonzero"/></g></g></g><g clip-path="url(#2fe54aa9b1)"><g clip-path="url(#3d62dc8df8)"><g clip-path="url(#7299a0bb75)"><path fill="#a6a6a6" d="M 14.855469 7.136719 C 13.929688 5.199219 12.152344 3.125 8.78125 1.59375 C 8.78125 1.59375 13.183594 3.003906 15.164062 6.886719 C 15.40625 6.703125 15.636719 6.566406 15.824219 6.472656 C 16.351562 6.214844 16.851562 5.78125 17.289062 5.3125 C 15.300781 1.757812 8.195312 1.210938 8.195312 1.210938 C 8.195312 1.210938 10.066406 4.507812 9.808594 6.914062 C 9.648438 8.417969 10.1875 12.699219 14.652344 11.746094 C 12.738281 9.800781 13.773438 8.085938 14.855469 7.136719 " fill-opacity="1" fill-rule="nonzero"/></g></g></g><g fill="#a6a6a6" fill-opacity="1"><g transform="translate(3.989932, 19.351857)"><g><path d="M 3.3125 -0.5625 C 3.101562 -0.363281 2.867188 -0.207031 2.609375 -0.09375 C 2.347656 0.0195312 2.097656 0.078125 1.859375 0.078125 C 1.410156 0.078125 1.054688 -0.03125 0.796875 -0.25 C 0.535156 -0.46875 0.40625 -0.847656 0.40625 -1.390625 C 0.40625 -1.671875 0.414062 -2.054688 0.4375 -2.546875 C 0.457031 -3.035156 0.46875 -3.394531 0.46875 -3.625 C 0.46875 -4.082031 0.425781 -4.445312 0.34375 -4.71875 C 0.519531 -4.78125 0.710938 -4.8125 0.921875 -4.8125 C 1.179688 -4.8125 1.363281 -4.757812 1.46875 -4.65625 C 1.582031 -4.550781 1.640625 -4.351562 1.640625 -4.0625 C 1.640625 -3.957031 1.625 -3.582031 1.59375 -2.9375 C 1.5625 -2.300781 1.546875 -1.800781 1.546875 -1.4375 C 1.546875 -1.1875 1.613281 -1 1.75 -0.875 C 1.882812 -0.75 2.039062 -0.6875 2.21875 -0.6875 C 2.40625 -0.6875 2.601562 -0.738281 2.8125 -0.84375 C 3.019531 -0.945312 3.191406 -1.070312 3.328125 -1.21875 C 3.328125 -1.25 3.328125 -1.328125 3.328125 -1.453125 C 3.328125 -1.578125 3.328125 -1.789062 3.328125 -2.09375 L 3.328125 -3.21875 C 3.328125 -3.71875 3.304688 -4.234375 3.265625 -4.765625 C 3.441406 -4.796875 3.628906 -4.8125 3.828125 -4.8125 C 4.035156 -4.8125 4.195312 -4.773438 4.3125 -4.703125 C 4.4375 -4.640625 4.5 -4.546875 4.5 -4.421875 L 4.46875 -3.859375 C 4.445312 -3.484375 4.4375 -3.082031 4.4375 -2.65625 L 4.4375 -1.875 C 4.4375 -1.351562 4.445312 -0.976562 4.46875 -0.75 C 4.5 -0.519531 4.546875 -0.296875 4.609375 -0.078125 C 4.429688 -0.015625 4.210938 0.015625 3.953125 0.015625 C 3.722656 0.015625 3.5625 -0.0195312 3.46875 -0.09375 C 3.382812 -0.175781 3.332031 -0.332031 3.3125 -0.5625 Z M 3.3125 -0.5625 "/></g></g></g><g fill="#a6a6a6" fill-opacity="1"><g transform="translate(8.914518, 19.351857)"><g><path d="M 0.375 -1.671875 L 0.375 -3.125 C 0.375 -3.644531 0.351562 -4.191406 0.3125 -4.765625 C 0.5 -4.796875 0.691406 -4.8125 0.890625 -4.8125 C 1.066406 -4.8125 1.21875 -4.78125 1.34375 -4.71875 C 1.476562 -4.65625 1.546875 -4.554688 1.546875 -4.421875 C 1.546875 -4.398438 1.535156 -4.207031 1.515625 -3.84375 C 1.492188 -3.476562 1.484375 -3.171875 1.484375 -2.921875 C 1.878906 -3.191406 2.265625 -3.507812 2.640625 -3.875 C 3.023438 -4.25 3.273438 -4.582031 3.390625 -4.875 C 3.617188 -4.800781 3.769531 -4.722656 3.84375 -4.640625 C 3.925781 -4.554688 3.96875 -4.460938 3.96875 -4.359375 C 3.96875 -4.035156 3.46875 -3.507812 2.46875 -2.78125 C 3.019531 -1.914062 3.441406 -1.304688 3.734375 -0.953125 C 3.890625 -0.773438 4.039062 -0.6875 4.1875 -0.6875 C 4.195312 -0.6875 4.257812 -0.691406 4.375 -0.703125 C 4.414062 -0.578125 4.4375 -0.472656 4.4375 -0.390625 C 4.4375 -0.234375 4.363281 -0.113281 4.21875 -0.03125 C 4.082031 0.0390625 3.914062 0.078125 3.71875 0.078125 C 3.445312 0.078125 3.179688 -0.046875 2.921875 -0.296875 C 2.578125 -0.617188 2.140625 -1.253906 1.609375 -2.203125 C 1.597656 -2.191406 1.554688 -2.164062 1.484375 -2.125 L 1.484375 -1.46875 C 1.484375 -0.925781 1.539062 -0.460938 1.65625 -0.078125 C 1.476562 -0.015625 1.257812 0.015625 1 0.015625 C 0.90625 0.015625 0.828125 0.0078125 0.765625 0 C 0.703125 -0.0078125 0.632812 -0.03125 0.5625 -0.0625 C 0.5 -0.101562 0.445312 -0.164062 0.40625 -0.25 C 0.375 -0.34375 0.359375 -0.457031 0.359375 -0.59375 C 0.359375 -0.6875 0.359375 -0.859375 0.359375 -1.109375 C 0.367188 -1.367188 0.375 -1.554688 0.375 -1.671875 Z M 0.375 -1.671875 "/></g></g></g><g fill="#a6a6a6" fill-opacity="1"><g transform="translate(13.351941, 19.351857)"><g><path d="M 1.5 -4.0625 C 1.519531 -3.90625 1.53125 -3.535156 1.53125 -2.953125 L 2.09375 -2.953125 C 2.40625 -2.953125 2.691406 -2.960938 2.953125 -2.984375 C 2.984375 -2.921875 3 -2.820312 3 -2.6875 C 3 -2.507812 2.957031 -2.382812 2.875 -2.3125 C 2.789062 -2.238281 2.644531 -2.203125 2.4375 -2.203125 L 1.53125 -2.203125 C 1.53125 -1.390625 1.550781 -0.898438 1.59375 -0.734375 C 1.800781 -0.722656 1.96875 -0.71875 2.09375 -0.71875 C 2.882812 -0.71875 3.394531 -0.773438 3.625 -0.890625 C 3.675781 -0.742188 3.703125 -0.578125 3.703125 -0.390625 C 3.703125 -0.222656 3.640625 -0.113281 3.515625 -0.0625 C 3.390625 -0.0078125 3.132812 0.015625 2.75 0.015625 C 1.59375 0.015625 0.925781 0.0078125 0.75 0 C 0.601562 0 0.503906 -0.03125 0.453125 -0.09375 C 0.410156 -0.15625 0.390625 -0.257812 0.390625 -0.40625 C 0.390625 -0.488281 0.390625 -0.664062 0.390625 -0.9375 C 0.398438 -1.21875 0.40625 -1.445312 0.40625 -1.625 L 0.40625 -3.0625 C 0.40625 -3.75 0.375 -4.3125 0.3125 -4.75 C 0.9375 -4.789062 1.570312 -4.8125 2.21875 -4.8125 C 2.90625 -4.8125 3.351562 -4.773438 3.5625 -4.703125 C 3.65625 -4.671875 3.703125 -4.570312 3.703125 -4.40625 C 3.703125 -4.21875 3.675781 -4.054688 3.625 -3.921875 C 3.300781 -4.023438 2.757812 -4.078125 2 -4.078125 C 1.90625 -4.078125 1.738281 -4.070312 1.5 -4.0625 Z M 1.5 -4.0625 "/></g></g></g><g fill="#a6a6a6" fill-opacity="1"><g transform="translate(17.199822, 19.351857)"><g><path d="M 3.796875 -1.28125 C 4.160156 -1.113281 4.34375 -0.914062 4.34375 -0.6875 C 4.34375 -0.550781 4.28125 -0.425781 4.15625 -0.3125 C 4.039062 -0.207031 3.894531 -0.128906 3.71875 -0.078125 C 3.550781 -0.0234375 3.382812 0.0078125 3.21875 0.03125 C 3.0625 0.0625 2.921875 0.078125 2.796875 0.078125 C 2.484375 0.078125 2.179688 0.0351562 1.890625 -0.046875 C 1.609375 -0.140625 1.335938 -0.273438 1.078125 -0.453125 C 0.828125 -0.628906 0.625 -0.882812 0.46875 -1.21875 C 0.3125 -1.5625 0.234375 -1.957031 0.234375 -2.40625 C 0.234375 -3.175781 0.460938 -3.78125 0.921875 -4.21875 C 1.378906 -4.65625 2 -4.875 2.78125 -4.875 C 3.207031 -4.875 3.5625 -4.796875 3.84375 -4.640625 C 4.132812 -4.484375 4.28125 -4.296875 4.28125 -4.078125 C 4.28125 -3.910156 4.207031 -3.769531 4.0625 -3.65625 C 3.925781 -3.550781 3.738281 -3.488281 3.5 -3.46875 C 3.425781 -3.6875 3.296875 -3.851562 3.109375 -3.96875 C 2.929688 -4.082031 2.742188 -4.140625 2.546875 -4.140625 C 2.210938 -4.140625 1.9375 -3.984375 1.71875 -3.671875 C 1.507812 -3.367188 1.40625 -2.992188 1.40625 -2.546875 C 1.40625 -2.015625 1.515625 -1.566406 1.734375 -1.203125 C 1.953125 -0.835938 2.257812 -0.65625 2.65625 -0.65625 C 2.875 -0.65625 3.085938 -0.703125 3.296875 -0.796875 C 3.503906 -0.898438 3.671875 -1.0625 3.796875 -1.28125 Z M 3.796875 -1.28125 "/></g></g></g><g fill="#a6a6a6" fill-opacity="1"><g transform="translate(21.746677, 19.351857)"><g><path d="M 2.625 0.078125 C 1.894531 0.078125 1.3125 -0.144531 0.875 -0.59375 C 0.445312 -1.039062 0.234375 -1.640625 0.234375 -2.390625 C 0.234375 -3.148438 0.445312 -3.753906 0.875 -4.203125 C 1.3125 -4.648438 1.894531 -4.875 2.625 -4.875 C 3.363281 -4.875 3.945312 -4.648438 4.375 -4.203125 C 4.8125 -3.753906 5.03125 -3.148438 5.03125 -2.390625 C 5.03125 -1.640625 4.8125 -1.039062 4.375 -0.59375 C 3.945312 -0.144531 3.363281 0.078125 2.625 0.078125 Z M 3.84375 -2.265625 C 3.84375 -2.578125 3.804688 -2.867188 3.734375 -3.140625 C 3.660156 -3.410156 3.523438 -3.644531 3.328125 -3.84375 C 3.140625 -4.039062 2.90625 -4.140625 2.625 -4.140625 C 2.25 -4.140625 1.953125 -3.992188 1.734375 -3.703125 C 1.515625 -3.421875 1.40625 -3.0625 1.40625 -2.625 C 1.40625 -2.28125 1.441406 -1.96875 1.515625 -1.6875 C 1.585938 -1.40625 1.71875 -1.160156 1.90625 -0.953125 C 2.101562 -0.753906 2.34375 -0.65625 2.625 -0.65625 C 3.007812 -0.65625 3.304688 -0.800781 3.515625 -1.09375 C 3.734375 -1.394531 3.84375 -1.785156 3.84375 -2.265625 Z M 3.84375 -2.265625 "/></g></g></g><g fill="#a6a6a6" fill-opacity="1"><g transform="translate(7.792106, 25.775592)"><g><path d="M 1.625 -4.21875 C 1.539062 -4.21875 1.410156 -4.207031 1.234375 -4.1875 C 1.253906 -3.832031 1.265625 -3.351562 1.265625 -2.75 C 1.390625 -2.738281 1.5 -2.734375 1.59375 -2.734375 C 2.289062 -2.734375 2.640625 -2.976562 2.640625 -3.46875 C 2.640625 -3.96875 2.300781 -4.21875 1.625 -4.21875 Z M 1.90625 -0.46875 C 2.164062 -0.46875 2.378906 -0.546875 2.546875 -0.703125 C 2.722656 -0.867188 2.8125 -1.085938 2.8125 -1.359375 C 2.8125 -1.660156 2.71875 -1.890625 2.53125 -2.046875 C 2.34375 -2.210938 2.101562 -2.296875 1.8125 -2.296875 C 1.5625 -2.296875 1.378906 -2.285156 1.265625 -2.265625 C 1.265625 -2.054688 1.253906 -1.773438 1.234375 -1.421875 C 1.210938 -1.078125 1.191406 -0.847656 1.171875 -0.734375 C 1.242188 -0.660156 1.351562 -0.597656 1.5 -0.546875 C 1.644531 -0.492188 1.78125 -0.46875 1.90625 -0.46875 Z M 0.421875 -0.375 C 0.492188 -0.914062 0.53125 -1.703125 0.53125 -2.734375 C 0.53125 -3.617188 0.5 -4.265625 0.4375 -4.671875 C 0.800781 -4.734375 1.195312 -4.765625 1.625 -4.765625 C 2.15625 -4.765625 2.59375 -4.671875 2.9375 -4.484375 C 3.28125 -4.296875 3.453125 -3.984375 3.453125 -3.546875 C 3.453125 -3.078125 3.25 -2.75 2.84375 -2.5625 C 3.363281 -2.34375 3.625 -1.9375 3.625 -1.34375 C 3.625 -0.90625 3.46875 -0.5625 3.15625 -0.3125 C 2.851562 -0.0625 2.484375 0.0625 2.046875 0.0625 C 1.335938 0.0625 0.796875 -0.0820312 0.421875 -0.375 Z M 0.421875 -0.375 "/></g></g></g><g fill="#a6a6a6" fill-opacity="1"><g transform="translate(12.770353, 25.775592)"><g><path d="M 2.53125 0.0625 C 1.84375 0.0625 1.296875 -0.15625 0.890625 -0.59375 C 0.492188 -1.03125 0.296875 -1.613281 0.296875 -2.34375 C 0.296875 -3.082031 0.492188 -3.671875 0.890625 -4.109375 C 1.296875 -4.546875 1.84375 -4.765625 2.53125 -4.765625 C 3.21875 -4.765625 3.765625 -4.546875 4.171875 -4.109375 C 4.578125 -3.671875 4.78125 -3.082031 4.78125 -2.34375 C 4.78125 -1.613281 4.570312 -1.03125 4.15625 -0.59375 C 3.75 -0.15625 3.207031 0.0625 2.53125 0.0625 Z M 3.96875 -2.21875 C 3.96875 -2.5625 3.921875 -2.875 3.828125 -3.15625 C 3.742188 -3.445312 3.585938 -3.691406 3.359375 -3.890625 C 3.140625 -4.097656 2.867188 -4.203125 2.546875 -4.203125 C 2.109375 -4.203125 1.757812 -4.046875 1.5 -3.734375 C 1.238281 -3.429688 1.109375 -3.035156 1.109375 -2.546875 C 1.109375 -2.191406 1.148438 -1.863281 1.234375 -1.5625 C 1.316406 -1.269531 1.472656 -1.015625 1.703125 -0.796875 C 1.929688 -0.585938 2.207031 -0.484375 2.53125 -0.484375 C 2.988281 -0.484375 3.34375 -0.644531 3.59375 -0.96875 C 3.84375 -1.289062 3.96875 -1.707031 3.96875 -2.21875 Z M 3.96875 -2.21875 "/></g></g></g><g fill="#a6a6a6" fill-opacity="1"><g transform="translate(18.922696, 25.775592)"><g><path d="M 0.15625 -0.3125 C 0.15625 -0.632812 0.691406 -1.335938 1.765625 -2.421875 C 1.710938 -2.503906 1.59375 -2.679688 1.40625 -2.953125 C 1.21875 -3.222656 1.070312 -3.421875 0.96875 -3.546875 C 0.875 -3.679688 0.753906 -3.835938 0.609375 -4.015625 C 0.460938 -4.191406 0.335938 -4.328125 0.234375 -4.421875 C 0.398438 -4.566406 0.523438 -4.660156 0.609375 -4.703125 C 0.691406 -4.742188 0.773438 -4.765625 0.859375 -4.765625 C 1.023438 -4.765625 1.175781 -4.679688 1.3125 -4.515625 C 1.40625 -4.390625 1.550781 -4.171875 1.75 -3.859375 C 1.945312 -3.546875 2.113281 -3.257812 2.25 -3 C 2.4375 -3.257812 2.617188 -3.550781 2.796875 -3.875 C 2.972656 -4.207031 3.09375 -4.5 3.15625 -4.75 C 3.65625 -4.726562 3.90625 -4.601562 3.90625 -4.375 C 3.90625 -4.1875 3.765625 -3.90625 3.484375 -3.53125 C 3.203125 -3.15625 2.890625 -2.804688 2.546875 -2.484375 C 2.804688 -2.085938 3.015625 -1.773438 3.171875 -1.546875 C 3.328125 -1.316406 3.507812 -1.066406 3.71875 -0.796875 C 3.9375 -0.535156 4.109375 -0.359375 4.234375 -0.265625 C 4.035156 -0.046875 3.832031 0.0625 3.625 0.0625 C 3.425781 0.0625 3.265625 -0.0234375 3.140625 -0.203125 C 2.742188 -0.742188 2.382812 -1.3125 2.0625 -1.90625 C 1.425781 -1.09375 1.035156 -0.4375 0.890625 0.0625 C 0.398438 0.0507812 0.15625 -0.0703125 0.15625 -0.3125 Z M 0.15625 -0.3125 "/></g></g></g></svg>