<svg xmlns="http://www.w3.org/2000/svg" xmlns:xlink="http://www.w3.org/1999/xlink" width="300" zoomAndPan="magnify" viewBox="0 0 224.87999 44.999999" height="60" preserveAspectRatio="xMidYMid meet" version="1.0"><defs><g/><clipPath id="b3056dff69"><path d="M 20.753906 9.070312 L 46.589844 9.070312 L 46.589844 23.816406 L 20.753906 23.816406 Z M 20.753906 9.070312 " clip-rule="nonzero"/></clipPath><clipPath id="6890b8421f"><path d="M 46.578125 9.164062 L 44.710938 16.449219 L 34.542969 16.449219 C 31.550781 16.449219 32.679688 23.738281 29.96875 23.738281 L 20.757812 23.738281 L 20.816406 23.628906 L 22.621094 16.507812 L 29.96875 16.507812 C 32.960938 16.449219 31.945312 9.164062 34.542969 9.164062 Z M 46.578125 9.164062 " clip-rule="nonzero"/></clipPath><clipPath id="3aeee165ae"><path d="M 17.78125 20.386719 L 43.730469 20.386719 L 43.730469 35.132812 L 17.78125 35.132812 Z M 17.78125 20.386719 " clip-rule="nonzero"/></clipPath><clipPath id="7b94507e46"><path d="M 43.695312 20.460938 L 41.890625 27.75 L 34.542969 27.75 C 31.550781 27.75 32.679688 35.035156 29.96875 35.035156 L 17.875 35.035156 L 17.933594 34.925781 L 19.742188 27.808594 L 29.96875 27.808594 C 33.019531 27.808594 32 20.519531 34.542969 20.519531 L 43.695312 20.519531 Z M 39.796875 29.78125 L 39.003906 33.230469 C 38.777344 34.078125 38.046875 34.699219 37.199219 34.699219 L 33.695312 34.699219 L 34.542969 31.308594 C 34.769531 30.402344 35.558594 29.78125 36.464844 29.78125 Z M 39.796875 29.78125 " clip-rule="nonzero"/></clipPath></defs><g fill="#99cc33" fill-opacity="1"><g transform="translate(50.894286, 28.084402)"><g><path d="M 6.890625 -12.859375 C 7.609375 -12.859375 8.316406 -12.773438 9.015625 -12.609375 C 9.710938 -12.453125 10.234375 -12.289062 10.578125 -12.125 L 11.078125 -11.890625 L 9.671875 -9.0625 C 8.691406 -9.582031 7.765625 -9.84375 6.890625 -9.84375 C 6.398438 -9.84375 6.050781 -9.789062 5.84375 -9.6875 C 5.644531 -9.582031 5.546875 -9.382812 5.546875 -9.09375 C 5.546875 -9.019531 5.554688 -8.953125 5.578125 -8.890625 C 5.597656 -8.828125 5.628906 -8.765625 5.671875 -8.703125 C 5.722656 -8.648438 5.769531 -8.601562 5.8125 -8.5625 C 5.851562 -8.519531 5.921875 -8.472656 6.015625 -8.421875 C 6.109375 -8.378906 6.179688 -8.34375 6.234375 -8.3125 C 6.296875 -8.289062 6.390625 -8.253906 6.515625 -8.203125 C 6.648438 -8.160156 6.75 -8.125 6.8125 -8.09375 C 6.882812 -8.070312 6.992188 -8.035156 7.140625 -7.984375 C 7.296875 -7.941406 7.414062 -7.910156 7.5 -7.890625 C 8.007812 -7.742188 8.445312 -7.582031 8.8125 -7.40625 C 9.1875 -7.226562 9.582031 -6.984375 10 -6.671875 C 10.414062 -6.367188 10.734375 -5.976562 10.953125 -5.5 C 11.179688 -5.03125 11.296875 -4.492188 11.296875 -3.890625 C 11.296875 -1.054688 9.328125 0.359375 5.390625 0.359375 C 4.492188 0.359375 3.640625 0.222656 2.828125 -0.046875 C 2.023438 -0.328125 1.445312 -0.601562 1.09375 -0.875 L 0.5625 -1.3125 L 2.3125 -4.265625 C 2.445312 -4.148438 2.617188 -4.015625 2.828125 -3.859375 C 3.035156 -3.703125 3.414062 -3.488281 3.96875 -3.21875 C 4.519531 -2.957031 5 -2.828125 5.40625 -2.828125 C 6.300781 -2.828125 6.75 -3.128906 6.75 -3.734375 C 6.75 -4.003906 6.632812 -4.21875 6.40625 -4.375 C 6.175781 -4.53125 5.789062 -4.703125 5.25 -4.890625 C 4.707031 -5.085938 4.28125 -5.269531 3.96875 -5.4375 C 3.1875 -5.84375 2.566406 -6.300781 2.109375 -6.8125 C 1.660156 -7.320312 1.4375 -8 1.4375 -8.84375 C 1.4375 -10.113281 1.925781 -11.097656 2.90625 -11.796875 C 3.894531 -12.503906 5.222656 -12.859375 6.890625 -12.859375 Z M 6.890625 -12.859375 "/></g></g></g><g fill="#99cc33" fill-opacity="1"><g transform="translate(62.874594, 28.084402)"><g><path d="M 9.140625 0 L 6.21875 0 L -0.484375 -12.5 L 4.484375 -12.5 L 7.53125 -5.75 L 10.515625 -12.5 L 13.5 -12.5 L 16.484375 -5.75 L 19.53125 -12.5 L 24.5 -12.5 L 17.8125 0 L 14.890625 0 L 12.015625 -6.453125 Z M 9.140625 0 "/></g></g></g><g fill="#99cc33" fill-opacity="1"><g transform="translate(86.883912, 28.084402)"><g><path d="M 1.875 -19.453125 C 2.375 -19.960938 2.972656 -20.21875 3.671875 -20.21875 C 4.367188 -20.21875 4.96875 -19.960938 5.46875 -19.453125 C 5.976562 -18.953125 6.234375 -18.351562 6.234375 -17.65625 C 6.234375 -16.957031 5.976562 -16.359375 5.46875 -15.859375 C 4.96875 -15.359375 4.367188 -15.109375 3.671875 -15.109375 C 2.972656 -15.109375 2.375 -15.359375 1.875 -15.859375 C 1.375 -16.359375 1.125 -16.957031 1.125 -17.65625 C 1.125 -18.351562 1.375 -18.953125 1.875 -19.453125 Z M 1.46875 -12.5 L 1.46875 0 L 5.765625 0 L 5.765625 -12.5 Z M 1.46875 -12.5 "/></g></g></g><g fill="#99cc33" fill-opacity="1"><g transform="translate(94.23768, 28.084402)"><g><path d="M 2.1875 -12.5 L 2.1875 -15.15625 C 2.207031 -17.019531 2.644531 -18.507812 3.5 -19.625 C 4.363281 -20.75 5.5625 -21.3125 7.09375 -21.3125 C 7.738281 -21.3125 8.359375 -21.21875 8.953125 -21.03125 C 9.546875 -20.84375 9.972656 -20.65625 10.234375 -20.46875 L 10.640625 -20.1875 L 9.140625 -17.15625 C 8.742188 -17.375 8.3125 -17.484375 7.84375 -17.484375 C 7.3125 -17.484375 6.953125 -17.300781 6.765625 -16.9375 C 6.585938 -16.570312 6.5 -15.9375 6.5 -15.03125 L 6.5 -12.5 L 9.375 -12.5 L 9.375 -9.203125 L 6.5 -9.203125 L 6.5 0 L 2.1875 0 L 2.1875 -9.203125 L 0.390625 -9.203125 L 0.390625 -12.5 Z M 2.1875 -12.5 "/></g></g></g><g fill="#99cc33" fill-opacity="1"><g transform="translate(103.369014, 28.084402)"><g><path d="M 2.1875 -12.5 L 2.1875 -17.15625 L 6.5 -17.15625 L 6.5 -12.5 L 9.140625 -12.5 L 9.140625 -9.203125 L 6.5 -9.203125 L 6.5 -5.234375 C 6.5 -4.078125 6.828125 -3.5 7.484375 -3.5 C 7.640625 -3.5 7.804688 -3.53125 7.984375 -3.59375 C 8.171875 -3.664062 8.3125 -3.734375 8.40625 -3.796875 L 8.546875 -3.890625 L 9.625 -0.421875 C 8.695312 0.0976562 7.640625 0.359375 6.453125 0.359375 C 5.640625 0.359375 4.941406 0.21875 4.359375 -0.0625 C 3.773438 -0.34375 3.332031 -0.722656 3.03125 -1.203125 C 2.726562 -1.679688 2.507812 -2.179688 2.375 -2.703125 C 2.25 -3.234375 2.1875 -3.800781 2.1875 -4.40625 L 2.1875 -9.203125 L 0.390625 -9.203125 L 0.390625 -12.5 Z M 2.1875 -12.5 "/></g></g></g><g fill="#ffffff" fill-opacity="1"><g transform="translate(123.486867, 25.392065)"><g><path d="M 3.53125 0.921875 C 2.914062 1.828125 2.609375 2.609375 2.609375 3.265625 C 2.609375 4.335938 3.613281 4.875 5.625 4.875 C 7.082031 4.875 8.191406 4.640625 8.953125 4.171875 C 9.722656 3.710938 10.109375 3.175781 10.109375 2.5625 C 10.109375 1.945312 9.953125 1.539062 9.640625 1.34375 C 9.328125 1.144531 8.835938 1.046875 8.171875 1.046875 L 5.609375 1.046875 C 4.660156 1.046875 3.96875 1.003906 3.53125 0.921875 Z M 5.90625 -4.328125 C 6.914062 -4.328125 7.648438 -4.5625 8.109375 -5.03125 C 8.578125 -5.5 8.8125 -6.203125 8.8125 -7.140625 C 8.8125 -8.066406 8.539062 -8.847656 8 -9.484375 C 7.46875 -10.117188 6.734375 -10.4375 5.796875 -10.4375 C 3.816406 -10.4375 2.828125 -9.488281 2.828125 -7.59375 C 2.828125 -6.644531 3.085938 -5.863281 3.609375 -5.25 C 4.140625 -4.632812 4.90625 -4.328125 5.90625 -4.328125 Z M 5.828125 -2.9375 C 5.328125 -2.9375 4.875 -2.988281 4.46875 -3.09375 C 4.21875 -2.789062 3.992188 -2.445312 3.796875 -2.0625 C 3.609375 -1.6875 3.515625 -1.394531 3.515625 -1.1875 C 3.515625 -0.78125 4.0625 -0.578125 5.15625 -0.578125 L 8.015625 -0.578125 C 10.484375 -0.578125 11.71875 0.3125 11.71875 2.09375 C 11.71875 3.34375 11.113281 4.351562 9.90625 5.125 C 8.695312 5.894531 7.285156 6.28125 5.671875 6.28125 C 4.046875 6.28125 2.835938 5.992188 2.046875 5.421875 C 1.265625 4.859375 0.875 4.128906 0.875 3.234375 C 0.875 2.335938 1.421875 1.457031 2.515625 0.59375 C 2.015625 0.226562 1.765625 -0.148438 1.765625 -0.546875 C 1.765625 -1.179688 2.335938 -2.140625 3.484375 -3.421875 C 1.890625 -4.128906 1.09375 -5.445312 1.09375 -7.375 C 1.09375 -8.632812 1.539062 -9.691406 2.4375 -10.546875 C 3.332031 -11.398438 4.429688 -11.828125 5.734375 -11.828125 C 7.046875 -11.828125 8.113281 -11.503906 8.9375 -10.859375 C 9.632812 -11.796875 10.382812 -12.265625 11.1875 -12.265625 C 11.519531 -12.265625 11.804688 -12.1875 12.046875 -12.03125 C 12.285156 -11.882812 12.40625 -11.679688 12.40625 -11.421875 C 12.40625 -11.160156 12.335938 -10.851562 12.203125 -10.5 C 12.066406 -10.539062 11.773438 -10.5625 11.328125 -10.5625 C 10.890625 -10.5625 10.359375 -10.394531 9.734375 -10.0625 C 10.285156 -9.300781 10.5625 -8.40625 10.5625 -7.375 C 10.5625 -6.007812 10.09375 -4.925781 9.15625 -4.125 C 8.226562 -3.332031 7.117188 -2.9375 5.828125 -2.9375 Z M 5.828125 -2.9375 "/></g></g></g><g fill="#ffffff" fill-opacity="1"><g transform="translate(135.19144, 25.392065)"><g><path d="M 1.625 -1.34375 L 1.671875 -5.75 C 1.671875 -8.125 1.613281 -10.066406 1.5 -11.578125 C 1.757812 -11.628906 2.039062 -11.65625 2.34375 -11.65625 C 3.0625 -11.65625 3.421875 -11.34375 3.421875 -10.71875 C 3.421875 -10.6875 3.414062 -10.570312 3.40625 -10.375 C 3.394531 -10.175781 3.390625 -10 3.390625 -9.84375 C 3.710938 -10.351562 4.15625 -10.8125 4.71875 -11.21875 C 5.28125 -11.625 5.789062 -11.828125 6.25 -11.828125 C 7.144531 -11.828125 7.59375 -11.503906 7.59375 -10.859375 C 7.59375 -10.546875 7.429688 -10.171875 7.109375 -9.734375 C 6.742188 -10.054688 6.335938 -10.21875 5.890625 -10.21875 C 5.429688 -10.21875 4.96875 -10.035156 4.5 -9.671875 C 4.039062 -9.304688 3.648438 -8.820312 3.328125 -8.21875 C 3.316406 -7.65625 3.3125 -6.425781 3.3125 -4.53125 C 3.3125 -2.632812 3.46875 -1.164062 3.78125 -0.125 C 3.476562 0.0078125 3.125 0.078125 2.71875 0.078125 C 2.3125 0.078125 2.023438 -0.03125 1.859375 -0.25 C 1.703125 -0.46875 1.625 -0.832031 1.625 -1.34375 Z M 1.625 -1.34375 "/></g></g></g><g fill="#ffffff" fill-opacity="1"><g transform="translate(141.837961, 25.392065)"><g><path d="M 9.765625 -7.765625 L 9.71875 -4.40625 C 9.71875 -2.5 9.875 -1.070312 10.1875 -0.125 C 9.925781 0.0078125 9.609375 0.078125 9.234375 0.078125 C 8.859375 0.078125 8.59375 -0.0078125 8.4375 -0.1875 C 8.289062 -0.363281 8.191406 -0.640625 8.140625 -1.015625 C 7.117188 -0.171875 6.0625 0.25 4.96875 0.25 C 2.40625 0.25 1.125 -0.921875 1.125 -3.265625 C 1.125 -4.109375 1.320312 -4.726562 1.71875 -5.125 C 2.113281 -5.53125 2.660156 -5.832031 3.359375 -6.03125 C 4.609375 -6.363281 6.1875 -6.585938 8.09375 -6.703125 C 8.09375 -8.109375 7.914062 -9.082031 7.5625 -9.625 C 7.21875 -10.164062 6.476562 -10.4375 5.34375 -10.4375 C 4.882812 -10.4375 4.40625 -10.285156 3.90625 -9.984375 C 3.40625 -9.679688 3.03125 -9.25 2.78125 -8.6875 C 2.019531 -8.84375 1.640625 -9.175781 1.640625 -9.6875 C 1.640625 -10.34375 2.035156 -10.863281 2.828125 -11.25 C 3.628906 -11.632812 4.65625 -11.828125 5.90625 -11.828125 C 7.144531 -11.828125 8.097656 -11.53125 8.765625 -10.9375 C 9.429688 -10.351562 9.765625 -9.296875 9.765625 -7.765625 Z M 8.078125 -5.421875 C 7.585938 -5.367188 7.222656 -5.328125 6.984375 -5.296875 C 6.742188 -5.265625 6.421875 -5.222656 6.015625 -5.171875 C 5.609375 -5.128906 5.300781 -5.082031 5.09375 -5.03125 C 4.894531 -4.988281 4.648438 -4.921875 4.359375 -4.828125 C 4.078125 -4.742188 3.863281 -4.648438 3.71875 -4.546875 C 3.582031 -4.453125 3.4375 -4.347656 3.28125 -4.234375 C 3.007812 -3.992188 2.875 -3.671875 2.875 -3.265625 C 2.875 -2.515625 3.085938 -1.957031 3.515625 -1.59375 C 3.941406 -1.238281 4.488281 -1.0625 5.15625 -1.0625 C 6.28125 -1.0625 7.234375 -1.4375 8.015625 -2.1875 C 7.992188 -2.425781 7.984375 -2.851562 7.984375 -3.46875 C 7.984375 -4.070312 8.015625 -4.722656 8.078125 -5.421875 Z M 8.078125 -5.421875 "/></g></g></g><g fill="#ffffff" fill-opacity="1"><g transform="translate(152.192908, 25.392065)"><g><path d="M 9.25 -1.1875 L 9.390625 -7.65625 C 9.390625 -8.570312 9.160156 -9.265625 8.703125 -9.734375 C 8.242188 -10.203125 7.65625 -10.4375 6.9375 -10.4375 C 5.8125 -10.4375 4.703125 -9.976562 3.609375 -9.0625 C 3.640625 -6.800781 3.65625 -5.015625 3.65625 -3.703125 C 3.65625 -2.378906 3.707031 -1.15625 3.8125 -0.03125 C 3.550781 0.0195312 3.269531 0.046875 2.96875 0.046875 C 2.21875 0.046875 1.84375 -0.269531 1.84375 -0.90625 C 1.84375 -0.96875 1.863281 -1.578125 1.90625 -2.734375 C 1.945312 -3.890625 1.96875 -5.035156 1.96875 -6.171875 C 1.96875 -8.898438 1.8125 -10.660156 1.5 -11.453125 C 1.832031 -11.585938 2.128906 -11.65625 2.390625 -11.65625 C 3.148438 -11.65625 3.53125 -11.238281 3.53125 -10.40625 C 4.03125 -10.789062 4.671875 -11.125 5.453125 -11.40625 C 6.234375 -11.6875 7.054688 -11.828125 7.921875 -11.828125 C 8.785156 -11.828125 9.523438 -11.550781 10.140625 -11 C 10.765625 -10.445312 11.078125 -9.550781 11.078125 -8.3125 L 11 -3.875 C 11 -2.351562 11.144531 -1.101562 11.4375 -0.125 C 11.101562 0.0078125 10.75 0.078125 10.375 0.078125 C 10 0.078125 9.71875 -0.015625 9.53125 -0.203125 C 9.34375 -0.398438 9.25 -0.726562 9.25 -1.1875 Z M 9.25 -1.1875 "/></g></g></g><g fill="#ffffff" fill-opacity="1"><g transform="translate(163.921799, 25.392065)"><g><path d="M 2.390625 -10.234375 C 2.335938 -10.234375 1.566406 -10.175781 0.078125 -10.0625 C 0.0234375 -10.207031 0 -10.445312 0 -10.78125 C 0 -11.101562 0.117188 -11.316406 0.359375 -11.421875 C 0.609375 -11.523438 1.035156 -11.578125 1.640625 -11.578125 L 2.34375 -11.578125 C 2.300781 -12.691406 2.25 -13.625 2.1875 -14.375 C 2.4375 -14.425781 2.710938 -14.453125 3.015625 -14.453125 C 3.804688 -14.453125 4.203125 -14.132812 4.203125 -13.5 C 4.203125 -13.257812 4.171875 -12.609375 4.109375 -11.546875 C 6.210938 -11.546875 7.609375 -11.59375 8.296875 -11.6875 C 8.359375 -11.550781 8.390625 -11.335938 8.390625 -11.046875 C 8.390625 -10.753906 8.300781 -10.550781 8.125 -10.4375 C 7.957031 -10.320312 7.632812 -10.253906 7.15625 -10.234375 C 6.6875 -10.222656 5.65625 -10.21875 4.0625 -10.21875 C 4.03125 -8.414062 4.015625 -6.664062 4.015625 -4.96875 C 4.015625 -3.269531 4.175781 -2.191406 4.5 -1.734375 C 4.820312 -1.285156 5.34375 -1.0625 6.0625 -1.0625 C 6.789062 -1.0625 7.398438 -1.316406 7.890625 -1.828125 C 8.191406 -1.503906 8.34375 -1.1875 8.34375 -0.875 C 8.34375 -0.5625 8.125 -0.296875 7.6875 -0.078125 C 7.257812 0.140625 6.738281 0.25 6.125 0.25 C 4.75 0.25 3.773438 -0.144531 3.203125 -0.9375 C 2.628906 -1.738281 2.34375 -2.929688 2.34375 -4.515625 C 2.375 -7.515625 2.390625 -9.421875 2.390625 -10.234375 Z M 2.390625 -10.234375 "/></g></g></g><g fill="#ffffff" fill-opacity="1"><g transform="translate(171.492388, 25.392065)"><g><path d="M 7.71875 -8.8125 C 7.53125 -9.289062 7.15625 -9.679688 6.59375 -9.984375 C 6.03125 -10.285156 5.457031 -10.4375 4.875 -10.4375 C 4.28125 -10.4375 3.773438 -10.28125 3.359375 -9.96875 C 2.941406 -9.664062 2.734375 -9.25 2.734375 -8.71875 C 2.734375 -8.1875 2.953125 -7.78125 3.390625 -7.5 C 3.835938 -7.21875 4.375 -7 5 -6.84375 C 5.632812 -6.695312 6.265625 -6.53125 6.890625 -6.34375 C 7.523438 -6.15625 8.0625 -5.8125 8.5 -5.3125 C 8.945312 -4.8125 9.171875 -4.160156 9.171875 -3.359375 C 9.171875 -2.179688 8.742188 -1.285156 7.890625 -0.671875 C 7.046875 -0.0546875 6.082031 0.25 5 0.25 C 3.90625 0.25 2.960938 0.0546875 2.171875 -0.328125 C 1.390625 -0.710938 1 -1.179688 1 -1.734375 C 1 -2.222656 1.367188 -2.570312 2.109375 -2.78125 C 2.296875 -2.257812 2.691406 -1.851562 3.296875 -1.5625 C 3.898438 -1.28125 4.5625 -1.140625 5.28125 -1.140625 C 5.988281 -1.140625 6.5625 -1.296875 7 -1.609375 C 7.445312 -1.929688 7.671875 -2.382812 7.671875 -2.96875 C 7.671875 -3.539062 7.445312 -3.960938 7 -4.234375 C 6.5625 -4.503906 6.03125 -4.707031 5.40625 -4.84375 C 4.78125 -4.988281 4.148438 -5.15625 3.515625 -5.34375 C 2.878906 -5.53125 2.335938 -5.890625 1.890625 -6.421875 C 1.453125 -6.953125 1.234375 -7.679688 1.234375 -8.609375 C 1.234375 -9.523438 1.660156 -10.289062 2.515625 -10.90625 C 3.378906 -11.519531 4.273438 -11.828125 5.203125 -11.828125 C 6.140625 -11.828125 6.976562 -11.648438 7.71875 -11.296875 C 8.46875 -10.953125 8.84375 -10.503906 8.84375 -9.953125 C 8.84375 -9.378906 8.46875 -9 7.71875 -8.8125 Z M 7.71875 -8.8125 "/></g></g></g><g fill="#ffffff" fill-opacity="1"><g transform="translate(180.485555, 25.392065)"><g><path d="M 3.8125 -0.1875 C 3.53125 0.101562 3.179688 0.25 2.765625 0.25 C 2.347656 0.25 1.988281 0.101562 1.6875 -0.1875 C 1.382812 -0.488281 1.234375 -0.867188 1.234375 -1.328125 C 1.234375 -1.773438 1.382812 -2.148438 1.6875 -2.453125 C 1.988281 -2.765625 2.347656 -2.921875 2.765625 -2.921875 C 3.179688 -2.921875 3.53125 -2.765625 3.8125 -2.453125 C 4.101562 -2.148438 4.25 -1.773438 4.25 -1.328125 C 4.25 -0.867188 4.101562 -0.488281 3.8125 -0.1875 Z M 3.8125 -0.1875 "/></g></g></g><path fill="#99cc33" d="M 118.988281 34.234375 L 118.988281 33.484375 L 119.738281 33.484375 L 119.738281 34.234375 M 118.988281 32.734375 L 118.988281 31.984375 L 119.738281 31.984375 L 119.738281 32.734375 M 118.988281 31.234375 L 118.988281 30.484375 L 119.738281 30.484375 L 119.738281 31.234375 M 118.988281 29.734375 L 118.988281 28.984375 L 119.738281 28.984375 L 119.738281 29.734375 M 118.988281 28.238281 L 118.988281 27.488281 L 119.738281 27.488281 L 119.738281 28.238281 M 118.988281 26.738281 L 118.988281 25.988281 L 119.738281 25.988281 L 119.738281 26.738281 M 118.988281 25.238281 L 118.988281 24.488281 L 119.738281 24.488281 L 119.738281 25.238281 M 118.988281 23.738281 L 118.988281 22.988281 L 119.738281 22.988281 L 119.738281 23.738281 M 118.988281 22.238281 L 118.988281 21.488281 L 119.738281 21.488281 L 119.738281 22.238281 M 118.988281 20.742188 L 118.988281 19.992188 L 119.738281 19.992188 L 119.738281 20.742188 M 118.988281 19.242188 L 118.988281 18.492188 L 119.738281 18.492188 L 119.738281 19.242188 M 118.988281 17.742188 L 118.988281 16.992188 L 119.738281 16.992188 L 119.738281 17.742188 M 118.988281 16.242188 L 118.988281 15.492188 L 119.738281 15.492188 L 119.738281 16.242188 M 118.988281 14.742188 L 118.988281 13.996094 L 119.738281 13.996094 L 119.738281 14.742188 M 118.988281 13.246094 L 118.988281 12.496094 L 119.738281 12.496094 L 119.738281 13.246094 M 118.988281 11.746094 L 118.988281 10.996094 L 119.738281 10.996094 L 119.738281 11.746094 M 118.988281 10.246094 L 118.988281 9.496094 L 119.738281 9.496094 L 119.738281 10.246094 M 118.988281 8.746094 L 118.988281 8.007812 L 119.738281 8.007812 L 119.738281 8.746094 " fill-opacity="1" fill-rule="nonzero"/><g clip-path="url(#b3056dff69)"><g clip-path="url(#6890b8421f)"><path fill="#99cc33" d="M 16.179688 7.46875 L 48.304688 7.46875 L 48.304688 36.734375 L 16.179688 36.734375 Z M 16.179688 7.46875 " fill-opacity="1" fill-rule="nonzero"/></g></g><g clip-path="url(#3aeee165ae)"><g clip-path="url(#7b94507e46)"><path fill="#ffffff" d="M 16.179688 7.46875 L 48.304688 7.46875 L 48.304688 36.734375 L 16.179688 36.734375 Z M 16.179688 7.46875 " fill-opacity="1" fill-rule="nonzero"/></g></g></svg>