<svg xmlns="http://www.w3.org/2000/svg" xmlns:xlink="http://www.w3.org/1999/xlink" width="300" zoomAndPan="magnify" viewBox="0 0 224.87999 44.999999" height="60" preserveAspectRatio="xMidYMid meet" version="1.0"><defs><g/><clipPath id="cea6362f1d"><path d="M 0 0.0117188 L 224.761719 0.0117188 L 224.761719 44.988281 L 0 44.988281 Z M 0 0.0117188 " clip-rule="nonzero"/></clipPath></defs><g clip-path="url(#cea6362f1d)"><path fill="#ffffff" d="M 0 0.0117188 L 224.878906 0.0117188 L 224.878906 44.988281 L 0 44.988281 Z M 0 0.0117188 " fill-opacity="1" fill-rule="nonzero"/><path fill="#ffffff" d="M 0 0.0117188 L 224.878906 0.0117188 L 224.878906 44.988281 L 0 44.988281 Z M 0 0.0117188 " fill-opacity="1" fill-rule="nonzero"/></g><g fill="#d14984" fill-opacity="1"><g transform="translate(120.368049, 34.165505)"><g><path d="M 16.496094 -5.820312 C 16.496094 -13.667969 4.691406 -13.039062 4.691406 -16.730469 C 4.691406 -19.125 6.585938 -20.488281 8.8125 -20.488281 C 11.140625 -20.488281 13.003906 -18.625 13.902344 -16.5625 L 16.066406 -17.460938 C 14.800781 -20.320312 12.238281 -22.816406 8.945312 -22.816406 C 5.320312 -22.816406 2.0625 -20.519531 2.0625 -16.695312 C 2.0625 -10.476562 13.835938 -11.972656 13.835938 -5.855469 C 13.835938 -3.160156 11.875 -1.996094 9.480469 -1.996094 C 6.519531 -1.996094 4.589844 -4.125 3.160156 -6.417969 L 1.164062 -5.289062 C 2.925781 -2.09375 5.71875 0.367188 9.480469 0.367188 C 13.105469 0.367188 16.496094 -1.863281 16.496094 -5.820312 Z M 16.496094 -5.820312 "/></g></g></g><g fill="#d14984" fill-opacity="1"><g transform="translate(137.326215, 34.165505)"><g><path d="M 10.277344 -1.960938 C 8.582031 -1.960938 6.1875 -1.53125 6.1875 -4.125 L 6.1875 -14.535156 L 10.277344 -14.535156 L 10.277344 -16.53125 L 6.1875 -16.53125 L 6.1875 -22.816406 L 3.859375 -22.816406 L 3.859375 -16.53125 L 1.164062 -16.53125 L 1.164062 -14.535156 L 3.859375 -14.535156 L 3.859375 -4.125 C 3.859375 -1.03125 5.6875 0.367188 8.714844 0.367188 L 10.277344 0.367188 Z M 10.277344 -1.960938 "/></g></g></g><g fill="#d14984" fill-opacity="1"><g transform="translate(148.066279, 34.165505)"><g><path d="M 13.703125 -9.777344 C 13.703125 -13.601562 12.539062 -16.863281 8.082031 -16.863281 C 5.253906 -16.863281 3.660156 -15.699219 2.09375 -13.503906 L 3.957031 -12.074219 C 5.054688 -13.703125 6.019531 -14.535156 8.082031 -14.535156 C 10.644531 -14.535156 11.175781 -13.039062 11.339844 -10.777344 C 6.917969 -9.976562 1.164062 -8.8125 1.164062 -4.191406 C 1.164062 -1.496094 3.59375 0.367188 6.152344 0.367188 C 8.050781 0.367188 10.011719 -1.03125 11.375 -2.128906 L 11.707031 0 L 13.703125 0 Z M 11.40625 -4.355469 C 10.144531 -3.191406 7.949219 -1.960938 6.152344 -1.960938 C 4.789062 -1.960938 3.792969 -2.859375 3.792969 -4.324219 C 3.792969 -7.417969 8.613281 -8.746094 11.40625 -9.546875 Z M 11.40625 -4.355469 "/></g></g></g><g fill="#d14984" fill-opacity="1"><g transform="translate(162.264538, 34.165505)"><g><path d="M 8.945312 -16.894531 C 6.984375 -16.894531 4.523438 -16.132812 3.492188 -14.46875 L 3.492188 -16.53125 L 1.164062 -16.53125 L 1.164062 0 L 3.492188 0 L 3.492188 -11.441406 C 4.65625 -13.402344 6.683594 -14.566406 8.945312 -14.566406 Z M 8.945312 -16.894531 "/></g></g></g><g fill="#d14984" fill-opacity="1"><g transform="translate(171.674536, 34.165505)"><g><path d="M 10.277344 -1.960938 C 8.582031 -1.960938 6.1875 -1.53125 6.1875 -4.125 L 6.1875 -14.535156 L 10.277344 -14.535156 L 10.277344 -16.53125 L 6.1875 -16.53125 L 6.1875 -22.816406 L 3.859375 -22.816406 L 3.859375 -16.53125 L 1.164062 -16.53125 L 1.164062 -14.535156 L 3.859375 -14.535156 L 3.859375 -4.125 C 3.859375 -1.03125 5.6875 0.367188 8.714844 0.367188 L 10.277344 0.367188 Z M 10.277344 -1.960938 "/></g></g></g><g fill="#d14984" fill-opacity="1"><g transform="translate(182.4146, 34.165505)"><g><path d="M 12.738281 -16.53125 L 10.410156 -16.53125 L 10.410156 -4.390625 C 9.347656 -3.09375 7.582031 -1.960938 5.71875 -1.960938 C 4.089844 -1.960938 3.492188 -3.757812 3.492188 -5.121094 L 3.492188 -16.53125 L 1.164062 -16.53125 L 1.164062 -5.121094 C 1.164062 -2.429688 2.660156 0.367188 5.6875 0.367188 C 7.515625 0.367188 9.113281 -0.566406 10.410156 -1.761719 L 10.742188 0 L 12.738281 0 Z M 12.738281 -16.53125 "/></g></g></g><g fill="#d14984" fill-opacity="1"><g transform="translate(195.615307, 34.165505)"><g><path d="M 15 -8.148438 C 15 -12.40625 12.273438 -16.894531 7.617188 -16.894531 C 5.988281 -16.894531 4.523438 -15.996094 3.492188 -14.96875 L 3.160156 -16.53125 L 1.164062 -16.53125 L 1.164062 5.320312 L 3.492188 5.320312 L 3.492188 -1.695312 C 4.65625 -0.597656 6.121094 0.265625 7.617188 0.265625 C 12.007812 0.265625 15 -4.023438 15 -8.148438 Z M 3.492188 -12.171875 C 4.125 -13.335938 5.71875 -14.601562 7.550781 -14.601562 C 10.742188 -14.601562 12.339844 -11.242188 12.339844 -8.414062 C 12.339844 -5.554688 10.910156 -2.0625 7.683594 -2.0625 C 5.753906 -2.0625 4.191406 -3.527344 3.492188 -4.757812 Z M 3.492188 -12.171875 "/></g></g></g><g fill="#000000" fill-opacity="1"><g transform="translate(10.29443, 31.284444)"><g><path d="M 1.96875 -22.421875 C 1.9375 -22.421875 1.957031 -22.429688 2.03125 -22.453125 C 2.144531 -22.472656 2.484375 -22.484375 3.046875 -22.484375 C 3.609375 -22.484375 4.410156 -22.484375 5.453125 -22.484375 L 9.1875 -22.484375 L 9.1875 2.53125 L 2.421875 2.53125 L 2.421875 -21.921875 L 2.296875 -22.125 C 2.160156 -22.257812 2.050781 -22.359375 1.96875 -22.421875 Z M 11.609375 -22.65625 C 11.828125 -22.675781 12.085938 -22.691406 12.390625 -22.703125 C 12.691406 -22.710938 13.039062 -22.707031 13.4375 -22.6875 C 14.375 -22.644531 15.226562 -22.546875 16 -22.390625 C 16.78125 -22.234375 17.5 -21.988281 18.15625 -21.65625 C 18.820312 -21.320312 19.4375 -20.894531 20 -20.375 C 20.570312 -19.851562 21.125 -19.191406 21.65625 -18.390625 C 22.65625 -16.859375 23.34375 -15.117188 23.71875 -13.171875 C 24.050781 -11.398438 24.140625 -9.679688 23.984375 -8.015625 C 23.828125 -6.441406 23.445312 -5 22.84375 -3.6875 C 22.25 -2.382812 21.460938 -1.253906 20.484375 -0.296875 C 19.515625 0.648438 18.367188 1.382812 17.046875 1.90625 C 15.722656 2.425781 14.253906 2.6875 12.640625 2.6875 C 12.148438 2.6875 11.707031 2.660156 11.3125 2.609375 C 10.914062 2.554688 10.535156 2.472656 10.171875 2.359375 C 10.085938 2.335938 10.046875 1.550781 10.046875 0 L 10.046875 -2.328125 L 11.109375 -2.328125 C 12.222656 -2.328125 13.15625 -2.492188 13.90625 -2.828125 C 14.65625 -3.160156 15.265625 -3.628906 15.734375 -4.234375 C 16.203125 -4.847656 16.539062 -5.585938 16.75 -6.453125 C 16.957031 -7.316406 17.082031 -8.289062 17.125 -9.375 C 17.175781 -10.195312 17.160156 -11.085938 17.078125 -12.046875 C 17.003906 -13.015625 16.820312 -13.890625 16.53125 -14.671875 C 16.332031 -15.242188 16.050781 -15.71875 15.6875 -16.09375 C 15.320312 -16.476562 14.910156 -16.785156 14.453125 -17.015625 C 13.992188 -17.242188 13.503906 -17.414062 12.984375 -17.53125 C 12.460938 -17.644531 11.925781 -17.710938 11.375 -17.734375 L 10.046875 -17.765625 L 10.046875 -22.359375 L 10.578125 -22.484375 C 10.972656 -22.597656 11.316406 -22.65625 11.609375 -22.65625 Z M 11.609375 -22.65625 "/></g></g></g><g fill="#000000" fill-opacity="1"><g transform="translate(34.567761, 31.284444)"><g><path d="M 14.296875 -16.9375 L 14.640625 -16.9375 L 14.609375 -14.140625 L 14.609375 -10.71875 L 14.078125 -10.75 C 12.921875 -10.8125 11.929688 -10.632812 11.109375 -10.21875 C 10.640625 -9.96875 10.222656 -9.53125 9.859375 -8.90625 C 9.492188 -8.289062 9.242188 -7.570312 9.109375 -6.75 C 9.046875 -6.414062 9.015625 -4.785156 9.015625 -1.859375 L 9.015625 2.53125 L 2.328125 2.53125 L 2.328125 -6.75 C 2.328125 -9.875 2.320312 -12.191406 2.3125 -13.703125 C 2.300781 -15.210938 2.273438 -15.988281 2.234375 -16.03125 C 2.117188 -16.28125 1.960938 -16.445312 1.765625 -16.53125 C 1.742188 -16.550781 1.753906 -16.570312 1.796875 -16.59375 C 1.910156 -16.613281 2.257812 -16.625 2.84375 -16.625 C 3.425781 -16.625 4.253906 -16.625 5.328125 -16.625 L 9.015625 -16.625 L 9.015625 -13.375 L 9.25 -13.84375 C 9.664062 -14.832031 10.34375 -15.59375 11.28125 -16.125 C 12.226562 -16.664062 13.234375 -16.9375 14.296875 -16.9375 Z M 14.296875 -16.9375 "/></g></g></g><g fill="#000000" fill-opacity="1"><g transform="translate(48.366766, 31.284444)"><g><path d="M 9.484375 -16.859375 C 9.660156 -16.890625 9.878906 -16.90625 10.140625 -16.90625 C 10.410156 -16.90625 10.734375 -16.90625 11.109375 -16.90625 C 11.484375 -16.875 11.8125 -16.847656 12.09375 -16.828125 C 12.375 -16.804688 12.613281 -16.773438 12.8125 -16.734375 C 14.132812 -16.515625 15.25 -16.097656 16.15625 -15.484375 C 17.070312 -14.878906 17.800781 -14.128906 18.34375 -13.234375 C 18.882812 -12.347656 19.28125 -11.363281 19.53125 -10.28125 C 19.789062 -9.195312 19.929688 -8.054688 19.953125 -6.859375 L 19.953125 -5.78125 L 14.109375 -5.75 L 8.25 -5.75 L 8.1875 -5.484375 C 8.164062 -5.265625 8.1875 -4.84375 8.25 -4.21875 C 8.34375 -3.488281 8.550781 -2.878906 8.875 -2.390625 C 9.207031 -1.898438 9.796875 -1.65625 10.640625 -1.65625 C 11.171875 -1.65625 11.640625 -1.765625 12.046875 -1.984375 C 12.460938 -2.210938 12.757812 -2.59375 12.9375 -3.125 C 13.050781 -3.394531 13.117188 -3.53125 13.140625 -3.53125 C 13.222656 -3.570312 14.3125 -3.59375 16.40625 -3.59375 C 18.507812 -3.59375 19.582031 -3.570312 19.625 -3.53125 C 19.6875 -3.53125 19.609375 -3.265625 19.390625 -2.734375 C 18.992188 -1.710938 18.492188 -0.851562 17.890625 -0.15625 C 17.296875 0.539062 16.617188 1.109375 15.859375 1.546875 C 15.109375 1.984375 14.285156 2.296875 13.390625 2.484375 C 12.492188 2.671875 11.535156 2.765625 10.515625 2.765625 C 9.597656 2.765625 8.671875 2.660156 7.734375 2.453125 C 6.796875 2.253906 5.945312 1.914062 5.1875 1.4375 C 5.070312 1.363281 4.921875 1.242188 4.734375 1.078125 C 4.546875 0.910156 4.359375 0.726562 4.171875 0.53125 C 3.984375 0.332031 3.800781 0.132812 3.625 -0.0625 C 3.445312 -0.257812 3.316406 -0.425781 3.234375 -0.5625 C 2.546875 -1.5 2.039062 -2.59375 1.71875 -3.84375 C 1.394531 -5.09375 1.273438 -6.394531 1.359375 -7.75 C 1.554688 -10.382812 2.34375 -12.484375 3.71875 -14.046875 C 5.09375 -15.617188 7.015625 -16.554688 9.484375 -16.859375 Z M 11.4375 -12.609375 C 11.332031 -12.628906 11.21875 -12.644531 11.09375 -12.65625 C 10.96875 -12.664062 10.851562 -12.671875 10.75 -12.671875 C 9.8125 -12.671875 9.171875 -12.394531 8.828125 -11.84375 C 8.484375 -11.289062 8.269531 -10.59375 8.1875 -9.75 L 8.109375 -9.3125 L 13.4375 -9.3125 L 13.40625 -9.546875 C 13.382812 -10.015625 13.285156 -10.484375 13.109375 -10.953125 C 12.929688 -11.429688 12.742188 -11.804688 12.546875 -12.078125 C 12.316406 -12.367188 11.945312 -12.546875 11.4375 -12.609375 Z M 11.4375 -12.609375 "/></g></g></g><g fill="#000000" fill-opacity="1"><g transform="translate(68.350612, 31.284444)"><g><path d="M 10.984375 -16.9375 C 11.910156 -16.9375 12.8125 -16.867188 13.6875 -16.734375 C 14.5625 -16.597656 15.359375 -16.351562 16.078125 -16 C 16.804688 -15.644531 17.441406 -15.15625 17.984375 -14.53125 C 18.523438 -13.914062 18.941406 -13.117188 19.234375 -12.140625 L 19.390625 -11.640625 L 19.390625 2.53125 L 12.84375 2.53125 L 12.84375 -5.71875 L 11.015625 -5.6875 L 9.140625 -5.6875 L 8.78125 -5.515625 C 8.40625 -5.335938 8.160156 -4.972656 8.046875 -4.421875 C 7.867188 -3.578125 8.035156 -2.890625 8.546875 -2.359375 C 8.878906 -1.960938 9.46875 -1.765625 10.3125 -1.765625 C 10.625 -1.765625 10.929688 -1.789062 11.234375 -1.84375 C 11.546875 -1.894531 11.835938 -1.988281 12.109375 -2.125 C 12.148438 -2.125 12.171875 -2.101562 12.171875 -2.0625 C 12.191406 -1.96875 12.203125 -1.328125 12.203125 -0.140625 L 12.203125 1.859375 L 11.875 2.0625 C 11.300781 2.351562 10.679688 2.554688 10.015625 2.671875 C 9.347656 2.796875 8.691406 2.859375 8.046875 2.859375 C 7.671875 2.859375 7.316406 2.84375 6.984375 2.8125 C 6.648438 2.78125 6.328125 2.71875 6.015625 2.625 C 4.378906 2.1875 3.101562 1.320312 2.1875 0.03125 C 1.28125 -1.25 0.863281 -2.753906 0.9375 -4.484375 C 1.0625 -7.304688 2.566406 -8.992188 5.453125 -9.546875 C 5.765625 -9.585938 7.085938 -9.632812 9.421875 -9.6875 L 12.84375 -9.71875 L 12.8125 -10.3125 C 12.757812 -11.15625 12.523438 -11.695312 12.109375 -11.9375 C 11.691406 -12.1875 11.101562 -12.3125 10.34375 -12.3125 C 10.207031 -12.3125 10.023438 -12.296875 9.796875 -12.265625 C 9.566406 -12.242188 9.328125 -12.207031 9.078125 -12.15625 C 8.835938 -12.101562 8.613281 -12.023438 8.40625 -11.921875 C 8.207031 -11.828125 8.078125 -11.691406 8.015625 -11.515625 L 7.953125 -11.34375 L 1.859375 -11.34375 C 1.859375 -11.476562 2.046875 -11.941406 2.421875 -12.734375 C 2.753906 -13.335938 3.160156 -13.90625 3.640625 -14.4375 C 4.117188 -14.96875 4.578125 -15.390625 5.015625 -15.703125 C 5.929688 -16.273438 6.894531 -16.625 7.90625 -16.75 C 8.914062 -16.875 9.941406 -16.9375 10.984375 -16.9375 Z M 10.984375 -16.9375 "/></g></g></g><g fill="#000000" fill-opacity="1"><g transform="translate(88.60047, 31.284444)"><g><path d="M 12.515625 -16.796875 C 12.992188 -16.867188 13.582031 -16.890625 14.28125 -16.859375 C 14.976562 -16.835938 15.539062 -16.773438 15.96875 -16.671875 C 17.050781 -16.378906 17.9375 -15.734375 18.625 -14.734375 C 18.71875 -14.554688 18.773438 -14.46875 18.796875 -14.46875 C 18.816406 -14.46875 18.960938 -14.601562 19.234375 -14.875 C 20.316406 -15.914062 21.632812 -16.554688 23.1875 -16.796875 C 24.25 -16.953125 25.265625 -16.894531 26.234375 -16.625 C 27.210938 -16.363281 28.003906 -15.929688 28.609375 -15.328125 C 29.453125 -14.492188 30.0625 -13.234375 30.4375 -11.546875 C 30.476562 -11.234375 30.507812 -8.828125 30.53125 -4.328125 L 30.578125 2.53125 L 23.890625 2.53125 L 23.890625 -10.40625 L 23.71875 -10.8125 C 23.539062 -11.363281 23.238281 -11.6875 22.8125 -11.78125 C 22.039062 -12.019531 21.390625 -12.007812 20.859375 -11.75 C 20.410156 -11.519531 20.03125 -10.941406 19.71875 -10.015625 L 19.59375 -9.609375 L 19.59375 -3.59375 L 19.5625 2.53125 L 12.84375 2.53125 L 12.84375 -10.640625 L 12.734375 -10.984375 C 12.515625 -11.554688 12.019531 -11.882812 11.25 -11.96875 C 10.601562 -12.019531 10.066406 -11.84375 9.640625 -11.4375 C 9.285156 -11.0625 9.03125 -10.566406 8.875 -9.953125 C 8.851562 -9.835938 8.832031 -9.703125 8.8125 -9.546875 C 8.789062 -9.390625 8.78125 -9.164062 8.78125 -8.875 C 8.757812 -8.59375 8.75 -8.003906 8.75 -7.109375 C 8.75 -6.222656 8.75 -5.03125 8.75 -3.53125 L 8.75 2.53125 L 2.125 2.53125 L 2.125 -8.78125 C 2.125 -10.726562 2.125 -12.238281 2.125 -13.3125 C 2.125 -14.394531 2.113281 -15.101562 2.09375 -15.4375 C 2.050781 -16.082031 1.960938 -16.4375 1.828125 -16.5 C 1.804688 -16.519531 1.785156 -16.53125 1.765625 -16.53125 C 1.691406 -16.570312 1.722656 -16.601562 1.859375 -16.625 L 8.75 -16.625 L 8.75 -14.375 L 8.984375 -14.703125 C 9.773438 -15.878906 10.953125 -16.578125 12.515625 -16.796875 Z M 12.515625 -16.796875 "/></g></g></g></svg>